<?xml version="1.0" standalone="no"?>
<!DOCTYPE svg PUBLIC "-//W3C//DTD SVG 1.1//EN" "http://www.w3.org/Graphics/SVG/1.1/DTD/svg11.dtd" >
<svg xmlns="http://www.w3.org/2000/svg">
<metadata></metadata>
<defs>
<font id="kaufmannregular" horiz-adv-x="726" >
<font-face units-per-em="2048" ascent="1638" descent="-410" />
<missing-glyph horiz-adv-x="579" />
<glyph unicode="&#xd;" horiz-adv-x="579" />
<glyph unicode=" "  horiz-adv-x="579" />
<glyph unicode="&#x09;" horiz-adv-x="579" />
<glyph unicode="&#xa0;" horiz-adv-x="579" />
<glyph unicode="!" horiz-adv-x="541" d="M85 47q0 13 4.5 28t11.5 29q13 25 29.5 40t38.5 15q9 0 19 -4t18.5 -18t8.5 -34q0 -30 -15 -56q-10 -22 -29.5 -36.5t-39.5 -14.5q-12 0 -24 7q-22 12 -22 44zM200 291q0 18 11 47.5t23 56.5l273 752q9 34 15.5 53.5t21.5 27.5t22 11q12 4 21 5q12 0 21 -8.5t9 -24.5 q0 -19 -13 -39q-19 -28 -22 -38l-145 -377q-24 -63 -67 -179q-69 -191 -74 -200q-13 -37 -25 -74q-18 -41 -43 -41q-7 0 -17.5 3t-10.5 25z" />
<glyph unicode="&#x22;" horiz-adv-x="588" d="M468 1217q0 3 2 15l87 275q3 13 15 22q21 15 57 15q28 0 39 -6t11 -15q0 -4 -1 -9q-4 -6 -5 -7l-135 -272q-7 -18 -19.5 -31t-27.5 -13q-24 0 -23 26zM667 1217q0 3 3 15l87 275q7 19 26.5 28t47.5 9t38 -6t10 -15q0 -4 -1 -9q-3 -6 -3 -7l-137 -272q-9 -19 -20 -31.5 t-26 -12.5q-25 0 -25 26z" />
<glyph unicode="#" horiz-adv-x="1389" d="M97 490q-12 26 69.5 53t228.5 47l64 7l94 137q47 66 122 169q82 112 131 176l-55 -7q-88 -7 -189.5 -31.5t-133 -32t-62.5 -13.5q-28 0 -43 25q31 28 64 56q60 18 201 37q110 13 222 28l43 6q9 18 75 100q72 90 110 128q25 26 50 53q31 31 48 30q10 0 18 -8q3 -3 5 -8 q3 -7 2 -13q0 -21 -35 -56q-54 -54 -70 -75q-34 -44 -52 -69q-31 -41 -65 -79q16 1 27 3q78 10 103 10l142 9q41 57 86 110.5t79 84.5q31 32 46 47q29 29 44 30q9 0 18.5 -10.5t9.5 -23.5q0 -19 -37 -53q-54 -50 -72 -72l-81 -104h27q56 0 114 2t93 3q54 0 67 -2 q37 -10 33 -39q-3 -21 -15.5 -28t-37.5 -7q-24 0 -38 1q-72 7 -83 8q-44 0 -70 -2q-131 -7 -146 -7q-22 -29 -54 -69q-41 -53 -88 -115q-29 -40 -81 -110q-116 -162 -131 -181h351h46q35 0 59.5 -3.5t19.5 -31.5q-4 -28 -48 -28q-25 0 -40 1q-75 7 -87 8l-216 -6 q-35 0 -70.5 -3.5t-54.5 -3.5l-54 -84q-40 -62 -71 -115.5t-60 -106.5q-13 -25 -25 -49q-18 -25 -56 -25q-24 0 -23 24q0 41 86 169q57 82 80 113l47 66q-15 -1 -68.5 -4t-99 -8t-57.5 -7q-34 -7 -58 -10l-41 -63q-19 -34 -58 -96t-75 -121q-21 -32 -24 -33q-16 -13 -59 -14 q-10 0 -10 12q0 29 56 116q43 66 104 147l34 44q-63 -12 -120.5 -22t-93.5 -19t-50 -11.5t-27 -2.5q-24 0 -34 22zM541 606l143 14l133 8l56 87q79 113 134 186q80 106 159 203l-147 -12l-146 -13l-97 -141q-15 -19 -96.5 -135t-104.5 -150z" />
<glyph unicode="$" horiz-adv-x="840" d="M100 291q0 32 12.5 60t37.5 21q22 -6 22 -37q0 -12 -1.5 -25.5t-2.5 -27.5q0 -85 67 -132q49 -34 100 -34q122 0 200 69t78 178q0 87 -59 165l-73 98q-38 51 -46 64q-38 59 -38 119q0 115 78.5 209.5t191.5 94.5q28 0 46 32q9 16 16 39l21 58q12 35 41 36q6 0 15.5 -6 t9.5 -22t-7 -31l-28 -65q-9 -24 -9 -34t3 -16q4 -12 22.5 -21.5t24.5 -13.5l37 -37q26 -33 35 -90q3 -34 -7.5 -50.5t-26.5 -19.5q-22 -3 -25.5 26.5t-6.5 58.5q-9 46 -48 68t-93 22q-88 0 -152.5 -67t-64.5 -142q0 -47 14 -79.5t50 -73.5l47 -54q40 -46 70 -113 q37 -81 37 -149q0 -129 -93.5 -221t-228.5 -92q-24 0 -35 1q-7 1 -9 0q-6 -12 -10 -25l-64 -139q-9 -26 -16 -53q-10 -22 -50 -18q-16 0 -16 24q0 18 7 35l58 134q10 24 10 41q0 22 -16 28q-49 18 -84 70q-41 60 -41 137z" />
<glyph unicode="%" horiz-adv-x="1195" d="M241 25q0 34 52 128q46 84 119 195q34 53 129 190q37 53 156.5 211t214.5 276q112 140 135 157q10 7 47 49q29 32 44 32q9 0 16 -9q10 -12 10 -23q0 -22 -53 -71q-37 -34 -55 -57q-109 -137 -155 -197q-72 -96 -119 -164q-10 -15 -117 -150q-51 -63 -115 -158 q-41 -63 -94 -153q-109 -187 -119 -202q-12 -29 -22 -57q-12 -13 -52 -13q-22 0 -22 16zM328 875q0 32 6.5 67.5t19.5 77.5q34 113 112 197q84 91 168 91q28 0 50 -10q40 -18 56.5 -56.5t16.5 -91.5q0 -35 -7 -76.5t-19 -75.5q-37 -110 -121 -198t-160 -88q-32 0 -63 24 t-45 58t-14 81zM403 903q0 -81 42 -96q13 -4 27 -4q56 0 112 61t78 139q10 35 16.5 67.5t6.5 60.5q0 35 -10 55.5t-35 29.5q-7 3 -18 4q-9 1 -16 2q-35 0 -71.5 -28t-84 -113.5t-47.5 -177.5zM606 154q0 32 6.5 67.5t19.5 78.5q34 113 112 197q84 91 168 91q28 0 50 -10 q40 -18 56.5 -57t16.5 -92q0 -35 -7 -76t-19 -75q-37 -110 -121 -198.5t-160 -88.5q-32 0 -63 24.5t-45 58t-14 80.5zM681 182q0 -81 42 -95q13 -4 27 -5q56 0 111.5 61t77.5 139q10 35 17 67.5t7 60.5q0 35 -10.5 56t-35.5 29q-7 3 -17 5q-9 1 -16 1q-35 0 -71.5 -28 t-84 -113t-47.5 -178z" />
<glyph unicode="&#x26;" horiz-adv-x="977" d="M62 163q0 40 34.5 104t84.5 103l37 31q41 26 57 39q29 21 40 54q3 12 3 18q0 18 -49 108q-24 44 -23 77q0 12 1 18q31 178 162.5 280t315.5 102q65 0 113 -25q59 -31 59 -85q0 -50 -28 -84q-6 -7 -132 -100q-46 -32 -130 -130q-59 -66 -78 -53q-18 12 -17 30q0 34 53 90 q16 16 54 50l93 82q37 28 75 56q38 34 29 64q-4 16 -27.5 25t-57.5 9q-63 0 -134.5 -21t-123.5 -58q-72 -51 -107 -110q-40 -65 -40 -146q0 -38 22 -81q50 -96 50 -117q0 -19 -169 -181q-79 -76 -79 -153q0 -49 28.5 -71t80.5 -22q85 0 187 51.5t141 110.5q7 12 7 28 q0 24 -15 42l-48 67q-7 12 -8 25q0 26 18 35.5t25 9.5q10 0 18 -10q1 -1 11 -21l36 -64q4 -15 7 -21q6 -12 15 -15q13 -4 25 8q4 4 19 26l45 66q13 18 23 27t27 9q13 0 34 -9q7 -4 8 -12q0 -7 -5.5 -16.5t-11.5 -15.5l-94 -106q-9 -10 -13 -16q-9 -13 -9 -31q0 -15 8 -30 q3 -4 10 -16l93 -137q4 -6 8 -11q6 -7 5 -14q-3 -10 -27 -13l-25 -1q-6 -1 -19.5 5.5t-24.5 25.5l-72 120q-6 10 -22 10q-10 0 -16 -5q-147 -143 -281 -165q-62 -4 -72 -6q-57 -6 -118 24q-87 43 -86 142z" />
<glyph unicode="'" horiz-adv-x="407" d="M479 1211q0 3 3 15l87 277q9 19 26.5 27.5t46.5 8.5q28 0 38.5 -5.5t10.5 -16.5q0 -1 -4 -14l-137 -272q-9 -19 -20 -32t-26 -13q-25 0 -25 25z" />
<glyph unicode="(" horiz-adv-x="532" d="M171 231q0 122 13.5 241t44.5 207q51 147 77 209q46 113 104 210q49 81 127 177q50 59 101 119q25 31 52 51q32 25 57 25q14 0 26 -9q15 -13 15 -28q0 -21 -37.5 -57.5t-74.5 -71.5q-113 -126 -154 -184q-68 -94 -104 -181q-63 -154 -70 -169q-32 -85 -57.5 -186.5 t-35 -239t-9.5 -240.5q0 -13 3.5 -46t3.5 -40q0 -26 -6.5 -40.5t-27.5 -20.5q-22 -6 -35 72t-13 202z" />
<glyph unicode=")" horiz-adv-x="521" d="M-47 -19q0 22 36.5 58t75.5 73q90 94 156.5 187.5t101.5 176.5q65 153 86.5 212.5t40.5 137.5q28 107 40 275q7 103 7 210q0 15 -3.5 47.5t-3.5 39.5q0 24 3.5 38.5t28.5 21.5q22 6 36 -70.5t14 -199.5q0 -125 -14 -241t-46 -210q-56 -160 -75 -209q-43 -107 -105 -212 q-46 -75 -128 -175q-50 -60 -100 -119q-25 -31 -55 -54.5t-55 -23.5q-15 0 -28 11t-13 26z" />
<glyph unicode="*" horiz-adv-x="560" d="M453 1270q0 7 16 16q44 21 70 34t62 36l-72 79q-6 6 -6 13q0 13 21 27t22 14q4 0 12 -11q13 -21 19 -33.5t28 -63.5l38 136q4 18 37 18q22 0 22 -9q0 -4 -7 -19q-29 -66 -58 -131l118 97q15 9 17 9q6 0 18 -13q9 -12 9 -16q0 -6 -16 -18q-28 -19 -69.5 -43.5t-74.5 -41.5 q18 -19 42 -46q12 -12 34 -35q12 -12 12 -19q0 -4 -6 -11q-9 -7 -15 -11q-12 -12 -22 -12q-12 0 -20 16l-49 99q-7 -43 -13 -71t-15 -57q-3 -12 -6.5 -22.5t-30.5 -10.5q-24 0 -23 11q0 6 7 23q28 66 33 78q16 40 19 49l-118 -90q-9 -7 -16 -7q-6 0 -12.5 17.5t-6.5 18.5z " />
<glyph unicode="+" horiz-adv-x="873" d="M71 279l30 80h278l109 282h77l-109 -284h281l-31 -78h-283l-107 -282h-73l107 282h-279z" />
<glyph unicode="," horiz-adv-x="476" d="M-25 -168q0 16 7 36l75 172q7 15 17 48.5t21 49.5t28 16l62 5q22 3 34 -13q12 -15 -29 -64q-26 -32 -37 -48l-109 -180q-16 -28 -19 -32q-13 -19 -26 -19q-1 0 -11 3q-13 7 -13 26z" />
<glyph unicode="-" horiz-adv-x="611" d="M75 303q0 9 4.5 19t11 26.5t32.5 16.5h280q22 0 26 -2q10 -3 11 -18q-1 -9 -5 -22q-7 -21 -10 -26q-9 -13 -34 -13h-282q-34 0 -34 19z" />
<glyph unicode="." horiz-adv-x="486" d="M43 25q0 16 5 30t18 37t30 38.5t39 15.5q7 0 21.5 -5.5t20 -18t5.5 -29.5q0 -33 -19 -62q-12 -22 -34 -37.5t-44 -15.5q-16 0 -29 12.5t-13 34.5z" />
<glyph unicode="/" horiz-adv-x="721" d="M-19 25q0 32 53 128q49 88 119 195q37 56 129 190q37 53 158 212q115 150 213 275q112 141 134 157q12 7 48 49q29 32 44 32q7 0 16 -9t9 -23q0 -19 -37 -55q-56 -53 -72 -73q-109 -137 -154 -197q-72 -96 -119 -164q-4 -7 -118 -150q-43 -54 -113 -158 q-44 -65 -150 -250q-43 -75 -65 -105q-12 -29 -22 -57q-12 -13 -51 -13q-22 0 -22 16z" />
<glyph unicode="0" horiz-adv-x="971" d="M122 319q0 69 13 136t40 158q68 223 225 396q169 184 334 183q53 0 98 -20q79 -35 114.5 -112.5t35.5 -184.5q0 -75 -14 -148.5t-40 -157.5q-72 -221 -240.5 -396.5t-321.5 -175.5q-69 0 -125 43q-63 50 -91 120.5t-28 158.5zM200 321q0 -96 25 -158.5t81 -83.5 q35 -12 66 -11q137 0 282 160q137 151 194 341q25 84 41.5 166t16.5 154q0 85 -24 134q-28 57 -90 78q-21 7 -43.5 10t-41.5 3q-90 0 -172 -64q-100 -79 -216 -284q-54 -96 -86.5 -216.5t-32.5 -228.5z" />
<glyph unicode="1" horiz-adv-x="495" d="M12 4q0 24 66 130q46 72 54 91q75 157 150 316l113 256q6 15 12 28t6 19q0 10 -9 15q-9 4 -20 0.5t-24 -12.5l-75 -49q-25 -13 -29 -14q-10 -3 -19 1t-9 15q0 12 9.5 24.5t22.5 22.5q1 4 62 41q66 41 96 72q32 24 64 49q19 22 46 80q16 37 50.5 73t58.5 36q12 0 19 -16 q4 -13 4 -23q0 -25 -20 -58q-12 -18 -22.5 -34t-34.5 -37t-33 -39q-37 -74 -78 -177q-32 -81 -63 -161q-35 -90 -74 -168q-60 -123 -119 -247l-66 -120q-19 -37 -37 -72q-31 -53 -91 -53q-10 0 -10 11z" />
<glyph unicode="2" horiz-adv-x="1042" d="M-35 69q-9 46 41 79t103 33q47 0 92 -8q16 -3 70 -14q6 -1 10 -2h6q25 0 53 21q10 9 47 43l119 114q84 79 182 200q71 85 126 165q49 69 83.5 154t34.5 149q0 57 -29 81q-44 35 -102 35q-82 0 -179 -78q-88 -71 -149 -169q-16 -26 -38 -27q-6 0 -15 6q-24 18 -11 36 l56 75q81 110 155 163q94 66 212 66q84 0 135 -66q42 -53 42 -112q0 -94 -31 -175q-25 -65 -81 -146q-22 -32 -105 -136q-66 -84 -126 -147q-53 -54 -144 -137l-87 -78q-13 -10 -20.5 -19t-20.5 -29q21 -21 43 -42q100 -38 223 -38q35 0 89.5 17t113.5 36q10 0 12.5 -10 t2.5 -18q0 -54 -83 -78q-57 -16 -153 -16q-82 0 -165.5 28.5t-161.5 56.5q-62 -34 -124 -64.5t-119 -30.5q-47 0 -73.5 21t-33.5 61zM43 78q0 -7 3 -12q6 -10 20.5 -15t20.5 -7q6 -1 17 -1q32 0 62.5 18t30.5 39q0 16 -15.5 24t-37.5 8q-19 0 -39 -4.5t-41 -18t-21 -31.5z " />
<glyph unicode="3" horiz-adv-x="874" d="M44 243q0 38 15.5 75.5t37.5 28.5t22 -41q0 -9 -2 -23.5t-4 -22.5q-1 -6 -2.5 -17.5t-1.5 -19.5q0 -65 34 -105q49 -57 153 -58q143 0 266 125q118 119 117 235v15q0 62 -19 103q-24 49 -73 65q-11 3 -19 3q-4 0 -56 -14q-22 -6 -37 -2q-46 7 -55 10q-29 10 -33 34 q-7 29 31 44q13 6 75 14q16 3 35.5 -2.5t44.5 -11.5q9 0 21 4q107 49 191 155q76 97 77 164q-1 7 -2 12q-9 49 -34 75q-29 31 -85 31q-83 0 -173 -68q-79 -57 -159 -113q-6 7 -6 19q0 59 116 146q122 91 221 91q74 0 127 -35q72 -48 72 -142q0 -100 -85 -201 q-93 -82 -185 -165l1 -22q37 -44 65 -97t28 -100q0 -175 -139 -308t-326 -133q-103 0 -173 59q-81 68 -81 193z" />
<glyph unicode="4" horiz-adv-x="937" d="M46 334q0 24 20 50q12 15 44 44q12 10 28 17q44 21 50 25q28 22 74 102q24 41 47 84q56 96 104 213q44 110 90 220l44 105q13 32 43 32q7 0 16.5 -6t11.5 -18.5t-1 -20.5l-36 -92q-63 -150 -149 -323q-26 -53 -64.5 -125t-76.5 -143q-12 -24 19 -30q88 -1 122 -9 q71 -9 141 -18q15 -6 43 52t54 114q13 25 33 60l50 100l97 199q15 32 33 56.5t36 24.5q4 0 10 -3q13 -9 13 -24q0 -16 -14 -43t-25 -51l-105 -211q-66 -135 -76 -156q-41 -87 -40 -106q0 -12 12 -17t29 -5h75q12 0 33.5 3.5t25.5 3.5q19 0 28 -16q12 -24 -17.5 -40 t-66.5 -20q-10 0 -27.5 4t-28.5 4l-53 8q-7 0 -23 4.5t-25 -0.5q-15 -6 -22 -22l-103 -251q-15 -40 -28 -80q-19 -43 -54 -45q-28 0 -28 26q0 19 13 53q41 103 41 105q7 28 44 94t37 91q0 22 -14 32t-34 13t-48 3q-18 0 -35.5 -0.5t-34.5 -0.5q-18 0 -60 5t-68 5 q-28 0 -52 -32q-31 -43 -48.5 -55.5t-31.5 -21.5q-25 -15 -39 -14q-21 0 -27 16t-6 31z" />
<glyph unicode="5" horiz-adv-x="911" d="M-7 151v31q0 12 14 21.5t28 9.5q12 0 15 -9q21 -82 56 -108.5t128 -26.5q204 0 362 156.5t176 368.5q0 76 -53 132t-127 56q-57 0 -124.5 -28t-108.5 -67q-3 -3 -38 -68q-25 -47 -61 -47h-16q-21 0 -21 34q0 18 1.5 34.5t22.5 37.5q28 26 57 53q10 24 27 63q12 29 26 65 l81 192q13 32 37 63q43 57 79 64t58 8.5t48 1.5q41 0 72 -3q106 -10 112 -10q26 0 67.5 6.5t45.5 6.5q27 0 27 -22q0 -34 -19.5 -47t-52.5 -13q-19 0 -57.5 3.5t-47.5 3.5h-17q-12 -3 -17 -3q-9 -1 -54.5 4t-70.5 5q-54 0 -92 -13.5t-53 -48.5l-71 -169q-4 -12 -9 -24 q-13 -31 -13 -41q0 -16 15 -17q10 -1 79 22t119 23q12 0 27.5 -0.5t41.5 -11.5q56 -21 98 -69q57 -66 57 -160q0 -10 -1 -22q-2 -12 -2 -20q-29 -234 -206 -397q-182 -169 -425 -170q-75 0 -139 36q-81 44 -81 114z" />
<glyph unicode="6" horiz-adv-x="857" d="M101 248q0 184 127 397q94 159 253 322q113 118 181 164l128 88q12 7 26.5 13.5t24.5 6.5q14 0 18 -13q6 -22 -11 -35q-24 -15 -34 -22l-154 -122q-203 -159 -341 -384q-131 -213 -147 -390q0 -81 45 -147.5t104 -66.5q121 0 254 156q144 168 144 354q0 75 -35.5 102 t-96.5 27q-56 0 -109 -44q-46 -43 -91 -84q-9 -7 -24 9t-7 27q38 63 85 100q75 59 179 59q76 0 125 -64t49 -145q0 -179 -132 -358q-148 -201 -349 -201q-97 0 -154.5 67.5t-57.5 183.5z" />
<glyph unicode="7" horiz-adv-x="796" d="M243 967q0 16 7 35.5t16.5 45t43.5 59.5t37.5 55.5t19 29.5t42.5 8q16 0 33.5 -1.5t35.5 -3.5q97 0 192.5 -8.5t158.5 -8.5q22 0 67 8t54 8q17 0 20 -9q4 -13 5 -25q0 -24 -22 -49q-35 -40 -40 -48q-74 -125 -146 -252t-144 -291q-79 -181 -85 -194q-72 -160 -79 -176 q-31 -65 -80 -154q-12 -22 -38 -22q-34 0 -59 29q-4 4 28 59q99 166 100 170q1 3 115 240q46 97 106 219q49 100 70 138q43 75 69 119q38 65 81 128q-16 16 -31 33q-128 7 -164.5 10.5t-66 5t-52.5 1.5q-28 0 -57.5 -2t-63.5 -8q-13 -1 -52 -89.5t-89 -88.5q-32 0 -32 29z " />
<glyph unicode="8" horiz-adv-x="724" d="M78 97q0 74 41 137q10 15 97 114l102 115q18 21 35 43t17 44q0 10 -4 23q-43 129 -55.5 181.5t-12.5 92.5q0 143 110 240.5t261 97.5l84 4q41 0 53 -38q-34 -13 -66 -26q-213 -3 -318 -115q-57 -62 -57 -153q0 -44 14 -100l27 -95q7 -22 10 -28q9 -13 24 -14q9 0 13 3 q3 1 17 19l324 384q9 9 15 9q9 0 15.5 -11.5t9.5 -26.5q3 -12 -3 -22q-12 -13 -17 -19l-342 -396l-9 -9q-6 -7 -4 -13q18 -54 25 -79q15 -47 14 -86q0 -140 -97.5 -261t-207.5 -121q-50 0 -80 22q-35 26 -35 84zM138 119q0 -31 30 -50q16 -9 32 -9q44 0 97.5 49.5 t84.5 109.5q43 82 43 165q-1 59 -30 69q-12 4 -80 -83q-44 -54 -59 -70q-51 -56 -77 -88q-41 -56 -41 -93z" />
<glyph unicode="9" horiz-adv-x="882" d="M90 -88q107 78 163 125q88 74 167 160q151 163 221 250q109 138 162 254q62 137 61 278q0 71 -44 119.5t-105 48.5q-13 0 -21 -2q-144 -25 -266 -161q-131 -146 -131 -309q0 -68 25.5 -114t74.5 -46q74 0 160 67q82 76 100 93q12 9 18 9q10 0 16.5 -9.5t6.5 -23.5 q0 -31 -100 -113q-113 -93 -201 -93q-62 0 -112 48q-60 57 -60 154q0 218 169 395q160 169 326 169q104 0 165 -67q56 -63 56 -160q0 -131 -59 -271q-53 -125 -153 -262q-76 -104 -216 -258q-60 -68 -150 -146q-82 -72 -220 -173q-9 -7 -20 -8q-18 0 -28.5 21.5t-4.5 24.5z " />
<glyph unicode=":" horiz-adv-x="466" d="M35 26q0 15 5.5 29t18 36t31.5 38.5t39 16.5q7 0 20.5 -5.5t19.5 -18t6 -29.5q0 -31 -18 -62q-12 -22 -34 -37.5t-44 -15.5q-16 0 -28 10q-16 15 -16 38zM273 617q0 15 6 30.5t18 34t29 32.5t36 14q13 0 20 -6q18 -12 18 -37q0 -13 -3.5 -26.5t-12.5 -29.5 q-12 -24 -30.5 -40t-38.5 -16q-15 0 -24 8q-18 12 -18 36z" />
<glyph unicode=";" horiz-adv-x="476" d="M-41 -163q0 16 7 34l75 173q6 15 16.5 48.5t20 48.5t29.5 18l62 4q25 0 34 -13q12 -15 -30 -65q-29 -35 -36 -48l-109 -180q-16 -28 -19 -32q-13 -19 -27 -19q-4 0 -10 3q-7 4 -10 12q-3 7 -3 16zM269 637q0 15 6 30t17.5 34t28 32.5t35.5 13.5q13 0 20 -6q19 -13 19 -38 q0 -13 -3.5 -26.5t-12.5 -28.5q-13 -22 -31.5 -38t-38.5 -16q-13 0 -21 6q-19 13 -19 37z" />
<glyph unicode="&#x3c;" horiz-adv-x="877" d="M85 284l25 66l731 282l-32 -82l-608 -232l427 -244l-31 -83z" />
<glyph unicode="=" horiz-adv-x="889" d="M34 162l26 72h646l-27 -72h-645zM125 403l28 72h645l-28 -72h-645z" />
<glyph unicode="&#x3e;" horiz-adv-x="864" d="M-29 -9l30 83l614 244l-430 232l31 82l515 -282l-25 -66z" />
<glyph unicode="?" horiz-adv-x="745" d="M185 44q0 16 6 31.5t10 25.5q12 24 29.5 38.5t37.5 14.5q9 0 13 -1q32 -10 32 -57q0 -28 -12 -52q-10 -21 -29 -35.5t-41 -14.5q-12 0 -22 6q-24 13 -24 44zM275 287q-4 15 23.5 70t61.5 106q50 75 158 188l83 86q60 62 112 160q47 90 47 125q0 66 -36.5 105.5 t-86.5 35.5q-109 -12 -171 -90q-53 -94 -75 -125q-6 -6 -13 -6q-13 0 -22 12t-9 38q0 41 90 130q101 100 188 100q107 0 153 -53q35 -40 45 -130q1 -7 2 -22q0 -78 -77 -191q-32 -49 -92 -116l-152 -163q-46 -49 -66 -74q-29 -37 -56 -80q-12 -19 -23 -48q-31 -71 -36 -80 t-17 -9t-24 15q-6 7 -7 16z" />
<glyph unicode="@" horiz-adv-x="1689" d="M210 537q0 387 285.5 670.5t679.5 283.5q232 0 394 -113q182 -129 182 -342q0 -273 -221 -507q-213 -226 -439 -226q-79 0 -103 53q-13 31 -13 114l-83 -73q-100 -90 -230 -90q-88 0 -140 67t-52 163q0 210 212 389q198 168 388 168q63 0 94 -30q38 -37 39 -122l78 131 h172l-321 -603q-6 -12 -14 -36.5t-8 -38.5q0 -35 35 -35q140 0 309 212q178 222 178 440q0 188 -153 288q-131 85 -326 85q-325 0 -581 -259q-247 -250 -247 -541q0 -215 129 -351q140 -147 375 -147q193 0 353 75q113 53 204 142q32 38 67 77h133q-44 -51 -86 -103 q-118 -118 -262 -191q-203 -103 -437 -103q-271 0 -433 159q-157 153 -158 394zM632 478q0 -56 33 -84q28 -24 69 -24q113 0 267.5 210.5t154.5 357.5q0 54 -25 78.5t-61 24.5q-112 0 -275 -210.5t-163 -352.5z" />
<glyph unicode="A" horiz-adv-x="1318" d="M74 18q0 6 5 20q57 150 112 268q3 6 49 82q34 56 33 81q0 28 -39 28q-13 0 -26.5 -3t-42 -8t-59.5 -14q-28 -3 -21 26q6 24 19.5 41t26.5 20l206 14l54 93q25 41 52 82q62 97 126 186q91 123 159 191q115 113 163 156q94 84 170 129q91 54 164 54h5q35 0 67 -14 q25 -12 37.5 -39.5t12.5 -62.5q0 -65 -40 -189q-54 -171 -59 -190q-28 -125 -79 -304q-65 -229 -78 -281q-35 -141 -35 -209q0 -16 1.5 -43.5t1.5 -40.5q0 -28 -3 -44q-9 -53 -53 -53q-21 0 -37 17t-16 45q0 12 3 28t3 41q0 81 -44.5 153.5t-125 119.5t-207.5 78 q-101 25 -166 25q-21 0 -23 -4q-12 1 -57 -79t-78 -154t-53.5 -128.5t-36.5 -103.5q-7 -19 -18.5 -27t-37.5 -8q-35 0 -35 21zM426 559q9 1 20 1h17q57 0 119.5 -10t133.5 -34q97 -32 160 -85q50 -43 113 -135q71 273 143 546q43 129 85 259q49 154 49 218q0 26 -3.5 38.5 t-15.5 21.5q-13 9 -33 9q-75 0 -230 -131q-126 -106 -262 -256q-79 -88 -179 -235q-81 -119 -90 -144z" />
<glyph unicode="B" horiz-adv-x="1149" d="M-21 -21q51 88 101.5 189t98.5 220q44 110 89 222l107 260q60 157 62 161q74 169 154 277q112 148 218 149q13 0 20 -1q123 -15 178 -128q41 -87 41 -234q0 -168 -85 -293.5t-237 -165.5q-44 -10 -44 -45q0 -19 17 -36t45 -23q100 -21 162 -75q69 -62 69 -155 q0 -147 -149 -226q-134 -72 -353 -72h-213q-13 -3 -21 3.5t-5 21.5q6 25 15.5 36.5t23.5 14.5l150 -1q179 0 287 31q181 53 181 187q0 96 -78 135q-90 35 -178 70q-12 6 -22 32t-10 52q0 29 11 51.5t37 32.5q163 65 236 156q82 106 82 288q0 109 -27 170q-37 85 -122 86 q-74 0 -136 -63q-50 -50 -102 -152q-25 -49 -85 -185q-29 -65 -77 -185q-123 -315 -139 -355l-194 -450q-10 -20 -66 -20h-5h-3q-11 -1 -23 5q-11 5 -12 12q0 2 1 3z" />
<glyph unicode="C" horiz-adv-x="1214" d="M188 415q0 122 38 241q32 100 95 206q40 69 119 179q106 150 257 266q198 153 370 153q110 0 171 -66q54 -61 54 -152q0 -168 -138 -328q-103 -119 -267 -222q-6 -4 -183 -100q-7 -4 -12 -2q-4 1 -4 8q0 6 3.5 18.5t3.5 14.5q9 35 14 44q10 22 35 29q65 19 137 61 q85 49 147 111q87 87 135 163q63 100 63 180q0 59 -37 109q-46 60 -126 60q-131 0 -319 -150q-173 -138 -303 -325q-87 -126 -130 -258t-43 -260q0 -81 24 -145.5t73.5 -105t99.5 -58.5t104 -18q51 0 103.5 16t103.5 45q79 46 134 109q50 57 97 150q15 24 22 24t23.5 -17 t16.5 -27q0 -3 -6 -18q-59 -146 -188 -246q-146 -113 -316 -113q-169 0 -270 118.5t-101 305.5z" />
<glyph unicode="D" horiz-adv-x="1549" d="M54 51q9 35 40 48t71 13q32 -1 39 -2q60 0 117.5 -6.5t119.5 -13.5q34 0 62 12.5t66 47.5q75 72 137 179q41 72 88 191q29 76 59 153q40 94 81 191.5t58 154.5q3 15 -83 94q-94 85 -173 138t-164 90t-141 37q-38 0 -55 -21.5t-17 -53.5q0 -51 56 -128q7 -9 61 -77 q35 -44 77 -73q24 -16 92 -56l71 -40q18 -10 27.5 -25t3.5 -31q-6 -18 -31 -17q-22 0 -41 11l-75 42q-35 19 -61.5 39.5t-57.5 51.5q-87 87 -128 145q-60 87 -60 159q0 49 25 93q13 24 41 35.5t64 11.5q75 0 186 -44q96 -38 189 -99q28 -18 61 -45q24 -21 55 -52l87 -84 q7 -7 16 -13t19 -4q7 1 12 10q1 3 8 16l29 52q3 6 7.5 15.5t14.5 12.5q16 6 33 -7t17 -30q0 -9 -9 -20t-10 -14l-34 -59q-7 -12 -12.5 -23.5t-0.5 -23.5q109 -157 217 -313q86 -156 86 -284q0 -232 -163 -348q-138 -99 -365 -99q-37 0 -119 9q-194 21 -221 21q-15 -1 -19 -2 q-76 -10 -132.5 -16.5t-112.5 -6.5h-50q-76 0 -112 8q-47 11 -47 42q0 4 1 8zM626 96q-2 -4 -2 -7q0 -8 17 -13q24 -7 49 -7h183q116 0 206 31q123 42 182 138q26 44 39 91t13 99q0 91 -36 184.5t-104 190.5l-75 109q-24 34 -25 35q-9 7 -17 7q-3 0 -6 -1q-10 -3 -15.5 -17 t-9.5 -27l-88 -234q-32 -84 -58 -146q-38 -90 -63 -149t-78 -137q-56 -74 -112 -147z" />
<glyph unicode="E" horiz-adv-x="1005" d="M198 415q107 90 217 179q-40 88 -66.5 159.5t-26.5 113.5q0 193 172 383q182 201 397 201q71 0 110 -35q34 -31 34 -71t-72 -131q-13 -16 -144 -170q-88 -104 -110 -153q-13 -22 -27 -22q-13 0 -30 17t-17 33q0 9 3 16q13 19 18 27q32 50 89 114q53 56 109 115.5t87 99.5 q13 18 13 40q0 16 -7.5 30.5t-24 23.5t-38.5 9q-85 0 -217 -90t-191 -194q-37 -66 -55 -127t-18 -123q0 -84 38 -156l35 -66q13 -28 14 -68q0 -13 -14 -26q-4 -4 -57 -46l-94 -72q-65 -50 -106 -114t-41 -122q0 -62 27 -87t95 -32q9 -1 26 -2q129 0 286 129q131 109 194 225 q13 25 33 25q7 0 20.5 -6.5t13.5 -28.5q0 -15 -9 -28q-115 -182 -259.5 -283.5t-300.5 -101.5q-79 0 -125 25q-83 45 -83 166q0 122 102 224z" />
<glyph unicode="F" horiz-adv-x="1296" d="M99 573q0 116 120 294q104 154 254 295.5t319 234.5q187 103 324 103q41 0 69 -6.5t59 -24.5q42 -24 42 -104q0 -76 -29 -176q-37 -125 -116 -294l-209 -433l249 1q7 1 11 -4q4 -6 3 -11q-6 -26 -17.5 -43.5t-23.5 -19.5h-260l-185 -319l-87 -134q-3 -9 -24.5 -15.5 t-59.5 -6.5q-24 0 -15 22q43 53 78.5 102.5t71.5 108.5q71 113 133 242h-149q-4 -1 -9 3q-7 7 -4 18q6 25 14 36.5t15 14.5l178 -1l246 523q40 87 69 169q44 125 44 191q0 32 -12 56q-21 35 -81 36q-110 0 -305 -114q-188 -109 -319 -239q-115 -113 -215 -261 q-110 -162 -110 -238q0 -35 22.5 -45.5t47.5 -10.5q85 0 209 115q100 93 197 231q31 44 61 86.5t45 74t23 31.5q6 0 19.5 -16t13.5 -31q0 -13 -15 -42q-99 -184 -269 -350q-185 -179 -306 -179q-54 0 -85.5 37.5t-31.5 92.5z" />
<glyph unicode="G" horiz-adv-x="1143" d="M134 266q0 194 106 462q121 303 303 497q219 232 471 232q90 0 149.5 -68t59.5 -161q0 -147 -92 -265q-62 -78 -131 -113q-29 -15 -38 -15q-7 0 -8 10q1 16 2 30q1 13 3 28q4 9 29 26q51 35 98 102q63 90 64 172q-1 13 -2 20q-6 56 -31 96q-40 64 -121 64h-2 q-275 0 -510 -363q-221 -341 -269 -763q-1 -7 -2 -22q0 -69 40 -118t101 -49q100 0 211 67q88 54 191 159q51 51 163 181q25 71 41 106q50 107 94 107q10 0 21 -6q25 -13 25 -40q0 -25 -30 -66q-84 -118 -89 -132q-54 -135 -109 -269q-60 -146 -115 -263q-34 -74 -84 -153 q-29 -46 -123 -177q-17 -23 -26 -23h-1q-7 0 -17 26l-6 18q-4 13 -5 21q0 19 14 33q41 47 101 145q71 113 115 210q31 69 50.5 124t37.5 118l-110 -97q-94 -82 -165 -117q-87 -44 -184 -44q-132 0 -185 98q-35 66 -35 172z" />
<glyph unicode="H" horiz-adv-x="1621" d="M28 146q0 63 45.5 119.5t107.5 79.5q85 34 266 64q126 21 268 36t152 15q63 103 103 184.5t84 194t91 303.5q16 65 40 175q7 19 18 24.5t35 14.5q15 3 19 2q16 0 16 -14q0 -4 -4 -13q-19 -122 -40.5 -207t-65.5 -214q-26 -75 -79 -194q-44 -99 -82.5 -175t-39.5 -76 l321 39l100 296q1 7 33 95q41 116 76 205q53 129 94 203q29 54 61 110q38 57 85 57q13 0 13 -14q0 -22 -67 -137q-37 -62 -52 -100q-75 -184 -106 -265q-54 -137 -95 -269l-53 -169q26 3 50 10q35 12 54 18l82 26q12 6 21 6q12 0 12 -19v-23q0 -25 -21 -31l-100 -25 q-43 -12 -64 -16q-53 -13 -61 -15l-126 -446q-1 -10 -13 -12t-42 -2q-12 0 -22 3.5t-8 10.5l124 436l-342 -46l-74 -81q-116 -132 -176 -178q-93 -71 -244 -117q-79 -25 -165 -25q-84 0 -144 26.5t-78 83.5q-7 25 -7 46zM101 144q0 -44 35.5 -66t97.5 -22q118 0 268.5 67.5 t229.5 164.5l50 63q1 4 5 9q9 12 9 17q0 1 -1 2q-6 10 -35 11q-10 0 -15 -2q-163 -24 -324.5 -48t-230.5 -61q-88 -47 -89 -135z" />
<glyph unicode="I" horiz-adv-x="755" d="M-9 26q0 10 15.5 40.5t31.5 30.5q13 0 28.5 -9.5t32.5 -18.5t30 -9q6 0 12 3q135 62 259 215q106 131 209 339q75 150 136 365.5t61 328.5q0 78 -33 78q-65 0 -150 -101q-71 -85 -136 -215q-31 -63 -49.5 -126t-27.5 -115.5t-15.5 -68t-32.5 -44.5q-21 -24 -41 -46 q-9 0 -9 52q-1 8 -1 18q0 63 34 178q39 133 99 235q71 122 157 211q104 109 180 109q29 0 53 -19q25 -21 36.5 -61t11.5 -95q0 -171 -106 -464q-91 -256 -192 -428q-88 -154 -215 -277q-153 -148 -269 -148q-37 0 -71 17q-22 9 -28 12q-10 4 -10 13z" />
<glyph unicode="J" horiz-adv-x="743" d="M-122 -412q0 75 31 170t75 174q62 106 135 194q69 81 141 145q40 34 147 114l130 96q54 101 89 194q26 68 68 203q59 188 66 216q31 112 31 175q0 66 -31 97q-9 9 -22 9q-53 0 -151 -140q-82 -118 -150 -262q-46 -99 -70 -217.5t-24 -180.5q0 -40 -15 -60q-6 -7 -30 -34 q-10 -12 -19.5 -30.5t-10.5 -18.5q-4 0 -8 29t-4 46q0 96 38 262q44 188 103 295q71 129 98 174q62 99 115 148q68 63 134 64q28 0 58 -12t47 -51.5t17 -95.5q0 -65 -21 -163q-13 -65 -41 -166q-19 -72 -62 -189q-51 -144 -104 -258l-341 -744q-54 -118 -75 -158 q-49 -90 -93 -133q-56 -56 -119 -56q-16 0 -34 4q-51 12 -74.5 54t-23.5 106zM-46 -404q0 -47 15 -76t46 -29q6 0 20 3q31 9 84 97q37 62 104 203q53 113 109 229.5t74 157.5q29 64 67 163l-95 -66q-109 -74 -230 -241q-115 -159 -167 -300q-12 -29 -19.5 -66t-7.5 -75z" />
<glyph unicode="K" horiz-adv-x="1074" d="M-12 31q24 56 49 112q53 123 107 244.5t109 241.5q7 19 7 44q0 16 -1.5 32.5t-2.5 32.5q0 22 9.5 43.5t37.5 43.5q41 31 51 42q18 19 84 168q54 121 116 268q29 69 59 139q13 21 72 21q16 0 16 -9q0 -4 -4 -12q-16 -43 -63 -142q-116 -250 -134 -294q-12 -28 -12 -43 q0 -13 12 -13q15 0 50 26q87 66 134 102q153 116 228 191q44 44 73 81q37 46 60 89q3 9 21.5 14t49.5 5q10 1 18 -2q6 -4 6 -10q0 -3 -2 -7q-29 -59 -82 -119t-72 -81q-87 -96 -255 -220q-140 -104 -256 -172q-40 -22 -55 -40.5t-43 -75.5q-18 -37 -18 -64q0 -22 14 -38.5 t29 -31.5q97 -137 195 -274q87 -112 158 -173q57 -51 75 -66q41 -34 82 -56q9 -7 9 -15q0 -14 -25 -14h-3q-37 0 -62.5 5.5t-49.5 11.5q-15 7 -30 22.5t-30 32.5q-106 99 -222 254q-88 118 -144 216q-19 35 -34 35q-10 0 -18 -17.5t-13 -29.5q-29 -65 -79 -181 q-68 -156 -90.5 -211t-44.5 -106q-9 -10 -24 -13t-41 -3q-7 0 -15 3q-7 3 -7 8q0 2 1 5z" />
<glyph unicode="L" horiz-adv-x="1121" d="M-15 56q9 56 68 72q32 9 122 9q18 0 65 -11q26 -6 35 -5q21 0 32 8q103 72 190 237q60 113 147 349q109 293 156 398q38 88 72 148q49 88 98 139q61 61 120 61h2h4q28 0 55 -14q44 -22 44 -103q0 -97 -67.5 -270.5t-192.5 -389.5q-13 -22 -24 -29t-52 -14q-9 -1 -21 -1 q-16 0 -16 10q0 12 23 44q66 97 103 160q74 123 112 231q24 69 37 113q26 90 26 133q0 18 -3 30t-17 18.5t-21 6.5q-44 0 -103 -94q-31 -49 -92 -173.5t-146 -352.5q-94 -253 -135 -341q-82 -176 -175 -277q-15 -15 -26.5 -27t-11.5 -20q0 -10 50 -18.5t132 -8.5 q79 0 168 8.5t151 21.5q15 3 16 3q18 0 18 -19q-3 -21 -3 -29q0 -18 -17 -27.5t-39 -13.5q-122 -15 -259 -15q-182 0 -304 35q-47 -13 -98.5 -26t-85.5 -13q-12 1 -18 1q-72 6 -80 9q-40 11 -40 40q0 3 1 7z" />
<glyph unicode="M" horiz-adv-x="1470" d="M-71 -44q0 10 21 29q110 97 253 356q118 215 251 523q100 232 205 506q10 25 33 46q31 28 70 28q37 0 51.5 -14t14.5 -41q0 -15 -2.5 -26.5t-5.5 -24.5q-25 -159 -73 -399q-34 -167 -78 -371q-25 -115 -46 -203q-7 -31 -7 -58q0 -26 13 -26q10 0 28 17.5t37 48.5 q56 91 220 310t344 440q198 243 303 341q18 18 39.5 26.5t37.5 8.5q28 0 45.5 -19t17.5 -50q0 -22 -10 -43q-116 -237 -231 -473q-122 -251 -181 -407q-78 -206 -100 -375q-1 -12 -1 -18q0 -7 1.5 -23t1.5 -22q0 -19 -9 -31t-35 -15t-31 -3q-26 0 -27 30v13q3 10 3 16 q41 248 137 495q66 171 187 403q148 287 170 334q18 35 18 54q0 13 -9 14q-10 0 -32 -24q-129 -146 -333 -403q-182 -231 -351 -457q-163 -219 -287 -393q-22 -31 -38 -48q-28 -29 -44 -29q-18 0 -18 39q0 29 12 85q69 309 140 646q79 376 95 489q1 7 2 20q0 29 -12 29 q-10 0 -28 -43q-100 -268 -181 -461q-115 -275 -210 -455q-121 -226 -237 -357q-12 -16 -23 -32q-16 -15 -69 -15q-9 -1 -14 -1q-28 0 -28 13z" />
<glyph unicode="N" horiz-adv-x="1062" d="M-68 -51q0 12 18 30q104 129 231 391q93 191 222 506q99 240 197 481q22 50 41 66q20 17 43 17q5 0 11 -1q22 -4 35.5 -33.5t13.5 -72.5q0 -185 5.5 -469.5t8 -359.5t4.5 -179q0 -87 19 -87q7 0 19.5 20.5t22.5 48.5q18 50 74 224q65 203 91 279q53 151 106 272 q12 26 25 27q10 0 20 -20q4 -5 14 -30q4 -9 4 -21q0 -19 -12.5 -46.5t-15.5 -32.5q-35 -88 -107 -293q-76 -216 -109 -304q-63 -171 -113 -286q-26 -59 -39 -72t-38 -10q-25 0 -30.5 13.5t-5.5 60.5v28q0 215 -4 420.5t-7.5 438.5t-3.5 258q0 49 -22 48q-16 0 -31 -39 q-96 -256 -174 -450q-100 -247 -188 -434q-101 -215 -192 -353q-7 -13 -15 -28q-15 -19 -76 -19q-15 0 -28.5 1t-13.5 10z" />
<glyph unicode="O" horiz-adv-x="1195" d="M153 328q0 151 48 306q41 129 117 263q57 101 135 203q115 150 258 246t289 115q6 0 17.5 2.5t18.5 2.5q26 0 37 -18.5t11 -27.5q0 -13 -24 -17.5t-35 -5.5q-203 -32 -383 -200q-154 -146 -266 -366q-100 -197 -130 -386q-4 -31 -7.5 -57t-3.5 -54q0 -116 44 -183 q51 -76 153 -76q19 0 30 1q268 28 482 342q200 293 245 655q1 7 2 22q0 57 -33 103t-82 46q-90 0 -184 -94q-101 -101 -161 -271q-7 -21 -15 -26q-3 -3 -35 -21q-18 -9 -28 -9q-19 0 -19 27q0 18 8 35q84 206 190.5 314t228.5 108q106 0 156 -60.5t50 -170.5 q0 -159 -101 -403q-116 -281 -287 -458q-209 -219 -445 -219q-122 0 -201.5 89.5t-79.5 242.5z" />
<glyph unicode="P" horiz-adv-x="936" d="M19 -115q3 12 3 19q6 46 21.5 121t25.5 116q63 246 147 487q123 356 250 563q164 270 320 270h1h17q12 -3 18 -3q85 -16 129 -117.5t44 -249.5q0 -93 -17.5 -195t-51.5 -195q-69 -188 -205 -305t-281 -117q-10 0 -22 1.5t-24 2.5t-28 2q-16 6 -25 33q-7 22 5.5 28.5 t37.5 6.5h28q175 0 297 140q103 118 161 321q16 59 28 138t12 146q0 123 -28 199q-32 88 -95 88q-95 0 -219 -174q-107 -150 -181.5 -340t-130.5 -351q-24 -65 -28 -107q-18 -146 -53 -292q-24 -93 -60 -175q-43 -94 -69 -94t-27 20v13z" />
<glyph unicode="Q" horiz-adv-x="1254" d="M-26 49q0 46 41 67t97 21q28 0 86 -13q44 -9 60 -9q6 0 8 1q140 68 281 166.5t262 212.5q166 160 277 340q128 206 128 351q0 88 -48 146q-40 44 -127 44q-97 0 -211.5 -52t-189.5 -133q-88 -97 -151 -194q-76 -116 -111 -218q-10 -26 -19 -26q-6 0 -25 38q-12 24 -11 40 q0 15 14 48q28 62 69 131q16 26 75 115q107 156 269 242q146 78 287 78q117 0 179 -59q46 -44 66 -96t20 -114q0 -96 -52 -213q-43 -99 -122 -212q-59 -85 -141 -182q-72 -85 -182 -176q-90 -74 -180 -146q-25 -22 -133 -88q-76 -47 -77 -72q0 -10 98 -14.5t187 -4.5 q96 0 171.5 6.5t153.5 19.5q24 3 27 3q13 0 13 -9q0 -4 -3 -13q-4 -10 -7 -19q-9 -22 -15 -28q-7 -7 -32 -13q-56 -13 -150 -17.5t-180 -4.5q-87 0 -223.5 24t-167.5 24q-18 0 -70.5 -24t-140.5 -24q-41 0 -67 10q-34 15 -33 46z" />
<glyph unicode="R" horiz-adv-x="1060" d="M59 41q0 35 15.5 95.5t31.5 117.5q35 129 68 235t76 224l84 229q93 254 189 378q103 131 214 131q34 0 57 -7q76 -22 120.5 -133t44.5 -254q0 -130 -37 -231q-50 -138 -149 -223q-91 -78 -244 -128q-39 -12 -39 -50q0 -12 4 -21q3 -4 122 -126q59 -59 91.5 -105.5 t61.5 -90.5t45 -85q7 -19 8 -28q0 -4 -6.5 -12t-12.5 -16q-24 -26 -33 -26q-10 0 -20 23q-53 109 -106 183q-29 41 -115 138q-51 50 -73 73q-40 41 -50 84q-1 6 -2 18q0 28 16 51q22 31 52 43q146 51 226 117q93 76 143 203q21 50 31 112t10 122q0 104 -27 180.5t-80 98.5 q-22 9 -46 9q-62 0 -126 -70q-54 -59 -109 -165q-41 -79 -85 -193l-97 -248q-32 -82 -51.5 -216.5t-41.5 -202.5q-28 -106 -41 -153q-24 -79 -65 -116q-9 -9 -25 -9q-13 0 -21 9.5t-8 34.5z" />
<glyph unicode="S" horiz-adv-x="1207" d="M196 365q116 50 241 50h50q65 0 121.5 -7.5t133.5 -31.5q12 -3 23 -5.5t11 -10.5q0 -9 -13 -31q-7 -13 -14 -23t-14 -10q-6 0 -22 4q-57 18 -124 30.5t-127 12.5q-126 0 -221 -33q-115 -40 -115 -109q0 -82 114 -114q76 -22 217 -22q198 0 340 70q167 84 167 229v2 q0 91 -92 156q-26 18 -110 63l-109 57q-110 59 -163 120q-66 76 -67 177q0 121 89 231q81 101 219 175q93 50 176 80q100 36 175 36h4q56 0 93.5 -18t58.5 -64q7 -15 11.5 -36t4.5 -39q0 -78 -70 -154q-54 -59 -156 -122q-50 -31 -116 -56q-18 -7 -211 -66q-26 -7 -34 -8 q-10 0 -10 9q0 4 4.5 20.5t6.5 30.5t7 17q19 4 41 10q91 26 110 32q87 28 144 62q88 50 137 94q71 65 71 121q0 26 -15 51q-25 38 -90 38q-59 0 -139 -27q-62 -21 -144 -64q-121 -62 -206.5 -164.5t-85.5 -192.5q0 -75 52 -131q41 -44 125 -85l159 -77q99 -49 150 -110 q60 -74 60 -167q0 -169 -191 -277q-173 -97 -416 -97q-166 0 -261 37q-127 50 -127 164q0 109 147 173z" />
<glyph unicode="T" horiz-adv-x="1058" d="M225 1122q0 15 7 34q25 56 196 113q13 4 191 53l101 26q115 29 268 56q191 34 209.5 37t42 28.5t37.5 29.5t21 4h13q25 0 35.5 -10.5t10.5 -26.5q0 -9 -6 -24q-21 -41 -49.5 -47.5t-37 -20t-17 -36t-15.5 -43.5l-245 -630q-65 -169 -142 -334q-44 -97 -78 -166 q-40 -81 -80 -153q-10 -19 -21.5 -23t-43.5 -4q-21 -1 -28 -1q-13 0 -13 6q0 4 20 41q87 159 144 273q79 160 140 312l263 657q9 22 14 37.5t5 27.5t-6.5 20t-18.5 8t-31 -6.5t-20 -6.5l-157 -31q-37 -6 -153 -34q-146 -34 -249 -63q-75 -21 -148 -40q-77 -27 -77 -62 q0 -41 74 -97q53 -40 138 -81q38 -19 38 -23q0 -1 -4 -6q-13 -12 -19 -21q-16 -24 -36 -23q-16 0 -36 13q-110 66 -165 116q-72 66 -72 121z" />
<glyph unicode="U" horiz-adv-x="1336" d="M154 687l5 30q15 94 63 206q41 96 103 199q88 147 173 226q101 94 197 94q44 0 92 -22q26 -12 38 -42t12 -71q0 -50 -12.5 -103t-37.5 -106l-403 -888q-15 -32 -25.5 -78.5t-2.5 -50.5q7 -4 14 -5q12 0 25 11q4 3 24 20q1 0 60 51.5t136 120.5q88 81 141 136 q166 171 330 341t271 307q18 22 49 87q25 51 50 69q9 4 17 4q19 -1 27 -13q5 -8 4 -13q0 -3 -1 -6q-49 -90 -95 -178q-53 -103 -79 -162q-106 -234 -128 -286q-66 -153 -98 -268q-40 -137 -40 -244v-18q0 -26 -4 -32q-4 -4 -31 -16q-32 -12 -44 -12q-21 0 -18 34 q7 82 22.5 150.5t72.5 246.5q22 69 62.5 161t83.5 189q1 6 -1 11q-3 6 -9 3q-31 -19 -137 -141q-60 -71 -106 -114q-113 -112 -225 -224q-138 -135 -213 -195q-109 -87 -190 -117q-6 -3 -10 -3h-10q-22 0 -37.5 15.5t-15.5 42.5q0 9 1 15q19 84 77 229q50 125 129 294 l247 529q22 47 35.5 95t13.5 90q0 49 -21.5 66t-47.5 17q-69 0 -168 -109q-79 -88 -157 -218q-37 -60 -66 -147q-10 -29 -36 -119q-7 -25 -13 -48q-10 -29 -51 -46q-22 -9 -31 -9q-10 0 -11 14z" />
<glyph unicode="V" horiz-adv-x="1168" d="M172 737q1 9 1 13q9 65 60 207.5t95 211.5q104 166 172 223.5t131 57.5q29 0 57 -12t40 -42t12 -71q0 -87 -40 -174l-334 -704q-44 -94 -63 -143q-32 -85 -32 -136t30 -80t77 -29q106 0 272 142q144 123 264 293q112 157 208 369q85 187 116 319l12 50q10 28 39.5 51 t38.5 23q8 0 8 -16q0 -13 -1 -20q-7 -81 -57 -223q-54 -156 -146 -332q-106 -203 -222 -346q-75 -91 -141 -157q-97 -97 -185 -150q-112 -68 -208 -68q-69 0 -126 31t-57 116q0 97 75 271q15 34 77 166l265 551q25 53 41 102.5t16 87.5q0 40 -20 51q-10 6 -22 6 q-51 0 -127 -88q-63 -75 -116 -177q-44 -87 -72.5 -161.5t-36 -118t-13.5 -58.5q-10 -26 -37 -41q-12 -6 -22.5 -11.5t-16.5 -5.5q-12 0 -12 22z" />
<glyph unicode="W" horiz-adv-x="1714" d="M173 49q0 18 8 38q1 6 17 36l469 1061q18 37 32 75.5t14 68.5q0 38 -26 54q-12 7 -30 7q-49 0 -123 -76q-63 -65 -114 -147q-21 -32 -55 -131q-41 -113 -56 -185q-7 -37 -14.5 -49.5t-38.5 -33.5q-9 -6 -21.5 -11t-16.5 -5q-13 0 -14 18q0 6 2.5 16t3.5 16 q22 88 54.5 181.5t60.5 153.5q69 147 163 240t181 93q40 0 70.5 -18.5t43 -45.5t12.5 -66q0 -43 -13 -85.5t-37 -94.5l-411 -911q-4 -9 -8.5 -28.5t-4.5 -32.5q0 -16 5 -16q10 -1 21 5q3 1 16 18l825 900q18 26 25 37q15 21 32 20q15 0 27.5 -9.5t16.5 -25.5t-7.5 -31.5 t-21.5 -30.5l-382 -816q-10 -21 -15.5 -41.5t-5.5 -40.5q0 -28 12.5 -48.5t38.5 -28t31 -8.5h21q79 0 178 70q78 56 169 160q69 79 128 165q118 171 207 350q72 146 122 295q43 126 53 211q4 38 11 49t23 14t21 3h7q15 0 18.5 -11.5t3.5 -48.5q0 -131 -120 -399.5 t-276 -490.5q-81 -113 -144 -188q-99 -115 -185 -175q-110 -76 -210 -76q-66 0 -129 33q-29 16 -43.5 45t-14.5 69q0 35 12 76t29 78l215 456q12 21 16 29q10 19 10 28q0 10 -8 13q-13 6 -29.5 -11.5t-23.5 -26.5l-703 -750q-18 -21 -35.5 -32.5t-35.5 -11.5q-19 0 -36 16 t-17 39z" />
<glyph unicode="X" horiz-adv-x="1076" d="M-65 1q0 6 27 24q129 90 279 235q121 119 249 268q96 112 173 216l19 564q0 10 1.5 23.5t1.5 15.5q0 13 -7 22q-19 24 -36 17q-37 -16 -111.5 -100.5t-129.5 -172.5q-21 -34 -28 -34t-7 49v45q3 24 15 41q84 115 150 177q82 76 139 76q7 0 17.5 -3t21.5 -7q28 -16 38 -47 t10 -91q0 -6 -6 -182.5t-6 -260.5q0 -32 5 -32q4 0 22 20q79 101 115 146q60 75 125 140q93 93 147 141q72 63 152 115q25 16 30 16q2 0 2 -5q-1 -3 -1 -9q-2 -14 -3 -29q-3 -25 -3 -28q-4 -21 -20 -34q-100 -75 -137 -106q-85 -72 -159 -154q-132 -147 -167 -190 q-69 -84 -118 -151q0 -168 16 -304q22 -185 80 -371q7 -26 7 -34q0 -12 -13 -11q-18 1 -30 1q-22 -1 -28 -1q-10 0 -16 5q-4 6 -14 31q-34 84 -52 237t-18 319q-4 31 -13 31q-7 0 -22 -19q-35 -46 -128.5 -151.5t-215.5 -233.5q-132 -140 -203 -202q-22 -19 -44 -19h-34h-26 q-46 0 -46 7z" />
<glyph unicode="Y" horiz-adv-x="1190" d="M191 738q3 18 5 31q16 99 58 204.5t99 199.5q84 140 150 208q75 77 143 77h2q40 0 78.5 -24t38.5 -96q0 -43 -13.5 -92t-36.5 -101l-397 -935q-18 -44 -22 -56q-12 -34 -12 -55q0 -13 6 -18q4 -4 12 -4q31 0 117 63q118 85 288 251q162 157 219 218q104 110 163 192 q68 94 125 218q24 59 49 119q18 34 43 42.5t33 8.5q12 0 12 -10t-15 -47q-38 -91 -75 -181q-72 -172 -144 -342q-78 -184 -105 -249q-49 -110 -156 -366q-74 -178 -115 -256q-59 -113 -144 -229q-19 -29 -38 -60q-12 -17 -19 -17q-10 0 -14 17t-11.5 35t-7.5 25q0 15 18 37 q82 104 165 264q60 115 123 269q25 62 66 171q22 60 90 213q56 128 66 160v5q-4 1 -24 -16t-95 -102q-81 -91 -132 -140q-81 -78 -164 -155.5t-154 -126.5q-88 -60 -185 -94q-7 -3 -21 -3q-25 0 -44 16.5t-19 42.5q0 9 1 13q16 81 73 222q50 126 123 287l241 576 q22 47 36 95.5t14 76.5t-14 37.5t-34 9.5q-51 0 -122 -82q-62 -72 -127 -191q-32 -60 -58 -149t-33 -115.5t-13 -50.5q-10 -29 -52 -45q-22 -9 -31 -9q-10 0 -10 13z" />
<glyph unicode="Z" horiz-adv-x="986" d="M-44 -331q0 146 103 299q113 168 284 236q21 9 26 9q6 0 12 -32q1 -12 4 -24q0 -6 -25 -17q-151 -65 -253 -211q-91 -131 -91 -247q0 -72 43 -105q9 -7 24.5 -12t29.5 -5q88 0 231 115q129 104 209 219q66 97 106 197q45 111 45 201q0 60 -17 101t-56 72q-28 21 -86 27 t-77.5 18t-23.5 16q-18 16 -18 43q0 18 8 37q21 53 62 82t82 59l178 151q90 76 133 147q51 82 52 174q0 62 -38 110q-44 54 -109 54q-97 0 -220.5 -79t-222.5 -209q-31 -40 -36 -39q-1 7 -2 16q1 6 8.5 45.5t18.5 55.5q18 21 29 34q93 113 211 181t221 68q53 0 95 -18.5 t70 -58.5q51 -71 51 -153q0 -101 -78 -222q-66 -103 -179 -204q-41 -38 -170 -127q-57 -40 -65.5 -49t-15 -21.5t-6.5 -20.5q0 -16 26 -16q119 0 183 -61t64 -180q0 -115 -35 -221.5t-113 -218.5q-100 -144 -250 -263q-166 -132 -279 -132q-37 0 -67.5 17t-50.5 52 q-25 47 -25 110z" />
<glyph unicode="[" horiz-adv-x="698" d="M12 -97l626 1639h340l-36 -88h-210l-557 -1463h220l-33 -88h-350z" />
<glyph unicode="\" horiz-adv-x="1201" d="M431 1204q0 19 20 35q12 9 19 9q16 0 33 -31q25 -46 29 -50q18 -18 78 -155q54 -125 113 -275t80 -214q63 -190 92 -317q25 -106 25 -160q0 -57 -28 -53q-29 4 -39.5 12t-10.5 21q1 15 2 24q0 10 -3 15q-7 22 -33 148.5t-51 205.5q-34 107 -56 159q-59 135 -63 150 q-28 88 -81 213.5t-63 149t-36.5 60.5t-26.5 53z" />
<glyph unicode="]" horiz-adv-x="699" d="M-63 -97l34 88h220l559 1463h-210l33 88h340l-626 -1639h-350z" />
<glyph unicode="^" horiz-adv-x="824" d="M419 1204q-7 12 0 15q18 7 81 42q51 29 119 70q44 26 91 58q75 51 91 62q22 -34 46 -68q16 -22 43 -54t62.5 -67.5t48.5 -42.5q-1 -6 -3 -12q-21 -19 -35 -18q-25 4 -59 34q-18 15 -65 62q-13 13 -38 48q-19 26 -28 28q-4 0 -31 -17q-88 -59 -100 -66q-60 -35 -107 -59 q-60 -29 -85 -34q-16 -3 -31 19z" />
<glyph unicode="_" horiz-adv-x="1415" d="M10 -288h1459v-71h-1459v71z" />
<glyph unicode="`" horiz-adv-x="645" d="M500 1411q-4 12 13.5 29t24.5 7q16 -25 47.5 -67t64.5 -80q44 -51 78 -87q41 -44 59 -57q9 -7 -8 -21.5t-29 -9.5q-28 10 -68.5 49t-81.5 89q-71 82 -100 148z" />
<glyph unicode="a" horiz-adv-x="829" d="M-12 222q0 94 40 179q46 99 140 174q106 82 185 119q118 54 248 54q46 0 105 -18t59 -42q0 -9 -11 -18q-4 -3 -10 -16t-13 -13q-6 0 -18 9q-18 15 -48.5 23.5t-63.5 8.5q-125 0 -272 -81q-156 -87 -232 -208q-37 -59 -37 -152q0 -53 14 -98.5t39 -67.5q16 -15 38 -15 q65 0 180 128q76 87 185 243q99 143 104 147q4 4 20 4q18 0 31 -6.5t13 -21.5q0 -13 -6 -26q-10 -19 -15 -28l-122 -247q-18 -37 -34 -83.5t-16 -69.5q0 -16 9 -24q2 -1 6 -1q33 0 173 116q76 63 155 128q25 11 25 -13v-6q1 -14 -3 -26q-4 -16 -22 -27q-3 -3 -68 -59 q-28 -24 -54 -44q-84 -66 -131 -95q-90 -57 -144 -58q-10 0 -28.5 4.5t-18.5 38.5q0 16 25 114q-3 7 -6 17q-19 -15 -86 -83q-99 -100 -173 -100q-29 0 -66.5 15t-66.5 78t-29 147z" />
<glyph unicode="b" horiz-adv-x="764" d="M-19 276q0 26 19 43q75 72 106 101q53 51 70 83q6 10 13.5 26t25.5 65q65 175 129.5 351.5t123.5 332.5q53 143 64 167q7 18 29.5 39t35.5 21q18 0 18 -30q0 -22 -17 -80q-26 -90 -92 -257q-72 -176 -143 -351l-187 -515q-31 -84 -30 -85q-7 -26 -8 -52q0 -38 22 -70 q10 -15 37 -15q47 0 120 44t105 90q7 12 7 22q-12 35 -20 71t-8 79q0 29 1.5 44t9.5 56q18 100 75.5 193t115.5 93q7 0 19 -2q29 -9 41.5 -38t12.5 -73q0 -34 -3 -54.5t-14 -73.5q-22 -88 -64 -170q-25 -44 -48 -87q-6 -15 -6 -19q0 -24 34 -24q51 0 109 49l83 69 q20 -4 20 -19v-6q0 -15 -4 -29q-5 -17 -16 -18l-57 -44q-31 -25 -51 -37q-34 -19 -69 -23q-35 0 -51.5 2t-44.5 11l-32 -18q-47 -60 -118 -105t-143 -45q-28 0 -40.5 2.5t-35.5 10.5q-35 13 -50 40.5t-15 70.5q0 44 18 106q12 37 23 73q4 15 -7 15q-13 0 -44 -20t-50 -39 q-19 -4 -19 29zM468 345q0 -46 17 -54q4 -2 8 -2q23 0 50 58q23 51 44 129q10 41 19 78.5t9 55.5q0 43 -28 49q-3 1 -6 1q-29 0 -61 -79q-10 -25 -27 -86q-12 -38 -18.5 -77t-6.5 -73z" />
<glyph unicode="c" horiz-adv-x="621" d="M-12 226q0 60 23.5 126.5t78.5 137.5q88 116 176 176q103 71 213 71q32 0 72 -8.5t40 -86.5q0 -96 -63 -197q-7 -18 -47 -17q-26 0 -24 17q31 60 47 108t16 76q0 41 -16.5 43.5t-34.5 2.5q-68 0 -144 -55q-34 -24 -135 -119q-50 -47 -87.5 -128.5t-37.5 -157.5 q0 -47 18 -85.5t58 -61.5q24 -15 57 -15q93 0 246 109q122 87 179 157q13 3 18 -4q1 -4 1 -11v-7q0 -18 -2.5 -28t-16.5 -21q-115 -123 -216 -186q-115 -72 -222 -72q-44 0 -79 10t-72 68q-46 72 -46 158z" />
<glyph unicode="d" horiz-adv-x="904" d="M-15 215q0 103 60.5 212.5t155.5 179.5q81 60 97 71q97 62 206 62q10 0 23.5 -1.5t20.5 -1.5l30 104q28 103 69 204q51 123 95 213q60 123 106 187q50 67 83 67q5 0 10 -2q29 -10 29 -81q0 -88 -47 -268q-38 -147 -95 -307q-40 -113 -91 -223q-44 -94 -103 -194 q-38 -66 -112 -181l-6 -34q-7 -29 -7 -62q0 -40 12.5 -65.5t41.5 -19.5q34 6 128 71q107 74 215 173q16 -3 14 -21v-27q-3 -18 -14 -24q-78 -91 -200 -174t-188 -83q-16 0 -23 3q-37 13 -51 50q-7 18 -15 75l-4 38l-81 -84q-29 -31 -78 -59q-60 -35 -107 -35q-31 0 -60 18 q-57 38 -85.5 94t-28.5 125zM60 218q0 -56 18 -96t60 -57q9 -3 18 -3q60 0 151 69q106 81 152 185q0 43 6.5 81t10.5 65q17 101 49 210q-21 3 -32 3q-96 0 -203 -84q-85 -68 -177 -188q-22 -29 -37.5 -81.5t-15.5 -103.5zM551 466q0 -28 11 -28q6 -1 53 88q59 112 100 208 q57 131 87 231.5t61 209t31 154.5q0 27 -10 31q-2 1 -3 1q-24 0 -78 -117q-24 -51 -96 -232q-57 -144 -104 -306q-51 -176 -52 -240z" />
<glyph unicode="e" horiz-adv-x="660" d="M-9 212v29.5t5 65t54 130.5q59 96 190 200q49 38 127 66t139 28q71 0 90 -37t19 -77q0 -69 -48.5 -143t-118 -127t-151.5 -68q-54 -10 -169 -10h-52l-4 -65q0 -74 38 -112t94 -38q94 0 256 102q146 91 202 163q17 8 17 -16t-2 -36.5t-15 -19.5q-10 -19 -86 -79 q-88 -72 -183 -124q-122 -66 -205 -66q-26 0 -53 7q-71 24 -104 69q-40 54 -40 158zM103 331h85q50 0 112 22q72 26 122.5 71.5t78.5 85.5q37 51 37 94q0 19 -9 37q-12 22 -50 22q-43 0 -100.5 -27t-96.5 -61q-76 -71 -110 -110q-69 -81 -69 -134z" />
<glyph unicode="f" horiz-adv-x="558" d="M-75 -484q0 84 49 244q31 101 102 300t92 278q1 4 1 19q0 25 -12 25q-9 0 -23 -16q-26 -29 -69 -65q-32 -28 -65 -54q-12 -4 -16 3q-4 6 -3 15q0 40 19 56q41 35 60 51q28 25 58 57q41 46 85.5 96t78.5 157l196 604q35 109 78 190q18 32 32 32q22 0 22 -61 q0 -46 -11 -97.5t-40 -126.5q-37 -94 -72 -187q-72 -182 -111 -301l-330 -1014q-25 -75 -36 -122t-11 -75q0 -40 19 -47q4 -2 9 -2q32 0 89 84q66 97 113 238q56 165 56 304q0 41 47 61q85 34 112 53q94 71 116 104q12 7 16 0q3 -5 3 -15q0 -29 -6 -41q-1 -1 -13 -16 q-38 -41 -58 -58.5t-46 -32.5q-44 -25 -88 -49q-24 -21 -24 -75q0 -46 -18 -139q-22 -118 -57 -200q-51 -122 -139 -213q-79 -81 -128 -81q-6 0 -12 1q-65 16 -65 116z" />
<glyph unicode="g" horiz-adv-x="824" d="M-10 240q0 65 25 126q31 75 101 153q63 71 181 138q159 93 290 93q31 0 45.5 -1.5t49.5 -12.5t56 -31.5t21 -42.5q0 -10 -5 -18q-12 -24 -26 -24q-37 25 -68.5 44.5t-64.5 19.5q-122 0 -241 -67q-87 -47 -164 -126q-28 -28 -72 -82q-22 -25 -35.5 -76t-13.5 -104 q0 -74 23 -121q21 -42 61 -42h7q47 6 156.5 112.5t190.5 219.5q3 3 58 83q40 57 67 57q10 0 20.5 -8t10.5 -20q0 -9 -6.5 -23.5t-8.5 -18.5l-123 -289q-16 -38 -29.5 -79t-14.5 -47q-3 -9 -3 -21q0 -10 9 -10q7 0 20 9t16 12q59 60 165 154q69 60 138 122q10 4 15 -1 q3 -5 3 -14q0 -44 -18 -57q-121 -104 -227 -202t-143 -141q-84 -97 -141 -232q-35 -93 -71 -185q-34 -76 -78 -77q-22 0 -33 17t-11 44q0 24 4.5 45t20.5 75q24 79 91 175q51 74 105 146q19 29 48 101q40 94 60 175q3 12 0 13q-6 1 -17 -7q-79 -82 -124 -125 q-82 -79 -156 -79q-79 0 -116 59q-28 44 -45 152q-3 24 -3 39z" />
<glyph unicode="h" horiz-adv-x="905" d="M-19 262q0 43 20 59t48 44q37 37 73.5 72.5t71.5 113.5q28 62 112 286q119 315 232 604q10 26 26.5 39.5t33.5 13.5q28 0 28 -36q0 -16 -6 -33q-19 -66 -69 -196q-38 -100 -97 -237q-44 -104 -72 -166q-53 -123 -101 -244q-57 -147 -115 -294q-9 -22 -9 -47q0 -21 12 -20 q9 0 19 8.5t34 36.5q135 162 293 306q184 168 251 168q10 0 22 -7t12 -33q0 -24 -9.5 -52t-25.5 -64l-195 -438q-9 -24 -8 -37q0 -21 13 -25q2 -1 4 -1q33 0 188 123q71 56 142 113q14 2 14 -19q0 -41 -14 -53q-28 -25 -55 -49q-46 -40 -106 -83q-51 -37 -101 -72 q-88 -56 -141 -56q-15 0 -28 4q-25 10 -25 44q0 19 7 41q3 9 16 42l175 394q1 3 14 26q7 15 10 32q4 24 -15 24q-15 0 -34 -15q-76 -72 -151 -142q-125 -118 -190 -187q-104 -110 -200 -229q-13 -16 -30.5 -30.5t-32.5 -14.5q-22 0 -32 36q-1 2 -1 6q0 28 42 126l38 88 q13 40 13 55t-10 14q-6 0 -12 -3q-10 -6 -20 -17l-40 -34q-6 -3 -10 0q-9 4 -9 15z" />
<glyph unicode="i" horiz-adv-x="449" d="M-28 269q0 19 4.5 31t11.5 19q24 19 59 54l43 43q66 66 98.5 117t74.5 157q13 34 47 33q41 0 41 -20q0 -6 -8 -24q-60 -128 -150 -333.5t-91.5 -216.5t-1.5 -16v-7q0 -21 16 -21q10 0 30 11q7 4 32 20q59 40 147 109q71 56 115 94q14 0 14 -16v-6q0 -38 -14 -50 q-32 -28 -58 -50t-45 -37q-168 -128 -256 -161q-29 -10 -50 -11q-21 0 -30.5 12.5t-9.5 33.5t6.5 43.5t15.5 41.5l62 140q12 25 12 39q0 10 -9 11q-6 0 -17.5 -7.5t-14.5 -8.5q-25 -18 -39 -30.5t-19 -15.5q-16 -3 -16 22zM318 926q0 22 7 42.5t25.5 40.5t40.5 20q7 0 19 -5 t18 -17.5t6 -30.5q0 -9 -2.5 -20t-8.5 -27q-10 -24 -27 -40t-36 -16q-10 0 -19.5 4.5t-16 18t-6.5 30.5z" />
<glyph unicode="j" horiz-adv-x="538" d="M-97 -554q0 7 3 31q16 101 95 272q57 122 76.5 172t98.5 282q60 173 87 237q6 12 6 28q0 26 -16 26q-10 0 -25 -16q-68 -76 -126.5 -136.5t-101.5 -94.5q-21 -4 -18 19q0 22 5 32q1 1 13 21q81 76 190 200q94 107 157 193q16 22 38 22q34 0 34 -40q0 -18 -7 -32 q-31 -72 -101.5 -279t-101.5 -314q-3 -9 -3 -20q0 -12 10 -12q19 0 46 29q53 56 126.5 120.5t151.5 132.5q14 2 14 -22q0 -35 -14 -50q-50 -40 -72 -57q-32 -26 -77 -69q-71 -65 -141.5 -133.5t-118.5 -149.5q-18 -29 -82 -233q-32 -103 -75 -183q-15 -28 -42 -28 q-29 0 -29 52zM394 928q0 15 8 39.5t29.5 44.5t40.5 20q12 0 19 -6q18 -12 18 -38q0 -23 -12 -49q-10 -25 -27 -43t-36 -18q-7 0 -20 5.5t-16.5 18t-3.5 26.5z" />
<glyph unicode="k" horiz-adv-x="890" d="M-18 260q0 37 18 59q63 53 89 76t39 39q24 25 47 51q31 38 47 85q9 26 17 44t18 39l346 786q15 34 19 40q15 21 35 21q9 0 22 -5.5t13 -30.5q0 -15 -4 -31t-10 -30l-102 -243q-24 -54 -97 -193q-35 -66 -59 -120q-51 -119 -76 -174q-72 -160 -104 -251q-9 -22 -9 -38 q0 -13 12.5 -7.5t37.5 35.5q54 65 87 101q87 96 160 153q101 79 170 79q35 0 64 -23q42 -36 42 -99q0 -53 -26.5 -112.5t-58.5 -97.5q-54 -63 -138 -112q-71 -41 -125 -54q-34 -9 -51 -34.5t-17 -56.5q0 -40 23 -74.5t52 -34.5q60 0 190 87q101 69 239 185q17 0 17 -19 q2 -10 1 -18q0 -8 -1 -14q-3 -12 -17 -21q-82 -66 -139 -107q-87 -62 -162 -102q-91 -47 -144 -47q-51 0 -84 27q-44 37 -44 116q0 29 3 45q12 88 99.5 120t153.5 88q50 40 95 101q56 75 56 122q0 34 -29 50q-9 4 -19 5q-40 0 -113 -58q-60 -49 -146 -135q-50 -51 -141 -154 q-59 -65 -166 -227q-69 -104 -96 -104q-2 0 -4 1q-24 10 -24 37q0 34 43 110q54 96 61 118.5t7 34.5q0 18 -14 18q-10 0 -28 -13l-57 -46q-10 -6 -15 -1q-4 4 -3 14z" />
<glyph unicode="l" horiz-adv-x="548" d="M-15 262q0 43 15 57q34 28 75 66q18 16 73 71q35 34 62 92q15 32 44 117q35 100 94 280t89 266q50 144 91 239q10 24 22 36q15 16 30 16q3 0 7 -1q19 -6 19 -34q0 -18 -3.5 -31t-4.5 -19q-16 -75 -53 -183q-49 -146 -117 -314q-43 -104 -109 -298q-53 -156 -157 -471 q-7 -25 -8 -38q0 -35 30 -35q19 0 51 19q57 35 154.5 103.5t160.5 118.5q15 -3 13 -16q0 -25 -2 -37t-11 -19q-137 -106 -237 -171q-85 -56 -130 -73.5t-71 -17.5q-59 0 -59 65q0 13 2 28.5t32 92.5q25 65 38 111q9 29 9 47q0 21 -11 21q-10 0 -27.5 -19t-46.5 -43 q-38 -31 -49 -41q-15 -1 -15 15z" />
<glyph unicode="m" horiz-adv-x="1273" d="M-16 16q0 34 28 96q37 72 73 144q10 26 11 40q0 13 -11 13q-7 0 -16 -5q-6 -3 -19 -13t-26.5 -22.5t-23.5 -21.5q-6 -3 -10 4q-3 4 -5 14q0 24 2.5 34t12.5 20q35 29 69 63q53 53 69 68q78 74 128 232q4 18 15.5 30.5t33.5 12.5h11q4 -1 16 -4.5t12 -23.5q0 -10 -1 -15 q-4 -10 -6 -13q-40 -85 -78 -169q-62 -134 -96 -216q-7 -19 -7 -28q0 -16 12 -16q7 0 19 11q54 66 116.5 139t159.5 167q185 181 240 181q15 0 29.5 -8t14.5 -32q0 -13 -3 -23q-1 -7 -16 -38l-113 -249q-15 -34 -28 -70t-13 -49q0 -7 4 -10h2q22 0 152 153q84 99 134 144 q65 59 130 117q81 69 122 69q21 0 32 -16q7 -9 7 -26q0 -13 -3 -24q-1 -6 -8 -22l-222 -497q-12 -25 -14 -31q-3 -10 -3 -20q0 -13 11 -22q13 -10 50 12q7 4 51 36l246 187q13 2 14 -22q0 -13 -3.5 -27t-10.5 -23l-156 -124q-100 -75 -197 -117q-37 -16 -62 -16 q-43 0 -43 45q0 26 18 71q38 99 149 328q53 111 53 143q0 7 -2 10q-87 -69 -173 -139q-103 -110 -146 -155q-68 -72 -185 -221q-69 -88 -99 -88q-10 0 -14 3q-21 10 -21 37q0 25 19 69q15 31 21 44l164 357q18 38 18 66q0 25 -15 25q-13 0 -35 -23q-87 -90 -162 -172 q-53 -59 -139 -156q-56 -63 -112 -127q-37 -41 -72 -82q-46 -47 -72 -47q-7 0 -15 4q-13 12 -13 34z" />
<glyph unicode="n" horiz-adv-x="920" d="M-18 268q0 29 18 51q96 84 137 125q72 71 98 143q13 37 25 69t30 57q10 15 35 15t35 -15q6 -9 2 -21q-104 -224 -152 -338q-39 -94 -39 -118q0 -5 2 -7t5 -2q21 0 94 82q122 137 157 167q78 71 158 141q74 60 173 123q14 8 27 8h3q19 0 28.5 -16t9.5 -37q0 -13 -3 -17 l-52 -116l-182 -419q-7 -12 -7 -30t10 -23q2 -1 5 -1q29 0 163 101q118 90 160 129q9 4 13 0t4 -19q0 -37 -17 -53q-75 -68 -157 -129q-166 -125 -237 -125q-18 0 -30 8q-18 13 -17 45q0 24 10 55q6 18 22 58l179 392q13 29 14 41q0 7 -5 12q-1 2 -4 2q-19 0 -100 -71 q-101 -88 -257 -244q-113 -113 -218 -232q-35 -41 -48 -52q-24 -20 -44 -20h-2q-29 0 -29 39q0 22 10 45q18 44 35 79q41 81 49 106t8 34q0 13 -10 13q-15 0 -54 -30q-18 -13 -37 -29q-18 -1 -18 18v6z" />
<glyph unicode="o" horiz-adv-x="724" d="M-12 228q0 34 5 56q0 47 50 151q43 88 103 152t144.5 114t135.5 50q26 0 37 -14q6 -7 6 -21q0 -32 -24 -37q-84 -22 -154 -65.5t-122 -109.5q-46 -59 -72 -136.5t-26 -149.5q0 -119 66 -168q15 -10 36 -10q44 0 103 36.5t96 77.5q19 19 19 40q-12 38 -21.5 74t-9.5 79v25 t3 31q10 81 56 151q54 84 124 84q7 0 27 -4.5t29.5 -27t9.5 -59.5q0 -34 -3 -54.5t-11 -63t-40 -103.5t-32 -89q0 -13 4 -23.5t20 -10.5q31 0 93 43q51 35 86 73q10 1 14 -3q1 -3 1 -18q0 -32 -15 -51q-59 -57 -97.5 -77t-88.5 -27q-13 -1 -39 6.5t-33 7.5q-15 0 -23 -11 q-31 -46 -104 -100q-99 -72 -178 -72q-35 0 -64 14q-57 28 -87 105q-24 62 -24 135zM428 351q0 -35 5 -55.5t17 -24.5q3 -1 6 -1q22 0 45 68q13 41 28 82q10 26 15.5 50.5t5.5 49.5q0 41 -25 42q-28 0 -52 -40q-18 -29 -31.5 -74t-13.5 -97z" />
<glyph unicode="p" horiz-adv-x="943" d="M-47 -573q0 10 2 38.5t2 39.5q0 147 80 420q60 210 131 379q23 58 23 84q0 21 -12 21q-15 0 -47 -34.5t-76 -76.5q-32 -29 -56 -51q-9 -3 -15 1t-6 15q-1 21 5 34q12 15 16 22q51 46 116 109q19 19 118 119q35 37 51 59q26 37 40 82q4 15 16 23.5t25 8.5q29 0 29 -30 q0 -16 -8 -31q-16 -28 -22 -48t-6 -36q0 -19 11 -19q13 0 37 29q38 51 93 94q79 62 147 62q26 0 45 -7q54 -19 80 -67q20 -38 20 -92v-5q0 -43 -8.5 -81t-18.5 -60q-40 -93 -82 -162.5t-85 -115.5q-18 -18 -17 -28q0 -10 23 -10q12 1 19 2q65 6 180 85q101 71 142 119 q17 3 17 -21q0 -16 -4 -30t-13 -21l-50 -47q-54 -40 -83 -59q-74 -49 -124.5 -69.5t-97 -30.5t-74.5 -10q-16 0 -22 1q-16 3 -47 -8q-79 -31 -109 -31q-26 0 -48 8t-44.5 29t-22.5 36q0 13 15 20.5t37 7.5q28 0 63 -4.5t47 -4.5q24 0 42 8t48 33q54 49 100 115q31 44 72 121 q34 63 51 116t17 88q0 57 -36 88q-16 15 -42 15q-84 0 -230 -160q-129 -143 -167 -236q-76 -190 -114 -320q-22 -81 -40 -204.5t-36 -200t-22 -89.5q-21 -53 -53 -53q-22 0 -22 21z" />
<glyph unicode="q" horiz-adv-x="820" d="M-7 268q0 75 66 172q85 126 244 213q68 37 142.5 62t141.5 25q43 0 78.5 -12t62.5 -40q13 -15 20.5 -28t7.5 -26t-12 -21.5t-24 -8.5q-9 0 -25 13q-31 29 -53 43q-31 18 -63 18q-126 0 -303 -124q-187 -131 -201 -258q-1 -9 -1 -21.5v-20.5q0 -75 19 -123q25 -65 79 -65 q44 0 179 138q150 153 215 293q7 16 22.5 29.5t30.5 13.5q10 0 16 -6q18 -13 18 -25q0 -7 -8 -27q-50 -107 -79 -169q-71 -150 -118 -254q-81 -178 -144 -322q-78 -176 -85 -202t-7 -41q0 -18 13 -17q9 0 20 5t24 15q71 49 147 193q94 178 94 345q0 22 16 41q12 13 37 33 q79 57 122 88q78 57 137 122q10 1 13 -3q2 -3 2 -18q0 -21 -2.5 -32.5t-12.5 -18.5q-28 -32 -72 -69q-62 -53 -140 -107q-42 -28 -42 -70q0 -129 -67 -286q-85 -201 -226 -285q-53 -31 -90 -31q-60 0 -60 67q0 34 18 81q116 257 232 515q10 28 10 41q0 15 -10 15 q-13 0 -38 -27q-50 -53 -86 -75q-46 -28 -86 -28q-24 0 -45 6t-46 24q-43 28 -62 93t-19 157z" />
<glyph unicode="r" horiz-adv-x="688" d="M-16 268q0 25 6.5 35t9.5 16q68 74 121 149q38 54 91 144q7 13 10 19q10 18 10 29q0 12 -7 24q-18 35 -18 67q0 26 10.5 47t32.5 31q9 4 16 5q22 0 39.5 -22t17.5 -53q0 -28 5.5 -38.5t15.5 -10.5q4 0 22.5 3.5t21.5 3.5q10 1 27 2q50 0 79 -19q37 -25 37 -75 q0 -28 -11 -60q-22 -75 -76 -193q-79 -173 -97 -219q-12 -28 -12 -47q0 -22 19 -22q13 0 28.5 6.5t27.5 16.5l278 212q12 1 13 0q3 -3 3 -15q0 -24 -2 -39t-14 -18q-84 -65 -169 -128t-178 -116q-29 -18 -57 -18q-53 0 -53 61q0 15 7 39q22 62 87.5 204.5t106.5 254.5 q10 29 11 51q0 32 -22.5 46.5t-61.5 14.5q-46 0 -56 -7t-28 -40q-49 -96 -128 -200.5t-147 -161.5q-16 -3 -16 15v6z" />
<glyph unicode="s" horiz-adv-x="689" d="M-18 268v7q0 24 18 44q74 62 187 182q91 99 182 208q22 25 23.5 39t7.5 47t29 75q32 56 66 56q10 0 21 -6q24 -13 24 -44q0 -32 -27 -79q-18 -31 -38 -56q-10 -12 -18.5 -23t-8.5 -39q0 -209 -16.5 -326.5t-50.5 -208.5q-6 -13 -6 -22q0 -10 10 -10q4 0 12 3q7 3 16 6 q72 31 177 116q84 69 101 82q9 2 12 -19q2 -6 1 -14q0 -8 -1 -16q-3 -16 -12 -23q-107 -91 -178 -135q-94 -59 -188 -83q-26 -6 -62 -17q-15 -4 -58 -21t-106 -17q-49 0 -81.5 14.5t-32.5 43.5q0 10 4 25t32 15q12 0 61 -10q28 -6 40 -6q84 0 109 13q12 6 47 52 q46 59 69 186q19 106 19 238v23q-3 18 -15 17q-15 0 -47 -38q-57 -72 -126 -141q-78 -78 -178 -159q-10 -4 -15 4q-3 4 -3 17z" />
<glyph unicode="t" horiz-adv-x="532" d="M-21 266q0 15 6 29t15 24q63 62 103 103t95 106q25 28 42 58t31 67q28 75 57 151q7 19 7 28q0 15 -18.5 21t-68.5 6q-28 -1 -42 -2q-40 0 -40 22q0 4 5 18.5t13 18.5q7 4 35 4h53q19 0 36 -0.5t32 -0.5q19 0 27 6.5t17 31.5q37 104 75 205.5t73 169.5q7 13 16 28 q10 11 22 11q4 0 9 -1q16 -4 16 -38q0 -19 -3 -28q-21 -51 -44 -115q-46 -121 -78 -219q-4 -16 -4 -25q0 -21 34 -20h22q53 0 60 -3q9 -4 6 -27q-4 -22 -15 -29t-36 -7q-13 0 -45 1.5t-41 1.5q-19 0 -30 -15t-20 -40q-62 -179 -123.5 -337t-121.5 -314q-10 -26 -10 -50 q0 -32 26 -32q18 0 56 22q78 49 166 116q69 53 138 107q15 4 15 -19q1 -7 1 -19q0 -25 -16 -34q-101 -97 -238 -183t-203 -86q-24 0 -34 10q-15 15 -14 44q0 49 38 141q9 21 48 106q15 31 15 53q0 24 -18 24q-19 0 -47 -33q-22 -25 -79 -76q-9 -4 -15 0t-6 19z" />
<glyph unicode="u" horiz-adv-x="915" d="M-16 268v22q3 19 16 29q79 62 90 71q38 34 77 81.5t52 69.5q21 31 29 53q19 47 40 94q21 42 48 42q4 0 9 -1q29 -6 30 -26q0 -9 -9 -27q-62 -129 -122 -258q-76 -165 -104 -245q-7 -21 -8 -35q0 -19 15 -19q7 0 16 4t15 9q129 104 303 274q193 188 273 303q15 23 41 23h2 q16 0 27 -9.5t11 -24.5q0 -7 -4 -16q-71 -143 -131 -275q-54 -119 -116 -269q-6 -16 -6 -28q0 -19 20 -19q13 0 30 9q41 25 94 65q9 6 194 154q13 0 13 -7v-15v-12q0 -11 -1 -21q-2 -14 -12 -17q-72 -68 -159.5 -132.5t-155.5 -96.5q-44 -22 -76 -22q-28 0 -40.5 15 t-12.5 42q0 26 12 47q35 69 86 175q9 18 55 116q9 21 9 32q0 19 -17 20q-19 0 -39 -25q-94 -113 -235 -231q-82 -69 -212 -161q-44 -32 -77 -32q-24 0 -36 17t-12 40q0 13 6.5 33t45 93t52.5 111q3 6 3 18q0 18 -13 17q-10 0 -24 -13.5t-31 -30t-45 -32.5q-16 -3 -16 15v6z " />
<glyph unicode="v" horiz-adv-x="810" d="M-18 269q0 32 18 50q50 41 90 79q29 29 70 75q28 31 44.5 58.5t42.5 90.5q15 41 31 84q12 25 43 25q10 -1 16 -2q29 -4 29 -19q0 -9 -13 -35q-123 -262 -213 -490q-12 -29 -12 -57q0 -63 56 -63q21 0 42 10q49 22 117 79q84 71 126 142q13 22 27 44t16 42q15 156 107 296 q34 26 68 53q13 -13 13 -49q0 -51 -28 -132q-32 -91 -84 -188q-10 -24 -10 -49q0 -22 8 -41t25 -32.5t42 -13.5q41 0 100 43q10 7 59 50q13 4 16 -21v-7q0 -12 -2 -22q-4 -13 -14 -22q-38 -37 -84 -61t-87 -24q-32 0 -62 17q-10 6 -35 31q-18 18 -28 18q-12 0 -22 -15 q-51 -74 -129 -134q-103 -80 -190 -80h-2q-50 0 -88 26q-21 13 -30 35t-9 47q0 35 18 83t40 98q4 13 5 22q0 13 -9 13q-7 0 -22.5 -11.5t-37 -31.5t-40.5 -33q-18 -1 -18 22z" />
<glyph unicode="w" horiz-adv-x="1179" d="M-16 266q0 26 3 35q1 4 13 18q53 41 87 74q24 24 76 80q32 35 47.5 58t32.5 66q31 85 35 93q22 43 50 43q4 0 9 -1q29 -6 29 -26q0 -9 -9 -27q-53 -115 -119 -275t-101 -258q-7 -19 -8 -36q0 -24 22 -23q18 0 33 12q106 85 244 258q118 148 194 275q19 31 48 31 q32 0 33 -32q0 -9 -5 -22q-24 -57 -82 -219q-68 -188 -79 -242q-4 -21 -5 -32q0 -22 9.5 -32t24.5 -10q16 0 37 11q56 32 107.5 81t103.5 121q21 28 36.5 55.5t15.5 48.5q0 85 34 178q29 81 69 129q30 36 47 37q6 0 10 -4q19 -19 19 -59q0 -62 -41 -165q-21 -50 -59 -125 q-13 -26 -13 -61q0 -22 6 -40.5t23 -34t48 -15.5q46 0 107 40q29 19 63 48q16 1 16 -18q0 -24 -3.5 -35.5t-12.5 -18.5q-37 -35 -87.5 -58.5t-96.5 -23.5q-38 0 -67 17q-10 6 -36 33q-19 19 -29 19t-21 -15q-56 -78 -107 -125q-69 -62 -134 -76q-16 -3 -33 -5.5t-33 -2.5 q-47 0 -64.5 19.5t-17.5 51.5q0 9 1 19q0 3 7 32.5t15.5 64t19 65.5t10.5 44q0 18 -11 17q-13 0 -39 -33q-53 -68 -108 -125q-88 -93 -155 -134q-19 -12 -40.5 -21t-43.5 -9q-34 0 -50 24.5t-16 56.5q0 21 3 28l64 178q4 12 5 19q0 19 -14 19q-9 0 -20 -11 q-18 -18 -35.5 -35t-45.5 -33q-19 0 -16 19z" />
<glyph unicode="x" horiz-adv-x="857" d="M-18 266q0 24 2 30q3 13 16 23q34 34 68 69q26 28 64 71q97 112 196 223q31 28 58 41.5t46 13.5q21 0 36 -15q7 -7 10 -18.5t3 -43.5q0 -24 -1 -46t-1 -41v-17v-27q0 -29 9 -29q12 0 43 32q44 44 77 83t65 77q13 16 22 23q7 6 15 5q15 -1 30 -1q47 0 47 -10 q0 -4 -11 -14.5t-22 -21.5q-60 -68 -144 -151q-60 -60 -91.5 -92t-43.5 -52.5t-12 -49.5l-10 -216q0 -25 7.5 -36t18.5 -11q9 0 23 6.5t20 9.5q96 59 184 122q43 31 153 116q14 0 14 -15q1 -9 2 -25q0 -24 -16 -32q-87 -72 -150 -119q-88 -65 -171 -110q-21 -12 -45 -19.5 t-45 -7.5q-34 0 -53 17t-19 55q0 44 4.5 94t4.5 84q0 41 -16 41q-10 0 -31 -20q-56 -63 -90 -103q-63 -72 -116 -124q-10 -12 -21.5 -22t-47.5 -10h-16q-21 0 -21 9q0 6 5 13q6 9 19 25q40 49 107 116q163 166 216 228q15 16 22.5 31.5t7.5 36.5q0 25 4.5 64.5t4.5 76.5 q0 46 -27 45q-21 0 -51 -36q-66 -81 -102 -124q-141 -171 -232 -241q-18 0 -18 19z" />
<glyph unicode="y" horiz-adv-x="867" d="M-16 276q0 26 16 43q47 40 75 68q38 41 63 66q31 31 52.5 61t37.5 68q16 46 32 91q19 42 56 42h6q37 0 37 -17q0 -4 -5.5 -16t-8.5 -17q-7 -16 -148 -321q-54 -116 -75 -176q-10 -29 -10 -45t11 -16q6 0 15.5 5.5t21.5 13.5q119 94 284.5 269t252.5 299q15 21 41 21 q10 -1 16 -2q32 0 33 -15q0 -9 -9 -26q-47 -93 -142.5 -307.5t-132.5 -308.5q-9 -25 -9 -35q0 -15 10 -15q12 0 30 18q57 57 136 124q99 85 199 171q12 1 15 -6q2 -2 3 -15q1 -3 1 -8q0 -8 -4 -20q-6 -17 -15 -23q-26 -22 -129 -113q-116 -103 -161 -143 q-122 -110 -141 -128q-25 -24 -46.5 -62t-28.5 -51q-12 -22 -57 -132q-19 -44 -47 -99q-32 -63 -55 -91q-26 -35 -50 -35q-10 0 -16 3q-22 12 -22 53q0 35 16 87t40 98q31 59 129 198q44 63 55 86q15 21 119 261q6 15 78 178q9 22 9 36q0 13 -9 13q-13 0 -38 -27 q-104 -122 -218 -220q-103 -90 -191 -143q-50 -29 -80 -29q-18 0 -25.5 11t-7.5 28q0 21 7 41.5t29 67.5q53 116 65 147q3 6 3 18q0 15 -12 15q-10 0 -24.5 -15t-28.5 -27.5t-32 -25.5q-10 -1 -13 6t-3 23z" />
<glyph unicode="z" horiz-adv-x="720" d="M-82 -540q0 53 53 133q38 57 83 103q62 63 127 125q54 51 109 103q15 13 20 19q12 12 21 32.5t21.5 74.5t12.5 94q0 28 -5.5 47t-15.5 27t-21 8q-6 0 -60 -26q-28 -13 -48 -13q-40 0 -53 25q-4 9 -5 17q0 29 40 55t74 26q9 0 13 -1q12 -3 19 -3q46 0 112 62q18 16 63 64 q31 34 49 71.5t18 72.5q0 43 -29 66q-22 18 -51 18q-50 0 -122 -57q-59 -47 -117 -118q-51 -60 -107 -119l-119 -119q-16 -4 -16 22q0 32 16 50q110 126 222 253q150 156 241 156q71 -12 82 -18q76 -37 77 -137q0 -90 -75 -170q-32 -35 -118 -99q-18 -13 -23 -20 q-6 -7 -6 -15q6 -12 13 -22q15 -31 20 -53t5 -51q-1 -35 -1 -58q0 -26 14 -26q12 0 30 17q50 57 114 119t127 124q15 3 15 -21q0 -41 -15 -51q-115 -122 -306 -309q-12 -12 -21 -26q-3 -4 -16 -35q-60 -137 -88 -190q-49 -91 -118 -178q-29 -37 -72 -71q-59 -48 -105 -48h-2 q-31 0 -53.5 20t-22.5 50zM-9 -516q0 -13 11 -17.5t20 -4.5q26 0 57 28t94 120q29 44 46 74q24 44 24 68q0 5 -3 14q-2 4 -8 4q-11 0 -35 -18q-50 -40 -103 -102q-41 -46 -68 -87q-35 -53 -35 -79z" />
<glyph unicode="{" horiz-adv-x="643" d="M104 6q0 47 25 113l153 400q22 62 22 98q0 26 -10 43q-15 25 -34.5 38.5t-52.5 13.5q38 6 75 24t69 46q38 32 59 72q9 16 34 83l132 348q26 69 50 106q32 49 87 87q43 29 82 38.5t92 9.5l48 2q-44 -12 -78 -30.5t-70 -51.5t-55.5 -67t-37.5 -82l-140 -363 q-25 -68 -50 -103q-18 -25 -56 -56q-59 -47 -126 -63q32 -6 51.5 -18.5t29.5 -37t10 -52.5q0 -32 -13 -72q-1 -4 -19 -51l-147 -385q-21 -50 -21 -83q0 -16 8 -38q24 -66 95 -81l-51 -3q-68 0 -114.5 35.5t-46.5 79.5z" />
<glyph unicode="|" horiz-adv-x="602" d="M-141 -594l779 2050h113l-782 -2050h-110z" />
<glyph unicode="}" horiz-adv-x="661" d="M-94 -106q82 15 157 81q29 26 47 53.5t33 67.5l147 385q24 62 41 92q26 47 67 81q29 24 60.5 38t64.5 20q-53 16 -78 63q-12 26 -11 51q0 25 7 52q3 12 19 56l140 363q13 34 19.5 59.5t6.5 49.5v23q-4 12 -6 16q-12 37 -30 54t-56 29l48 -2q54 0 83.5 -8.5t51.5 -39.5 q21 -31 21 -71q0 -24 -7.5 -53t-23.5 -69l-132 -348q-25 -65 -29.5 -82.5t-4.5 -37.5q0 -19 6 -35q12 -28 34 -46.5t59 -23.5q-41 0 -83 -22q-18 -9 -44 -30q-62 -47 -95 -141l-153 -400q-12 -31 -25.5 -55t-32.5 -52q-29 -47 -105.5 -84t-147.5 -37z" />
<glyph unicode="~" horiz-adv-x="752" d="M493 1344q1 10 5.5 22.5t14.5 21.5q54 41 88 52t105 11q32 0 80.5 -30t80.5 -30t61 12q10 4 57 30q10 6 19 6q10 0 10 -7q-7 -29 -10 -43t-15 -22q-47 -24 -80.5 -33t-79.5 -9q-32 0 -79 30t-78 30q-62 0 -99 -21q-12 -7 -63 -44q-9 -9 -14.5 0t-2.5 24z" />
<glyph unicode="&#xa1;" horiz-adv-x="555" d="M-104 -466q0 16 15 39t20 33q13 29 59 147q40 103 88 231q12 31 87 238q47 132 54 141q12 37 25 74q18 41 43 41q7 -1 11 -2q15 -4 15 -25q0 -22 -16 -64q-9 -21 -16 -42l-274 -752q-10 -32 -14 -47q-9 -26 -28 -37.5t-37 -11.5q-32 0 -32 37zM298 640q0 28 13.5 51.5 t32.5 38t40 14.5q12 0 22 -6q24 -13 23 -44q0 -16 -6 -31.5t-10 -25.5q-13 -25 -30 -40t-39 -15q-9 0 -13 2q-32 10 -33 56z" />
<glyph unicode="&#xa2;" horiz-adv-x="836" d="M225 594q0 190 166 365q147 154 253 154q16 0 22 23q1 12 4 25l97 287q6 18 18.5 32.5t26.5 7.5q10 -6 10 -22q0 -12 -6 -30l-93 -260q-1 -7 -3 -13q-6 -19 -5 -24q0 -13 11 -17q49 -19 66 -30q26 -16 36 -41q3 -7 3 -22q0 -13 -5 -28q-1 -4 -10 -28l-49 -116 q-15 -37 -44 -37q-6 0 -15.5 7.5t-9.5 20.5q0 7 4.5 18.5t6.5 17.5l39 89q13 31 14 50q0 28 -43 37q-25 4 -34.5 -11t-27.5 -67l-150 -442l-10.5 -37.5t-3.5 -18.5q0 -9 14 -22q13 -10 52 10q7 4 133 91q29 21 68 54q74 67 81 68q16 4 16 -15q0 -12 -8 -31.5t-12 -26.5 q-18 -24 -84 -75q-56 -43 -107 -76t-87 -48.5t-87 -21.5q-12 0 -25 -37q-15 -49 -21 -69l-92 -282q-6 -19 -20 -33t-32 -11q-18 4 -17 26q0 10 3.5 25t9.5 31l97 274q12 29 12 41q0 22 -70 46t-88 129q-4 34 -4 63zM303 585q0 -69 32 -107q21 -25 44 -30q18 -10 34 -5 q15 3 18.5 19.5t8.5 34.5l167 466q10 31 10 47q0 21 -19 21q-60 0 -170 -142q-125 -159 -125 -304z" />
<glyph unicode="&#xa3;" horiz-adv-x="1133" d="M-7 56q0 56 66 72q35 9 132 9q19 0 37 -5q54 -13 56 -13q16 0 31 10q60 44 92 87q32 49 55 78h-193q-34 0 -34 19q0 9 4.5 19.5t11 26.5t33.5 16h219l57 109h-198q-34 0 -34 20q0 7 4.5 17.5t11 27t32.5 16.5l219 -2q24 57 57 150t58 159q40 106 97 241q38 91 71 148 q49 88 98 139q62 62 124 61q30 1 59 -14q44 -22 44 -103q0 -97 -68 -270.5t-193 -389.5q-13 -22 -24 -29t-52 -14q-9 -1 -21 -1q-16 0 -16 10q0 12 24 44q66 97 103 160q74 123 111 231q24 69 37 113q26 90 27 133q0 18 -3 30t-17 18.5t-22 6.5q-46 0 -104 -92 q-32 -50 -89 -173t-108 -258q-99 -263 -116 -300l200 2q22 0 26 -2q10 -3 11 -18q0 -9 -5 -22q-9 -25 -15 -30q-9 -7 -29 -8h-220l-52 -110h191q22 0 27 -2q10 -3 10 -17q0 -9 -6 -28t-14 -25.5t-29 -6.5h-208q-41 -69 -115 -148q-10 -12 -22 -23q-19 -19 -19 -25 q0 -9 48.5 -17.5t130.5 -8.5q79 0 168 8.5t151 21.5q15 3 16 3q18 0 18 -19q-3 -21 -3 -29q0 -18 -17 -27.5t-39 -13.5q-122 -15 -259 -15q-182 0 -304 35q-47 -13 -98.5 -26t-85.5 -13q-12 1 -17 1q-75 7 -78 7q-41 12 -41 49z" />
<glyph unicode="&#xa5;" horiz-adv-x="1330" d="M182 738q3 18 5 31q16 99 58 204.5t99 199.5q84 140 150 208q76 78 146 77q40 0 78 -24t38 -96q0 -43 -13.5 -92t-36.5 -101l-397 -935q-18 -44 -22 -56q-12 -34 -12 -55q0 -13 6 -18q22 -19 129 59q118 85 288 251q162 157 219 218q104 110 164 192q68 94 125 218 q24 59 48 119q18 34 43 42.5t34 8.5q12 0 11 -10q1 -10 -14 -47q-38 -91 -75 -181q-4 -12 -143 -339q-82 -196 -105 -246.5t-64 -152.5q-32 -79 -78 -178h209q37 0 37 -20q0 -9 -6 -27.5t-15 -26t-29 -7.5h-230l-44 -102h191q22 0 27 -2q10 -3 10 -18q0 -9 -4 -22 q-9 -25 -15 -31q-9 -7 -30 -7h-217q-41 -85 -46 -94q-31 -53 -113 -169q-19 -29 -38 -60q-12 -17 -19 -17q-10 0 -14.5 19.5t-10.5 34t-6 21.5q0 12 16 39q44 66 82.5 116.5t66.5 108.5h-199q-34 0 -34 20q0 7 4.5 18.5t11 27t33.5 15.5h225l41 101h-187q-34 0 -34 21 q0 7 4.5 18t11 27t33.5 16h207l50 124q32 76 38 91q22 60 90 213q56 128 66 160v5q-4 1 -24 -16t-95 -102q-81 -91 -132 -140q-81 -78 -164 -155.5t-154 -126.5q-88 -60 -185 -94q-7 -3 -21 -3q-25 0 -44 16.5t-19 42.5q0 9 2 13q16 81 72 222q50 126 123 287l241 576 q22 47 36 95.5t14 76.5t-14 37.5t-34 9.5q-51 0 -122 -82q-62 -72 -127 -191q-32 -60 -57.5 -149t-33 -115.5t-13.5 -50.5q-10 -29 -52 -45q-22 -9 -30 -9q-10 0 -11 13z" />
<glyph unicode="&#xa7;" horiz-adv-x="1195" d="M13 -198q0 69 34 152h125q-35 -69 -35 -123q0 -44 22.5 -76.5t67 -51t98.5 -18.5q68 0 129.5 26.5t107.5 81.5q31 38 49 83t18 83q0 75 -53 122l-313 278q-75 68 -75 157q0 49 25 115q37 93 101.5 157.5t166.5 114.5l62 31q-38 54 -39 113q0 49 28 120q53 132 188.5 216 t276.5 84q125 0 192 -59.5t67 -162.5q-1 -70 -36 -154h-114q32 69 32 120q0 75 -63 115q-44 26 -111 27q-82 0 -161.5 -39t-123.5 -110q-35 -59 -35 -113q0 -43 21.5 -79t59.5 -67l229 -185q68 -54 99 -98q41 -59 41 -125q0 -49 -21 -100q-38 -91 -103.5 -156.5 t-169.5 -121.5l-77 -41q51 -56 52 -127q0 -46 -21 -107q-49 -137 -185.5 -226t-293.5 -89q-125 0 -193.5 64t-68.5 169zM318 576q0 -37 14.5 -64t46.5 -56l303 -268l62 31q78 40 123 81q56 50 80 113q15 40 15 74q0 62 -53 107l-322 272l-52 -24q-76 -35 -122 -76 q-51 -47 -78 -112q-18 -44 -17 -78z" />
<glyph unicode="&#xa8;" horiz-adv-x="613" d="M484 1329q0 15 5 29t17 33q18 26 31 40q19 18 41 17q10 0 22 -5t17.5 -17.5t5.5 -30.5q1 -31 -17 -62q-12 -22 -34 -37t-44 -15q-16 0 -28 10q-16 15 -16 38zM701 1325q0 10 5.5 25.5t20.5 39.5t33 40.5t37 16.5q4 0 16 -3q26 -10 26 -47q1 -33 -17 -64q-13 -22 -35 -37 t-45 -15q-16 0 -28.5 11.5t-12.5 32.5z" />
<glyph unicode="&#xa9;" horiz-adv-x="1701" d="M188 438q0 216 137 446q143 240 369 386q253 165 541 165q250 0 381 -128q119 -116 119 -312q0 -216 -137 -445q-143 -240 -369 -387q-251 -163 -541 -163q-251 0 -381 126q-119 116 -119 312zM271 468q0 -175 104 -278q116 -113 341 -114q256 0 482 147 q206 134 329.5 342t123.5 402q0 173 -104 277q-118 114 -341 114q-256 0 -483 -147q-203 -132 -327.5 -341.5t-124.5 -401.5zM537 488q0 53 11.5 106.5t35.5 117.5q69 185 216 316q160 143 339 142q107 0 176.5 -50t69.5 -139v-33q-5 -16 -6 -22l-6 -34h-87l5 28q3 21 3 31 q0 68 -53 104.5t-132 36.5q-153 0 -277 -119q-103 -100 -163 -258q-24 -62 -36.5 -110t-12.5 -93q0 -72 42 -117t139 -57q7 -1 24 -1q91 0 191 67.5t159 167.5h85q-76 -137 -212 -220.5t-279 -83.5q-122 0 -177 58.5t-55 161.5z" />
<glyph unicode="&#xaa;" horiz-adv-x="802" d="M338 807q0 4 4.5 19t5.5 16q6 9 24 9h375q26 0 26 -14q0 -3 -3 -15q-9 -28 -32 -28h-376q-24 0 -24 13zM401 1085q0 65 30.5 129.5t96.5 117.5q72 59 129 85q79 37 174 37q34 0 74 -12.5t40 -30.5q0 -4 -7 -11q-1 -1 -6.5 -11t-11.5 -10t-11 6q-26 22 -78 22 q-88 0 -194 -58t-159 -143q-26 -43 -27 -108q0 -81 39 -114q10 -10 26 -11q49 0 141 109q93 126 187 253q6 3 13 3q31 0 31 -19q1 -9 -4.5 -19.5t-10.5 -18.5l-85 -174q-13 -25 -24 -57.5t-11 -49.5q0 -12 6 -16q18 -10 126 80q53 44 107 90q17 4 20 -9q0 -16 -2 -20 q-4 -13 -18 -21q-28 -25 -46 -41t-37 -32q-82 -62 -118 -81q-47 -25 -76 -25q-10 0 -20.5 3t-10.5 26q0 12 16 80q-3 6 -5 11q-9 -7 -58 -57q-69 -69 -122 -69q-19 0 -46.5 10t-47.5 53.5t-20 102.5z" />
<glyph unicode="&#xab;" horiz-adv-x="1204" d="M138 463l78 206l538 310l-78 -203l-378 -213l212 -206l-82 -216zM663 463l79 206l539 310l-78 -203l-380 -213l213 -206l-82 -216z" />
<glyph unicode="&#xac;" horiz-adv-x="1695" d="M157 501l43 111h1436l-232 -612h-119l191 501h-1319z" />
<glyph unicode="&#xad;" horiz-adv-x="611" d="M75 303q0 9 4.5 19t11 26.5t32.5 16.5h280q22 0 26 -2q10 -3 11 -18q-1 -9 -5 -22q-7 -21 -10 -26q-9 -13 -34 -13h-282q-34 0 -34 19z" />
<glyph unicode="&#xae;" horiz-adv-x="1709" d="M198 438q0 216 137 446q143 240 369 386q253 165 541 165q250 0 381 -128q119 -116 119 -312q0 -216 -137 -445q-143 -240 -369 -387q-251 -163 -541 -163q-251 0 -380 126q-119 116 -120 312zM281 468q0 -175 104 -278q116 -113 341 -114q256 0 483 147q206 134 329 342 t123 402q0 173 -104 277q-118 114 -341 114q-256 0 -482 -147q-203 -132 -328 -341.5t-125 -401.5zM512 276l329 863h318q112 0 169 -26q75 -34 75 -118q0 -36 -15 -82q-25 -76 -82.5 -129t-142.5 -84q29 -21 37 -28q16 -16 19 -33t3 -32q0 -47 -41.5 -141t-41.5 -156 q6 -21 8 -34h-90l-7 2q-4 38 20 109q59 168 59 195q0 24 -6.5 38.5t-25.5 27t-39 16t-55 3.5h-28h-230l-148 -391h-85zM775 740l241 1q97 0 165 31q88 39 120 132q7 21 9.5 37t2.5 25q0 54 -47 77t-122 23h-246z" />
<glyph unicode="&#xb0;" horiz-adv-x="564" d="M384 1035q0 25 5.5 55t14.5 63q26 90 92 161t132 71q19 0 45.5 -11t40.5 -41t14 -75q0 -31 -6 -61.5t-16 -61.5q-28 -87 -96.5 -157.5t-128.5 -70.5q-29 0 -52 17.5t-34 46.5t-11 64zM443 1059q0 -65 33 -78q7 -3 22 -3q44 0 89 49t64 112q7 24 13 52.5t6 52.5 q0 28 -8 45t-26.5 22t-29.5 5q-38 0 -72 -35q-22 -24 -53 -78q-38 -68 -38 -144z" />
<glyph unicode="&#xb1;" horiz-adv-x="754" d="M-28 0l18 47h491l-18 -47h-491zM119 362l22 60h215l84 216h57l-82 -216h213l-24 -60h-214l-83 -215h-56l83 215h-215z" />
<glyph unicode="&#xb4;" horiz-adv-x="632" d="M407 1151q0 12 8 13q22 9 98 55q66 40 144 88q35 22 96 65q104 75 128 82q9 3 13 -6t4 -22q0 -15 -6 -22q-21 -31 -80 -78q-49 -38 -120.5 -82t-147 -82.5t-110.5 -44.5q-9 -1 -18 10.5t-9 23.5z" />
<glyph unicode="&#xb5;" horiz-adv-x="1298" d="M-190 -390q0 10 2.5 23t8.5 29q24 65 58 117q104 153 109 162l28 58l399 1046h177l-274 -720q-19 -47 -20 -93q0 -57 32.5 -94t91.5 -37q84 0 194 67q119 72 151 155l277 722h172l-312 -814q-16 -44 -16 -87q0 -40 14.5 -62.5t48.5 -22.5q10 0 16 1q40 7 70 30t57 63 l38 56h37l-38 -65q-46 -76 -146 -134q-91 -51 -159 -51q-12 0 -17 1q-50 7 -83.5 48t-33.5 96q0 28 12 64l-73 -53q-93 -65 -181 -106t-141 -41t-108 29q-65 35 -85 93l-28 -74q-25 -65 -26.5 -162.5t-30.5 -178.5q-19 -53 -64.5 -95t-92.5 -42q-29 0 -46.5 20t-17.5 52z " />
<glyph unicode="&#xb6;" horiz-adv-x="1223" d="M203 -415l403 1057q-125 0 -198 71.5t-73 186.5q0 65 27 135q62 166 222.5 283t334.5 117l509 1l-705 -1845h-133l649 1706h-248l-653 -1707z" />
<glyph unicode="&#xb7;" horiz-adv-x="486" d="M284 723q0 16 5 30t18.5 37t30 38.5t38.5 15.5q7 0 21.5 -5t20 -17.5t5.5 -30.5q0 -33 -19 -62q-12 -22 -34 -37.5t-44 -15.5q-16 0 -29 12.5t-13 34.5z" />
<glyph unicode="&#xba;" horiz-adv-x="749" d="M341 806q0 3 3 11q3 9 7.5 19.5t23.5 10.5h342q25 0 25 -13q1 -9 -2 -15q-7 -28 -31 -28h-344q-24 0 -24 15zM398 1088v22q3 13 3 18q10 46 21 72q31 82 87 141q40 41 99 77t95 36q18 0 24.5 -9t6.5 -17q0 -21 -17 -24q-122 -32 -192 -122q-32 -41 -50.5 -95.5 t-18.5 -105.5q0 -82 45 -118q12 -7 27 -7q29 0 71.5 27t66.5 53q13 13 13 28q0 6 -11 39t-11 67q0 9 1.5 21t1.5 19q7 57 40 106q38 59 85 59q12 0 22 -3t17.5 -20t7.5 -42q0 -18 -3.5 -37.5t-8 -48.5t-26.5 -71t-22 -59q0 -6 3 -15t13 -9q22 0 61.5 27.5t64.5 53.5 q11 2 11 -13q0 -24 -11 -37q-40 -38 -69 -53.5t-61 -19.5q-9 -1 -27.5 4.5t-24.5 5.5q-9 0 -15 -7q-22 -34 -73 -71q-68 -50 -124 -50q-25 0 -45 10q-40 19 -58.5 68.5t-18.5 99.5zM706 1173q0 -50 14 -56q18 -7 37 47q9 29 19 58q6 16 10.5 34.5t4.5 35.5q0 29 -18 30 q-24 0 -42 -41q-9 -18 -17 -45t-8 -63z" />
<glyph unicode="&#xbb;" horiz-adv-x="1183" d="M25 141l82 216l369 206l-216 213l78 203l302 -310l-80 -206zM550 141l82 216l371 206l-216 213l77 203l300 -310l-79 -206z" />
<glyph unicode="&#xbf;" horiz-adv-x="736" d="M-121 -278q0 81 77 193q40 57 94 116l151 163q57 63 80 92.5t42 61.5q12 21 24 47q31 71 36 81.5t17 10.5q7 0 17.5 -8.5t13.5 -24.5q4 -15 -24 -69t-62 -107q-22 -32 -66 -85t-91 -102l-84 -87q-62 -63 -110 -158.5t-48 -138.5q0 -57 36.5 -95t86.5 -34q109 12 171 90 q53 94 75 125q6 6 13 6q13 0 22 -14t9 -45q0 -38 -93 -122q-109 -99 -212 -99q-88 0 -129 53q-32 43 -44 130q-1 7 -2 20zM393 645q0 28 11 51t30 37t41 14q12 0 22 -6q24 -13 23 -44q0 -16 -6 -31.5t-10 -25.5q-12 -22 -29.5 -37t-36.5 -15q-9 0 -13 2q-32 10 -32 55z" />
<glyph unicode="&#xc0;" horiz-adv-x="1321" d="M-14 18q0 6 5 20q57 150 112 268q3 6 49 82q34 56 33 81q0 28 -39 28q-13 0 -26.5 -3t-42 -8t-59.5 -14q-28 -3 -21 26q6 24 19.5 41t26.5 20l206 14l54 93q25 41 52 82q62 97 126 186q91 123 159 191q115 113 163 156q94 84 170 129q91 54 164 54q38 1 72 -14 q25 -12 37.5 -39.5t12.5 -62.5q0 -65 -40 -189q-54 -171 -59 -190q-28 -125 -79 -304q-65 -229 -78 -281q-35 -141 -35 -209q0 -16 1.5 -43.5t1.5 -40.5q0 -28 -3 -44q-9 -53 -53 -53q-21 0 -37 17t-16 45q0 12 3 28t3 41q0 81 -44.5 153.5t-125 119.5t-207.5 78 q-101 25 -166 25q-21 0 -23 -4q-12 1 -57 -79t-78 -154t-53.5 -128.5t-36.5 -103.5q-7 -19 -18.5 -27t-37.5 -8q-35 0 -35 21zM338 559q9 1 20 1h17q57 0 119.5 -10t133.5 -34q97 -32 160 -85q50 -43 113 -135q71 273 143 546q43 129 85 259q49 154 49 218q0 26 -3.5 38.5 t-15.5 21.5q-13 9 -33 9q-75 0 -230 -131q-126 -106 -262 -256q-79 -88 -179 -235q-81 -119 -90 -144zM1054 1808q-4 12 13.5 29t24.5 7q16 -25 47.5 -67t64.5 -80q44 -51 78 -87q41 -44 59 -57q9 -7 -8 -21.5t-29 -9.5q-28 10 -68.5 49t-81.5 89q-71 82 -100 148z" />
<glyph unicode="&#xc1;" horiz-adv-x="1243" d="M74 18q0 6 5 20q57 150 112 268q3 6 49 82q34 56 33 81q0 28 -39 28q-13 0 -26.5 -3t-42 -8t-59.5 -14q-28 -3 -21 26q6 24 19.5 41t26.5 20l206 14l54 93q25 41 52 82q62 97 126 186q91 123 159 191q115 113 163 156q94 84 170 129q91 54 164 54q38 1 72 -14 q25 -12 37.5 -39.5t12.5 -62.5q0 -65 -40 -189q-54 -171 -59 -190q-28 -125 -79 -304q-65 -229 -78 -281q-35 -141 -35 -209q0 -16 1.5 -43.5t1.5 -40.5q0 -28 -3 -44q-9 -53 -53 -53q-21 0 -37 17t-16 45q0 12 3 28t3 41q0 81 -44.5 153.5t-125 119.5t-207.5 78 q-101 25 -166 25q-21 0 -23 -4q-12 1 -57 -79t-78 -154t-53.5 -128.5t-36.5 -103.5q-7 -19 -18.5 -27t-37.5 -8q-35 0 -35 21zM426 559q9 1 20 1h17q57 0 119.5 -10t133.5 -34q97 -32 160 -85q50 -43 113 -135q71 273 143 546q43 129 85 259q49 154 49 218q0 26 -3.5 38.5 t-15.5 21.5q-13 9 -33 9q-75 0 -230 -131q-126 -106 -262 -256q-79 -88 -179 -235q-81 -119 -90 -144zM983 1551q0 12 8 13q22 9 98 55q66 40 144 88q35 22 96 65q104 75 128 82q9 3 13 -6t4 -22q0 -15 -6 -22q-21 -31 -80 -78q-49 -38 -120.5 -82t-147 -82.5t-110.5 -44.5 q-9 -1 -18 10.5t-9 23.5z" />
<glyph unicode="&#xc2;" horiz-adv-x="1243" d="M74 18q0 6 5 20q57 150 112 268q3 6 49 82q34 56 33 81q0 28 -39 28q-13 0 -26.5 -3t-42 -8t-59.5 -14q-28 -3 -21 26q6 24 19.5 41t26.5 20l206 14l54 93q25 41 52 82q62 97 126 186q91 123 159 191q115 113 163 156q94 84 170 129q91 54 164 54q38 1 72 -14 q25 -12 37.5 -39.5t12.5 -62.5q0 -65 -40 -189q-54 -171 -59 -190q-28 -125 -79 -304q-65 -229 -78 -281q-35 -141 -35 -209q0 -16 1.5 -43.5t1.5 -40.5q0 -28 -3 -44q-9 -53 -53 -53q-21 0 -37 17t-16 45q0 12 3 28t3 41q0 81 -44.5 153.5t-125 119.5t-207.5 78 q-101 25 -166 25q-21 0 -23 -4q-12 1 -57 -79t-78 -154t-53.5 -128.5t-36.5 -103.5q-7 -19 -18.5 -27t-37.5 -8q-35 0 -35 21zM426 559q9 1 20 1h17q57 0 119.5 -10t133.5 -34q97 -32 160 -85q50 -43 113 -135q71 273 143 546q43 129 85 259q49 154 49 218q0 26 -3.5 38.5 t-15.5 21.5q-13 9 -33 9q-75 0 -230 -131q-126 -106 -262 -256q-79 -88 -179 -235q-81 -119 -90 -144zM984 1530q-7 12 0 15q18 7 81 42q51 29 119 70q44 26 91 58q75 51 91 62q22 -34 46 -68q16 -22 43 -54t62.5 -67.5t48.5 -42.5q-1 -6 -3 -12q-21 -19 -35 -18 q-25 4 -59 34q-18 15 -65 62q-13 13 -38 48q-19 26 -28 28q-4 0 -31 -17q-88 -59 -100 -66q-60 -35 -107 -59q-60 -29 -85 -34q-16 -3 -31 19z" />
<glyph unicode="&#xc3;" horiz-adv-x="1327" d="M24 18q0 6 5 20q57 150 112 268q3 6 49 82q34 56 33 81q0 28 -39 28q-13 0 -26.5 -3t-42 -8t-59.5 -14q-28 -3 -21 26q6 24 19.5 41t26.5 20l206 14l54 93q25 41 52 82q62 97 126 186q91 123 159 191q115 113 163 156q94 84 170 129q91 54 164 54q38 1 72 -14 q25 -12 37.5 -39.5t12.5 -62.5q0 -65 -40 -189q-54 -171 -59 -190q-28 -125 -79 -304q-65 -229 -78 -281q-35 -141 -35 -209q0 -16 1.5 -43.5t1.5 -40.5q0 -28 -3 -44q-9 -53 -53 -53q-21 0 -37 17t-16 45q0 12 3 28t3 41q0 81 -44.5 153.5t-125 119.5t-207.5 78 q-101 25 -166 25q-21 0 -23 -4q-12 1 -57 -79t-78 -154t-53.5 -128.5t-36.5 -103.5q-7 -19 -18.5 -27t-37.5 -8q-35 0 -35 21zM376 559q9 1 20 1h17q57 0 119.5 -10t133.5 -34q97 -32 160 -85q50 -43 113 -135q71 273 143 546q43 129 85 259q49 154 49 218q0 26 -3.5 38.5 t-15.5 21.5q-13 9 -33 9q-75 0 -230 -131q-126 -106 -262 -256q-79 -88 -179 -235q-81 -119 -90 -144zM949 1547q1 10 5.5 22.5t14.5 21.5q54 41 88 52t105 11q32 0 80.5 -30t80.5 -30t61 12q10 4 57 30q10 6 19 6q10 0 10 -7q-7 -29 -10 -43t-15 -22q-47 -24 -80.5 -33 t-79.5 -9q-32 0 -79 30t-78 30q-62 0 -99 -21q-12 -7 -63 -44q-9 -9 -14.5 0t-2.5 24z" />
<glyph unicode="&#xc4;" horiz-adv-x="1320" d="M37 18q0 6 5 20q57 150 112 268q3 6 49 82q34 56 33 81q0 28 -39 28q-13 0 -26.5 -3t-42 -8t-59.5 -14q-28 -3 -21 26q6 24 19.5 41t26.5 20l206 14l54 93q25 41 52 82q62 97 126 186q91 123 159 191q115 113 163 156q94 84 170 129q91 54 164 54q38 1 72 -14 q25 -12 37.5 -39.5t12.5 -62.5q0 -65 -40 -189q-54 -171 -59 -190q-28 -125 -79 -304q-65 -229 -78 -281q-35 -141 -35 -209q0 -16 1.5 -43.5t1.5 -40.5q0 -28 -3 -44q-9 -53 -53 -53q-21 0 -37 17t-16 45q0 12 3 28t3 41q0 81 -44.5 153.5t-125 119.5t-207.5 78 q-101 25 -166 25q-21 0 -23 -4q-12 1 -57 -79t-78 -154t-53.5 -128.5t-36.5 -103.5q-7 -19 -18.5 -27t-37.5 -8q-35 0 -35 21zM389 559q9 1 20 1h17q57 0 119.5 -10t133.5 -34q97 -32 160 -85q50 -43 113 -135q71 273 143 546q43 129 85 259q49 154 49 218q0 26 -3.5 38.5 t-15.5 21.5q-13 9 -33 9q-75 0 -230 -131q-126 -106 -262 -256q-79 -88 -179 -235q-81 -119 -90 -144zM1038 1567q0 15 5 29t17 33q18 26 31 40q19 18 41 17q10 0 22 -5t17.5 -17.5t5.5 -30.5q1 -31 -17 -62q-12 -22 -34 -37t-44 -15q-16 0 -28 10q-16 15 -16 38zM1255 1563 q0 10 5.5 25.5t20.5 39.5t33 40.5t37 16.5q4 0 16 -3q26 -10 26 -47q1 -33 -17 -64q-13 -22 -35 -37t-45 -15q-16 0 -28.5 11.5t-12.5 32.5z" />
<glyph unicode="&#xc5;" horiz-adv-x="1299" d="M-21 18q0 6 6 20q57 150 112 268q3 6 49 82q34 56 33 81q0 28 -39 28q-13 0 -26.5 -3t-42 -8t-59.5 -14q-28 -3 -21 26q6 24 19.5 41t26.5 20l206 14l54 93q25 41 51 82q62 97 127 186q91 123 159 191q115 113 163 156q94 84 170 129q91 54 164 54q38 1 72 -14 q25 -12 37.5 -39.5t12.5 -62.5q0 -65 -40 -189q-54 -171 -59 -190q-28 -125 -79 -304q-65 -229 -78 -281q-35 -141 -35 -209q0 -16 1 -43.5t1 -40.5q0 -28 -2 -44q-9 -53 -53 -53q-21 0 -37 17t-16 45q0 12 3 28t3 41q0 81 -44.5 153.5t-125 119.5t-207.5 78 q-101 25 -166 25q-21 0 -23 -4q-12 1 -57 -79t-78 -154t-53.5 -128.5t-36.5 -103.5q-7 -19 -18.5 -27t-37.5 -8q-35 0 -36 21zM332 559q9 1 20 1h17q57 0 119.5 -10t133.5 -34q97 -32 160 -85q50 -43 113 -135q71 273 143 546q43 129 85 259q49 154 49 218q0 26 -3.5 38.5 t-15.5 21.5q-13 9 -33 9q-75 0 -231 -131q-126 -106 -261 -256q-79 -88 -180 -235q-81 -119 -89 -144zM1207 1638q0 24 3 37.5t12 44.5q21 63 65.5 112.5t91.5 49.5q16 0 33 -8t26.5 -29.5t9.5 -52.5q0 -34 -3 -45.5t-12 -39.5q-21 -63 -67 -111t-90 -48q-22 0 -37.5 13.5 t-23.5 32.5t-8 44zM1257 1661q0 -41 21 -50q29 -10 63 22t47 78q12 31 12 65q0 37 -18 42t-24 5q-18 0 -36 -14.5t-41.5 -57.5t-23.5 -90z" />
<glyph unicode="&#xc6;" horiz-adv-x="1658" d="M74 18q0 6 5 20q57 150 112 268q3 6 49 82q34 56 33 81q0 28 -39 28q-13 0 -26.5 -3t-42 -8t-59.5 -14q-21 0 -21 26q6 25 19.5 43t26.5 18l206 14l54 93q25 41 52 82q62 97 126 186q91 123 159 191q115 113 163 156q94 84 170 129q91 54 164 54q38 0 68 -13t42 -39.5 t12 -61.5q0 -40 -15 -100q-9 -38 -32 -114q82 123 200 200q128 84 260 84q71 0 110 -35q34 -31 34 -71t-72 -130q-13 -16 -144 -171q-88 -104 -110 -153q-13 -22 -27 -22q-13 0 -30 17t-17 33q0 9 3 16q13 19 18 27q32 50 89 114q53 56 109 115.5t87 99.5q13 18 13 40 q0 16 -7.5 30.5t-24 23.5t-39.5 9q-85 0 -216.5 -89.5t-190.5 -194.5q-37 -66 -55 -127t-18 -123q0 -84 38 -156l35 -66q13 -28 13 -64q0 -13 -11 -25t-59 -50l-94 -73q-46 -35 -82.5 -79t-52.5 -87l-3 -54l3 -71q12 -31 36 -44.5t74 -19.5q9 -1 26 -2q129 0 285 130 q131 109 195 225q13 25 33 25q7 0 20.5 -7t13.5 -29q0 -15 -9 -28q-115 -182 -259.5 -283.5t-300.5 -101.5q-37 0 -73.5 6t-70.5 26q-43 16 -60 50q-4 10 -9 31q10 31 10 65q0 72 -50.5 138t-132 113t-208.5 78q-101 25 -166 25q-21 0 -23 -4q-12 0 -57.5 -81t-78 -153.5 t-53 -127t-36.5 -103.5q-7 -19 -18.5 -27t-37.5 -8q-35 0 -35 21zM426 559q9 1 20 1h17q57 0 119.5 -10t133.5 -34q97 -32 160 -85q50 -43 113 -135q47 94 139 163q77 51 155 104q-28 65 -51 121.5t-34 94.5q-6 43 -6 97q0 113 36 271.5t36 183.5q0 35 -15 46t-35 11 q-75 0 -230 -131q-126 -106 -262 -256q-62 -68 -138 -176q-112 -160 -131 -203z" />
<glyph unicode="&#xc7;" horiz-adv-x="1214" d="M185 415q0 122 38 241q32 100 95 206q40 69 119 179q106 150 257 266q198 153 370 153q110 0 171 -66q54 -61 54 -152q0 -168 -138 -328q-103 -119 -267 -222q-6 -4 -183 -100q-7 -4 -11 -2q-4 1 -5 8q0 6 3.5 18.5t3.5 14.5q9 35 14 44q10 22 35 29q65 19 137 61 q85 49 147 111q87 87 135 163q63 100 63 180q0 59 -37 109q-46 60 -126 60q-131 0 -319 -150q-173 -138 -303 -325q-87 -126 -130 -258t-43 -260q0 -81 24 -145.5t73.5 -105t99.5 -58.5t104 -18q51 0 103.5 16t103.5 45q79 46 134 109q50 57 97 150q15 24 22 24t23.5 -17 t16.5 -27q0 -3 -6 -18q-59 -144 -196 -246q-153 -113 -333 -113q-9 -21 -15.5 -41.5t-0.5 -21.5q18 4 35 4q13 0 28.5 -5.5t28.5 -30t13 -50.5q0 -59 -58.5 -115t-133.5 -56q-24 0 -45 13.5t-21 35.5v8q0 6 17 17q10 4 22 7q16 -24 18 -25q6 -4 19 -4q10 0 16 1q34 6 71 34 q44 35 44 70q0 51 -40 52q-21 0 -50 -15q-3 -1 -17 -13.5t-24 -12.5q-16 0 -16 28q1 9 11.5 17.5t11.5 11.5q7 13 17.5 42t15.5 55q-132 25 -210 129q-82 112 -83 289z" />
<glyph unicode="&#xc8;" horiz-adv-x="896" d="M96 194q0 119 102 221q107 90 217 179q-40 88 -66.5 159.5t-26.5 113.5q0 193 172 383q182 201 397 201q71 0 110 -35q34 -31 34 -71t-72 -131q-13 -16 -144 -170q-88 -104 -110 -153q-13 -22 -27 -22q-13 0 -30 17t-17 33q0 9 3 16q13 19 18 27q32 50 89 114 q53 56 109 115.5t87 99.5q13 18 13 40q0 16 -7.5 30.5t-24 23.5t-38.5 9q-85 0 -217 -90t-191 -194q-37 -66 -55 -127t-18 -123q0 -84 38 -156l35 -66q13 -28 14 -68q0 -13 -14 -26q-4 -4 -57 -46l-94 -72q-65 -50 -106 -114t-41 -122q0 -62 27 -87t95 -32q9 -1 26 -2 q129 0 286 129q131 109 194 225q13 25 33 25q7 0 20.5 -6.5t13.5 -28.5q0 -15 -9 -28q-115 -182 -259.5 -283.5t-300.5 -101.5q-79 0 -125 25q-84 46 -83 169zM829 1799q-4 12 13.5 29t24.5 7q16 -25 47.5 -67t64.5 -80q44 -51 78 -87q41 -44 59 -57q9 -7 -8 -21.5t-29 -9.5 q-28 10 -68.5 49t-81.5 89q-71 82 -100 148z" />
<glyph unicode="&#xc9;" horiz-adv-x="986" d="M-47 194q0 119 102 221q107 90 217 179q-40 88 -66.5 159.5t-26.5 113.5q0 193 172 383q182 201 397 201q71 0 110 -35q34 -31 34 -71t-72 -131q-13 -16 -144 -170q-88 -104 -110 -153q-13 -22 -27 -22q-13 0 -30 17t-17 33q0 9 3 16q13 19 18 27q32 50 89 114 q53 56 109 115.5t87 99.5q13 18 13 40q0 16 -7.5 30.5t-24 23.5t-38.5 9q-85 0 -217 -90t-191 -194q-37 -66 -55 -127t-18 -123q0 -84 38 -156l35 -66q13 -28 14 -68q0 -13 -14 -26q-4 -4 -57 -46l-94 -72q-65 -50 -106 -114t-41 -122q0 -62 27 -87t95 -32q9 -1 26 -2 q129 0 286 129q131 109 194 225q13 25 33 25q7 0 20.5 -6.5t13.5 -28.5q0 -15 -9 -28q-115 -182 -259.5 -283.5t-300.5 -101.5q-79 0 -125 25q-84 46 -83 169zM597 1548q0 12 8 13q22 9 98 55q66 40 144 88q35 22 96 65q104 75 128 82q9 3 13 -6t4 -22q0 -15 -6 -22 q-21 -31 -80 -78q-49 -38 -120.5 -82t-147 -82.5t-110.5 -44.5q-9 -1 -18 10.5t-9 23.5z" />
<glyph unicode="&#xca;" horiz-adv-x="871" d="M96 194q0 119 102 221q107 90 217 179q-40 88 -66.5 159.5t-26.5 113.5q0 193 172 383q182 201 397 201q71 0 110 -35q34 -31 34 -71t-72 -131q-13 -16 -144 -170q-88 -104 -110 -153q-13 -22 -27 -22q-13 0 -30 17t-17 33q0 9 3 16q13 19 18 27q32 50 89 114 q53 56 109 115.5t87 99.5q13 18 13 40q0 16 -7.5 30.5t-24 23.5t-38.5 9q-85 0 -217 -90t-191 -194q-37 -66 -55 -127t-18 -123q0 -84 38 -156l35 -66q13 -28 14 -68q0 -13 -14 -26q-4 -4 -57 -46l-94 -72q-65 -50 -106 -114t-41 -122q0 -62 27 -87t95 -32q9 -1 26 -2 q129 0 286 129q131 109 194 225q13 25 33 25q7 0 20.5 -6.5t13.5 -28.5q0 -15 -9 -28q-115 -182 -259.5 -283.5t-300.5 -101.5q-79 0 -125 25q-84 46 -83 169zM572 1533q-7 12 0 15q18 7 81 42q51 29 119 70q44 26 91 58q75 51 91 62q22 -34 46 -68q16 -22 43 -54 t62.5 -67.5t48.5 -42.5q-1 -6 -3 -12q-21 -19 -35 -18q-25 4 -59 34q-18 15 -65 62q-13 13 -38 48q-19 26 -28 28q-4 0 -31 -17q-88 -59 -100 -66q-60 -35 -107 -59q-60 -29 -85 -34q-16 -3 -31 19z" />
<glyph unicode="&#xcb;" horiz-adv-x="896" d="M96 194q0 119 102 221q107 90 217 179q-40 88 -66.5 159.5t-26.5 113.5q0 193 172 383q182 201 397 201q71 0 110 -35q34 -31 34 -71t-72 -131q-13 -16 -144 -170q-88 -104 -110 -153q-13 -22 -27 -22q-13 0 -30 17t-17 33q0 9 3 16q13 19 18 27q32 50 89 114 q53 56 109 115.5t87 99.5q13 18 13 40q0 16 -7.5 30.5t-24 23.5t-38.5 9q-85 0 -217 -90t-191 -194q-37 -66 -55 -127t-18 -123q0 -84 38 -156l35 -66q13 -28 14 -68q0 -13 -14 -26q-4 -4 -57 -46l-94 -72q-65 -50 -106 -114t-41 -122q0 -62 27 -87t95 -32q9 -1 26 -2 q129 0 286 129q131 109 194 225q13 25 33 25q7 0 20.5 -6.5t13.5 -28.5q0 -15 -9 -28q-115 -182 -259.5 -283.5t-300.5 -101.5q-79 0 -125 25q-84 46 -83 169zM790 1564q0 15 5 29t17 33q18 26 31 40q19 18 41 17q10 0 22 -5t17.5 -17.5t5.5 -30.5q1 -31 -17 -62 q-12 -22 -34 -37t-44 -15q-16 0 -28 10q-16 15 -16 38zM1007 1560q0 10 5.5 25.5t20.5 39.5t33 40.5t37 16.5q4 0 16 -3q26 -10 26 -47q1 -33 -17 -64q-13 -22 -35 -37t-45 -15q-16 0 -28.5 11.5t-12.5 32.5z" />
<glyph unicode="&#xcc;" horiz-adv-x="740" d="M-9 26q0 10 15.5 40.5t31.5 30.5q13 0 28.5 -9.5t32.5 -18.5t30 -9q6 0 12 3q135 62 259 215q106 131 209 339q75 150 136 365.5t61 328.5q0 78 -33 78q-65 0 -150 -101q-71 -85 -136 -215q-31 -63 -49.5 -126t-27.5 -115.5t-15.5 -68t-32.5 -44.5q-21 -24 -41 -46 q-9 0 -9 52q-6 63 33 196t99 235q71 122 157 211q104 109 180 109q29 0 53 -19q25 -21 36.5 -61t11.5 -95q0 -171 -106 -464q-91 -256 -192 -428q-88 -154 -215 -277q-153 -148 -269 -148q-37 0 -71 17q-22 9 -28 12q-10 4 -10 13zM700 1799q-4 12 13.5 29t24.5 7 q16 -25 47.5 -67t64.5 -80q44 -51 78 -87q41 -44 59 -57q9 -7 -8 -21.5t-29 -9.5q-28 10 -68.5 49t-81.5 89q-71 82 -100 148z" />
<glyph unicode="&#xcd;" horiz-adv-x="752" d="M-9 26q0 10 15.5 40.5t31.5 30.5q13 0 28.5 -9.5t32.5 -18.5t30 -9q6 0 12 3q135 62 259 215q106 131 209 339q75 150 136 365.5t61 328.5q0 78 -33 78q-65 0 -150 -101q-71 -85 -136 -215q-31 -63 -49.5 -126t-27.5 -115.5t-15.5 -68t-32.5 -44.5q-21 -24 -41 -46 q-9 0 -9 52q-6 63 33 196t99 235q71 122 157 211q104 109 180 109q29 0 53 -19q25 -21 36.5 -61t11.5 -95q0 -171 -106 -464q-91 -256 -192 -428q-88 -154 -215 -277q-153 -148 -269 -148q-37 0 -71 17q-22 9 -28 12q-10 4 -10 13zM583 1551q0 12 8 13q22 9 98 55 q66 40 144 88q35 22 96 65q104 75 128 82q9 3 13 -6t4 -22q0 -15 -6 -22q-21 -31 -80 -78q-49 -38 -120.5 -82t-147 -82.5t-110.5 -44.5q-9 -1 -18 10.5t-9 23.5z" />
<glyph unicode="&#xce;" horiz-adv-x="752" d="M-9 26q0 10 15.5 40.5t31.5 30.5q13 0 28.5 -9.5t32.5 -18.5t30 -9q6 0 12 3q135 62 259 215q106 131 209 339q75 150 136 365.5t61 328.5q0 78 -33 78q-65 0 -150 -101q-71 -85 -136 -215q-31 -63 -49.5 -126t-27.5 -115.5t-15.5 -68t-32.5 -44.5q-21 -24 -41 -46 q-9 0 -9 52q-6 63 33 196t99 235q71 122 157 211q104 109 180 109q29 0 53 -19q25 -21 36.5 -61t11.5 -95q0 -171 -106 -464q-91 -256 -192 -428q-88 -154 -215 -277q-153 -148 -269 -148q-37 0 -71 17q-22 9 -28 12q-10 4 -10 13zM548 1533q-7 12 0 15q18 7 81 42 q51 29 119 70q44 26 91 58q75 51 91 62q22 -34 46 -68q16 -22 43 -54t62.5 -67.5t48.5 -42.5q-1 -6 -3 -12q-21 -19 -35 -18q-25 4 -59 34q-18 15 -65 62q-13 13 -38 48q-19 26 -28 28q-4 0 -31 -17q-88 -59 -100 -66q-60 -35 -107 -59q-60 -29 -85 -34q-16 -3 -31 19z" />
<glyph unicode="&#xcf;" horiz-adv-x="752" d="M-9 26q0 10 15.5 40.5t31.5 30.5q13 0 28.5 -9.5t32.5 -18.5t30 -9q6 0 12 3q135 62 259 215q106 131 209 339q75 150 136 365.5t61 328.5q0 78 -33 78q-65 0 -150 -101q-71 -85 -136 -215q-31 -63 -49.5 -126t-27.5 -115.5t-15.5 -68t-32.5 -44.5q-21 -24 -41 -46 q-9 0 -9 52q-6 63 33 196t99 235q71 122 157 211q104 109 180 109q29 0 53 -19q25 -21 36.5 -61t11.5 -95q0 -171 -106 -464q-91 -256 -192 -428q-88 -154 -215 -277q-153 -148 -269 -148q-37 0 -71 17q-22 9 -28 12q-10 4 -10 13zM649 1564q0 15 5 29t17 33q18 26 31 40 q19 18 41 17q10 0 22 -5t17.5 -17.5t5.5 -30.5q1 -31 -17 -62q-12 -22 -34 -37t-44 -15q-16 0 -28 10q-16 15 -16 38zM866 1560q0 10 5.5 25.5t20.5 39.5t33 40.5t37 16.5q4 0 16 -3q26 -10 26 -47q1 -33 -17 -64q-13 -22 -35 -37t-45 -15q-16 0 -28.5 11.5t-12.5 32.5z" />
<glyph unicode="&#xd1;" horiz-adv-x="1080" d="M-65 -51q0 12 18 30q106 131 232 391q90 185 222 506q185 451 199 481q22 50 41 66q25 21 54 16q22 -4 35.5 -33.5t13.5 -72.5q0 -185 5 -469.5t7.5 -359.5t4.5 -179q0 -87 20 -87q7 0 19.5 20.5t25 56t71.5 216.5q54 168 92 279q54 154 106 272q12 26 25 27q10 0 21 -20 q3 -5 13 -30q4 -9 4 -21q0 -19 -12.5 -46.5t-15.5 -32.5q-35 -88 -107 -293q-81 -226 -109 -304q-60 -163 -114 -286q-26 -59 -39 -72t-38 -10q-25 0 -31 13.5t-6 60.5v28q0 215 -3.5 420.5t-7 438.5t-3.5 258q0 49 -22 48q-16 0 -31 -39q-94 -250 -175 -450 q-106 -260 -188 -434q-101 -213 -194 -353q-7 -13 -15 -28q-15 -19 -77 -19q-15 0 -28 1t-13 10zM862 1550q1 10 5.5 22.5t14.5 21.5q54 41 88 52t105 11q32 0 80.5 -30t80.5 -30t61 11q10 4 57 31q10 6 19 6q10 0 10 -7q-7 -29 -10 -43.5t-15 -21.5q-47 -24 -80.5 -33.5 t-79.5 -9.5q-32 0 -79 30.5t-78 30.5q-62 0 -99 -21q-12 -7 -63 -44q-9 -9 -14.5 0t-2.5 24z" />
<glyph unicode="&#xd2;" horiz-adv-x="1146" d="M153 328q0 151 48 306q41 129 117 263q57 101 135 203q115 150 258 246t289 115q6 0 17.5 2.5t18.5 2.5q26 0 37 -18.5t11 -27.5q0 -13 -24 -17.5t-35 -5.5q-203 -32 -383 -200q-154 -146 -266 -366q-100 -197 -130 -386q-4 -31 -7.5 -57t-3.5 -54q0 -116 44 -183 q51 -76 153 -76q19 0 30 1q268 28 482 342q200 293 245 655q1 7 2 22q0 57 -33 103t-82 46q-90 0 -184 -94q-101 -101 -161 -271q-7 -21 -15 -26q-3 -3 -35 -21q-18 -9 -28 -9q-19 0 -19 27q0 18 8 35q84 206 190.5 314t228.5 108q106 0 156 -60.5t50 -170.5 q0 -159 -101 -403q-116 -281 -287 -458q-209 -219 -445 -219q-122 0 -201.5 89.5t-79.5 242.5zM982 1799q-4 12 13.5 29t24.5 7q16 -25 47.5 -67t64.5 -80q44 -51 78 -87q41 -44 59 -57q9 -7 -8 -21.5t-29 -9.5q-28 10 -68.5 49t-81.5 89q-71 82 -100 148z" />
<glyph unicode="&#xd3;" horiz-adv-x="1148" d="M153 328q0 151 48 306q41 129 117 263q57 101 135 203q115 150 258 246t289 115q6 0 17.5 2.5t18.5 2.5q26 0 37 -18.5t11 -27.5q0 -13 -24 -17.5t-35 -5.5q-203 -32 -383 -200q-154 -146 -266 -366q-100 -197 -130 -386q-4 -31 -7.5 -57t-3.5 -54q0 -116 44 -183 q51 -76 153 -76q19 0 30 1q268 28 482 342q200 293 245 655q1 7 2 22q0 57 -33 103t-82 46q-90 0 -184 -94q-101 -101 -161 -271q-7 -21 -15 -26q-3 -3 -35 -21q-18 -9 -28 -9q-19 0 -19 27q0 18 8 35q84 206 190.5 314t228.5 108q106 0 156 -60.5t50 -170.5 q0 -159 -101 -403q-116 -281 -287 -458q-209 -219 -445 -219q-122 0 -201.5 89.5t-79.5 242.5zM866 1551q0 12 8 13q22 9 98 55q66 40 144 88q35 22 96 65q104 75 128 82q9 3 13 -6t4 -22q0 -15 -6 -22q-21 -31 -80 -78q-49 -38 -120.5 -82t-147 -82.5t-110.5 -44.5 q-9 -1 -18 10.5t-9 23.5z" />
<glyph unicode="&#xd4;" horiz-adv-x="1148" d="M153 328q0 151 48 306q41 129 117 263q57 101 135 203q115 150 258 246t289 115q6 0 17.5 2.5t18.5 2.5q26 0 37 -18.5t11 -27.5q0 -13 -24 -17.5t-35 -5.5q-203 -32 -383 -200q-154 -146 -266 -366q-100 -197 -130 -386q-4 -31 -7.5 -57t-3.5 -54q0 -116 44 -183 q51 -76 153 -76q19 0 30 1q268 28 482 342q200 293 245 655q1 7 2 22q0 57 -33 103t-82 46q-90 0 -184 -94q-101 -101 -161 -271q-7 -21 -15 -26q-3 -3 -35 -21q-18 -9 -28 -9q-19 0 -19 27q0 18 8 35q84 206 190.5 314t228.5 108q106 0 156 -60.5t50 -170.5 q0 -159 -101 -403q-116 -281 -287 -458q-209 -219 -445 -219q-122 0 -201.5 89.5t-79.5 242.5zM795 1533q-7 12 0 15q18 7 81 42q51 29 119 70q44 26 91 58q75 51 91 62q22 -34 46 -68q16 -22 43 -54t62.5 -67.5t48.5 -42.5q-1 -6 -3 -12q-21 -19 -35 -18q-25 4 -59 34 q-18 15 -65 62q-13 13 -38 48q-19 26 -28 28q-4 0 -31 -17q-88 -59 -100 -66q-60 -35 -107 -59q-60 -29 -85 -34q-16 -3 -31 19z" />
<glyph unicode="&#xd5;" horiz-adv-x="1192" d="M110 328q0 151 48 306q41 129 117 263q57 101 135 203q115 150 258 246t289 115q6 0 17.5 2.5t18.5 2.5q26 0 37 -18.5t11 -27.5q0 -13 -24 -17.5t-35 -5.5q-203 -32 -383 -200q-154 -146 -266 -366q-100 -197 -130 -386q-4 -31 -7.5 -57t-3.5 -54q0 -116 44 -183 q51 -76 153 -76q19 0 30 1q268 28 482 342q200 293 245 655q1 7 2 22q0 57 -33 103t-82 46q-90 0 -184 -94q-101 -101 -161 -271q-7 -21 -15 -26q-3 -3 -35 -21q-18 -9 -28 -9q-19 0 -19 27q0 18 8 35q84 206 190.5 314t228.5 108q106 0 156 -60.5t50 -170.5 q0 -159 -101 -403q-116 -281 -287 -458q-209 -219 -445 -219q-122 0 -201.5 89.5t-79.5 242.5zM899 1547q1 10 5.5 22.5t14.5 21.5q54 41 88 52t105 11q32 0 80.5 -30t80.5 -30t61 12q10 4 57 30q10 6 19 6q10 0 10 -7q-7 -29 -10 -43t-15 -22q-47 -24 -80.5 -33t-79.5 -9 q-32 0 -79 30t-78 30q-62 0 -99 -21q-12 -7 -63 -44q-9 -9 -14.5 0t-2.5 24z" />
<glyph unicode="&#xd6;" horiz-adv-x="1202" d="M90 328q0 151 48 306q41 129 117 263q57 101 135 203q115 150 258 246t289 115q6 0 17.5 2.5t18.5 2.5q26 0 37 -18.5t11 -27.5q0 -13 -24 -17.5t-35 -5.5q-203 -32 -383 -200q-154 -146 -266 -366q-100 -197 -130 -386q-4 -31 -7.5 -57t-3.5 -54q0 -116 44 -183 q51 -76 153 -76q19 0 30 1q268 28 482 342q200 293 245 655q1 7 2 22q0 57 -33 103t-82 46q-90 0 -184 -94q-101 -101 -161 -271q-7 -21 -15 -26q-3 -3 -35 -21q-18 -9 -28 -9q-19 0 -19 27q0 18 8 35q84 206 190.5 314t228.5 108q106 0 156 -60.5t50 -170.5 q0 -159 -101 -403q-116 -281 -287 -458q-209 -219 -445 -219q-122 0 -201.5 89.5t-79.5 242.5zM999 1570q0 15 5 29t17 33q18 26 31 40q19 18 41 17q10 0 22 -5t17.5 -17.5t5.5 -30.5q1 -31 -17 -62q-12 -22 -34 -37t-44 -15q-16 0 -28 10q-16 15 -16 38zM1216 1566 q0 10 5.5 25.5t20.5 39.5t33 40.5t37 16.5q4 0 16 -3q26 -10 26 -47q1 -33 -17 -64q-13 -22 -35 -37t-45 -15q-16 0 -28.5 11.5t-12.5 32.5z" />
<glyph unicode="&#xd8;" horiz-adv-x="1208" d="M141 -40q0 19 18.5 56.5t52.5 90.5q-59 82 -59 221q0 151 48 306q41 129 117 263q57 101 135 203q115 150 258 246t289 115q6 0 17.5 2.5t18.5 2.5q26 0 37 -18.5t11 -27.5q0 -13 -24 -17.5t-35 -5.5q-203 -32 -383 -200q-154 -146 -266 -366q-100 -197 -130 -386 q-4 -28 -7.5 -57t-3.5 -56q0 -90 28 -150q54 78 143 191q79 103 142 180q50 60 158 182q88 100 228 254q129 144 208 225q-29 29 -66 30q-90 0 -184 -94q-101 -101 -161 -271q-7 -21 -15 -26q-3 -3 -35 -21q-18 -9 -28 -9q-19 0 -19 27q0 18 8 35q84 206 190.5 314 t228.5 108h20q40 0 67 -10.5t49 -29.5l35 31q16 10 66 56q40 37 60 37q11 0 23 -9q13 -13 13 -26q0 -25 -74 -83q-47 -37 -75 -67q12 -28 17 -58.5t5 -71.5q0 -159 -101 -403q-116 -281 -287 -458q-209 -219 -445 -219q-82 0 -150 42l-13 -16q-16 -40 -24 -54 q-13 -26 -76 -27q-18 0 -23 3q-7 4 -7 16zM329 103q44 -28 106 -28q18 0 27 1q268 28 482 342q199 292 245 655q1 7 2 22q0 21 -7 46q-75 -81 -150 -165q-100 -112 -161 -186q-15 -18 -158 -174q-62 -66 -155 -184q-56 -71 -125 -172q-53 -79 -106 -157z" />
<glyph unicode="&#xd9;" horiz-adv-x="1232" d="M154 687l5 30q15 94 63 206q41 96 103 199q88 147 173 226q101 94 197 94q44 0 92 -22q26 -12 38 -42t12 -71q0 -50 -12.5 -103t-37.5 -106l-403 -888q-15 -32 -25.5 -78.5t-2.5 -50.5q7 -4 14 -5q12 0 25 11q4 3 24 20q1 0 60 51.5t136 120.5q88 81 141 136 q166 171 330 341t271 307q18 22 49 87q25 51 50 69q9 4 17 4q19 0 26.5 -12.5t3.5 -19.5q-49 -90 -95 -178q-53 -103 -79 -162q-106 -234 -128 -286q-66 -153 -98 -268q-40 -137 -40 -244v-18q0 -26 -4 -32q-4 -4 -31 -16q-32 -12 -44 -12q-21 0 -18 34q7 82 22.5 150.5 t72.5 246.5q22 69 62.5 161t83.5 189q1 6 -1 11q-3 6 -9 3q-31 -19 -137 -141q-60 -71 -106 -114q-113 -112 -225 -224q-138 -135 -213 -195q-109 -87 -190 -117q-6 -3 -10 -3h-10q-22 0 -37.5 15.5t-15.5 42.5q0 9 1 15q19 84 77 229q50 125 129 294l247 529q22 47 35.5 95 t13.5 90q0 49 -21.5 66t-47.5 17q-69 0 -168 -109q-79 -88 -157 -218q-37 -60 -66 -147q-10 -29 -36 -119q-7 -25 -13 -48q-10 -29 -51 -46q-22 -9 -31 -9q-10 0 -11 14zM1100 1799q-4 12 13.5 29t24.5 7q16 -25 47.5 -67t64.5 -80q44 -51 78 -87q41 -44 59 -57 q9 -7 -8 -21.5t-29 -9.5q-28 10 -68.5 49t-81.5 89q-71 82 -100 148z" />
<glyph unicode="&#xda;" horiz-adv-x="1232" d="M154 687l5 30q15 94 63 206q41 96 103 199q88 147 173 226q101 94 197 94q44 0 92 -22q26 -12 38 -42t12 -71q0 -50 -12.5 -103t-37.5 -106l-403 -888q-15 -32 -25.5 -78.5t-2.5 -50.5q7 -4 14 -5q12 0 25 11q4 3 24 20q1 0 60 51.5t136 120.5q88 81 141 136 q166 171 330 341t271 307q18 22 49 87q25 51 50 69q9 4 17 4q19 0 26.5 -12.5t3.5 -19.5q-49 -90 -95 -178q-53 -103 -79 -162q-106 -234 -128 -286q-66 -153 -98 -268q-40 -137 -40 -244v-18q0 -26 -4 -32q-4 -4 -31 -16q-32 -12 -44 -12q-21 0 -18 34q7 82 22.5 150.5 t72.5 246.5q22 69 62.5 161t83.5 189q1 6 -1 11q-3 6 -9 3q-31 -19 -137 -141q-60 -71 -106 -114q-113 -112 -225 -224q-138 -135 -213 -195q-109 -87 -190 -117q-6 -3 -10 -3h-10q-22 0 -37.5 15.5t-15.5 42.5q0 9 1 15q19 84 77 229q50 125 129 294l247 529q22 47 35.5 95 t13.5 90q0 49 -21.5 66t-47.5 17q-69 0 -168 -109q-79 -88 -157 -218q-37 -60 -66 -147q-10 -29 -36 -119q-7 -25 -13 -48q-10 -29 -51 -46q-22 -9 -31 -9q-10 0 -11 14zM972 1551q0 12 8 13q22 9 98 55q66 40 144 88q35 22 96 65q104 75 128 82q9 3 13 -6t4 -22 q0 -15 -6 -22q-21 -31 -80 -78q-49 -38 -120.5 -82t-147 -82.5t-110.5 -44.5q-9 -1 -18 10.5t-9 23.5z" />
<glyph unicode="&#xdb;" horiz-adv-x="1232" d="M154 687l5 30q15 94 63 206q41 96 103 199q88 147 173 226q101 94 197 94q44 0 92 -22q26 -12 38 -42t12 -71q0 -50 -12.5 -103t-37.5 -106l-403 -888q-15 -32 -25.5 -78.5t-2.5 -50.5q7 -4 14 -5q12 0 25 11q4 3 24 20q1 0 60 51.5t136 120.5q88 81 141 136 q166 171 330 341t271 307q18 22 49 87q25 51 50 69q9 4 17 4q19 0 26.5 -12.5t3.5 -19.5q-49 -90 -95 -178q-53 -103 -79 -162q-106 -234 -128 -286q-66 -153 -98 -268q-40 -137 -40 -244v-18q0 -26 -4 -32q-4 -4 -31 -16q-32 -12 -44 -12q-21 0 -18 34q7 82 22.5 150.5 t72.5 246.5q22 69 62.5 161t83.5 189q1 6 -1 11q-3 6 -9 3q-31 -19 -137 -141q-60 -71 -106 -114q-113 -112 -225 -224q-138 -135 -213 -195q-109 -87 -190 -117q-6 -3 -10 -3h-10q-22 0 -37.5 15.5t-15.5 42.5q0 9 1 15q19 84 77 229q50 125 129 294l247 529q22 47 35.5 95 t13.5 90q0 49 -21.5 66t-47.5 17q-69 0 -168 -109q-79 -88 -157 -218q-37 -60 -66 -147q-10 -29 -36 -119q-7 -25 -13 -48q-10 -29 -51 -46q-22 -9 -31 -9q-10 0 -11 14zM878 1533q-7 12 0 15q18 7 81 42q51 29 119 70q44 26 91 58q75 51 91 62q22 -34 46 -68q16 -22 43 -54 t62.5 -67.5t48.5 -42.5q-1 -6 -3 -12q-21 -19 -35 -18q-25 4 -59 34q-18 15 -65 62q-13 13 -38 48q-19 26 -28 28q-4 0 -31 -17q-88 -59 -100 -66q-60 -35 -107 -59q-60 -29 -85 -34q-16 -3 -31 19z" />
<glyph unicode="&#xdc;" horiz-adv-x="1362" d="M125 687l5 30q15 94 63 206q41 96 103 199q88 147 173 226q101 94 197 94q44 0 92 -22q26 -12 38 -42t12 -71q0 -50 -12.5 -103t-37.5 -106l-403 -888q-15 -32 -25.5 -78.5t-2.5 -50.5q7 -4 14 -5q12 0 25 11q4 3 24 20q1 0 60 51.5t136 120.5q88 81 141 136 q166 171 330 341t271 307q18 22 49 87q25 51 50 69q9 4 17 4q19 0 26.5 -12.5t3.5 -19.5q-49 -90 -95 -178q-53 -103 -79 -162q-106 -234 -128 -286q-66 -153 -98 -268q-40 -137 -40 -244v-18q0 -26 -4 -32q-4 -4 -31 -16q-32 -12 -44 -12q-21 0 -18 34q7 82 22.5 150.5 t72.5 246.5q22 69 62.5 161t83.5 189q1 6 -1 11q-3 6 -9 3q-31 -19 -137 -141q-60 -71 -106 -114q-113 -112 -225 -224q-138 -135 -213 -195q-109 -87 -190 -117q-6 -3 -10 -3h-10q-22 0 -37.5 15.5t-15.5 42.5q0 9 1 15q19 84 77 229q50 125 129 294l247 529q22 47 35.5 95 t13.5 90q0 49 -21.5 66t-47.5 17q-69 0 -168 -109q-79 -88 -157 -218q-37 -60 -66 -147q-10 -29 -36 -119q-7 -25 -13 -48q-10 -29 -51 -46q-22 -9 -31 -9q-10 0 -11 14zM1131 1569q0 15 5 29t17 33q18 26 31 40q19 18 41 17q10 0 22 -5t17.5 -17.5t5.5 -30.5q1 -31 -17 -62 q-12 -22 -34 -37t-44 -15q-16 0 -28 10q-16 15 -16 38zM1348 1565q0 10 5.5 25.5t20.5 39.5t33 40.5t37 16.5q4 0 16 -3q26 -10 26 -47q1 -33 -17 -64q-13 -22 -35 -37t-45 -15q-16 0 -28.5 11.5t-12.5 32.5z" />
<glyph unicode="&#xdf;" horiz-adv-x="1135" d="M-151 -294q32 56 51 96q13 28 46 99q10 25 117 268q53 121 106 243q60 140 85 198l109 260q60 157 62 161q75 173 153 277q112 148 219 149q13 0 20 -1q123 -15 177 -128q41 -87 41 -234q0 -168 -85.5 -294.5t-236.5 -164.5q-44 -10 -44 -44q0 -44 62 -60 q103 -28 161 -80q71 -63 71 -154q0 -134 -112 -218q-91 -68 -234 -67q-143 0 -250 50t-107 122q0 78 70 123.5t170 45.5q32 0 55 1.5t45 2.5q35 0 70 -7q7 -1 68 -19q34 -9 34 -18q0 -7 -13 -29q-7 -13 -14 -23.5t-14 -10.5q-6 0 -22 4q-54 15 -89 21t-97 6q-101 0 -143 -19 t-42 -61q0 -56 97 -91q87 -31 197 -31q107 0 182 84q63 71 64 133q0 94 -78 136q-87 40 -172 80q-43 26 -43 79q0 28 12.5 47t42.5 31q163 65 235 156q82 106 82 288q0 107 -28 170q-37 85 -122 86q-74 0 -137 -63q-50 -50 -101 -152q-15 -28 -85 -185q-29 -66 -65.5 -159.5 t-70.5 -181.5q-41 -107 -80 -199l-314 -723q-10 -21 -69 -21q-15 0 -27 5.5t-9 15.5z" />
<glyph unicode="&#xe0;" horiz-adv-x="833" d="M-12 222q0 94 40 179q46 99 140 174q106 82 185 119q118 54 248 54q46 0 105 -18t59 -42q0 -9 -11 -18q-4 -3 -10 -16t-13 -13q-6 0 -18 9q-18 15 -48.5 23.5t-63.5 8.5q-125 0 -272 -81q-156 -87 -232 -208q-37 -59 -37 -152q0 -53 14 -98.5t39 -67.5q16 -15 38 -15 q65 0 180 128q76 87 185 243q99 143 104 147q4 4 20 4q18 0 31 -6.5t13 -21.5q0 -13 -6 -26q-10 -19 -15 -28l-122 -247q-18 -37 -34 -83.5t-16 -69.5q0 -16 9 -24q24 -13 179 115q76 63 155 128q25 11 25 -13q1 -16 -3.5 -31.5t-21.5 -27.5q-3 -3 -68 -59q-28 -24 -54 -44 q-84 -66 -131 -95q-90 -57 -144 -58q-10 0 -28.5 4.5t-18.5 38.5q0 16 25 114q-3 7 -6 17q-19 -15 -86 -83q-99 -100 -173 -100q-29 0 -66.5 15t-66.5 78t-29 147zM568 1139q-4 12 13.5 29t24.5 7q16 -25 47.5 -67t64.5 -80q44 -51 78 -87q41 -44 59 -57q9 -7 -8 -21.5 t-29 -9.5q-28 10 -68.5 49t-81.5 89q-71 82 -100 148z" />
<glyph unicode="&#xe1;" horiz-adv-x="835" d="M-12 222q0 94 40 179q46 99 140 174q106 82 185 119q118 54 248 54q46 0 105 -18t59 -42q0 -9 -11 -18q-4 -3 -10 -16t-13 -13q-6 0 -18 9q-18 15 -48.5 23.5t-63.5 8.5q-125 0 -272 -81q-156 -87 -232 -208q-37 -59 -37 -152q0 -53 14 -98.5t39 -67.5q16 -15 38 -15 q65 0 180 128q76 87 185 243q99 143 104 147q4 4 20 4q18 0 31 -6.5t13 -21.5q0 -13 -6 -26q-10 -19 -15 -28l-122 -247q-18 -37 -34 -83.5t-16 -69.5q0 -16 9 -24q24 -13 179 115q76 63 155 128q25 11 25 -13q1 -16 -3.5 -31.5t-21.5 -27.5q-3 -3 -68 -59q-28 -24 -54 -44 q-84 -66 -131 -95q-90 -57 -144 -58q-10 0 -28.5 4.5t-18.5 38.5q0 16 25 114q-3 7 -6 17q-19 -15 -86 -83q-99 -100 -173 -100q-29 0 -66.5 15t-66.5 78t-29 147zM489 878q0 12 8 13q22 9 98 55q66 40 144 88q35 22 96 65q104 75 128 82q9 3 13 -6t4 -22q0 -15 -6 -22 q-21 -31 -80 -78q-49 -38 -120.5 -82t-147 -82.5t-110.5 -44.5q-9 -1 -18 10.5t-9 23.5z" />
<glyph unicode="&#xe2;" horiz-adv-x="835" d="M-12 222q0 94 40 179q46 99 140 174q106 82 185 119q118 54 248 54q46 0 105 -18t59 -42q0 -9 -11 -18q-4 -3 -10 -16t-13 -13q-6 0 -18 9q-18 15 -48.5 23.5t-63.5 8.5q-125 0 -272 -81q-156 -87 -232 -208q-37 -59 -37 -152q0 -53 14 -98.5t39 -67.5q16 -15 38 -15 q65 0 180 128q76 87 185 243q99 143 104 147q4 4 20 4q18 0 31 -6.5t13 -21.5q0 -13 -6 -26q-10 -19 -15 -28l-122 -247q-18 -37 -34 -83.5t-16 -69.5q0 -16 9 -24q24 -13 179 115q76 63 155 128q25 11 25 -13q1 -16 -3.5 -31.5t-21.5 -27.5q-3 -3 -68 -59q-28 -24 -54 -44 q-84 -66 -131 -95q-90 -57 -144 -58q-10 0 -28.5 4.5t-18.5 38.5q0 16 25 114q-3 7 -6 17q-19 -15 -86 -83q-99 -100 -173 -100q-29 0 -66.5 15t-66.5 78t-29 147zM345 866q-7 12 0 15q18 7 81 42q51 29 119 70q44 26 91 58q75 51 91 62q22 -34 46 -68q16 -22 43 -54 t62.5 -67.5t48.5 -42.5q-1 -6 -3 -12q-21 -19 -35 -18q-25 4 -59 34q-18 15 -65 62q-13 13 -38 48q-19 26 -28 28q-4 0 -31 -17q-88 -59 -100 -66q-60 -35 -107 -59q-60 -29 -85 -34q-16 -3 -31 19z" />
<glyph unicode="&#xe3;" horiz-adv-x="832" d="M-12 222q0 94 40 179q46 99 140 174q106 82 185 119q118 54 248 54q46 0 105 -18t59 -42q0 -9 -11 -18q-4 -3 -10 -16t-13 -13q-6 0 -18 9q-18 15 -48.5 23.5t-63.5 8.5q-125 0 -272 -81q-156 -87 -232 -208q-37 -59 -37 -152q0 -53 14 -98.5t39 -67.5q16 -15 38 -15 q65 0 180 128q76 87 185 243q99 143 104 147q4 4 20 4q18 0 31 -6.5t13 -21.5q0 -13 -6 -26q-10 -19 -15 -28l-122 -247q-18 -37 -34 -83.5t-16 -69.5q0 -16 9 -24q24 -13 179 115q76 63 155 128q25 11 25 -13q1 -16 -3.5 -31.5t-21.5 -27.5q-3 -3 -68 -59q-28 -24 -54 -44 q-84 -66 -131 -95q-90 -57 -144 -58q-10 0 -28.5 4.5t-18.5 38.5q0 16 25 114q-3 7 -6 17q-19 -15 -86 -83q-99 -100 -173 -100q-29 0 -66.5 15t-66.5 78t-29 147zM359 869q1 10 5.5 22.5t14.5 21.5q54 41 88 52t105 11q32 0 80.5 -30t80.5 -30t61 12q10 4 57 30q10 6 19 6 q10 0 10 -7q-7 -29 -10 -43t-15 -22q-47 -24 -80.5 -33t-79.5 -9q-32 0 -79 30t-78 30q-62 0 -99 -21q-12 -7 -63 -44q-9 -9 -14.5 0t-2.5 24z" />
<glyph unicode="&#xe4;" horiz-adv-x="835" d="M-12 222q0 94 40 179q46 99 140 174q106 82 185 119q118 54 248 54q46 0 105 -18t59 -42q0 -9 -11 -18q-4 -3 -10 -16t-13 -13q-6 0 -18 9q-18 15 -48.5 23.5t-63.5 8.5q-125 0 -272 -81q-156 -87 -232 -208q-37 -59 -37 -152q0 -53 14 -98.5t39 -67.5q16 -15 38 -15 q65 0 180 128q76 87 185 243q99 143 104 147q4 4 20 4q18 0 31 -6.5t13 -21.5q0 -13 -6 -26q-10 -19 -15 -28l-122 -247q-18 -37 -34 -83.5t-16 -69.5q0 -16 9 -24q24 -13 179 115q76 63 155 128q25 11 25 -13q1 -16 -3.5 -31.5t-21.5 -27.5q-3 -3 -68 -59q-28 -24 -54 -44 q-84 -66 -131 -95q-90 -57 -144 -58q-10 0 -28.5 4.5t-18.5 38.5q0 16 25 114q-3 7 -6 17q-19 -15 -86 -83q-99 -100 -173 -100q-29 0 -66.5 15t-66.5 78t-29 147zM506 900q0 15 5 29t17 33q18 26 31 40q19 18 41 17q10 0 22 -5t17.5 -17.5t5.5 -30.5q1 -31 -17 -62 q-12 -22 -34 -37t-44 -15q-16 0 -28 10q-16 15 -16 38zM723 896q0 10 5.5 25.5t20.5 39.5t33 40.5t37 16.5q4 0 16 -3q26 -10 26 -47q1 -33 -17 -64q-13 -22 -35 -37t-45 -15q-16 0 -28.5 11.5t-12.5 32.5z" />
<glyph unicode="&#xe5;" horiz-adv-x="833" d="M-12 222q0 94 40 179q46 99 140 174q106 82 185 119q118 54 248 54q46 0 105 -18t59 -42q0 -9 -11 -18q-4 -3 -10 -16t-13 -13q-6 0 -18 9q-18 15 -48.5 23.5t-63.5 8.5q-125 0 -272 -81q-156 -87 -232 -208q-37 -59 -37 -152q0 -53 14 -98.5t39 -67.5q16 -15 38 -15 q65 0 180 128q76 87 185 243q99 143 104 147q4 4 20 4q18 0 31 -6.5t13 -21.5q0 -13 -6 -26q-10 -19 -15 -28l-122 -247q-18 -37 -34 -83.5t-16 -69.5q0 -16 9 -24q24 -13 179 115q76 63 155 128q25 11 25 -13q1 -16 -3.5 -31.5t-21.5 -27.5q-3 -3 -68 -59q-28 -24 -54 -44 q-84 -66 -131 -95q-90 -57 -144 -58q-10 0 -28.5 4.5t-18.5 38.5q0 16 25 114q-3 7 -6 17q-19 -15 -86 -83q-99 -100 -173 -100q-29 0 -66.5 15t-66.5 78t-29 147zM538 923q0 24 3 38.5t12 42.5q21 65 65.5 114t91.5 49q16 0 33 -8t26.5 -29t9.5 -52q0 -34 -2.5 -46 t-11.5 -40q-21 -63 -68 -111.5t-90 -48.5q-19 0 -35 12q-34 28 -34 79zM588 945q0 -41 21 -50q29 -10 63 22t47 78q12 32 12 66q0 35 -18 40.5t-23 5.5q-28 0 -53 -32q-13 -16 -25 -39q-24 -43 -24 -91z" />
<glyph unicode="&#xe6;" horiz-adv-x="1082" d="M-12 222q0 94 40 179q46 99 140 174q106 82 185 119q118 54 248 54q50 0 80.5 -8.5t80.5 -39.5q38 10 89.5 19t76.5 9q34 0 57.5 -8t33.5 -28q18 -35 17 -75q0 -69 -47.5 -142.5t-121.5 -129.5q-66 -51 -148 -66q-54 -10 -169 -10h-52l-4 -65q0 -59 39.5 -104.5 t92.5 -45.5q94 0 256 102q146 91 202 163q17 8 17 -16t-2 -36.5t-15 -19.5q-10 -18 -86 -79q-90 -74 -182 -124q-122 -66 -204 -66q-25 0 -55 7q-87 26 -119 87q-43 81 -29 93q-10 -9 -84 -84q-97 -99 -174 -99q-31 0 -68 15t-66 78t-29 147zM62 243q0 -57 13 -102t38 -66 q16 -12 34 -12q59 0 157 100q75 76 114 137l64 156q57 87 180 181l36 25q-38 21 -95 20q-126 0 -271 -78q-156 -84 -235 -210q-35 -57 -35 -151zM525 331h85q51 0 117.5 23.5t117 69.5t78.5 86q37 51 37 94q0 19 -9 37q-12 22 -50 22q-43 0 -101 -27t-96 -61 q-76 -71 -110 -110q-69 -81 -69 -134z" />
<glyph unicode="&#xe7;" horiz-adv-x="623" d="M-12 222q0 63 23.5 130t78.5 138q88 116 176 176q103 71 213 71q32 0 72 -8.5t40 -86.5q0 -96 -63 -197q-7 -18 -47 -17q-26 0 -24 17q34 63 48 107.5t14 75.5q0 43 -17 45t-34 2q-87 0 -180 -81q-65 -62 -98 -93q-50 -47 -87.5 -128.5t-37.5 -157.5q0 -47 18 -85.5 t58 -61.5q24 -15 57 -15q93 0 246 109q122 87 179 157q10 7 15 -2.5t4 -19.5q0 -18 -2.5 -28t-16.5 -21q-60 -59 -120 -116.5t-133 -90.5q-62 -28 -102 -39t-108 -11q-7 -21 -14 -41q0 -4 1 -9l26 2q16 0 27.5 -4.5t21.5 -23t10 -41.5q0 -47 -47 -91.5t-107 -44.5 q-19 0 -36 10.5t-17 28.5v7q0 4 14.5 13t17.5 6q6 -10 14 -21q7 -6 28 -3q28 4 57 28q35 28 35 56q0 41 -32 41q-18 0 -40 -11q-10 -9 -16 -14q-10 -7 -16 -7q-13 0 -13 22q1 6 9 14l10 10q4 9 8 20q12 32 18 58q-41 0 -82 61q-49 72 -49 165z" />
<glyph unicode="&#xe8;" horiz-adv-x="658" d="M-9 212v29.5t5 65t54 130.5q59 96 190 200q49 38 127 66t139 28q71 0 90 -37t19 -77q0 -69 -48.5 -143t-118 -127t-151.5 -68q-54 -10 -169 -10h-52l-4 -65q0 -74 38 -112t94 -38q94 0 256 102q146 91 202 163q17 8 17 -16t-2 -36.5t-15 -19.5q-10 -19 -86 -79 q-88 -72 -183 -124q-122 -66 -205 -66q-26 0 -53 7q-71 24 -104 69q-40 54 -40 158zM103 331h85q50 0 112 22q72 26 122.5 71.5t78.5 85.5q37 51 37 94q0 19 -9 37q-12 22 -50 22q-43 0 -100.5 -27t-96.5 -61q-76 -71 -110 -110q-69 -81 -69 -134zM378 1138q-4 12 13.5 29 t24.5 7q16 -25 47.5 -67t64.5 -80q44 -51 78 -87q41 -44 59 -57q9 -7 -8 -21.5t-29 -9.5q-28 10 -68.5 49t-81.5 89q-71 82 -100 148z" />
<glyph unicode="&#xe9;" horiz-adv-x="658" d="M-9 212v29.5t5 65t54 130.5q59 96 190 200q49 38 127 66t139 28q71 0 90 -37t19 -77q0 -69 -48.5 -143t-118 -127t-151.5 -68q-54 -10 -169 -10h-52l-4 -65q0 -74 38 -112t94 -38q94 0 256 102q146 91 202 163q17 8 17 -16t-2 -36.5t-15 -19.5q-10 -19 -86 -79 q-88 -72 -183 -124q-122 -66 -205 -66q-26 0 -53 7q-71 24 -104 69q-40 54 -40 158zM103 331h85q50 0 112 22q72 26 122.5 71.5t78.5 85.5q37 51 37 94q0 19 -9 37q-12 22 -50 22q-43 0 -100.5 -27t-96.5 -61q-76 -71 -110 -110q-69 -81 -69 -134zM259 876q0 12 8 13 q22 9 98 55q66 40 144 88q35 22 96 65q104 75 128 82q9 3 13 -6t4 -22q0 -15 -6 -22q-21 -31 -80 -78q-49 -38 -120.5 -82t-147 -82.5t-110.5 -44.5q-9 -1 -18 10.5t-9 23.5z" />
<glyph unicode="&#xea;" horiz-adv-x="658" d="M-9 212v29.5t5 65t54 130.5q59 96 190 200q49 38 127 66t139 28q71 0 90 -37t19 -77q0 -69 -48.5 -143t-118 -127t-151.5 -68q-54 -10 -169 -10h-52l-4 -65q0 -74 38 -112t94 -38q94 0 256 102q146 91 202 163q17 8 17 -16t-2 -36.5t-15 -19.5q-10 -19 -86 -79 q-88 -72 -183 -124q-122 -66 -205 -66q-26 0 -53 7q-71 24 -104 69q-40 54 -40 158zM103 331h85q50 0 112 22q72 26 122.5 71.5t78.5 85.5q37 51 37 94q0 19 -9 37q-12 22 -50 22q-43 0 -100.5 -27t-96.5 -61q-76 -71 -110 -110q-69 -81 -69 -134zM169 866q-7 12 0 15 q18 7 81 42q51 29 119 70q44 26 91 58q75 51 91 62q22 -34 46 -68q16 -22 43 -54t62.5 -67.5t48.5 -42.5q-1 -6 -3 -12q-21 -19 -35 -18q-25 4 -59 34q-18 15 -65 62q-13 13 -38 48q-19 26 -28 28q-4 0 -31 -17q-88 -59 -100 -66q-60 -35 -107 -59q-60 -29 -85 -34 q-16 -3 -31 19z" />
<glyph unicode="&#xeb;" horiz-adv-x="658" d="M-9 212v29.5t5 65t54 130.5q59 96 190 200q49 38 127 66t139 28q71 0 90 -37t19 -77q0 -69 -48.5 -143t-118 -127t-151.5 -68q-54 -10 -169 -10h-52l-4 -65q0 -74 38 -112t94 -38q94 0 256 102q146 91 202 163q17 8 17 -16t-2 -36.5t-15 -19.5q-10 -19 -86 -79 q-88 -72 -183 -124q-122 -66 -205 -66q-26 0 -53 7q-71 24 -104 69q-40 54 -40 158zM103 331h85q50 0 112 22q72 26 122.5 71.5t78.5 85.5q37 51 37 94q0 19 -9 37q-12 22 -50 22q-43 0 -100.5 -27t-96.5 -61q-76 -71 -110 -110q-69 -81 -69 -134zM349 900q0 15 5 29t17 33 q18 26 31 40q19 18 41 17q10 0 22 -5t17.5 -17.5t5.5 -30.5q1 -31 -17 -62q-12 -22 -34 -37t-44 -15q-16 0 -28 10q-16 15 -16 38zM566 896q0 10 5.5 25.5t20.5 39.5t33 40.5t37 16.5q4 0 16 -3q26 -10 26 -47q1 -33 -17 -64q-13 -22 -35 -37t-45 -15q-16 0 -28.5 11.5 t-12.5 32.5z" />
<glyph unicode="&#xec;" horiz-adv-x="449" d="M-16 269q0 19 4.5 31t11.5 19q24 19 59 54q21 21 42 43q66 66 98.5 117t75.5 157q13 34 47 33q41 0 41 -20q0 -6 -9 -24q-60 -128 -149.5 -333.5t-91 -216.5t-1.5 -16v-7q0 -21 16 -21q10 0 29 11q7 4 33 20q59 40 147 109q71 56 114 94q18 0 15 -22q0 -38 -15 -50 q-32 -28 -57.5 -50t-45.5 -37q-168 -128 -255 -161q-29 -10 -50 -11q-21 0 -30.5 12.5t-9.5 33.5t6.5 43.5t15.5 41.5l62 140q12 25 12 39q0 10 -9 11q-6 0 -18 -7.5t-15 -8.5q-25 -18 -39 -30.5t-18 -15.5q-16 -3 -16 22zM194 1139q-4 12 13.5 29t24.5 7q16 -25 48 -67 t64 -80q44 -51 78 -87q41 -44 59 -57q9 -7 -8 -21.5t-29 -9.5q-28 10 -68.5 49t-81.5 89q-71 82 -100 148z" />
<glyph unicode="&#xed;" horiz-adv-x="448" d="M-16 269q0 19 4.5 31t11.5 19q24 19 59 54q21 21 42 43q66 66 98.5 117t75.5 157q13 34 47 33q41 0 41 -20q0 -6 -9 -24q-60 -128 -149.5 -333.5t-91 -216.5t-1.5 -16v-7q0 -21 16 -21q10 0 29 11q7 4 33 20q59 40 147 109q71 56 114 94q18 0 15 -22q0 -38 -15 -50 q-32 -28 -57.5 -50t-45.5 -37q-168 -128 -255 -161q-29 -10 -50 -11q-21 0 -30.5 12.5t-9.5 33.5t6.5 43.5t15.5 41.5l62 140q12 25 12 39q0 10 -9 11q-6 0 -18 -7.5t-15 -8.5q-25 -18 -39 -30.5t-18 -15.5q-16 -3 -16 22zM116 878q0 12 7 13q22 9 99 54q66 40 144 89 q35 22 96 64q104 75 128 83q9 3 13 -6t4 -22q0 -15 -6 -22q-21 -31 -81 -78q-49 -38 -120 -82.5t-146.5 -82.5t-110.5 -44q-9 -1 -18 10.5t-9 23.5z" />
<glyph unicode="&#xee;" horiz-adv-x="449" d="M-16 269q0 19 4.5 31t11.5 19q24 19 59 54q21 21 42 43q66 66 98.5 117t75.5 157q13 34 47 33q41 0 41 -20q0 -6 -9 -24q-60 -128 -149.5 -333.5t-91 -216.5t-1.5 -16v-7q0 -21 16 -21q10 0 29 11q7 4 33 20q59 40 147 109q71 56 114 94q18 0 15 -22q0 -38 -15 -50 q-32 -28 -57.5 -50t-45.5 -37q-168 -128 -255 -161q-29 -10 -50 -11q-21 0 -30.5 12.5t-9.5 33.5t6.5 43.5t15.5 41.5l62 140q12 25 12 39q0 10 -9 11q-6 0 -18 -7.5t-15 -8.5q-25 -18 -39 -30.5t-18 -15.5q-16 -3 -16 22zM19 867q-7 12 0 15q18 7 81 43q51 29 119 69 q44 26 91 59q75 51 91 61q22 -34 46 -67q16 -22 43.5 -54.5t62.5 -68t48 -42.5q-1 -6 -3 -12q-21 -19 -35 -17q-25 4 -59 34q-18 15 -64 61q-13 13 -39 49q-19 26 -28 28q-4 0 -30 -18q-88 -59 -100 -66q-60 -35 -108 -59q-60 -29 -85 -34q-16 -3 -31 19z" />
<glyph unicode="&#xef;" horiz-adv-x="449" d="M-16 269q0 19 4.5 31t11.5 19q24 19 59 54q21 21 42 43q66 66 98.5 117t75.5 157q13 34 47 33q41 0 41 -20q0 -6 -9 -24q-60 -128 -149.5 -333.5t-91 -216.5t-1.5 -16v-7q0 -21 16 -21q10 0 29 11q7 4 33 20q59 40 147 109q71 56 114 94q18 0 15 -22q0 -38 -15 -50 q-32 -28 -57.5 -50t-45.5 -37q-168 -128 -255 -161q-29 -10 -50 -11q-21 0 -30.5 12.5t-9.5 33.5t6.5 43.5t15.5 41.5l62 140q12 25 12 39q0 10 -9 11q-6 0 -18 -7.5t-15 -8.5q-25 -18 -39 -30.5t-18 -15.5q-16 -3 -16 22zM188 898q0 15 5 29t17 33q18 26 31 40q19 18 41 17 q10 0 22 -5t18 -17.5t6 -30.5q0 -30 -18 -61q-12 -22 -34 -37.5t-44 -15.5q-16 0 -28 10q-16 15 -16 38zM406 894q0 10 5 25.5t20.5 40t33 40.5t36.5 16q4 0 17 -3q26 -10 26 -47q0 -32 -18 -63q-13 -22 -35 -37.5t-44 -15.5q-16 0 -28.5 11.5t-12.5 32.5z" />
<glyph unicode="&#xf1;" horiz-adv-x="923" d="M-18 268q0 29 18 51q96 84 137 125q72 71 98 143q13 37 25 69t30 57q10 15 35 15t35 -15q6 -9 2 -21q-104 -225 -151.5 -338.5t-37.5 -124.5q15 -15 99 80q122 137 157 167q78 71 158 141q74 60 173 123q16 9 30 8q19 0 28.5 -16t9.5 -37q0 -13 -3 -17l-52 -116 l-182 -419q-7 -12 -7 -30t10 -23q19 -13 168 100q118 90 160 129q9 4 13 0t4 -19q0 -37 -17 -53q-75 -68 -157 -129q-166 -125 -237 -125q-18 0 -30 8q-18 13 -17 45q0 24 10 55q6 18 22 58l179 392q13 29 14 41q0 7 -5 12q-10 13 -104 -69q-101 -88 -257 -244 q-113 -113 -218 -232q-35 -41 -48 -52q-25 -21 -46 -20q-29 0 -29 39q0 22 10 45q18 44 35 79q41 81 49 106t8 34q0 13 -10 13q-15 0 -54 -30q-18 -13 -37 -29q-21 -1 -18 24zM353 878q1 10 5.5 22.5t14.5 21.5q54 41 88 52t105 11q32 0 80.5 -30t80.5 -30t61 12q10 4 57 30 q10 6 19 6q10 0 10 -7q-7 -29 -10 -43t-15 -22q-47 -24 -80.5 -33t-79.5 -9q-32 0 -79 30t-78 30q-62 0 -99 -21q-12 -7 -63 -44q-9 -9 -14.5 0t-2.5 24z" />
<glyph unicode="&#xf2;" d="M-12 228q0 34 5 56q0 47 50 151q43 88 103 152t144.5 114t135.5 50q26 0 37 -14q6 -7 6 -21q0 -32 -24 -37q-84 -22 -154 -65.5t-122 -109.5q-46 -59 -72 -136.5t-26 -149.5q0 -119 66 -168q15 -10 36 -10q44 0 103 36.5t96 77.5q19 19 19 40q-12 38 -21.5 74t-9.5 79v25 t3 31q10 81 56 151q54 84 124 84q7 0 27 -4.5t29.5 -27t9.5 -59.5q0 -34 -3 -54.5t-11 -63t-40 -103.5t-32 -89q0 -13 4 -23.5t20 -10.5q31 0 93 43q51 35 86 73q10 1 14 -3q1 -3 1 -18q0 -32 -15 -51q-59 -57 -97.5 -77t-88.5 -27q-13 -1 -39 6.5t-33 7.5q-15 0 -23 -11 q-31 -46 -104 -100q-99 -72 -178 -72q-35 0 -64 14q-57 28 -87 105q-24 62 -24 135zM426 1138q-4 12 13.5 29t24.5 7q16 -25 47.5 -67t64.5 -80q44 -51 78 -87q41 -44 59 -57q9 -7 -8 -21.5t-29 -9.5q-28 10 -68.5 49t-81.5 89q-71 82 -100 148zM428 351q0 -35 5 -55.5 t17 -24.5q24 -10 51 67q13 41 28 82q10 26 15.5 50.5t5.5 49.5q0 41 -25 42q-28 0 -52 -40q-18 -29 -31.5 -74t-13.5 -97z" />
<glyph unicode="&#xf3;" d="M-12 228q0 34 5 56q0 47 50 151q43 88 103 152t144.5 114t135.5 50q26 0 37 -14q6 -7 6 -21q0 -32 -24 -37q-84 -22 -154 -65.5t-122 -109.5q-46 -59 -72 -136.5t-26 -149.5q0 -119 66 -168q15 -10 36 -10q44 0 103 36.5t96 77.5q19 19 19 40q-12 38 -21.5 74t-9.5 79v25 t3 31q10 81 56 151q54 84 124 84q7 0 27 -4.5t29.5 -27t9.5 -59.5q0 -34 -3 -54.5t-11 -63t-40 -103.5t-32 -89q0 -13 4 -23.5t20 -10.5q31 0 93 43q51 35 86 73q10 1 14 -3q1 -3 1 -18q0 -32 -15 -51q-59 -57 -97.5 -77t-88.5 -27q-13 -1 -39 6.5t-33 7.5q-15 0 -23 -11 q-31 -46 -104 -100q-99 -72 -178 -72q-35 0 -64 14q-57 28 -87 105q-24 62 -24 135zM322 866q0 12 8 13q22 9 98 55q66 40 144 88q35 22 96 65q104 75 128 82q9 3 13 -6t4 -22q0 -15 -6 -22q-21 -31 -80 -78q-49 -38 -120.5 -82t-147 -82.5t-110.5 -44.5q-9 -1 -18 10.5 t-9 23.5zM428 351q0 -35 5 -55.5t17 -24.5q24 -10 51 67q13 41 28 82q10 26 15.5 50.5t5.5 49.5q0 41 -25 42q-28 0 -52 -40q-18 -29 -31.5 -74t-13.5 -97z" />
<glyph unicode="&#xf4;" d="M-12 228q0 34 5 56q0 47 50 151q43 88 103 152t144.5 114t135.5 50q26 0 37 -14q6 -7 6 -21q0 -32 -24 -37q-84 -22 -154 -65.5t-122 -109.5q-46 -59 -72 -136.5t-26 -149.5q0 -119 66 -168q15 -10 36 -10q44 0 103 36.5t96 77.5q19 19 19 40q-12 38 -21.5 74t-9.5 79v25 t3 31q10 81 56 151q54 84 124 84q7 0 27 -4.5t29.5 -27t9.5 -59.5q0 -34 -3 -54.5t-11 -63t-40 -103.5t-32 -89q0 -13 4 -23.5t20 -10.5q31 0 93 43q51 35 86 73q10 1 14 -3q1 -3 1 -18q0 -32 -15 -51q-59 -57 -97.5 -77t-88.5 -27q-13 -1 -39 6.5t-33 7.5q-15 0 -23 -11 q-31 -46 -104 -100q-99 -72 -178 -72q-35 0 -64 14q-57 28 -87 105q-24 62 -24 135zM206 866q-7 12 0 15q18 7 81 42q51 29 119 70q44 26 91 58q75 51 91 62q22 -34 46 -68q16 -22 43 -54t62.5 -67.5t48.5 -42.5q-1 -6 -3 -12q-21 -19 -35 -18q-25 4 -59 34q-18 15 -65 62 q-13 13 -38 48q-19 26 -28 28q-4 0 -31 -17q-88 -59 -100 -66q-60 -35 -107 -59q-60 -29 -85 -34q-16 -3 -31 19zM428 351q0 -35 5 -55.5t17 -24.5q24 -10 51 67q13 41 28 82q10 26 15.5 50.5t5.5 49.5q0 41 -25 42q-28 0 -52 -40q-18 -29 -31.5 -74t-13.5 -97z" />
<glyph unicode="&#xf5;" d="M-12 228q0 34 5 56q0 47 50 151q43 88 103 152t144.5 114t135.5 50q26 0 37 -14q6 -7 6 -21q0 -32 -24 -37q-84 -22 -154 -65.5t-122 -109.5q-46 -59 -72 -136.5t-26 -149.5q0 -119 66 -168q15 -10 36 -10q44 0 103 36.5t96 77.5q19 19 19 40q-12 38 -21.5 74t-9.5 79v25 t3 31q10 81 56 151q54 84 124 84q7 0 27 -4.5t29.5 -27t9.5 -59.5q0 -34 -3 -54.5t-11 -63t-40 -103.5t-32 -89q0 -13 4 -23.5t20 -10.5q31 0 93 43q51 35 86 73q10 1 14 -3q1 -3 1 -18q0 -32 -15 -51q-59 -57 -97.5 -77t-88.5 -27q-13 -1 -39 6.5t-33 7.5q-15 0 -23 -11 q-31 -46 -104 -100q-99 -72 -178 -72q-35 0 -64 14q-57 28 -87 105q-24 62 -24 135zM242 868q1 10 5.5 22.5t14.5 21.5q54 41 88 52t105 11q32 0 80.5 -30t80.5 -30t61 12q10 4 57 30q10 6 19 6q10 0 10 -7q-7 -29 -10 -43t-15 -22q-47 -24 -80.5 -33t-79.5 -9q-32 0 -79 30 t-78 30q-62 0 -99 -21q-12 -7 -63 -44q-9 -9 -14.5 0t-2.5 24zM428 351q0 -35 5 -55.5t17 -24.5q24 -10 51 67q13 41 28 82q10 26 15.5 50.5t5.5 49.5q0 41 -25 42q-28 0 -52 -40q-18 -29 -31.5 -74t-13.5 -97z" />
<glyph unicode="&#xf6;" d="M-12 228q0 34 5 56q0 47 50 151q43 88 103 152t144.5 114t135.5 50q26 0 37 -14q6 -7 6 -21q0 -32 -24 -37q-84 -22 -154 -65.5t-122 -109.5q-46 -59 -72 -136.5t-26 -149.5q0 -119 66 -168q15 -10 36 -10q44 0 103 36.5t96 77.5q19 19 19 40q-12 38 -21.5 74t-9.5 79v25 t3 31q10 81 56 151q54 84 124 84q7 0 27 -4.5t29.5 -27t9.5 -59.5q0 -34 -3 -54.5t-11 -63t-40 -103.5t-32 -89q0 -13 4 -23.5t20 -10.5q31 0 93 43q51 35 86 73q10 1 14 -3q1 -3 1 -18q0 -32 -15 -51q-59 -57 -97.5 -77t-88.5 -27q-13 -1 -39 6.5t-33 7.5q-15 0 -23 -11 q-31 -46 -104 -100q-99 -72 -178 -72q-35 0 -64 14q-57 28 -87 105q-24 62 -24 135zM391 889q0 15 5 29t17 33q18 26 31 40q19 18 41 17q10 0 22 -5t17.5 -17.5t5.5 -30.5q1 -31 -17 -62q-12 -22 -34 -37t-44 -15q-16 0 -28 10q-16 15 -16 38zM428 351q0 -35 5 -55.5 t17 -24.5q24 -10 51 67q13 41 28 82q10 26 15.5 50.5t5.5 49.5q0 41 -25 42q-28 0 -52 -40q-18 -29 -31.5 -74t-13.5 -97zM608 885q0 10 5.5 25.5t20.5 39.5t33 40.5t37 16.5q4 0 16 -3q26 -10 26 -47q1 -33 -17 -64q-13 -22 -35 -37t-45 -15q-16 0 -28.5 11.5t-12.5 32.5z " />
<glyph unicode="&#xf7;" horiz-adv-x="999" d="M79 276l31 81h743l-31 -81h-743zM301 96q0 16 6 29q13 32 45 55t64 23q24 0 39 -14t15 -38q1 -15 -5 -28q-12 -34 -45 -57t-67 -23q-51 0 -52 53zM450 482q0 16 6 30q12 31 44 54.5t65 23.5q54 0 54 -52q0 -15 -6 -28q-12 -34 -45 -57.5t-67 -23.5q-51 0 -51 53z" />
<glyph unicode="&#xf8;" horiz-adv-x="724" d="M-38 -81q0 18 19 50q25 37 32 50l21 34q-22 47 -34.5 95t-12.5 87q0 24 4 46q16 81 50 151q41 87 103.5 151.5t145 114.5t135.5 50q26 0 35 -12.5t9 -22.5q0 -32 -25 -37q-85 -22 -153.5 -64.5t-119 -107t-75 -129.5t-24.5 -137q0 -53 13 -115q62 100 119 186 q31 46 80 114q62 88 139 189q74 94 109 130q28 31 56 64q21 19 35 19q9 0 20 -12.5t11 -18.5q0 -1 -45 -44q-38 -35 -69 -81l-27 -41q9 6 22 6h35q21 0 30.5 -24.5t9.5 -65.5q0 -32 -4.5 -63t-13 -65t-30.5 -76q-41 -79 -42 -99q0 -13 7 -25.5t21 -12.5q29 0 92 43 q53 37 86 73q10 1 14 -3q1 -3 1 -18q0 -32 -15 -51q-44 -43 -81 -66q-53 -34 -108 -41q-12 -1 -37 6.5t-34 7.5q-15 0 -22 -11q-31 -47 -103 -102q-97 -74 -173 -73q-34 0 -64 14l-14 11l-6 -11l-31 -50q-12 -15 -22 -31q-9 -9 -30 -8q-40 0 -39 26zM132 51l6 -4q7 -4 16 -6 q7 -1 18 -1q44 0 106 36q51 31 94 75q12 12 16.5 22.5t4.5 22.5q0 6 -20 70q-10 35 -10 63q-3 31 -3 50q0 16 3 34.5t13 39.5q-19 -28 -22 -34q-1 -3 -6 -9q-1 -4 -1 -9q-26 -38 -54 -82q-81 -128 -161 -268zM428 348q0 -31 4.5 -52t15.5 -28q15 -7 42 46t42 106 q4 15 13 49.5t9 49.5t-4.5 26.5t-26.5 11.5q-29 0 -51 -38q-13 -22 -32 -79q-6 -16 -9 -42t-3 -50z" />
<glyph unicode="&#xf9;" horiz-adv-x="915" d="M-16 268v22q3 19 16 29q79 62 90 71q38 34 77 81.5t52 69.5q21 31 29 53q19 47 40 94q25 49 57 41q29 -6 30 -26q0 -9 -9 -27q-62 -129 -122 -258q-76 -165 -104 -245q-7 -21 -8 -35q0 -19 15 -19q7 0 16 4t15 9q129 104 303 274q193 188 273 303q16 24 43 23 q16 0 27 -9.5t11 -24.5q0 -7 -4 -16q-71 -143 -131 -275q-54 -119 -116 -269q-6 -16 -6 -28q0 -19 20 -19q13 0 30 9q41 25 94 65q9 6 194 154q13 0 13 -7v-15q1 -19 -1 -32.5t-12 -17.5q-72 -68 -159.5 -132.5t-155.5 -96.5q-44 -22 -76 -22q-28 0 -40.5 15t-12.5 42 q0 26 12 47q35 69 86 175q9 18 55 116q9 21 9 32q0 19 -17 20q-19 0 -39 -25q-94 -113 -235 -231q-82 -69 -212 -161q-44 -32 -77 -32q-24 0 -36 17t-12 40q0 13 6.5 33t45 93t52.5 111q3 6 3 18q0 18 -13 17q-10 0 -24 -13.5t-31 -30t-45 -32.5q-19 -4 -16 21zM524 1139 q-4 12 13.5 29t24.5 7q16 -25 47.5 -67t64.5 -80q44 -51 78 -87q41 -44 59 -57q9 -7 -8 -21.5t-29 -9.5q-28 10 -68.5 49t-81.5 89q-71 82 -100 148z" />
<glyph unicode="&#xfa;" horiz-adv-x="915" d="M-16 268v22q3 19 16 29q79 62 90 71q38 34 77 81.5t52 69.5q21 31 29 53q19 47 40 94q25 49 57 41q29 -6 30 -26q0 -9 -9 -27q-62 -129 -122 -258q-76 -165 -104 -245q-7 -21 -8 -35q0 -19 15 -19q7 0 16 4t15 9q129 104 303 274q193 188 273 303q16 24 43 23 q16 0 27 -9.5t11 -24.5q0 -7 -4 -16q-71 -143 -131 -275q-54 -119 -116 -269q-6 -16 -6 -28q0 -19 20 -19q13 0 30 9q41 25 94 65q9 6 194 154q13 0 13 -7v-15q1 -19 -1 -32.5t-12 -17.5q-72 -68 -159.5 -132.5t-155.5 -96.5q-44 -22 -76 -22q-28 0 -40.5 15t-12.5 42 q0 26 12 47q35 69 86 175q9 18 55 116q9 21 9 32q0 19 -17 20q-19 0 -39 -25q-94 -113 -235 -231q-82 -69 -212 -161q-44 -32 -77 -32q-24 0 -36 17t-12 40q0 13 6.5 33t45 93t52.5 111q3 6 3 18q0 18 -13 17q-10 0 -24 -13.5t-31 -30t-45 -32.5q-19 -4 -16 21zM445 885 q0 12 8 13q22 9 98 55q66 40 144 88q35 22 96 65q104 75 128 82q9 3 13 -6t4 -22q0 -15 -6 -22q-21 -31 -80 -78q-49 -38 -120.5 -82t-147 -82.5t-110.5 -44.5q-9 -1 -18 10.5t-9 23.5z" />
<glyph unicode="&#xfb;" horiz-adv-x="915" d="M-16 268v22q3 19 16 29q79 62 90 71q38 34 77 81.5t52 69.5q21 31 29 53q19 47 40 94q25 49 57 41q29 -6 30 -26q0 -9 -9 -27q-62 -129 -122 -258q-76 -165 -104 -245q-7 -21 -8 -35q0 -19 15 -19q7 0 16 4t15 9q129 104 303 274q193 188 273 303q16 24 43 23 q16 0 27 -9.5t11 -24.5q0 -7 -4 -16q-71 -143 -131 -275q-54 -119 -116 -269q-6 -16 -6 -28q0 -19 20 -19q13 0 30 9q41 25 94 65q9 6 194 154q13 0 13 -7v-15q1 -19 -1 -32.5t-12 -17.5q-72 -68 -159.5 -132.5t-155.5 -96.5q-44 -22 -76 -22q-28 0 -40.5 15t-12.5 42 q0 26 12 47q35 69 86 175q9 18 55 116q9 21 9 32q0 19 -17 20q-19 0 -39 -25q-94 -113 -235 -231q-82 -69 -212 -161q-44 -32 -77 -32q-24 0 -36 17t-12 40q0 13 6.5 33t45 93t52.5 111q3 6 3 18q0 18 -13 17q-10 0 -24 -13.5t-31 -30t-45 -32.5q-19 -4 -16 21zM340 867 q-7 12 0 15q18 7 81 42q51 29 119 70q44 26 91 58q75 51 91 62q22 -34 46 -68q16 -22 43 -54t62.5 -67.5t48.5 -42.5q-1 -6 -3 -12q-21 -19 -35 -18q-25 4 -59 34q-18 15 -65 62q-13 13 -38 48q-19 26 -28 28q-4 0 -31 -17q-88 -59 -100 -66q-60 -35 -107 -59 q-60 -29 -85 -34q-16 -3 -31 19z" />
<glyph unicode="&#xfc;" horiz-adv-x="914" d="M-16 268v22q3 19 16 29q79 62 90 71q38 34 77 81.5t52 69.5q21 31 29 53q19 47 40 94q25 49 57 41q29 -6 30 -26q0 -9 -9 -27q-62 -129 -122 -258q-76 -165 -104 -245q-7 -21 -8 -35q0 -19 15 -19q7 0 16 4t15 9q129 104 303 274q193 188 273 303q16 24 43 23 q16 0 27 -9.5t11 -24.5q0 -7 -4 -16q-71 -143 -131 -275q-54 -119 -116 -269q-6 -16 -6 -28q0 -19 20 -19q13 0 30 9q41 25 94 65q9 6 194 154q13 0 13 -7v-15q1 -19 -1 -32.5t-12 -17.5q-72 -68 -159.5 -132.5t-155.5 -96.5q-44 -22 -76 -22q-28 0 -40.5 15t-12.5 42 q0 26 12 47q35 69 86 175q9 18 55 116q9 21 9 32q0 19 -17 20q-19 0 -39 -25q-94 -113 -235 -231q-82 -69 -212 -161q-44 -32 -77 -32q-24 0 -36 17t-12 40q0 13 6.5 33t45 93t52.5 111q3 6 3 18q0 18 -13 17q-10 0 -24 -13.5t-31 -30t-45 -32.5q-19 -4 -16 21zM466 900 q0 15 5 29t17 33q18 26 31 40q19 18 41 17q10 0 22 -5t17.5 -17.5t5.5 -30.5q1 -31 -17 -62q-12 -22 -34 -37t-44 -15q-16 0 -28 10q-16 15 -16 38zM683 896q0 10 5.5 25.5t20.5 39.5t33 40.5t37 16.5q4 0 16 -3q26 -10 26 -47q1 -33 -17 -64q-13 -22 -35 -37t-45 -15 q-16 0 -28.5 11.5t-12.5 32.5z" />
<glyph unicode="&#xfd;" horiz-adv-x="0" />
<glyph unicode="&#xff;" horiz-adv-x="867" d="M-16 276q0 26 16 43q47 40 75 68q38 41 63 66q31 31 52.5 61t37.5 68q16 46 32 91q21 46 62 42q37 0 37 -17q0 -4 -5.5 -16t-8.5 -17q-7 -16 -148 -321q-54 -116 -75 -176q-10 -29 -10 -45t11 -16q6 0 15.5 5.5t21.5 13.5q119 94 284.5 269t252.5 299q15 21 41 21 q10 -1 16 -2q32 0 33 -15q0 -9 -9 -26q-47 -93 -142.5 -307.5t-132.5 -308.5q-9 -25 -9 -35q0 -15 10 -15q12 0 30 18q57 57 136 124q99 85 199 171q12 1 15 -6q2 -2 3 -15q3 -10 -3 -27.5t-15 -23.5q-26 -22 -129 -113q-116 -103 -161 -143q-122 -110 -141 -128 q-25 -24 -46.5 -62t-28.5 -51q-12 -22 -57 -132q-19 -44 -47 -99q-32 -63 -55 -91q-26 -35 -50 -35q-10 0 -16 3q-22 12 -22 53q0 35 16 87t40 98q31 59 129 198q44 63 55 86q15 21 119 261q6 15 78 178q9 22 9 36q0 13 -9 13q-13 0 -38 -27q-104 -122 -218 -220 q-103 -90 -191 -143q-50 -29 -80 -29q-18 0 -25.5 11t-7.5 28q0 21 7 41.5t29 67.5q53 116 65 147q3 6 3 18q0 15 -12 15q-10 0 -24.5 -15t-28.5 -27.5t-32 -25.5q-10 -1 -13 6t-3 23zM481 889q0 15 5 29t17 33q18 26 31 40q19 18 41 17q10 0 22 -5t17.5 -17.5t5.5 -30.5 q1 -31 -17 -62q-12 -22 -34 -37t-44 -15q-16 0 -28 10q-16 15 -16 38zM698 885q0 10 5.5 25.5t20.5 39.5t33 40.5t37 16.5q4 0 16 -3q26 -10 26 -47q1 -33 -17 -64q-13 -22 -35 -37t-45 -15q-16 0 -28.5 11.5t-12.5 32.5z" />
<glyph unicode="&#x152;" horiz-adv-x="1830" d="M191 300q0 151 49 306q41 129 116 263q57 101 135 203q115 150 258 246t289 115q25 3 38 3q9 0 19.5 -2t18.5 -17.5t8 -24.5q0 -13 -23.5 -17.5t-35.5 -5.5q-203 -32 -382 -200q-154 -146 -266 -366q-100 -197 -131 -385q-4 -31 -7.5 -57.5t-3.5 -54.5q0 -116 45 -183 q51 -76 152 -76q19 0 30 2q128 13 245 78.5t206 178.5q172 122 259.5 185t83.5 81q-35 50 -67 107.5t-51 126.5q37 122 52 239q1 7 1 22q0 57 -33 103t-82 46q-90 0 -183 -94q-101 -101 -162 -271q-7 -21 -15 -26q-3 -3 -35 -21q-18 -9 -28 -9q-19 0 -19 27q0 18 9 35 q84 206 190.5 314t228.5 108q65 0 109 -23q71 -37 89 -130q84 132 203 213q132 90 269 90q71 0 110 -35q34 -31 34 -71t-72 -131q-13 -16 -144 -170q-88 -104 -110 -153q-13 -22 -27 -22q-13 0 -30 17t-17 33q0 9 3 16q13 19 18 26q32 50 90 115q53 56 108.5 115.5 t86.5 99.5q13 18 13 39q0 16 -7 31t-24 24t-39 9q-85 0 -217 -90t-190 -194q-46 -82 -64 -160q0 -6 -1 -11q-6 -18 -6 -20q-4 -29 -4 -59q0 -81 39 -156l36 -66q13 -28 13 -65q0 -13 -11 -24.5t-60 -50.5l-94 -72q-65 -50 -106 -114t-41 -122q0 -62 27 -87t95 -32 q9 -1 27 -2q129 0 285 129q131 109 194 225q13 25 34 25q7 0 20 -6.5t13 -28.5q0 -15 -8 -28q-115 -182 -260 -283.5t-300 -101.5q-79 0 -125 25q-84 46 -84 169q0 18 3.5 34t10.5 40q-107 -126 -243.5 -202t-273.5 -76q-122 0 -201.5 89.5t-79.5 242.5z" />
<glyph unicode="&#x153;" horiz-adv-x="1158" d="M-16 226q0 34 4 56q0 47 50 152q43 88 102.5 151t144.5 114.5t137 51.5q26 0 37 -14q6 -7 6 -22q0 -32 -24 -36q-85 -22 -155 -65.5t-121 -110.5q-46 -59 -72.5 -137t-26.5 -148q0 -59 15.5 -101t50.5 -68q15 -10 37 -11q43 0 103 38.5t96 77.5q19 19 19 40 q0 9 -15.5 55.5t-15.5 95.5v25t3 31q10 81 56 152q54 85 123 85q7 0 28 -4.5t30.5 -24t9.5 -46.5q0 -16 -1.5 -28t-3.5 -22q22 25 31 34q26 28 103 88q50 40 128 67t138 27q71 0 89.5 -35t18.5 -78q0 -71 -48 -143.5t-118 -125.5t-151 -68q-56 -10 -170 -10l-50 -1l-4 -64 q0 -60 39.5 -105.5t90.5 -45.5q96 0 258 101q144 90 201 164q9 6 13 -2q5 -6 5 -15q0 -24 -2.5 -36t-15.5 -19q-10 -19 -85 -80q-91 -74 -184 -123q-121 -65 -204 -65q-25 0 -55 7q-65 21 -101 71q-29 40 -38 92q-6 0 -12 3q-16 7 -18 8q-10 0 -19 -13q-29 -47 -104 -102 q-99 -72 -178 -72q-35 0 -65 15q-57 29 -87 104q-24 62 -23 135zM423 350q0 -69 22 -81q22 -9 52 71q13 39 28 80q10 25 15 49.5t5 48.5q0 21 -5 31.5t-20 12.5q-29 0 -51 -40q-16 -28 -31 -74.5t-15 -97.5zM598 329h86q51 0 116.5 23.5t114.5 68.5t80 89q38 53 39 93 q-1 21 -11 37q-13 24 -50 23q-44 0 -102 -28t-93 -62q-76 -69 -112 -110q-68 -79 -68 -134z" />
<glyph unicode="&#x178;" horiz-adv-x="1171" d="M191 738q3 18 5 31q16 99 58 204.5t99 199.5q84 140 150 208q76 78 145 77q40 0 78.5 -24t38.5 -96q0 -43 -13.5 -92t-36.5 -101l-397 -935q-18 -44 -22 -56q-12 -34 -12 -55q0 -13 6 -18q22 -19 129 59q118 85 288 251q162 157 219 218q104 110 163 192q68 94 125 218 q24 59 49 119q18 34 43 42.5t33 8.5q12 0 12 -10t-15 -47q-38 -91 -75 -181q-72 -172 -144 -342q-78 -184 -105 -249q-49 -110 -156 -366q-74 -178 -115 -256q-59 -113 -144 -229q-19 -29 -38 -60q-12 -17 -19 -17q-10 0 -14 17t-11.5 35t-7.5 25q0 15 18 37q82 104 165 264 q60 115 123 269q25 62 66 171q22 60 90 213q56 128 66 160v5q-4 1 -24 -16t-95 -102q-81 -91 -132 -140q-81 -78 -164 -155.5t-154 -126.5q-88 -60 -185 -94q-7 -3 -21 -3q-25 0 -44 16.5t-19 42.5q0 9 1 13q16 81 73 222q50 126 123 287l241 576q22 47 36 95.5t14 76.5 t-14 37.5t-34 9.5q-51 0 -122 -82q-62 -72 -127 -191q-32 -60 -58 -149t-33 -115.5t-13 -50.5q-10 -29 -52 -45q-22 -9 -31 -9q-10 0 -10 13zM872 1564q0 15 5 29t17 33q18 26 31 40q19 18 41 17q10 0 22 -5t17.5 -17.5t5.5 -30.5q1 -31 -17 -62q-12 -22 -34 -37t-44 -15 q-16 0 -28 10q-16 15 -16 38zM1089 1560q0 10 5.5 25.5t20.5 39.5t33 40.5t37 16.5q4 0 16 -3q26 -10 26 -47q1 -33 -17 -64q-13 -22 -35 -37t-45 -15q-16 0 -28.5 11.5t-12.5 32.5z" />
<glyph unicode="&#x2000;" horiz-adv-x="941" />
<glyph unicode="&#x2001;" horiz-adv-x="1882" />
<glyph unicode="&#x2002;" horiz-adv-x="941" />
<glyph unicode="&#x2003;" horiz-adv-x="1882" />
<glyph unicode="&#x2004;" horiz-adv-x="627" />
<glyph unicode="&#x2005;" horiz-adv-x="470" />
<glyph unicode="&#x2006;" horiz-adv-x="313" />
<glyph unicode="&#x2007;" horiz-adv-x="313" />
<glyph unicode="&#x2008;" horiz-adv-x="235" />
<glyph unicode="&#x2009;" horiz-adv-x="376" />
<glyph unicode="&#x200a;" horiz-adv-x="104" />
<glyph unicode="&#x2010;" horiz-adv-x="611" d="M75 303q0 9 4.5 19t11 26.5t32.5 16.5h280q22 0 26 -2q10 -3 11 -18q-1 -9 -5 -22q-7 -21 -10 -26q-9 -13 -34 -13h-282q-34 0 -34 19z" />
<glyph unicode="&#x2011;" horiz-adv-x="611" d="M75 303q0 9 4.5 19t11 26.5t32.5 16.5h280q22 0 26 -2q10 -3 11 -18q-1 -9 -5 -22q-7 -21 -10 -26q-9 -13 -34 -13h-282q-34 0 -34 19z" />
<glyph unicode="&#x2012;" horiz-adv-x="611" d="M75 303q0 9 4.5 19t11 26.5t32.5 16.5h280q22 0 26 -2q10 -3 11 -18q-1 -9 -5 -22q-7 -21 -10 -26q-9 -13 -34 -13h-282q-34 0 -34 19z" />
<glyph unicode="&#x2013;" horiz-adv-x="918" d="M90 303q0 9 4.5 19t11 26.5t32.5 16.5h579q37 0 37 -21q0 -8 -4 -21q-7 -25 -16 -32t-30 -7h-581q-34 0 -33 19z" />
<glyph unicode="&#x2014;" horiz-adv-x="1284" d="M75 303q0 9 4.5 19t11 26.5t32.5 16.5h965q37 0 37 -21q-1 -8 -5 -21q-7 -25 -16 -32t-29 -7h-966q-34 0 -34 19z" />
<glyph unicode="&#x2018;" horiz-adv-x="410" d="M462 1226l63 272q3 18 11 31t23 13q16 0 25.5 -12.5t6.5 -28.5l-12 -275q-3 -19 -19 -28t-44 -9q-31 0 -45 8.5t-9 28.5z" />
<glyph unicode="&#x2019;" horiz-adv-x="445" d="M441 1238q0 10 7 22l162 253q6 10 19 16t30 6q13 0 36.5 -5t32.5 -12t9 -17q0 -6 -5 -13l-6 -6l-208 -235q-15 -21 -30.5 -28.5t-27.5 -4.5q-19 4 -19 24z" />
<glyph unicode="&#x201a;" horiz-adv-x="445" d="M441 -172q0 10 7 22l162 253q6 10 19 16t30 6q13 0 36.5 -5t32.5 -12t9 -17q0 -6 -5 -13l-6 -6l-208 -235q-15 -21 -30.5 -28t-27.5 -5q-19 4 -19 24z" />
<glyph unicode="&#x201c;" horiz-adv-x="641" d="M478 1226l63 272q3 18 11 31t23 13q16 0 25.5 -12.5t6.5 -28.5l-12 -275q-3 -19 -19 -28t-44 -9q-31 0 -45 8.5t-9 28.5zM715 1226l63 272q3 18 11 31t23 13q16 0 25.5 -12.5t6.5 -28.5l-12 -275q-3 -19 -19 -28t-44 -9q-31 0 -45 8.5t-9 28.5z" />
<glyph unicode="&#x201d;" horiz-adv-x="682" d="M441 1238q0 10 7 22l162 253q6 10 19 16t30 6q13 0 36.5 -5t32.5 -12t9 -17q0 -6 -5 -13l-6 -6l-208 -235q-15 -21 -30.5 -28.5t-27.5 -4.5q-19 4 -19 24zM682 1236q0 12 9 24l160 253q7 10 13 13q15 9 36 9q13 0 36.5 -5t32.5 -12t9 -17t-9 -19l-209 -235 q-15 -18 -29 -27t-30 -6q-19 4 -19 22z" />
<glyph unicode="&#x201e;" horiz-adv-x="682" d="M441 -172q0 10 7 22l162 253q6 10 19 16t30 6q13 0 36.5 -5t32.5 -12t9 -17q0 -6 -5 -13l-6 -6l-208 -235q-15 -21 -30.5 -28t-27.5 -5q-19 4 -19 24zM682 -173q0 12 9 23l160 253q7 10 13 13q15 9 36 9q13 0 36.5 -5t32.5 -12t9 -17t-9 -19l-209 -235q-15 -18 -29 -26.5 t-30 -6.5q-19 4 -19 23z" />
<glyph unicode="&#x2022;" horiz-adv-x="433" d="M87 266q0 18 7 36.5t24 48.5t41.5 51t50.5 21q12 0 27.5 -7t23.5 -22.5t8 -39.5q1 -43 -23 -81q-18 -29 -46 -48t-56 -19q-19 0 -38 16t-19 44z" />
<glyph unicode="&#x2026;" horiz-adv-x="879" d="M49 25q0 16 5 30t17.5 36t31.5 38.5t40 16.5q7 0 20 -5.5t19 -18t6 -29.5q1 -31 -17 -62q-13 -22 -35.5 -37.5t-44.5 -15.5q-16 0 -29 12.5t-13 34.5zM368 26q0 15 5 29t17.5 36t31.5 38.5t40 16.5q7 0 20 -5.5t19 -18t6 -29.5q1 -31 -17 -62q-12 -22 -34 -37.5 t-44 -15.5q-16 0 -28 10q-16 15 -16 38zM690 25q0 16 5 30t18 37t30 38.5t39 15.5q7 0 21 -5.5t20 -18t6 -29.5q0 -33 -19 -62q-12 -22 -34 -37.5t-44 -15.5q-16 0 -29 12.5t-13 34.5z" />
<glyph unicode="&#x202f;" horiz-adv-x="376" />
<glyph unicode="&#x205f;" horiz-adv-x="470" />
<glyph unicode="&#x2122;" horiz-adv-x="1492" d="M454 719l252 659h-224l24 60h516l-24 -62h-223l-252 -657h-69zM803 719l270 714h111l-15 -627l470 626h103l-272 -713h-69l243 635l-480 -634h-63l15 636l-244 -637h-69z" />
<glyph unicode="&#x25fc;" horiz-adv-x="735" d="M0 0v735h735v-735h-735z" />
</font>
</defs>
</svg>
