<svg xmlns="http://www.w3.org/2000/svg" viewBox="0 0 250 250"><style>.st0{fill:#40465a}.st1{fill:#fcf3e4}.st2{stroke-width:1.5044}.st2,.st3{fill:#40465a;stroke:#40465a;stroke-miterlimit:10}.st3{stroke-width:.6944}</style><g id="XMLID_812_"><path id="XMLID_813_" class="st0" d="M92 172c-.6 2.6-1.3 5.4-2.3 8-1 2.6-2.2 5.2-3.6 7.6-1.5 2.4-3.2 4.7-5.3 6.7-2.1 2-4.4 3.7-7 5-2.5 1.3-5.2 2.2-7.9 3-2.6.7-5.5 1.4-8.3 1.5-5.7.3-11.3-.7-16.6-2.7-1.3-.5-2.6-1.1-3.9-1.8-1.3-.7-2.5-1.4-3.7-2.8-.3-.4-.6-.8-.7-1.6-.1-.4 0-.9.3-1.4.2-.4.6-.7.9-.9.6-.3 1-.4 1.5-.5.5-.1.8-.1 1.1-.1l4-.4c5.3-.6 10.7-1.3 15.5-3.3 2.4-1 4.5-2.4 6.2-4.2 1.8-1.8 3.1-4 4.1-6.3 2.1-4.7 3.1-10.1 3.9-15.3l.1.9c-.4-1.1-.8-2-1.1-3-.3-1-.5-2-.7-3.1-.2-1-.3-2.1-.4-3.1-.1-1.1-.1-2.1 0-3.2 0-1.1.1-2.2.4-3.2.2-1 .6-2.2.9-3.1.7-1.9 1.3-3.7 1.8-5.6 1.2-3.7 2.2-7.5 3.2-11.3.5-1.9 1-3.8 1.4-5.7.5-1.9.9-3.9 1.3-5.8.1-.4.5-.7 1-.6.4.1.7.4.7.8 0 4-.5 8-1 12-.6 4-1.4 7.9-2.4 11.8-.5 2-1.1 3.9-1.7 5.8-.3 1-.5 1.7-.7 2.6-.2.9-.3 1.7-.4 2.6-.1.9-.1 1.8 0 2.7 0 .9.1 1.8.2 2.8.1.9.2 1.9.4 2.8.2.9.4 1.9.6 2.7l.2.6-.1.3c-.9 5.4-2 10.9-4.4 16.1-1.2 2.6-2.8 5.1-4.9 7.2-2.1 2.1-4.6 3.7-7.3 4.8-2.7 1.1-5.4 1.8-8.1 2.3-2.7.5-5.5.8-8.2 1.1l-4.1.3c-.4 0-.7 0-.9.1-.2 0-.4.1-.4.1s.1 0 .1-.2c.1-.1.1-.3.1-.4 0-.1 0 0 .1.2.6.7 1.7 1.5 2.8 2.1 1.1.6 2.3 1.2 3.5 1.7 4.9 1.9 10.2 2.9 15.4 2.6 2.6-.1 5.1-.6 7.7-1.4 2.6-.7 5-1.6 7.3-2.8 2.3-1.2 4.4-2.7 6.3-4.5 1.8-1.8 3.4-3.9 4.7-6.2 1.3-2.3 2.4-4.7 3.2-7.2.8-2.5 1.4-5 1.9-7.7.2-.9 1.1-1.6 2-1.4.9.2 1.6 1.1 1.4 2-.1-.1-.1-.1-.1 0z"/></g><g id="XMLID_810_"><path id="XMLID_811_" class="st0" d="M171.6 162.4s.1.5.2 1.4c.1.9.3 2.3.6 4 .3 1.7.5 3.7 1.1 6 .5 2.3 1.3 4.8 2.6 7.1 1.4 2.4 3.4 4.5 6.3 5.8 2.8 1.4 6.2 2 9.7 2.1 1.8.1 3.6 0 5.5-.1 2 0 3.8-.1 6.1.3.6.1 1.2.3 1.9.9.7.6 1 1.5 1.1 2.2v1s-.1.5-.2.8c-.1.2-.2.4-.3.5-.4.6-.8 1-1.2 1.4-1.7 1.4-3.6 2.4-5.6 3.1-3.9 1.4-8.1 1.8-12.1 1.6-2-.1-4-.4-5.9-.7-2-.4-3.7-.9-5.5-1.2-3.6-.7-7.2-1.4-10.5-2.6-3.3-1.2-6.3-3-8.5-5.2-2.3-2.1-4-4.5-5.2-6.7-1.2-2.2-2-4.2-2.5-5.9-.6-1.7-.9-3-1.1-4-.2-.9-.3-1.4-.3-1.4-.2-.8.3-1.5 1.1-1.7.8-.2 1.5.3 1.7 1.1v.1s.1.5.3 1.3c.2.9.5 2.1 1 3.7s1.2 3.5 2.3 5.5c1.1 2 2.6 4.1 4.6 6 2 1.9 4.6 3.5 7.6 4.6 3 1.2 6.4 1.8 10 2.5 1.8.3 3.7.9 5.5 1.2 1.8.4 3.6.6 5.5.7 3.7.2 7.5-.2 11-1.4 1.7-.6 3.4-1.5 4.7-2.5.3-.3.6-.6.7-.8.1-.1 0-.1.1-.1-.1.1 0 .3 0 .1v.1-.2-.3c-.1-.3-.1-.3-.1-.4-.1-.1-.4-.2-.7-.3-1.5-.3-3.5-.3-5.4-.3-1.9 0-3.8.1-5.7 0-3.8-.2-7.5-.9-10.8-2.4-3.3-1.6-5.9-4.2-7.4-6.9-1.6-2.7-2.4-5.5-2.9-7.9-.5-2.4-.8-4.5-1.1-6.2-.2-1.7-.4-3-.6-3.9-.2-.9-.2-1.4-.2-1.4-.1-.7.4-1.4 1.1-1.6.7-.2 1.4.3 1.5 1z"/></g><g id="XMLID_673_"><path id="XMLID_674_" class="st1" d="M83.1 158.9s6.8 60.8 47.8 66.7c43.4 6.2 69.5-31.6 75.7-47.9 1.4-4.5 11.5-8.6 2.5-16.3-4.7-4.1-8.9 2.1-18.8 1.5-8.7-.6-4.7 9-4.3 13.9.9 9.7-11.7 18.7-20.9 15.6-10.1-3.4-12.9-35-2.1-47.6"/></g><g id="XMLID_808_"><path id="XMLID_809_" class="st0" d="M101.1 103.4s-.3-.2-.8-.5-1.1-.6-1.9-1c-1.6-.8-3.9-1.5-6.3-1.7-2.3-.2-4.7.2-6.4.6-.9.2-1.6.4-2.1.6-.5.2-.8.2-.8.2h-.1c-.4.1-.7-.2-.8-.5 0-.2 0-.5.2-.6 0 0 .2-.2.7-.6.5-.4 1.2-.8 2.1-1.3.9-.4 2.1-.8 3.4-1 .6-.1 1.3-.2 2-.2s1.4 0 2.1.1c2.8.3 5.3 1.4 7 2.5.8.6 1.5 1.1 1.9 1.5l.6.6c.3.3.3.8 0 1.1-.1.4-.5.4-.8.2z"/></g><g id="XMLID_806_"><path id="XMLID_807_" class="st0" d="M160.7 101.7s-.3-.1-.8-.3c-.5-.3-1.2-.5-2.1-.7-.9-.2-1.9-.5-3-.6-1.1-.2-2.3-.2-3.5-.1-2.4.1-4.6.9-6.2 1.7-.4.2-.8.4-1 .6-.3.2-.6.3-.8.5-.4.3-.7.5-.7.5h-.1c-.3.2-.7.1-.9-.2-.1-.2-.1-.4 0-.6 0 0 .2-.3.5-.8.4-.5.9-1.2 1.8-1.9.4-.3.9-.7 1.5-.9.5-.3 1.1-.6 1.8-.8 1.3-.4 2.7-.7 4.1-.7 1.4 0 2.8 0 4.1.3 1.3.2 2.4.7 3.4 1.1.9.5 1.7.9 2.2 1.2.5.3.7.5.7.5.3.2.4.7.2 1.1-.5.2-.9.3-1.2.1z"/></g><g id="XMLID_804_"><path id="XMLID_805_" class="st0" d="M169.2 161.5l.4-.4c.3-.3.5-.6.9-1 .3-.5.7-1 1-1.7.3-.7.5-1.5.7-2.5.1-1 .1-2.1 0-3.3-.1-1.2-.4-2.5-.7-3.8-.3-1.3-.8-2.7-1.3-4-.3-.7-.5-1.4-.8-2.1-.3-.7-.5-1.4-.7-2.2-.9-3-1.7-6-2.2-8.9-.5-2.9-.8-5.6-.9-7.9-.1-2.3 0-4.3 0-5.6.1-1.4.2-2.1.2-2.1.1-.4.4-.7.8-.6.4.1.6.4.6.8v2c0 1.3.2 3.2.5 5.4s.8 4.8 1.4 7.5c.3 1.4.7 2.7 1.1 4.1.4 1.4.9 2.8 1.4 4.2l.8 2.1c.3.7.5 1.4.8 2.1.5 1.4 1 2.9 1.4 4.3.7 2.9 1.1 5.8.7 8.3-.1 1.3-.6 2.4-1 3.4s-1 1.8-1.5 2.4c-.5.6-1 1.1-1.2 1.3-.3.2-.4.4-.4.4-.6.6-1.6.5-2.2-.1-.4-.6-.3-1.5.2-2.1z"/></g><g id="XMLID_775_"><path id="XMLID_776_" class="st0" d="M55.7 119.3s-.4.9-1 2.4-1.7 3.7-2.8 6.2c-.6 1.3-1.2 2.6-1.8 4.1-.3.7-.6 1.5-.9 2.2-.2.8-.5 1.6-.7 2.4-.4 1.6-.8 3.3-.8 5-.1.8 0 1.7.1 2.5 0 .8.2 1.7.4 2.5l.3 1.2.5 1.2c.4.8.6 1.6 1.1 2.3.4.7.9 1.4 1.3 2.1.5.7 1.1 1.3 1.6 1.9 1 1.3 2.2 2.4 3.3 3.4 1.1 1.1 2.3 2 3.3 2.9 1.1.9 2 1.7 2.9 2.3.9.6 1.7 1.2 2.3 1.7 1.3 1 2 1.6 2 1.6h.1c.4.3.4.9.1 1.3-.3.3-.7.4-1.1.3 0 0-.9-.4-2.3-1.2-.7-.4-1.6-.8-2.7-1.4-1-.5-2.1-1.3-3.3-2.1-1.2-.8-2.5-1.6-3.7-2.8-1.2-1.1-2.6-2.2-3.8-3.7-.6-.7-1.3-1.4-1.8-2.2-.5-.8-1-1.7-1.6-2.5-.6-.8-.9-1.8-1.3-2.7l-.6-1.4-.3-1.5c-.2-1-.4-2-.4-3s-.1-2 .1-3c.2-2 .7-3.9 1.2-5.6.3-.9.6-1.7.9-2.5.3-.8.7-1.6 1.1-2.3.7-1.5 1.4-2.8 2.1-4.1 2.8-4.9 4.6-8.1 4.6-8.1.2-.4.7-.5 1.1-.3.5 0 .7.5.5.9z"/></g><g id="XMLID_773_"><path id="XMLID_774_" class="st0" d="M76.3 75.9s-.9.9-2.4 2.5c-1.5 1.5-3.7 3.7-6.4 6.3-2.7 2.6-5.8 5.5-9.2 8.7-1.7 1.6-3.5 3.2-5.2 4.8l-.2.2.1-.1-.1.1-.3.3c0 .1-.1.2-.2.4-.2.3-.3.7-.5 1.2-.3 1-.3 2.3-1 3.9-.3.8-.9 1.6-1.4 2.1l-1.3 1.3c-.8.8-1.6 1.7-2.4 2.6-1.5 1.8-2.8 3.6-3.9 5.5-1 1.9-1.8 3.8-2 5.6-.3 1.8-.1 3.6.4 5 1 3 3.3 4.9 4.9 5.9.8.5 1.5.9 2 1.1.5.2.7.3.7.3l-1.2 2.9s-.3-.1-.9-.4c-.6-.3-1.4-.7-2.4-1.3-1-.6-2.2-1.5-3.3-2.7-1.1-1.2-2.3-2.8-3-4.8-.8-2-1-4.3-.7-6.7.3-2.4 1.2-4.7 2.3-6.8 1.1-2.2 2.6-4.2 4.2-6.2.8-1 1.7-1.9 2.5-2.9l1.3-1.3c.3-.3.4-.5.6-.9.3-.7.4-1.9.7-3.3.2-.7.4-1.5.8-2.2.2-.4.5-.8.8-1.2l.3-.3.2-.3.2-.2c1.7-1.7 3.5-3.3 5.1-4.9 3.3-3.2 6.4-6.2 9-8.8 2.6-2.6 4.7-4.8 6.2-6.3 1.4-1.5 2.3-2.4 2.3-2.4l3.4 3.3z"/></g><g id="XMLID_771_"><path id="XMLID_772_" class="st0" d="M88.5 83.3c37.7 13 61.3-.1 85.6-12.8l1 3.4s-5 4.8-13.1 10.5c-1.2.8.5 3 .6 3.4-13.8 8-40.4 13.6-74.1-4.5z"/></g><g id="XMLID_765_"><path id="XMLID_766_" class="st0" d="M121.8 90.7c-40 0-82.9-37.6-84.7-39.2l-10.6-9.4L39 48.6c.4.2 37.3 19.2 82.7 19.2 45.5 0 82.3-19 82.7-19.2L217 42l-10.6 9.4c-1.7 1.6-44.6 39.3-84.6 39.3zm-72-33.6c15.2 11.3 44.7 30.1 72 30.1 27.3 0 56.8-18.8 72-30.1-14.8 5.8-41.5 14.2-72 14.2s-57.2-8.4-72-14.2z"/></g><g id="XMLID_763_"><path id="XMLID_764_" class="st0" d="M212.5 45c9.4-7.2 10.5-2.5 11.1 5.1 1 12.5-19.5 45.1-36.9 46.1L169 73.1l32.9-19.5"/></g><g id="XMLID_761_"><path id="XMLID_762_" class="st0" d="M117.2 61.8c0-.5-.2-.8-.6-1.1-.3-.2-.6-.2-.9-.2-.2 0-.3.1-.5.1s-.4.1-.5.3c-.5.5-.6 1.5-.1 2.1.3.3.6.4 1 .4h.7c.6-.2.9-1 .9-1.6z"/></g><g id="XMLID_759_"><path id="XMLID_760_" class="st0" d="M152 58.9c0-.5-.2-.8-.6-1.1-.3-.2-.6-.2-.9-.2-.2 0-.3.1-.5.1s-.4.1-.5.3c-.5.5-.6 1.5-.1 2.1.3.3.6.4 1 .4h.7c.6-.2.9-1 .9-1.6z"/></g><g id="XMLID_755_"><path id="XMLID_756_" class="st0" d="M126.4 61.8c0-.5-.2-.8-.6-1.1-.3-.2-.6-.2-.9-.2-.2 0-.3.1-.5.1s-.4.1-.5.3c-.5.5-.6 1.5-.1 2.1.3.3.6.4 1 .4h.7c.6-.2.9-.9.9-1.6z"/></g><g id="XMLID_753_"><path id="XMLID_754_" class="st0" d="M124.1 97.1c0-.4-.2-.7-.5-.9-.2-.1-.5-.2-.8-.2-.2 0-.3 0-.4.1-.2 0-.3.1-.4.2-.5.5-.6 1.3-.1 1.8.2.3.6.4.9.4h.6c.5-.2.7-.9.7-1.4z"/></g><g id="XMLID_751_"><path id="XMLID_752_" class="st0" d="M120.5 99.9c0-.4-.2-.7-.5-.9-.2-.1-.5-.2-.8-.2-.2 0-.3 0-.4.1-.2 0-.3.1-.4.2-.5.5-.6 1.3-.1 1.8.2.3.6.4.9.4h.6c.5-.1.7-.8.7-1.4z"/></g><g id="XMLID_749_"><path id="XMLID_750_" class="st0" d="M120.2 108.6c0-.4-.2-.7-.5-.9-.2-.1-.5-.2-.8-.2-.2 0-.3 0-.4.1-.2 0-.3.1-.4.2-.5.5-.6 1.3-.1 1.8.2.3.6.4.9.4h.6c.5-.2.8-.9.7-1.4z"/></g><g id="XMLID_747_"><path id="XMLID_748_" class="st0" d="M128.1 108.6c0-.4-.2-.7-.5-.9-.2-.1-.5-.2-.8-.2-.2 0-.3 0-.4.1-.2 0-.3.1-.4.2-.5.5-.6 1.3-.1 1.8.2.3.6.4.9.4h.6c.5-.2.8-.9.7-1.4z"/></g><g id="XMLID_745_"><path id="XMLID_746_" class="st0" d="M128.3 99.6c0-.4-.2-.7-.5-.9-.2-.1-.5-.2-.8-.2-.2 0-.3 0-.4.1-.2 0-.3.1-.4.2-.5.5-.6 1.3-.1 1.8.2.3.6.4.9.4h.6c.5-.1.8-.8.7-1.4z"/></g><g id="XMLID_743_"><path id="XMLID_744_" class="st0" d="M124.1 111.8c0-.4-.2-.7-.5-.9-.2-.1-.5-.2-.8-.2-.2 0-.3 0-.4.1-.2 0-.3.1-.4.2-.5.5-.6 1.3-.1 1.8.2.3.6.4.9.4h.6c.5-.2.7-.8.7-1.4z"/></g><g id="XMLID_741_"><path id="XMLID_742_" class="st0" d="M130.2 104.4c0-.4-.2-.7-.5-.9-.2-.1-.5-.2-.8-.2-.2 0-.3 0-.4.1-.2 0-.3.1-.4.2-.5.5-.6 1.3-.1 1.8.2.3.6.4.9.4h.6c.4-.1.7-.8.7-1.4z"/></g><g id="XMLID_739_"><path id="XMLID_740_" class="st0" d="M118.1 104.4c0-.4-.2-.7-.5-.9-.2-.1-.5-.2-.8-.2-.2 0-.3 0-.4.1-.2 0-.3.1-.4.2-.5.5-.6 1.3-.1 1.8.2.3.6.4.9.4h.6c.4-.1.7-.8.7-1.4z"/></g><g id="XMLID_737_"><path id="XMLID_738_" class="st0" d="M93.9 58.6c-.1-.3-.2-.6-.4-.8-.3-.3-.6-.4-1-.4-.1 0-.2 0-.3.1-.2 0-.4.1-.6.3-.3.3-.4.6-.4 1 0 .3 0 .6.2.9.1.3.4.5.7.6.5.2 1 .2 1.4-.1.3-.2.5-.4.6-.8-.1-.2-.1-.6-.2-.8z"/></g><g id="XMLID_735_"><path id="XMLID_736_" class="st0" d="M109.2 60.8c-.1-.3-.2-.6-.4-.8-.3-.3-.6-.4-1-.4-.1 0-.2 0-.3.1-.2 0-.4.1-.6.3-.3.3-.4.6-.4 1 0 .3 0 .6.2.9.1.3.4.5.7.6.5.2 1 .2 1.4-.1.3-.2.5-.4.6-.8-.2-.1-.2-.5-.2-.8z"/></g><g id="XMLID_733_"><path id="XMLID_734_" class="st0" d="M142.9 60.8c-.1-.3-.2-.6-.4-.8-.3-.3-.6-.4-1-.4-.1 0-.2 0-.3.1-.2 0-.4.1-.6.3-.3.3-.4.6-.4 1 0 .3 0 .6.2.9.1.3.4.5.7.6.5.2 1 .2 1.4-.1.3-.2.5-.4.6-.8-.2-.1-.2-.5-.2-.8z"/></g><g id="XMLID_731_"><path id="XMLID_732_" class="st0" d="M100.8 59.5c0 .1 0 .1 0 0-.1-.1-.2-.1-.3-.2-.1 0-.1-.1-.2-.1 0 0-.4-.2 0 0-.1 0-.2-.1-.3-.1h-.1c-.5-.2-1.2-.2-1.4.4-.3.6-.3 1.2 0 1.8.3.7 1.1.9 1.7.6.6-.2 1-.8 1-1.4 0-.4-.1-.7-.4-1z"/></g><g id="XMLID_729_"><path id="XMLID_730_" class="st0" d="M133.6 61c.1 0 .1 0 0 0-.1-.1-.2-.1-.3-.2-.1 0-.1-.1-.2-.1 0 0-.4-.2 0 0-.1 0-.2-.1-.3-.1h-.1c-.5-.2-1.2-.2-1.4.4-.3.6-.3 1.2 0 1.8.3.7 1.1.9 1.7.6.6-.2 1-.8 1-1.4.1-.4-.1-.7-.4-1z"/></g><path class="st0" d="M151.2 49c-3.8-30.4-15.7-71.3-29.4-24.7-13.8-52-25-9.2-29.1 21.8-.9 6.9.2 7.7 7.3 8.8 5.6.7 13.5 1.5 21.8 1.5 10.8 0 21-1.3 26.2-2.2 2.7-.4 3.8-1.1 3.2-5.2zm-45-23.4c-.2 1.3-.5 2.6-1 3.8-.2.6-.5 1.1-.8 1.6-.2.5-.6 1-.8 1.4-.3.4-.6.8-.9 1.1l-.7.7c-.4.4-.7.6-.7.6-.1.1-.3.1-.4 0-.1-.1-.1-.2 0-.3 0 0 .1-.3.4-.8.3-.5.6-1.2 1-2 .4-.9.8-1.8 1-2.9.3-1.1.5-2.3.7-3.5.3-2.4.4-4.9.4-6.8 0-1.9.1-3.2.1-3.2 0-.2.1-.3.3-.3.1 0 .2.1.3.2 0 0 .5 1.2.8 3.1.5 2 .7 4.6.3 7.3zm36 5.6h-.3s-.2-.2-.6-.5l-1.4-1.4c-.5-.6-1.1-1.4-1.6-2.4l-.6-1.5c-.2-.5-.3-1.1-.4-1.6-.4-2.3 0-4.5.5-6 .4-1.5.9-2.5.9-2.5.1-.2.2-.2.4-.2.1 0 .2.1.2.3 0 0 .1 1.1 0 2.7 0 .8-.1 1.7-.1 2.6 0 .9 0 1.9.2 2.9.1.5.2.9.3 1.4.1.5.3.9.4 1.3.3.9.7 1.7 1 2.3.3.7.6 1.3.9 1.6l.3.6c.1.2.1.3-.1.4z"/><g id="XMLID_723_"><path id="XMLID_724_" class="st0" d="M70.7 90.9s-.5 1.3-1.3 3.2c-.9 1.9-2.2 4.4-3.8 6.7-.8 1.2-1.6 2.3-2.5 3.3-.9 1-1.8 1.9-2.5 2.6-.4.4-.8.7-1.1.9-.3.3-.7.5-.9.6-.5.3-.9.5-.9.5-.2.1-.6.1-.7-.2-.1-.2-.1-.5.1-.6 0 0 .2-.2.7-.6.2-.2.5-.4.7-.7.3-.3.6-.6.9-1 .7-.8 1.4-1.7 2.2-2.7.8-1 1.5-2.1 2.3-3.3 1.5-2.3 3-4.6 4.1-6.3 1.1-1.7 1.9-2.9 1.9-2.9.2-.2.5-.3.7-.2.1.2.2.5.1.7z"/></g><g id="XMLID_721_"><path id="XMLID_722_" class="st0" d="M64.3 135.9s.2 1.4.2 3.5-.2 4.9-.6 7.7c-.2 1.4-.5 2.8-.9 4.1-.3 1.3-.8 2.5-1.2 3.5-.2.5-.4.9-.6 1.3-.2.4-.4.7-.6 1-.4.5-.6.8-.6.8-.2.2-.5.3-.7.1-.2-.1-.3-.4-.2-.6v-.1l.3-.9c.1-.3.3-.6.4-1 .1-.4.3-.8.4-1.3.3-1 .5-2.1.8-3.4.2-1.2.5-2.6.7-3.9.4-2.7.8-5.4 1-7.5.3-2 .5-3.4.5-3.4 0-.3.3-.5.6-.4.3.1.5.3.5.5z"/></g><g id="XMLID_719_"><path id="XMLID_720_" class="st0" d="M68 107.6s-.3 1.7-1 4.3c-.4 1.3-.7 2.8-1.2 4.3-.5 1.6-1 3.2-1.6 4.9-.6 1.7-1.2 3.3-1.9 4.8-.6 1.5-1.3 2.9-1.9 4.1-.6 1.2-1.2 2.1-1.7 2.8-.2.3-.5.6-.7.8l-.3.3c-.2.2-.6.2-.8 0-.2-.2-.2-.5-.1-.7l.1-.2s0-.1.1-.2c.1-.2.2-.3.4-.7.2-.3.4-.7.6-1.2.2-.5.4-1 .7-1.6.5-1.2 1-2.6 1.5-4.2.6-1.5 1.1-3.2 1.7-4.8.6-1.6 1.2-3.3 1.7-4.8s1.1-3 1.6-4.2c.9-2.5 1.6-4.1 1.6-4.1.1-.3.5-.4.8-.3.3.2.4.4.4.7z"/></g><g id="XMLID_717_"><path id="XMLID_718_" class="st0" d="M194.3 123s0 .2-.1.5-.2.8-.2 1.2c-.1 1-.1 2.5.3 4.3.4 1.8 1.3 3.7 2.2 6 .5 1.1.9 2.4 1.3 3.7l.2 1 .1.5.1.5c.1.6.2 1.3.3 2 .3 2.7.2 5.5-.3 8.1-.3 1.3-.6 2.5-1 3.6s-.9 2.2-1.4 3.1c-.5.9-1 1.7-1.5 2.4s-1 1.2-1.4 1.7c-.8.9-1.4 1.3-1.4 1.3-.5.4-1.2.3-1.6-.2-.3-.4-.3-1 0-1.4 0 0 .1-.1.3-.4.2-.2.4-.5.7-1 .3-.4.7-1 1-1.6.4-.6.7-1.4 1.1-2.2 1.5-3.3 2.3-8.1 1.9-13-.1-.6-.1-1.2-.2-1.8l-.1-.5v-.4l-.2-.9c-.3-1.2-.6-2.3-.9-3.5-.6-2.3-1.3-4.6-1.5-6.7-.2-2.1 0-3.8.4-5 .1-.6.3-1 .4-1.3.1-.3.2-.4.2-.4.1-.4.6-.6 1-.5.2.1.4.5.3.9z"/></g><g id="XMLID_715_"><path id="XMLID_716_" class="st0" d="M196.1 140.5l.9-.3c.4-.2 1.1-.5 1.9-1.1 1.6-1.1 3.7-3.3 4.9-6.7 1.2-3.3 1.4-7.7-.5-11.7-.5-1-1.1-1.9-1.8-2.8-.7-.9-1.6-1.9-2.5-2.9-1.7-2-3.4-4-5.1-6.1-6.8-8.1-13.5-16.4-18.3-22.8-2.4-3.2-4.4-5.9-5.7-7.8-.7-1-1.2-1.7-1.6-2.2-.4-.5-.5-.8-.5-.8l2.6-1.7s.2.3.5.8c.4.5.9 1.2 1.5 2.2 1.3 1.9 3.3 4.5 5.8 7.6 4.9 6.2 11.6 14.4 18.5 22.4 1.7 2 3.5 4 5.2 6 .9 1 1.7 1.9 2.6 3 .9 1.1 1.7 2.3 2.3 3.5 1.2 2.5 1.9 5.2 1.9 7.7.1 2.5-.4 4.9-1.1 7-1.4 4.2-4 7.1-6.2 8.7-1.1.8-2 1.3-2.8 1.6-.6.2-.9.4-.9.4l-1.6-4z"/></g><g id="XMLID_713_"><path id="XMLID_714_" class="st0" d="M172.5 91.5s.6.5 1.5 1.3c.8.8 1.9 1.9 2.9 3 2 2.3 3.8 4.7 3.8 4.7.2.2.1.6-.1.7-.2.1-.4.1-.6 0 0 0-.7-.4-1.6-1.1-.4-.4-1-.8-1.5-1.3s-1-1.1-1.6-1.6c-1-1.2-1.9-2.4-2.6-3.4-.6-1-1-1.7-1-1.7-.1-.3 0-.6.2-.7.2-.1.4 0 .6.1z"/></g><g id="XMLID_711_"><path id="XMLID_712_" class="st0" d="M176.7 126.5s.7 1.4 1.5 3.6 1.7 5.2 2.3 8.3c.3 1.5.5 3.1.7 4.6.1 1.5.2 2.9.2 4.1 0 1.2-.1 2.2-.3 2.9-.1.7-.2 1.1-.2 1.1 0 .3-.3.5-.6.4-.2 0-.4-.3-.4-.5v-1c0-.7-.1-1.6-.1-2.7-.1-.6-.1-1.2-.2-1.8-.1-.6-.2-1.3-.3-2-.2-1.4-.5-2.9-.8-4.4-.6-3-1.3-6-1.9-8.2-.5-2.3-.9-3.8-.9-3.8-.1-.3.1-.6.4-.6.2-.4.5-.2.6 0z"/></g><g id="XMLID_709_"><path id="XMLID_710_" class="st0" d="M176.7 107.3s.7 1.6 1.6 4.1c.4 1.2 1 2.7 1.6 4.2.6 1.5 1.1 3.2 1.7 4.8.6 1.7 1.1 3.3 1.7 4.8.6 1.5 1.1 3 1.5 4.2.2.6.5 1.1.7 1.6.2.5.4.9.6 1.2.2.4.3.5.4.7l.1.2.1.1c.2.2.1.5-.2.7-.2.1-.5.1-.6-.1l-.3-.3c-.1-.2-.5-.4-.7-.7-.5-.7-1.1-1.6-1.7-2.8-.6-1.2-1.3-2.6-1.9-4.1-.6-1.5-1.3-3.2-1.9-4.8-.6-1.7-1.1-3.3-1.6-4.9-.5-1.6-.9-3.1-1.2-4.3-.7-2.5-1-4.3-1-4.3-.1-.3.1-.6.4-.6.3-.1.6 0 .7.3z"/></g><path class="st0" d="M41.7 53.6l-10.3-8.5c-9.4-7.2-10.9-2.6-11.4 5-1 12.5 18.2 44.2 35.5 45.2l19.1-22.2-32.9-19.5zm8.7 30.9c-.1.2-.4.2-.6.1 0 0-.5-.3-1.2-.8-.4-.3-.9-.5-1.4-.9-.5-.4-1.1-.8-1.7-1.3-1.2-1-2.6-2.3-4-3.7-1.3-1.5-2.7-3.1-4-4.7-1.3-1.7-2.5-3.4-3.6-5s-2-3.2-2.8-4.6c-1.5-2.7-2.4-4.7-2.4-4.7 0-.1 0-.2.1-.3.1 0 .2 0 .2.1 0 0 1.1 1.8 2.8 4.4 1.7 2.6 4.1 6 6.7 9.2 1.3 1.6 2.6 3.2 4 4.6.7.7 1.3 1.4 1.9 2 .6.6 1.3 1.2 1.8 1.7.6.5 1.1 1 1.6 1.4.5.4.9.7 1.3 1 .7.5 1.1.8 1.1.8.3.2.4.5.2.7z"/><g id="XMLID_679_"><path id="XMLID_680_" class="st0" d="M81.1 165.7s.3.3.1.5c-.1.2-.4.6-.6 1-.5.8-1.2 1.9-1.9 2.9s-1.5 2-2 2.8c-.6.7-1 1.2-1 1.2-.2.2-.5.2-.7.1-.2-.1-.2-.4-.1-.6l2.2-4.4c.5-1.1 1.1-2.2 1.5-3 .2-.4.3-.7.4-1 .1-.3.5-.3.5-.3.6 0 1.2.3 1.6.8z"/></g><g id="XMLID_677_"><path id="XMLID_678_" class="st0" d="M85 168.3s.3.2.1.4c-.1.2-.2.4-.4.7-.3.5-.8 1.3-1.3 1.9-.5.7-1 1.3-1.4 1.8-.4.5-.7.8-.7.8-.2.2-.5.2-.7 0-.1-.1-.2-.3-.1-.5 0 0 .6-1.5 1.3-3 .3-.7.6-1.5.9-2.1.1-.3.2-.5.3-.7 0-.2.4-.1.4-.1.6.1 1.2.4 1.6.8z"/></g><g id="XMLID_675_"><path id="XMLID_676_" class="st0" d="M42.4 127.7v-.5c0-.3 0-.9.1-1.5 0-.3.1-.6.2-1s.2-.7.3-1.1c.2-.7.5-1.5.8-2.3.4-.7.7-1.5 1.1-2.1.4-.7.8-1.2 1.2-1.7.7-1 1.4-1.5 1.4-1.5.2-.2.5-.2.7 0 .2.2.2.4.1.6 0 0-.3.7-.8 1.7-.3.5-.5 1.1-.8 1.8-.3.6-.6 1.3-.9 2.1-.6 1.4-1 2.8-1.3 3.9-.1.5-.3 1-.3 1.3-.1.3-.1.5-.1.5-.1.4-.5.7-.9.6-.5-.2-.7-.5-.8-.8z"/></g><g id="XMLID_671_"><path id="XMLID_672_" class="st0" d="M83.9 158.8s.3 1.2.9 3.5c.6 2.3 1.5 5.6 2.7 9.8 1.2 4.2 2.7 9.3 5 14.9 2.2 5.6 5.2 11.8 9.4 17.8s10 11.8 17.5 15.5c3.7 1.8 7.9 3.1 12.1 3.7 1.1.1 2.3.3 3.4.4 1.1.1 2.2.1 3.3.2 2.2.1 4.5 0 6.8-.2 9.2-.7 18.5-3.6 26.8-8.6s15.7-11.8 21.9-19.5c3.1-3.9 5.9-8 8.2-12.3 1.2-2.2 2.2-4.4 3.1-6.6.1-.2.2-.6.4-1s.4-.7.6-1c.4-.6.8-1.1 1.3-1.6.9-1 1.7-1.8 2.4-2.7 1.5-1.8 2-3.6 1.1-5.4-.4-.9-1.2-1.8-2-2.5-.4-.4-.8-.8-1.2-1.1-.4-.2-.8-.5-1.2-.5-1.7-.4-4 .6-6.3 1.3-2.3.8-4.8 1.4-7.3 1.5-1.3.1-2.5 0-3.6 0-.9 0-1.8.3-2.3.8-1 .9-1 3.3-.7 5.4.3 2.2.9 4.3 1.1 6.8.1 2.5-.5 5-1.7 7.1-2.3 4.2-6 7.1-10 8.8-2 .8-4.2 1.3-6.3 1.4-1.1 0-2.2-.1-3.2-.3-.6-.1-1-.2-1.6-.4-.4-.1-1.1-.5-1.5-.7-1.9-1.2-3.1-2.9-4.1-4.6-.9-1.7-1.6-3.4-2.2-5.1-1.1-3.4-1.6-6.8-1.8-9.9-.5-6.3.1-11.8 1.2-16.2 1.1-4.4 2.7-7.7 4-9.7.7-1 1.3-1.8 1.7-2.2.4-.5.6-.7.6-.7.3-.3.7-.3 1-.1.3.2.3.7.1 1 0 0-.8.9-1.9 2.9-1.1 2-2.4 5.1-3.2 9.4-.9 4.2-1.3 9.5-.8 15.5.3 3 .8 6.2 1.7 9.3.5 1.6 1.1 3.2 1.9 4.6.8 1.5 1.9 2.8 3.2 3.6 1.3.8 3.1 1.1 4.8 1 1.8 0 3.6-.5 5.4-1.2 3.5-1.4 6.8-4.1 8.7-7.5.9-1.7 1.5-3.7 1.4-5.6-.1-2-.7-4.2-1-6.5-.2-1.2-.3-2.4-.2-3.7.1-1.3.5-2.9 1.7-4 1.2-1.2 2.8-1.5 4.1-1.5 1.3 0 2.4.1 3.5 0 2.2-.1 4.4-.6 6.6-1.3 1.1-.4 2.3-.8 3.5-1.1 1.2-.3 2.7-.6 4.3-.2.8.2 1.4.5 2.1 1 .6.4 1.1.9 1.6 1.3 1 .9 1.9 1.9 2.6 3.2.7 1.3 1 3 .7 4.5-.3 1.5-1.1 2.8-1.9 3.9-1.6 2.1-3.6 3.8-4.2 5.6-.9 2.4-2 4.8-3.2 7-2.4 4.5-5.2 8.8-8.4 12.9-6.3 8.1-14 15.2-22.8 20.4-8.7 5.3-18.6 8.4-28.3 9.1-2.4.2-4.8.2-7.2.2-1.2-.1-2.4-.1-3.6-.2-1.1-.1-2.3-.3-3.4-.4-4.8-.6-9.2-2-13.3-4-8.2-4-14.3-10.3-18.9-16.5-4.6-6.3-7.7-12.7-10.1-18.5-2.3-5.8-3.8-11.1-4.7-15.4-1-4.4-1.4-7.9-1.6-10.3-.2-2.4-.2-3.7-.2-3.7 0-.4.4-.8.8-.8.3-.5.6-.3.7 0z"/></g><path id="XMLID_669_" class="st1" d="M78.3 221.8c59.8-54.9 127.1-70.9 169.1-33.2 0 0 1.7 1.6 1.6 2.7-.3 2.2-1.4 1.1-1.4 1.1-42-37.6-107.5-23.4-168.5 33.8"/><path id="XMLID_668_" class="st0" d="M79.8 227l-1.4-1.5c30.2-28.4 62-46.6 91.9-52.8 30.1-6.2 56.9.2 77.6 18.6v-.2c0-.3-.6-1.2-1.2-1.8-40.4-36.2-106.2-23.2-167.7 33.2l-1.4-1.5c62.3-57.2 129.1-70.2 170.4-33.2.5.5 2.1 2.1 1.9 3.7-.1.4-.3 1.8-1.4 2.2-.7.2-1.4-.1-1.7-.5-20.2-18.1-46.5-24.5-76.2-18.4-29.4 6-60.8 24.1-90.8 52.2z"/><g id="XMLID_665_"><path id="XMLID_666_" class="st1" d="M186.6 172.9l-.6-5.4c-.3-9.2 12.7 3.3 15.6 5.7"/></g><g id="XMLID_663_"><path id="XMLID_664_" class="st0" d="M137 151.8s-1.9-.3-4.8-.5c-1.4-.1-3.1-.2-4.9-.3-1.8-.1-3.7-.1-5.6-.1-1.9 0-3.8.1-5.6.2-1.8.1-3.5.2-4.9.4-1.4.2-2.6.3-3.4.5-.8.1-1.3.2-1.3.2-.5.1-1-.3-1.1-.8-.1-.5.2-.9.7-1 0 0 .5-.1 1.3-.3.8-.2 2-.5 3.5-.7.7-.1 1.5-.2 2.4-.3.8-.1 1.7-.2 2.7-.3 1.8-.1 3.8-.2 5.8-.2s3.9.2 5.8.4c1.8.2 3.5.5 5 .8 2.9.6 4.8 1.2 4.8 1.2.2.1.4.4.3.6-.3.1-.5.3-.7.2z"/></g><g id="XMLID_661_"><path id="XMLID_662_" class="st0" d="M142.2 143.1s-2.7-.4-6.7-.8c-2-.2-4.4-.4-6.9-.5-2.5-.1-5.3-.2-8-.2-1.4 0-2.7 0-4 .1-1.3 0-2.6.1-3.9.2-1.3.1-2.5.2-3.6.3-1.2.1-2.3.2-3.3.4-1 .1-1.9.2-2.7.3-.8.1-1.5.3-2.1.3l-1.8.3c-.5.1-1-.3-1.1-.8-.1-.5.2-.9.7-1.1 0 0 .7-.2 1.9-.4 1.2-.3 2.9-.7 4.9-1 1-.2 2.1-.3 3.3-.5 1.2-.1 2.4-.3 3.7-.4 1.3-.1 2.6-.2 4-.2s2.7-.1 4.1 0c2.8 0 5.5.2 8.1.4 2.6.2 5 .6 7 1 4.1.7 6.7 1.6 6.7 1.6.3.1.4.3.3.6-.1.3-.4.4-.6.4z"/></g><g id="XMLID_659_"><path id="XMLID_660_" class="st0" d="M132.5 169.4s-5.2.4-10.2 1.5c-1.3.3-2.5.6-3.7.9-1.2.3-2.2.6-3.1 1-.9.3-1.7.6-2.2.8-.5.2-.8.3-.8.3-.3.1-.7-.1-.8-.4-.1-.3 0-.6.3-.8 0 0 .3-.1.8-.4.5-.2 1.3-.6 2.2-.9.9-.4 2-.7 3.2-1.1 1.2-.3 2.5-.6 3.8-.9 2.6-.5 5.2-.7 7.2-.7s3.3.1 3.3.1c.2 0 .3.2.3.4 0 0-.1.2-.3.2z"/></g><g id="XMLID_657_"><path id="XMLID_658_" class="st0" d="M136.3 178.5s-1.5.3-3.8.8-5.3 1.3-8.3 2.2c-1.5.5-3 .9-4.3 1.5-1.4.5-2.6 1-3.7 1.5s-2 .9-2.6 1.2l-1 .5c-.3.2-.7 0-.8-.3-.1-.3 0-.6.2-.8l.9-.6c.6-.4 1.5-.8 2.6-1.4 2.2-1.1 5.2-2.2 8.2-3.1 3.1-.9 6.2-1.5 8.6-1.8 2.4-.3 4-.4 4-.4.2 0 .3.1.3.3-.1.2-.2.3-.3.4z"/></g><g id="XMLID_655_"><path id="XMLID_656_" class="st0" d="M132.7 224.8s1.5-.7 3.7-1.8c1.1-.5 2.4-1.3 3.7-2 1.3-.7 2.8-1.6 4.1-2.5 1.4-.9 2.8-1.8 4-2.7 1.2-.9 2.4-1.7 3.4-2.5s1.8-1.4 2.3-1.9c.6-.5.9-.7.9-.7.3-.3.8-.2 1.1.1.3.3.2.8 0 1.1l-.8.8c-.5.5-1.3 1.3-2.2 2.1-.5.4-1 .9-1.6 1.3-.6.4-1.2.9-1.8 1.4-1.3.9-2.7 1.9-4.1 2.7-1.4.9-3 1.6-4.4 2.3-1.4.7-2.8 1.2-4 1.7-2.4.9-4 1.3-4 1.3-.2 0-.4-.1-.5-.3-.1-.2 0-.4.2-.4z"/></g><g id="XMLID_653_"><path id="XMLID_654_" class="st0" d="M102.4 127.9l.5-1.5c.2-.5.3-1 .6-1.6l.6-1.8c.4-1.2.8-2.4 1-3.3.1-.5.3-.8.3-1.1.1-.3.1-.4.1-.4.1-.4.6-.7 1-.5.3.1.6.4.6.8 0 0 0 .7-.1 1.7-.2 1-.5 2.4-1 3.6-.2.6-.6 1.2-.9 1.8-.3.6-.7 1.1-.9 1.5-.6.8-1.1 1.3-1.1 1.3-.2.2-.4.1-.6 0-.1-.2-.1-.4-.1-.5z"/></g><g id="XMLID_651_"><path id="XMLID_652_" class="st0" d="M132.7 133.4s-5.1-.9-10.2-1c-1.3-.1-2.6 0-3.8 0-1.2 0-2.3.1-3.3.2s-1.8.1-2.3.2c-.6.1-.9.1-.9.1-.3 0-.7-.2-.7-.6 0-.3.2-.6.5-.7 0 0 .3-.1.9-.2.6-.1 1.4-.3 2.4-.4 1-.1 2.1-.2 3.4-.3h3.9c2.6.1 5.3.5 7.2 1 1.9.4 3.2.9 3.2.9.2.1.2.3.2.4-.2.4-.3.4-.5.4z"/></g><g id="XMLID_649_"><path id="XMLID_650_" class="st0" d="M113.2 81.3s1.3.1 3.2.1h3.3c1.2 0 2.5-.1 3.8-.2 1.3-.1 2.5-.2 3.7-.3 1.2-.1 2.3-.3 3.2-.5.9-.1 1.7-.3 2.3-.4.6-.1.9-.2.9-.2.4-.1.9.2.9.7.1.4-.2.8-.6.9l-.9.3c-.6.2-1.4.4-2.3.6-.5.1-1 .2-1.6.3l-1.8.3c-1.2.1-2.6.3-3.9.3-1.3.1-2.7 0-3.9 0-1.2-.1-2.4-.2-3.4-.4-2-.3-3.2-.7-3.2-.7-.2-.1-.3-.3-.3-.5.2-.2.4-.3.6-.3z"/></g><g id="XMLID_647_"><path id="XMLID_648_" class="st0" d="M98.6 126s-.2.1-.5.4c-.3.2-.8.6-1.4.9-1.2.7-3.1 1.2-4.8 1.6-.8.2-1.7.4-2.4.6-.7.2-1.4.5-2 .7-.6.2-1.1.3-1.4.4-.4.1-.6.1-.6.1h-.1c-.6.1-1.1-.3-1.1-.9 0-.3.1-.6.3-.9 0 0 .2-.2.5-.4.3-.3.8-.6 1.5-.9.6-.3 1.4-.5 2.3-.7.9-.2 1.8-.3 2.7-.4.9-.1 1.7-.2 2.5-.2.8-.1 1.5-.2 2.1-.4.6-.2 1.1-.3 1.4-.5.4-.1.6-.2.6-.2.2-.1.5 0 .6.3 0 .2-.1.4-.2.5z"/></g><g id="XMLID_645_"><path id="XMLID_646_" class="st0" d="M145.9 125.1l.4.2c.3.1.6.2 1.1.4.5.1 1 .2 1.6.3.6.1 1.3.1 2 .2 1.4.1 2.9.4 3.9.8 1 .5 1.5 1 1.5 1 .3.3.3.8 0 1.2-.2.2-.5.3-.7.2 0 0-.7-.1-1.6-.4-.9-.3-2.1-.7-3.4-1-1.3-.3-2.8-.7-3.7-1.2-1-.5-1.5-1-1.5-1-.1-.1-.1-.4 0-.5.1-.2.3-.3.4-.2z"/></g><g id="XMLID_643_"><path id="XMLID_644_" class="st0" d="M140.6 161.6l-1.8-.3c-1.2-.2-2.9-.3-4.9-.4-2-.1-4.4 0-6.9.1l-3.9.3c-1.3.1-2.7.4-4 .6-2.7.4-5.3.9-7.8 1.6-2.5.6-4.7 1.3-6.6 2-1.9.7-3.5 1.3-4.5 1.9-1.1.5-1.6.8-1.6.8-.2.1-.5.1-.6-.2-.1-.2-.1-.4.1-.6 0 0 .6-.5 1.6-1.1 1-.6 2.6-1.5 4.5-2.3 1.9-.8 4.2-1.7 6.7-2.4s5.3-1.3 7.9-1.8c2.8-.4 5.5-.7 8.1-.8 2.6-.1 5 0 7.1.2 2.1.2 3.8.6 5 .8 1.2.3 1.9.6 1.9.6.2.1.3.3.2.5-.2.4-.4.5-.5.5z"/></g><g id="XMLID_641_"><path id="XMLID_642_" class="st0" d="M81.4 106.9l.9.3c.3.1.6.1 1 .2.3.1.8.1 1.2.1.9.1 2.1 0 3.3 0 1.2 0 2.6-.1 4 0s2.9.3 4.3.8c.7.2 1.3.5 1.9.9.6.3 1 .7 1.5 1.1l1.1 1.1c.3.3.5.7.7.9.3.5.5.9.5.9.2.4.1.9-.3 1.1-.3.2-.7.2-1-.1l-.1-.1s-.2-.2-.7-.6c-.2-.2-.4-.4-.8-.6-.3-.2-.6-.5-1-.7-.4-.2-.8-.5-1.3-.7-.5-.2-1-.4-1.5-.5-1.1-.3-2.3-.5-3.6-.6-1.3-.1-2.6-.1-3.9-.2-1.3-.1-2.5-.2-3.6-.5-.5-.1-1-.3-1.5-.5-.4-.2-.8-.3-1.1-.5-.5-.3-.8-.5-.8-.5-.3-.2-.3-.6-.1-.9.4-.4.7-.5.9-.4z"/></g><g id="XMLID_639_"><path id="XMLID_640_" class="st0" d="M88 115s.1.1.3.4c.2.2.5.6.9.9.8.8 1.9 1.5 3.2 1.9.3.1.6.2 1 .3.3.1.7.1 1 .2.3 0 .6 0 1 .1h2.9c.3 0 .6.3.6.7 0 .2-.1.4-.3.5 0 0-.2.1-.5.3-.3.1-.8.4-1.5.6-.6.2-1.4.3-2.3.3-.9 0-1.8-.1-2.7-.5-.4-.2-.9-.3-1.3-.6-.4-.2-.8-.5-1.1-.8-.7-.6-1.2-1.2-1.5-1.8-.4-.6-.6-1.1-.7-1.5-.1-.4-.2-.6-.2-.6-.1-.3 0-.7.4-.9.3 0 .7.1.8.5z"/></g><g id="XMLID_637_"><path id="XMLID_638_" class="st0" d="M81 95.6s.1-.1.3-.4c.1-.2.3-.5.6-.9.6-.8 1.3-1.8 2-2.8.4-.5.7-1.1 1-1.6.3-.5.6-1 .7-1.4.2-.4.3-.8.4-1.1.1-.3.1-.4.1-.4.1-.2.3-.3.5-.2.1 0 .2.1.2.3 0 0 .2.7.1 1.8s-.5 2.5-1.2 3.7c-.6 1.3-1.5 2.4-2.2 3.2-.4.4-.7.7-1 .9-.2.2-.4.2-.4.2-.4.2-.9.1-1.1-.4-.3-.3-.2-.7 0-.9z"/></g><g id="XMLID_635_"><path id="XMLID_636_" class="st0" d="M166.7 107.1s-.1 0-.3-.1c-.2-.1-.4-.2-.8-.5-.7-.5-1.5-1.5-2-2.8-1.1-2.5-1.4-6-1.8-9.3-.2-1.6-.4-3.2-.7-4.6-.3-1.4-.9-2.6-1.6-3.4-.4-.4-.7-.7-1.1-1-.4-.2-.7-.4-1.1-.5-.6-.2-1-.3-1-.3-.2 0-.3-.2-.3-.4s.2-.3.3-.3h.3c.2 0 .5-.1.9 0 .4 0 .9.1 1.4.3.5.2 1.1.5 1.7 1 1.1.9 2.1 2.4 2.6 4 .6 1.6.9 3.3 1.1 5 .4 3.4.5 6.7 1.1 8.9.3 1.1.7 1.9 1.1 2.4.1.1.2.2.2.3.1.1.2.2.3.2l.2.2c.2.2.3.6 0 .8 0 .1-.3.2-.5.1z"/></g><path class="st0" d="M98.1 111h-7.5s-.1.2-.1.5c-.2 2 .2 4.3 2.1 5.4 2 1.2 4.5 0 5.2-1.9.6-1.5.5-2 .3-4zm-5.7 1.6c-.8 0-2.2-2.1 0-2.2 2.2-.1 2.3 2.1 0 2.2z"/><g id="XMLID_629_"><path id="XMLID_630_" class="st0" d="M162.5 108s-.3.2-.8.5c-.2.2-.6.3-1.1.5-.4.2-.9.4-1.5.5-1.1.3-2.3.4-3.6.5-1.3.1-2.6.1-3.9.2-1.3.1-2.5.3-3.6.6-.5.1-1 .4-1.5.5-.5.2-.9.5-1.3.7-.4.3-.7.5-1 .7-.3.2-.5.5-.8.6-.4.4-.7.6-.7.6l-.1.1c-.3.3-.9.2-1.1-.1-.2-.3-.2-.7-.1-1 0 0 .2-.3.5-.9.2-.3.4-.6.7-.9.3-.3.6-.7 1.1-1.1.5-.3.9-.8 1.5-1.1.6-.3 1.2-.7 1.9-.9 1.3-.5 2.8-.7 4.3-.8 1.4-.1 2.8 0 4 0 1.2.1 2.4.1 3.3 0 .5 0 .9 0 1.2-.1.4-.1.7-.1 1-.2l.9-.3c.3-.1.7.1.8.5.3.5.1.8-.1.9z"/></g><g id="XMLID_627_"><path id="XMLID_628_" class="st0" d="M156.7 115.5s0 .2-.2.6c-.1.4-.3.9-.7 1.5-.4.6-.9 1.2-1.5 1.8-.3.3-.7.5-1.1.8-.4.3-.8.4-1.3.6-.9.3-1.8.4-2.7.5-.9 0-1.6-.1-2.3-.3-.6-.1-1.1-.4-1.5-.6-.3-.2-.5-.3-.5-.3-.3-.2-.4-.6-.2-.9.1-.2.3-.3.5-.3h2.9c.3 0 .6-.1 1-.1.3-.1.6-.1 1-.2.3-.1.6-.2 1-.3 1.3-.4 2.4-1.2 3.2-1.9l.9-.9c.2-.2.3-.4.3-.4.1-.3.5-.5.9-.4.2.1.4.5.3.8z"/></g><path class="st0" d="M152.9 111.5c0-.3-.1-.5-.1-.5h-7.5c-.2 2-.2 2.3.3 3.8.7 2 3.2 3.5 5.2 2.3 2-1.1 2.4-3.6 2.1-5.6zm-5.1 2.1c-1.5.1-2.2-2.3 0-2.5 2.2-.2 1.5 2.4 0 2.5z"/><g id="XMLID_621_"><path id="XMLID_622_" class="st0" d="M79.5 183.6s-.2.7-.8 1.7c-.5 1-1.3 2.2-2.4 3.3-1 1.1-2.1 2.1-3 2.7-.9.6-1.6 1-1.6 1-.2.1-.5 0-.6-.2-.1-.1-.1-.3 0-.4 0 0 .4-.6 1.1-1.4.7-.8 1.6-1.9 2.5-3 .9-1.1 1.8-2.1 2.4-3 .7-.8 1.1-1.4 1.1-1.4.2-.3.6-.3.9-.1.5.3.5.6.4.8z"/></g><g id="XMLID_619_"><path id="XMLID_620_" class="st0" d="M163.9 182.9s.5.5 1.1 1.4c.7.8 1.5 1.9 2.4 3 .9 1.1 1.8 2.2 2.5 3 .7.8 1.1 1.4 1.1 1.4.1.2.1.4-.1.6-.1.1-.3.1-.4 0 0 0-.7-.3-1.6-1-.9-.6-2.1-1.6-3-2.7-1-1.1-1.8-2.4-2.3-3.3-.5-1-.8-1.7-.8-1.7-.1-.3.1-.7.4-.8.2-.1.5 0 .7.1z"/></g><g id="XMLID_617_"><path id="XMLID_618_" class="st0" d="M168.8 177.9s.4.4.8 1.1c.4.6 1 1.5 1.5 2.4.5.9.9 1.9 1.2 2.7.3.8.4 1.3.4 1.3 0 .2-.1.4-.3.5-.1 0-.3 0-.4-.1 0 0-.4-.4-.9-1s-1.2-1.5-1.7-2.4c-.6-.9-1-1.9-1.3-2.6-.3-.8-.4-1.3-.4-1.3-.1-.4.2-.7.5-.8.2-.1.5 0 .6.2z"/></g><g id="XMLID_615_"><path id="XMLID_616_" class="st0" d="M199.2 178.3s-.2 0-.5.1c-.3 0-.8.1-1.3 0-1-.1-2.3-.6-3.5-1.4-.6-.4-1.1-.8-1.5-1.3-.4-.5-.8-1-1-1.5-.4-1-.5-1.6-.5-1.6 0-.1.1-.2.2-.2s.1 0 .2.1l.3.3.8.8c.7.6 1.6 1.3 2.5 2 1 .7 2 1.3 2.8 1.7.4.2.7.4 1 .5.3.1.4.2.4.2.1.1.1.2.1.3.1 0 .1 0 0 0z"/></g><g id="XMLID_613_"><path id="XMLID_614_" class="st0" d="M125.6 103c-.3-.3-.6-.5-.8-.8-.2-.2-.3-.6-.6-.8-.1-.1-.3-.2-.5-.3-.4-.4-1.2-.4-1.5.1-.1 0-.1.1-.2.1-.6.6-1.2 1.3-1.8 1.9-.4.5-.9 1-.8 1.7 0 .7.6 1.3 1.1 1.8.5.5 1.1 1.4 1.8 1.6 1.2.4 2.1-.9 2.7-1.7.9-1.1 1.7-2.3.6-3.6z"/></g><g id="XMLID_611_"><path id="XMLID_612_" class="st0" d="M198.4 170.7c1.7 1.5 2.7 3.5 4.2.6"/></g><g id="XMLID_609_"><path id="XMLID_610_" class="st0" d="M167.2 213.5s-.2.7-.5 1.7c-.4 1-1 2.2-1.9 3.4-.8 1.2-1.8 2.2-2.7 2.8-.4.3-.8.6-1.1.7-.3.1-.4.2-.4.2-.3.1-.6 0-.7-.2-.1-.2-.1-.5.1-.7l.3-.3c.2-.2.5-.5.9-.8.7-.7 1.6-1.6 2.3-2.7.8-1 1.5-2.1 2-3 .5-.9.8-1.4.8-1.4.1-.3.4-.4.7-.2.1 0 .2.3.2.5z"/></g><g id="XMLID_607_"><path id="XMLID_608_" class="st0" d="M146.2 200.2s-1.4 1.3-3.7 2.9c-1.1.8-2.5 1.7-4 2.6-1.5.8-3.2 1.7-4.9 2.4-1.7.7-3.5 1.3-5.2 1.8-1.7.5-3.3.8-4.7.9-.7.1-1.3.2-1.9.2H119c-.4 0-.7-.3-.7-.7 0-.3.2-.6.6-.7h.1s.4-.1 1.2-.2c.8-.1 1.9-.3 3.2-.5.7-.1 1.4-.3 2.1-.5.8-.2 1.5-.4 2.3-.6.8-.2 1.6-.5 2.5-.8.8-.3 1.7-.6 2.5-.9 1.7-.7 3.3-1.4 4.8-2.2 1.5-.8 2.9-1.5 4-2.3 2.3-1.4 3.8-2.5 3.8-2.5.3-.2.7-.2.9.1.2.4.1.8-.1 1z"/></g><g id="XMLID_603_"><path id="XMLID_604_" class="st0" d="M195.3 167.1c3.2-1 10.4-2.7 11.5 2.6l-10.4-1.6"/></g><g id="XMLID_601_"><path id="XMLID_602_" class="st0" d="M139 112.2s-.1 1.3 0 3.2c.1 1.9.3 4.5 1 7 .2.6.3 1.2.6 1.8.2.6.4 1.1.7 1.7.5 1.1 1.1 2 1.6 2.8.6.7 1 1.4 1.4 1.7l.6.6.1.1c.3.3.3.8 0 1.1-.3.3-.8.3-1.1 0 0 0-.3-.2-.7-.6-.5-.4-1.1-1-1.7-1.9-.6-.8-1.3-1.9-1.8-3-.3-.6-.5-1.2-.7-1.8-.2-.6-.4-1.3-.6-2-.6-2.7-.7-5.4-.6-7.4 0-1 .2-1.8.3-2.4.1-.6.2-.9.2-.9 0-.2.3-.4.5-.3.1-.1.2.1.2.3z"/></g><g id="XMLID_599_"><path id="XMLID_600_" class="st0" d="M106.4 104.2s-.3-.4-.7-1c-.2-.3-.5-.6-.7-1-.2-.4-.5-.8-.7-1.2-.4-.9-.8-1.7-1-2.4-.2-.7-.4-1.2-.4-1.2 0-.2.1-.4.3-.4.1 0 .3 0 .3.1 0 0 .3.4.8.9.4.6 1 1.4 1.5 2.2.2.4.4.8.7 1.2.2.4.4.8.5 1.1.3.7.4 1.1.4 1.1.1.3-.1.6-.4.6-.2.2-.4.1-.6 0z"/></g><g id="XMLID_597_"><path id="XMLID_598_" class="st0" d="M179.9 115.8s.1.2.2.5.2.6.5 1.1c.5.9 1.2 2.1 2.1 3.1.9 1 2 1.9 2.9 2.5.9.5 1.5.8 1.5.8.2.1.3.3.2.5-.1.2-.3.3-.4.3 0 0-.7-.2-1.8-.6-1-.5-2.3-1.3-3.4-2.3-1.1-1-2.1-2.2-2.7-3.2-.3-.5-.6-1-.7-1.3-.1-.3-.2-.5-.2-.5-.2-.5 0-1.1.5-1.3.5-.2 1.1 0 1.3.5v-.1z"/></g><g id="XMLID_593_"><path id="XMLID_594_" class="st0" d="M189.3 161.5h.2c.1 0 .3 0 .6.2.3.1.8.4 1.2.6.3.2.7.5 1.1.8 1.5 1.2 3 2.9 4.5 4.5.8.8 1.5 1.6 2.2 2.4.7.7 1.4 1.3 2 1.9.3.2.6.5.8.7.2.2.5.4.7.6.4.3.7.5.7.5s-.3.1-.9.2c-.3 0-.6 0-1-.1s-.8-.2-1.2-.4c-.9-.4-1.7-1-2.6-1.7-.9-.7-1.8-1.4-2.6-2.2-1.7-1.6-3.3-3.1-4.5-4.1-.3-.3-.6-.4-.8-.6-.2-.2-.3-.2-.4-.3-.1-.1-.4-.1-.5-.2-.1 0-.2-.1-.2-.1l.7-2.7z"/></g><path id="XMLID_592_" class="st1" d="M126.9 201.8c-.6 6.7-6.8 11.6-9.2 14.7 0 0-3.3-8.8.4-17 2.4-5.2 6.7-7.5 6.7-7.5s2.7 3.1 2.1 9.8z"/><path id="XMLID_589_" class="st0" d="M117.4 218.3l-.6-1.5c-.1-.4-3.4-9.3.4-17.7 2.5-5.4 7-7.8 7.1-7.9l.7-.3.5.6c.1.1 3 3.5 2.3 10.5-.5 5.5-4.5 9.8-7.4 12.9-.8.9-1.5 1.6-2 2.3l-1 1.1zm7.1-25c-1.3.8-3.9 3-5.6 6.6-2.6 5.8-1.6 11.9-.8 14.7.3-.3.6-.7 1-1.1 2.7-2.9 6.5-6.9 6.9-11.8.4-4.5-.8-7.3-1.5-8.4z"/><g id="XMLID_583_"><g id="XMLID_586_"><path id="XMLID_587_" class="st0" d="M125.3 192.7c-2.3 1.9-6.1 6.6-6.4 15.3"/></g><g id="XMLID_584_"><path id="XMLID_585_" class="st0" d="M125.9 193.4s-.2.2-.6.5c-.3.3-.8.7-1.3 1.3-1 1.1-2.1 2.9-2.9 4.8-.8 1.9-1.3 4-1.5 5.5-.1.8-.2 1.4-.2 1.9s-.1.7-.1.7c0 .3-.3.5-.5.4-.3 0-.4-.2-.4-.5v-.7c0-.5 0-1.2.1-2 .2-1.6.5-3.8 1.3-5.9.7-2.1 1.9-4 2.9-5.3.5-.7 1-1.2 1.4-1.5.4-.3.6-.5.6-.5.4-.3.9-.3 1.3.1.3.2.3.8-.1 1.2 0-.1 0 0 0 0z"/></g></g><path id="XMLID_581_" class="st1" d="M97.5 192.5c-6.7-.2-12.3 5.4-15.6 7.5 0 0 8.4 4.3 16.9 1.5 5.4-1.8 8.2-5.8 8.2-5.8s-2.9-3-9.5-3.2z"/><path id="XMLID_578_" class="st0" d="M92.7 203.5c-6.1 0-11-2.4-11.2-2.6l-1.5-.8 1.4-.9c.7-.4 1.5-1.1 2.5-1.8 3.4-2.5 8.1-6 13.6-5.9 7 .2 10 3.4 10.1 3.5l.5.5-.4.6c-.1.2-3 4.4-8.7 6.2-2.1.9-4.3 1.2-6.3 1.2zm-8.9-3.6c2.7 1 8.7 2.8 14.7.8 3.8-1.2 6.2-3.6 7.2-4.8-1.1-.8-3.7-2.3-8.2-2.4-4.9-.1-9.3 3.1-12.5 5.5-.5.3-.9.6-1.2.9z"/><path id="XMLID_574_" class="st0" d="M106.3 195.2c-2.1 2.1-7.2 5.3-15.9 4.6"/><path id="XMLID_571_" class="st0" d="M106.9 195.9s-.2.2-.6.5c-.4.3-1 .8-1.7 1.2-1.4.9-3.5 1.8-5.6 2.3-2.1.5-4.3.6-6 .6-.8 0-1.5 0-2-.1-.5 0-.7-.1-.7-.1-.3 0-.5-.2-.4-.5 0-.3.2-.4.5-.4H93c1.6-.1 3.7-.3 5.6-.9 2-.6 3.8-1.5 5.1-2.3.6-.4 1.1-.8 1.4-1.1l.5-.5c.3-.4.9-.4 1.3 0 .4.3.4.9 0 1.3.1-.1.1-.1 0 0z"/><g id="XMLID_564_"><path id="XMLID_565_" class="st0" d="M76.5 162.7s.7.1 1.7.3c1 .2 2.3.6 3.6 1.2 1.3.6 2.5 1.6 3.2 2.5.4.5.7.9.8 1.2.2.3.3.5.3.5l-3.2 1.2s-.1-.5-.5-1.1c-.4-.7-1.1-1.5-2-2.2-.9-.7-2-1.2-2.9-1.5-.9-.3-1.4-.5-1.4-.5-.4-.1-.7-.5-.6-1 .2-.4.6-.7 1-.6z"/></g><g id="XMLID_562_"><path id="XMLID_563_" class="st0" d="M166.4 160.6l-1.5.5c-.9.3-2 .8-3.1 1.4-2.2 1.1-4.2 2.6-4.2 2.6-.7.5-1.6.4-2.1-.3s-.4-1.6.3-2.1c.1 0 .1-.1.2-.1 0 0 2.4-1.3 4.9-2.1 1.3-.4 2.5-.8 3.5-1 1-.2 1.6-.3 1.6-.3.4-.1.8.2.8.6.2.4-.1.7-.4.8z"/></g><g id="XMLID_560_"><path id="XMLID_561_" class="st0" d="M83.3 148.6s-.1-.7-.2-1.6c-.1-1 0-2.3.1-3.6.1-.7.2-1.3.3-1.9.1-.6.3-1.2.5-1.7s.4-.9.6-1.2c.2-.3.4-.4.4-.4.2-.2.5-.2.7 0 .1.1.2.3.1.5v.1s0 .1-.1.3c-.1.2-.1.6-.2 1-.1.9-.2 2.1-.3 3.4-.1 1.3-.2 2.5-.3 3.5-.1 1-.2 1.6-.2 1.6-.1.4-.4.7-.8.6-.3-.1-.5-.3-.6-.6z"/></g><g id="XMLID_558_"><path id="XMLID_559_" class="st0" d="M186.6 172.9l-.5-5.9-2.6.5.3 5.3"/></g><g id="XMLID_551_"><path id="XMLID_557_" class="st0" d="M158.7 163s.3-.2.4 0c.1.1.3.4.5.7.4.6.8 1.4 1.1 2.2.3.8.6 1.6.7 2.3.1.6.2 1 .2 1 .1.2-.1.5-.3.6-.2 0-.4 0-.5-.2 0 0-.2-.4-.6-.9-.4-.5-.7-1.2-1.2-1.9-.5-.6-.9-1.3-1.3-1.7l-.5-.5c-.2-.1 0-.4 0-.4.5-.5 1-.9 1.5-1.2z"/></g><path class="st0" d="M88.5 215c-6.4-7.6-48.8 13.5-33 16.9.9.2 1.7.3 2.4.4-.4.7-.9 1.5-1.3 2.5-4.1 9.4 4.9 10.7 11.5 8.7-.1 1.7.3 3.5 1.7 5.3 5.8 7.5 29.1-21.4 18.7-33.8zm-24.7 11.4c-.6.5-1.1 1-1.5 1.3-.4.3-.6.5-.6.5-.2.2-.5.1-.7 0-.2-.2-.2-.4 0-.6 0 0 .2-.2.5-.6.3-.4.7-1 1.3-1.5.6-.6 1.3-1.3 2.1-2s1.8-1.3 2.7-1.9c1-.6 2-1.1 3-1.5 1-.4 2-.6 2.8-.8.8-.2 1.6-.2 2.1-.2h.8c.4 0 .7.3.7.7 0 .4-.3.7-.7.7 0 0-.2 0-.7.1-.4.1-1.1.2-1.8.4-.8.2-1.6.5-2.5.9-.9.4-1.9.8-2.8 1.3-.9.5-1.8 1.1-2.6 1.7-.7.4-1.5 1-2.1 1.5zM79.1 243s-.4.5-1 1.1c-.7.6-1.6 1.5-2.7 2.1-.6.3-1.2.5-1.8.6h-.9c-.3-.1-.6-.2-.8-.4-.4-.3-.7-.7-.8-1l-.2-.4c-.1-.1 0-.3.2-.4.1-.1.3 0 .4.1 0 0 .1.1.2.4l.3.3c.1.1.2.2.4.3.3.2.7.2 1.2.2.5-.1 1-.2 1.5-.5 1-.5 2-1.2 2.7-1.8.7-.5 1.2-1 1.2-1 .1-.1.2-.1.3 0-.2.2-.2.4-.2.4z"/></svg>