<svg width="500" height="500" viewBox="0 0 500 500" xmlns="http://www.w3.org/2000/svg" xmlns:xlink="http://www.w3.org/1999/xlink"><title>mark</title><defs><path id="a" d="M0 .282h290.533v220.252H0"/><path id="c" d="M0 .282h290.533v220.252H0"/><path id="e" d="M0 .95h499.052v113.12H0V.95z"/><path id="g" d="M0 .644v29.872h18.113V.646L0 .643z"/><path id="i" d="M.293 31h12.085V.604H.293V31z"/><path id="k" d="M11.753 26.17V.31H.323v25.86h11.43z"/></defs><g fill="none" fill-rule="evenodd"><g transform="translate(0 2)"><path d="M295.63 171.104c-1.267 0-1.27 1.9 0 1.9 1.265 0 1.268-1.9 0-1.9M215.78 289.926c-.588 0-1.08.202-1.422.584-.31.346-.478.814-.478 1.317 0 .916.596 1.9 1.9 1.9 1.307 0 1.902-.986 1.902-1.902 0-.915-.595-1.9-1.9-1.9M242.397 112.168c-4.08.048-8.485.346-13.31.888-35.138 41.677-39.922 84.664-39.922 84.664 9.964-40.71 40.19-77.214 53.232-85.552M262.36 200.57c6.055-5.354 13.428-8.224 14.886-8.863 0 0 12.766-7.6 15.833.546 4.23-2.388 4.828-4.96 4.278-5.603-5.122-5.99-18.705-2.384-22.144 1.394L262.36 200.57zM288.975 164.45c1.266 0 1.27-1.902 0-1.902-1.266 0-1.268 1.902 0 1.902M291.48 200.166a7.918 7.918 0 0 0-1.554-2.34 6.297 6.297 0 0 0-2.885-1.755 6.713 6.713 0 0 0-.922-.18 7.614 7.614 0 0 0-.825-.07c-.54.01-1.105-.024-1.646.04-.546.043-1.098.1-1.63.21a13.83 13.83 0 0 0-1.597.344c-1.72.438-3.34 1.077-4.836 1.777l.047-.035c-.11.05-.206.078-.312.12-4.95 2.308-7.817 4.136-12.96 4.546.732 1.536 1.787 2.37 5.49 1.07.322-.098.675-.212 1.055-.337.01.02.02.033.03.054.176.302.397.664.67 1.068.252.422.596.848 1.013 1.278.408.44.862.91 1.36 1.387.54.438 1.138.86 1.753 1.307.634.415 1.366.734 2.077 1.094.732.324 1.526.548 2.294.803.808.133 1.592.374 2.395.403l1.183.082c.39.003.777-.028 1.155-.042.758-.01 1.473-.198 2.15-.297.665-.186 1.3-.32 1.856-.545.566-.185 1.058-.427 1.495-.63.433-.216.802-.417 1.097-.6.295-.177.523-.332.678-.446.16-.11.227-.17.227-.17s-.348-.45-1.322-.077l.002-.003c-.597.25-1.447.578-2.506.808-.53.152-1.13.21-1.75.315-.628.02-1.283.125-1.964.058-.34-.014-.683-.012-1.03-.042l-1.042-.16c-.704-.074-1.382-.356-2.074-.518-.66-.29-1.335-.53-1.964-.852-.606-.374-1.242-.655-1.8-1.04-.564-.38-1.103-.753-1.646-1.07-.494-.392-.965-.76-1.42-1.085-.22-.17-.45-.313-.66-.462-.197-.162-.385-.317-.56-.463a18.435 18.435 0 0 0-.658-.51c.27-.095.54-.19.827-.295l4.878-1.788c.886-.312 1.792-.638 2.716-.93.922-.296 1.86-.58 2.792-.805.35-.092.695-.163 1.04-.233 1.71-.228 2.44.522 2.63 1.51a2.076 2.076 0 0 1-1.63 2.436 2.04 2.04 0 0 1-1.55-.32c.19 2.167 1.4 4.184 3.487 4.49 2.155.313 3.977-1.192 4.422-3.577.18-.962.22-1.93.075-2.892.096.11.2.214.293.324.885 1.125 1.527 2.255 2.013 3.03.234.39.446.695.593.898.15.202.247.293.247.293l-.08-.37c-.037-.242-.094-.597-.165-1.05-.153-.902-.36-2.225-1.053-3.754M297.223 227.8c.4-.49.85-.883 1.277-1.198.427-.32.84-.554 1.19-.724.35-.178.63-.306.828-.386l.3-.13c.017-.007.03-.026.026-.043a.04.04 0 0 0-.046-.033l-.323.06c-.212.037-.527.085-.912.21a7.82 7.82 0 0 0-1.373.534 6.102 6.102 0 0 0-1.613 1.103 5.88 5.88 0 0 0-1.39 1.928 5.663 5.663 0 0 0-.5 2.665c.048.953.322 1.957.916 2.82.568.867 1.475 1.61 2.55 1.91.546.145 1.065.216 1.66.158.324-.015.482-.068.722-.103.334-.075.518-.132.77-.216.946-.314 1.735-.805 2.478-1.244.745-.44 1.404-.917 2.05-1.302l.005-.002-.54.363s4.123.58 6.456-.77c0 0 .05-.05-.01-.15l.014.002c.03-.018.04-.05.024-.075 0 0-.062-.104-.198-.275a3.105 3.105 0 0 0-.718-.676 3.493 3.493 0 0 0-1.467-.57c-.616-.097-1.323-.046-2.042.127-1.44.357-2.905 1.157-4.37 1.95-.728.406-1.49.76-2.23 1.037-.168.062-.415.13-.516.158-.205.032-.484.104-.613.093-.306.04-.703-.005-1.03-.093a3.142 3.142 0 0 1-1.73-1.206c-.44-.59-.718-1.32-.81-2.05a4.938 4.938 0 0 1 .202-2.13c.22-.66.565-1.248.96-1.74M204.374 238.595a2.852 2.852 0 1 0 5.704-.002 2.852 2.852 0 0 0-5.704.002M215.31 250.586c-.31.346-.48.814-.48 1.317 0 .916.596 1.9 1.902 1.9s1.9-.986 1.9-1.902c0-.914-.594-1.9-1.9-1.9-.59 0-1.082.204-1.423.586M289.926 166.35c-1.267 0-1.27 1.902 0 1.902 1.266 0 1.268-1.9 0-1.9M189.165 268.062s-6.127-18.13-3.745-48.48c-6.016 23.856 3.745 48.48 3.745 48.48M292.777 170.153c-1.266 0-1.268 1.9 0 1.9 1.267 0 1.27-1.9 0-1.9M221.484 285.173c-1.306 0-1.9.987-1.9 1.902 0 .915.594 1.9 1.9 1.9s1.9-.987 1.9-1.902c0-.916-.594-1.9-1.9-1.9M224.336 279.47c-1.306 0-1.9.986-1.9 1.902 0 .915.594 1.9 1.9 1.9s1.9-.987 1.9-1.903c0-.917-.594-1.9-1.9-1.9" fill="#40465A"/><g transform="translate(119.773 109.316)"><mask id="b" fill="#fff"><use xlink:href="#a"/></mask><path d="M46.873 193.657c-1.062.27-2.122.124-3.04-.308a4.506 4.506 0 0 1 2.524-1.726 4.5 4.5 0 0 1 3.04.31 4.502 4.502 0 0 1-2.524 1.723m-2.084 6.034a4.522 4.522 0 0 1-1.722-2.53 4.517 4.517 0 0 1 .31-3.045 4.512 4.512 0 0 1 1.72 2.53 4.517 4.517 0 0 1-.31 3.046m-4.702-4.306c-1.06.27-2.12.123-3.04-.31a4.507 4.507 0 0 1 2.525-1.725 4.504 4.504 0 0 1 3.042.31 4.507 4.507 0 0 1-2.526 1.724m-5.948-29.59a4.5 4.5 0 0 1 2.664-1.5 4.503 4.503 0 0 1 3.004.57 4.513 4.513 0 0 1-2.665 1.5 4.5 4.5 0 0 1-3.002-.57m-2.788-37.767a4.497 4.497 0 0 1 2.87-1.05 4.5 4.5 0 0 1 2.872 1.05 4.505 4.505 0 0 1-2.87 1.05 4.502 4.502 0 0 1-2.872-1.05m.827-67.934c.602.82.952 1.833.893 2.928a4.52 4.52 0 0 1-1.2 2.818 4.52 4.52 0 0 1-.892-2.93 4.517 4.517 0 0 1 1.2-2.815m-6.33-.97a4.5 4.5 0 0 1 2.923-.895 4.495 4.495 0 0 1 2.813 1.202c-.82.602-1.83.953-2.924.894a4.503 4.503 0 0 1-2.812-1.202M18.674 149.1a4.498 4.498 0 0 1-2.87-1.05 4.5 4.5 0 0 1 2.87-1.05 4.5 4.5 0 0 1 2.872 1.05 4.498 4.498 0 0 1-2.872 1.05m-3.5 5.333a4.52 4.52 0 0 1-1.048-2.876 4.52 4.52 0 0 1 1.047-2.876 4.52 4.52 0 0 1 1.048 2.877 4.52 4.52 0 0 1-1.047 2.876M8.8 148.05a4.5 4.5 0 0 1 2.872-1.05 4.5 4.5 0 0 1 2.872 1.05 4.5 4.5 0 0 1-2.872 1.05 4.5 4.5 0 0 1-2.87-1.05m2.24-41.657a4.5 4.5 0 0 1 2.872 1.05 4.502 4.502 0 0 1-2.87 1.048 4.505 4.505 0 0 1-2.873-1.048 4.502 4.502 0 0 1 2.873-1.05m3.5-5.334a4.52 4.52 0 0 1 1.048 2.877 4.52 4.52 0 0 1-1.046 2.877 4.52 4.52 0 0 1-1.048-2.877 4.52 4.52 0 0 1 1.048-2.877m-1.048 9.89c0-1.097.403-2.09 1.048-2.875a4.517 4.517 0 0 1 1.047 2.876 4.52 4.52 0 0 1-1.046 2.876 4.52 4.52 0 0 1-1.048-2.877m1.677 30.717a4.518 4.518 0 0 1 1.048 2.876 4.52 4.52 0 0 1-1.047 2.877 4.52 4.52 0 0 1-1.047-2.877c0-1.097.403-2.09 1.047-2.876m5.743-34.225a4.505 4.505 0 0 1-2.87 1.05 4.504 4.504 0 0 1-2.873-1.05 4.5 4.5 0 0 1 2.872-1.05c1.095 0 2.086.404 2.87 1.05M32.553 53.09c.602.82.95 1.832.893 2.927a4.526 4.526 0 0 1-1.2 2.817 4.518 4.518 0 0 1-.893-2.93 4.513 4.513 0 0 1 1.2-2.815m6.022 6.714a4.5 4.5 0 0 1-2.923.895 4.505 4.505 0 0 1-2.81-1.203 4.498 4.498 0 0 1 2.923-.894 4.5 4.5 0 0 1 2.81 1.2m1.3 25.396a4.51 4.51 0 0 1-1.435 2.703 4.52 4.52 0 0 1-.64-2.993 4.52 4.52 0 0 1 1.433-2.705c.53.87.794 1.908.642 2.994m2.09 2.773a4.507 4.507 0 0 1 2.7 1.436 4.494 4.494 0 0 1-2.988.642 4.504 4.504 0 0 1-2.7-1.437 4.5 4.5 0 0 1 2.99-.642m-.917 76.688a4.504 4.504 0 0 1 2.665-1.5 4.5 4.5 0 0 1 3.003.572 4.505 4.505 0 0 1-2.665 1.5 4.5 4.5 0 0 1-3.003-.57m.606 22.655a4.516 4.516 0 0 1 1.723 2.53 4.52 4.52 0 0 1-.31 3.045 4.51 4.51 0 0 1-1.72-2.53 4.522 4.522 0 0 1 .307-3.045m-1.125-21.932a4.52 4.52 0 0 1 1.497 2.67 4.518 4.518 0 0 1-.57 3.007 4.515 4.515 0 0 1-1.498-2.668 4.52 4.52 0 0 1 .57-3.01m-1.13-6.92a4.514 4.514 0 0 1 1.498 2.668 4.523 4.523 0 0 1-.57 3.01 4.52 4.52 0 0 1-1.498-2.67 4.52 4.52 0 0 1 .57-3.008m-1.046-30.437a4.5 4.5 0 0 1 2.873-1.05 4.5 4.5 0 0 1 2.872 1.05 4.505 4.505 0 0 1-2.872 1.05 4.505 4.505 0 0 1-2.872-1.05m.42 3.506a4.52 4.52 0 0 1-1.048 2.877 4.52 4.52 0 0 1-1.048-2.877 4.52 4.52 0 0 1 1.048-2.876 4.52 4.52 0 0 1 1.047 2.876m-1.048-9.89a4.52 4.52 0 0 1 1.047 2.876 4.52 4.52 0 0 1-1.048 2.876 4.52 4.52 0 0 1-1.048-2.877c0-1.098.403-2.09 1.048-2.877m.543-32.49a4.52 4.52 0 0 1 .64 2.993 4.512 4.512 0 0 1-1.434 2.704 4.52 4.52 0 0 1-.64-2.993 4.52 4.52 0 0 1 1.435-2.705m-3.526-.068a4.503 4.503 0 0 1-2.7-1.437 4.5 4.5 0 0 1 2.988-.642 4.506 4.506 0 0 1 2.7 1.436 4.5 4.5 0 0 1-2.99.644M51.33 34.06a4.498 4.498 0 0 1 2.603 1.606c-.898.475-1.95.67-3.022.45a4.5 4.5 0 0 1-2.603-1.608 4.5 4.5 0 0 1 3.024-.448m2.895-1.913a4.52 4.52 0 0 1 1.604-2.608c.473.9.668 1.953.448 3.028a4.513 4.513 0 0 1-1.604 2.607 4.524 4.524 0 0 1-.45-3.028m3.963 3.323a4.507 4.507 0 0 1 2.602 1.606c-.9.476-1.95.67-3.024.45a4.506 4.506 0 0 1-2.602-1.607 4.5 4.5 0 0 1 3.023-.45m-3.318 3.97a4.513 4.513 0 0 1-1.604 2.606 4.524 4.524 0 0 1-.45-3.03 4.515 4.515 0 0 1 1.605-2.606c.474.9.67 1.954.45 3.03m-3.404 108.425c-2.455-16.263-2.102-30.666-.79-41.938 5.858-54.28 23.53-87.102 45.334-100.445C17.485 7.566 0 118.786 0 136.374c0 17.59 1.95 27.767 18.213 32.867-.407-2.982-.49-6.045-.586-8.8 1.5 4.095 1.047 51.312 61.2 56.722-16.39-24.364-24.197-48.356-27.358-69.274a.428.428 0 0 1-.004-.023" fill="#40465A" mask="url(#b)"/></g><path d="M210.078 290.876c-.59 0-1.082.202-1.423.584-.31.346-.478.814-.478 1.318 0 .915.595 1.9 1.9 1.9 1.307 0 1.902-.987 1.902-1.902 0-.916-.596-1.9-1.902-1.9M224.336 267.112c.59 0 1.082-.203 1.422-.585.31-.346.48-.814.48-1.317 0-.916-.597-1.9-1.902-1.9-1.306 0-1.9.986-1.9 1.902 0 .916.594 1.9 1.9 1.9M291.827 155.894c1.266 0 1.27-1.9 0-1.9-1.266 0-1.268 1.9 0 1.9M289.926 159.697c1.267 0 1.268-1.902 0-1.902-1.266 0-1.268 1.902 0 1.902M221.485 255.705c-.59 0-1.082.203-1.423.585-.31.346-.48.813-.48 1.317 0 .916.597 1.9 1.903 1.9.59 0 1.082-.202 1.423-.584.31-.346.478-.814.478-1.318 0-.915-.595-1.9-1.9-1.9" fill="#40465A"/><g transform="translate(119.773 109.316)"><mask id="d" fill="#fff"><use xlink:href="#c"/></mask><path d="M175.387 49.233c.778 2.745 1.947 8.83 1.947 8.83-5.805-.376-1.947-8.83-1.947-8.83m-11.504-20.076c-.266.537-.768.856-1.414.897-1.162.052-1.78-.82-1.836-1.683-.056-.863.424-1.83 1.606-1.905.047 0 .092-.003.137-.003.585 0 1.072.25 1.38.712.38.57.43 1.37.126 1.983M153.78 30.41c-.048.003-.093.005-.14.005-1.09 0-1.643-.86-1.696-1.687-.055-.865.425-1.83 1.606-1.907.047 0 .093-.003.138-.003 1.09 0 1.645.858 1.697 1.688.055.865-.424 1.83-1.606 1.906m-7.738 2.875c-1.174.052-1.78-.82-1.836-1.683-.054-.865.425-1.83 1.607-1.907 1.17-.065 1.78.82 1.834 1.685.056.864-.424 1.83-1.605 1.905m-6.588 5.38c-1.168.046-1.78-.82-1.836-1.684-.054-.864.425-1.83 1.607-1.905.047-.002.093-.004.14-.004 1.09 0 1.642.86 1.695 1.69.056.863-.424 1.828-1.606 1.904m-5.984 5.54a2.32 2.32 0 0 1-.14.005c-1.09 0-1.642-.86-1.695-1.69-.055-.863.424-1.83 1.606-1.905 1.16-.05 1.78.82 1.836 1.683.055.865-.424 1.83-1.606 1.906m-4.674 7.44c-.047.002-.093.004-.14.004-1.09 0-1.643-.86-1.696-1.688-.055-.866.424-1.83 1.607-1.906a2.08 2.08 0 0 1 .14-.004c1.09 0 1.64.86 1.695 1.687.055.865-.425 1.83-1.606 1.907m-3.51 5.764c-.264.536-.766.855-1.412.897-.047.002-.094.004-.14.004-1.09 0-1.643-.86-1.696-1.688-.054-.866.424-1.83 1.605-1.906a2.36 2.36 0 0 1 .138-.005c.587 0 1.074.252 1.382.713.38.572.43 1.37.125 1.985m-6.94 7.4c-.047 0-.092.003-.138.003-1.092 0-1.645-.86-1.7-1.686-.053-.866.426-1.83 1.61-1.907 1.16-.052 1.778.82 1.833 1.684.055.865-.425 1.83-1.606 1.907m-6.6 5.18c-.664.032-1.187-.21-1.518-.707a2.054 2.054 0 0 1-.127-1.984c.266-.536.768-.855 1.415-.896 1.155-.07 1.778.818 1.835 1.683.055.864-.426 1.83-1.606 1.905m-7.218 4.825c-.048.002-.094.005-.14.005-1.09 0-1.643-.86-1.696-1.69-.055-.863.425-1.83 1.606-1.905.047-.002.093-.003.14-.003 1.09 0 1.643.858 1.695 1.687.056.865-.424 1.83-1.606 1.906m-8.317 3.11c-.667.028-1.186-.212-1.517-.71a2.05 2.05 0 0 1-.126-1.983c.265-.536.767-.855 1.414-.897.047-.002.093-.003.14-.003 1.09 0 1.642.857 1.695 1.687.054.864-.425 1.83-1.607 1.905m-5.506 71.622a.08.08 0 0 1 .1 0l.762.605.816.794c.283.33.63.69.952 1.12.67.847 1.365 1.9 2.002 3.088.65 1.18 1.23 2.5 1.723 3.856.47 1.363.857 2.763 1.06 4.128.092.684.153 1.36.122 2.012a7.95 7.95 0 0 1-.272 1.81 7.55 7.55 0 0 1-1.135 2.435c-.378.523-.653.768-.653.768a.086.086 0 0 1-.12-.002.09.09 0 0 1-.02-.083l.268-.933c.157-.586.333-1.42.414-2.405.028-.508.042-1 .01-1.582-.057-.557-.1-1.153-.214-1.772-.112-.62-.225-1.267-.386-1.917-.156-.653-.355-1.308-.55-1.965-.392-1.315-.895-2.598-1.393-3.79-.246-.6-.527-1.156-.775-1.695a28.525 28.525 0 0 0-.783-1.478 21.884 21.884 0 0 0-1.344-2.112l-.6-.767a.08.08 0 0 1 .014-.114m84.62-4.957c-.012.006 2.542-.232 5.778-1.39.734-.262 3.35.232 2.92 5.19-.355 4.083-3.59 3.21-4.568 5.893-.464 1.27-.593 2.183-.844 6.69-.464 8.366-8.192 10.706-12.4 10.237-4.7-.522-9.903-1.19-15.244-1.664-9.187-1.41-23.263-5-36.56-15.27 0 0 4.992 7.723 19.112 14.857h-.005c1.405.692.962 2.556.217 3.8-6.5 10.422-11.602 29.147 16.387 47.604 0 0 6.066-31.747 39.947-22.99 21.164 5.47 23.127-7.87 21.4-14.36-2.18-8.184 6.137-12.06 6.962-23.656.512-7.208-3.907-13.086 4.87-14.408 6.595-.92 9.103-3.154 9.103-6.28 0-11.514-14.905-21.775-14.905-34.21-.1-1.74 1.013-4.38 1.468-8.076 17.49 4.002 36.198 9.797 58.203 18.475 7.5 3.367 15.41 5.47 12.883-4.653-1.864-7.475-9.556-43.703-66.922-60.925v-.008c-5.144-1.554-14.19-3.625-14.19-3.625s3.827-.354 12.344 1.18l-.01-.007c1.087.2 1.88-.237 1.89-1.72.037-11.044-.37-13.748-.37-13.748s-1.017-21.563-22.735-27.903C187.415-.07 162.67-1.475 137.98 3.48c7.947 2.158 13.916 5.187 14.862 6.032l.045.04.103.095.03.028c.013.01.016.015.022.02l.015.014c-.118.047-.235.102-.352.15-.736.308-1.472.62-2.205.947-.28.126-.56.26-.842.39-.57.26-1.143.52-1.712.793-.28.134-.555.277-.833.414-.57.28-1.14.56-1.71.852-.26.134-.518.276-.777.413-.585.306-1.17.613-1.75.933-.238.13-.472.268-.707.4a99.31 99.31 0 0 0-1.81 1.03c-.208.122-.416.252-.626.376-.624.372-1.248.746-1.867 1.133-.185.115-.367.237-.552.353-.642.406-1.283.815-1.92 1.24-.163.106-.323.218-.485.326-.657.442-1.313.885-1.964 1.343-.142.1-.282.203-.424.304-.67.475-1.337.955-2 1.448-.12.09-.24.183-.36.272-.68.51-1.36 1.03-2.033 1.56-.105.08-.208.165-.312.248-.688.543-1.37 1.095-2.05 1.66-.09.074-.18.153-.273.23-.69.575-1.374 1.16-2.054 1.754-.08.07-.158.142-.237.212-.687.606-1.37 1.22-2.048 1.848l-.224.21c-.678.63-1.352 1.27-2.02 1.922-.075.072-.15.147-.224.22a112.73 112.73 0 0 0-1.982 1.988l-.22.228c-.65.674-1.298 1.356-1.938 2.05-9.617 10.418-17.882 23.125-24.015 37.91l.182-.52c-.37.882-.722 1.782-1.076 2.68-.095.24-.195.477-.29.72-.622 1.603-1.22 3.23-1.79 4.88-.142.41-.276.83-.415 1.247-.41 1.224-.808 2.46-1.19 3.71-.18.58-.356 1.164-.527 1.75-.096.33-.2.65-.295.98l.113-.323c-2.164 7.525-3.8 15.492-4.83 23.89l-.02-.01s-.2 1.66-.44 4.168c-.03.304-.073.6-.1.903l.013.014c-.36 3.917-.767 9.426-.728 14.04l.02.03c-.047 4.938.096 9.99.464 15.173.037-.01.07-.022.108-.033-.033.04-.07.08-.102.12.717 10.01 2.233 20.474 4.654 31.37a14.79 14.79 0 0 0 3.77.503c8.236 0 14.936-6.712 14.936-14.96 0-5.577-3.495-15.016-8.512-19.647-1.417-1.308-2.852-2.14-4.294-2.51 7.614-5.77 9.26-13.102 9.26-13.102-8.098 6.655-14.334 6.12-18.227 2.606-.017-4.477.397-8.666.827-11.798 1.227.767 2.575 1.224 4.037 1.224 17.883 0 20.282-30.354 46.078-44.006 21.854-11.566 26.51-40.6 37.383-40.6 1.232-.005 2.348 1.112 3.42 3.705.493 1.465.954 2.935 1.387 4.4-4.33 8.725-3.82 14.704 3.444 15.33.284 1.856.502 3.643.67 5.367-2.38 2.93-2.82 6.245.357 6.986-.046 2.86-.334 10.033-.38 10.852-1.29 13.718 19.34 27.957 18.238 35.13-1.693 10.083-12.493 4.96-12.384 11.884-.07 1.292.705 3.595 1.215 4.988l-.07-.013c-4.794-.473-11.62 6.334-17.707 6.098-.82-.39 1.428-3.317.954-2.78-1.3 1.477-2.254 2.693-2.08 4.69" fill="#40465A" mask="url(#d)"/></g><path d="M226.237 270.914c-.59 0-1.08.202-1.423.584-.31.347-.478.814-.478 1.318 0 .916.596 1.9 1.9 1.9 1.308 0 1.903-.986 1.903-1.902 0-.916-.596-1.9-1.903-1.9" fill="#40465A"/><g><path d="M22.412 60.564l9.04 15.233-16.604 10.087-9.04-15.235L0 74.175l23.11 38.943 5.81-3.53L18.13 91.408 34.732 81.32l10.79 18.184 5.81-3.527-23.11-38.942-5.81 3.53zM49.883 46.114L60.965 70.91c1.582 3.538 3.31 5.862 5.19 6.978 2.763 1.587 5.696 1.674 8.795.26 3.12-1.418 5.005-3.696 5.656-6.84.438-2.1-.144-4.946-1.75-8.54L67.773 37.972l6.156-2.8 11.846 26.503c1.94 4.336 2.195 8.517.776 12.545-1.615 4.5-4.615 7.747-9.003 9.743-4.387 1.996-8.778 2.112-13.17.346-3.933-1.592-6.87-4.554-8.81-8.894l-11.844-26.5 6.157-2.802zM103.828 72.244L89.354 26.38l40.983 22.66-9.42-29.84 6.34-2.09 14.38 45.556L100.68 40.09l9.49 30.063-6.342 2.09zM156.498 16.047l8.165 37.622-6.485 1.463-8.165-37.62-9.88 2.23-1.35-6.218L165 7.605l1.35 6.218-9.852 2.224zM201.874 9.104l-17.57 2.515 1.5 10.587 17.058-2.44.882 6.25-17.057 2.44 2.088 14.726 17.565-2.515.886 6.252-24.182 3.46-6.237-44.065 24.18-3.463.887 6.252z" fill="#40465A"/><mask id="f" fill="#fff"><use xlink:href="#e"/></mask><path d="M223.647 21.8l2.135-.123c6.365-.36 9.41-3 9.138-7.932-.253-4.615-3.477-6.75-9.668-6.398l-2.393.137.787 14.316zm8.65 4.7l14.853 18.443-8.222.466-13.742-17.748-1.212.07 1.018 18.464-6.72.382-2.49-45.114 7.876-.445c5.884-.332 10.196.544 12.934 2.637 3.022 2.33 4.647 5.54 4.873 9.63.176 3.195-.575 5.993-2.257 8.393-1.68 2.404-3.985 4.007-6.91 4.82zM292.4 16.726l.578-.355c.99-.627 1.814-1.18 2.468-1.654.65-.477 1.126-.885 1.425-1.227.632-.662.994-1.514 1.086-2.554.102-1.178-.203-2.165-.915-2.968-.712-.806-1.722-1.267-3.032-1.385-1.195-.108-2.232.178-3.11.854-.88.642-1.367 1.518-1.465 2.636-.118 1.31.28 2.65 1.193 4.015l1.47 2.175c.05.102.15.255.304.463zm-2.17 8.402l-.394.226c-2.88 1.662-4.86 3.026-5.95 4.093-1.07 1.07-1.658 2.25-1.774 3.54-.16 1.85.42 3.615 1.743 5.29 1.386 1.62 2.99 2.515 4.81 2.682 2.56.23 5.658-1.208 9.295-4.316l-7.73-11.516zm5.592-3.31l7.054 10.433.28-.265a95.996 95.996 0 0 0 2.66-2.556 71.566 71.566 0 0 0 2.434-2.55l3.926 4.905c-.598.724-1.373 1.555-2.326 2.498a146.96 146.96 0 0 1-3.398 3.248l7.238 10.95-8.246-.75-3.9-5.864c-4.39 3.856-8.758 5.588-13.1 5.194-3.888-.355-7.076-1.917-9.563-4.688-2.432-2.787-3.482-6.05-3.155-9.79.393-4.453 2.822-7.962 7.29-10.53l3.05-1.734a1.59 1.59 0 0 0 .21-.127l.428-.278c-2.625-3.408-3.803-6.633-3.535-9.68.264-3.005 1.447-5.368 3.546-7.08 2.138-1.71 4.76-2.423 7.87-2.142 3.016.276 5.427 1.418 7.238 3.428 1.81 2.01 2.595 4.413 2.35 7.208-.172 1.928-.864 3.623-2.084 5.087-1.198 1.464-3.286 3.16-6.266 5.085zM368.094 41.523l-2.816-16.377L355.025 38.3l13.07 3.223zm1.16 6.826l-18.417-4.54-7.34 9.39-6.993-1.724 32.43-41.02 9.395 51.33-7.106-1.75-1.97-11.687zM400.517 43.27l1.998.684c2.376.812 4.293.876 5.754.198 1.46-.68 2.54-2.045 3.235-4.105.674-2.004.624-3.717-.16-5.143-.78-1.423-2.247-2.507-4.402-3.243l-2.246-.767-4.18 12.376zm-6.16 18.244l3.942 1.35c2.884.986 5.194 1.14 6.93.466 1.84-.746 3.08-2.062 3.718-3.958.62-1.835.457-3.615-.49-5.332-.916-1.686-3.09-3.12-6.524-4.29l-3.232-1.107-4.346 12.87zm-8.423 3.856l14.373-42.556 6.355 2.17c2.83.97 5.01 1.96 6.54 2.977 1.548 1.023 2.733 2.257 3.547 3.703.82 1.49 1.305 3.163 1.45 5.02.16 1.878-.043 3.654-.605 5.324-1.03 3.052-3.06 5.235-6.094 6.556 1.986 1.54 3.3 3.495 3.944 5.868.67 2.362.577 4.81-.28 7.345-1.123 3.325-3.24 5.737-6.353 7.236-1.885.936-3.795 1.376-5.734 1.33-2.097-.123-4.59-.68-7.473-1.665l-9.67-3.305zM438.023 54.89l17.547 7.708 6.926-16.07 6.138 2.698-17.702 41.08-6.14-2.7 8.268-19.183-17.55-7.707-8.265 19.18-6.14-2.695 17.702-41.078 6.14 2.696-6.924 16.07zM490.427 91.75l1.38-16.632-13.268 10.14 11.887 6.493zm-.59 6.93l-16.755-9.147-9.49 7.235-6.365-3.476 41.825-31.505-3.773 52.282-6.464-3.528 1.02-11.86z" fill="#40465A" mask="url(#f)"/></g><path d="M52.496 386.652h17.002v-15.42h5.948v39.417h-5.948v-18.407H52.496v18.406h-5.948v-39.417h5.948v15.42zm59.906 14.424H95.528l-4.39 9.573H84.73l19.503-41.893 18.814 41.892h-6.51l-4.135-9.574zm-2.425-5.59l-5.846-13.403-6.126 13.402h11.973zm26.873-1.865l-12.867-22.387h6.842l9.01 15.75 9.038-15.75h6.842l-12.917 22.388v17.03h-5.948v-17.03zm49.516-16.796h-15.802v9.47h15.342v5.592h-15.342v13.172h15.802v5.59h-21.75v-39.415h21.75v5.59zm34.454.28l-4.825 2.86c-.902-1.566-1.76-2.587-2.578-3.063-.85-.544-1.95-.816-3.293-.816-1.65 0-3.02.468-4.11 1.404-1.09.92-1.634 2.076-1.634 3.472 0 1.923 1.43 3.47 4.29 4.646l3.93 1.608c3.2 1.293 5.54 2.872 7.02 4.735 1.48 1.863 2.22 4.148 2.22 6.854 0 3.625-1.207 6.62-3.624 8.986-2.433 2.382-5.454 3.574-9.062 3.574-3.42 0-6.246-1.013-8.475-3.038-2.197-2.026-3.567-4.876-4.11-8.552l6.023-1.328c.272 2.315.75 3.915 1.43 4.8 1.225 1.7 3.012 2.552 5.36 2.552 1.856 0 3.396-.62 4.62-1.863 1.227-1.243 1.84-2.817 1.84-4.723 0-.766-.107-1.468-.32-2.106a5.344 5.344 0 0 0-.995-1.76c-.45-.537-1.034-1.04-1.75-1.508-.714-.468-1.565-.914-2.552-1.34l-3.804-1.583c-5.395-2.28-8.092-5.616-8.092-10.007 0-2.96 1.132-5.437 3.395-7.428 2.264-2.008 5.08-3.013 8.45-3.013 4.544 0 8.092 2.213 10.645 6.638zm59.48 9.855l15.343-15.727h7.94l-17.82 17.844 17.922 21.572h-7.965l-14.194-17.54-1.225 1.226v16.313h-5.947v-39.417h5.948v15.726zm39-15.727v23.74c0 3.388.553 5.864 1.66 7.43 1.65 2.264 3.973 3.395 6.968 3.395 3.012 0 5.344-1.13 6.995-3.395 1.106-1.515 1.66-3.99 1.66-7.43v-23.74h5.947v25.375c0 4.153-1.293 7.574-3.88 10.263-2.91 2.996-6.484 4.494-10.722 4.494-4.238 0-7.803-1.498-10.696-4.493-2.587-2.688-3.88-6.11-3.88-10.262v-25.375h5.947zm37.032 39.416v-42.097l28.745 30.072v-27.392h5.948v41.815l-28.745-29.995v27.596h-5.948zm48.495 0v-39.417h8.27c3.967 0 7.098.392 9.396 1.175 2.467.765 4.705 2.067 6.714 3.905 4.067 3.71 6.1 8.586 6.1 14.628 0 6.06-2.118 10.96-6.356 14.705-2.126 1.872-4.355 3.174-6.687 3.906-2.178.733-5.267 1.1-9.267 1.1h-8.17zm5.948-5.592h2.68c2.673 0 4.894-.28 6.664-.842 1.77-.596 3.368-1.54 4.798-2.834 2.927-2.672 4.39-6.152 4.39-10.44 0-4.324-1.446-7.83-4.34-10.52-2.603-2.398-6.44-3.598-11.512-3.598h-2.68v28.234zm42.317-33.825v39.416h-5.948v-39.417h5.948zM162.122 486.345c0-2.22.813-4.125 2.44-5.718 1.62-1.593 3.567-2.39 5.84-2.39 2.247 0 4.174.803 5.78 2.41 1.614 1.607 2.42 3.536 2.42 5.79 0 2.267-.81 4.19-2.43 5.77-1.627 1.585-3.59 2.378-5.892 2.378-2.035 0-3.863-.704-5.483-2.113-1.784-1.56-2.675-3.602-2.675-6.127zm2.4.03c0 1.743.585 3.176 1.756 4.3 1.164 1.123 2.508 1.684 4.033 1.684 1.655 0 3.05-.573 4.188-1.716 1.136-1.157 1.705-2.567 1.705-4.228 0-1.68-.562-3.09-1.685-4.227-1.116-1.145-2.498-1.717-4.146-1.717-1.64 0-3.026.572-4.156 1.716-1.13 1.13-1.695 2.524-1.695 4.185zm30.466-6.994v2.82c-1.375-1.15-2.798-1.727-4.268-1.727-1.62 0-2.985.582-4.095 1.746-1.116 1.157-1.674 2.573-1.674 4.247 0 1.655.56 3.05 1.675 4.187 1.117 1.137 2.485 1.705 4.105 1.705.837 0 1.55-.137 2.134-.41.327-.135.666-.32 1.016-.55.35-.232.72-.51 1.108-.838v2.87c-1.36.77-2.79 1.153-4.29 1.153-2.252 0-4.175-.786-5.768-2.358-1.586-1.587-2.38-3.5-2.38-5.74 0-2.007.665-3.798 1.992-5.37 1.634-1.927 3.748-2.89 6.34-2.89 1.417 0 2.786.385 4.106 1.154zm9.095 1.39v13.53h-2.38v-13.53h-3.624v-2.237h9.618v2.236h-3.615zm6.195 5.575c0-2.22.813-4.125 2.44-5.718 1.62-1.593 3.567-2.39 5.84-2.39 2.248 0 4.174.803 5.78 2.41 1.614 1.607 2.42 3.536 2.42 5.79 0 2.267-.81 4.19-2.43 5.77-1.626 1.585-3.59 2.378-5.89 2.378-2.037 0-3.865-.704-5.485-2.113-1.783-1.56-2.675-3.602-2.675-6.127zm2.4.03c0 1.743.585 3.176 1.756 4.3 1.164 1.123 2.508 1.684 4.033 1.684 1.655 0 3.05-.573 4.187-1.716 1.137-1.157 1.705-2.567 1.705-4.228 0-1.68-.562-3.09-1.686-4.227-1.116-1.145-2.498-1.717-4.145-1.717-1.642 0-3.027.572-4.157 1.716-1.13 1.13-1.695 2.524-1.695 4.185zm18.815 7.924v-15.767h2.37c1.055 0 1.895.082 2.522.245.633.164 1.167.44 1.603.827.442.402.793.902 1.052 1.5.265.607.398 1.22.398 1.84 0 1.13-.432 2.086-1.297 2.87a3.81 3.81 0 0 1 1.982 1.5c.49.708.735 1.532.735 2.47 0 1.233-.435 2.275-1.307 3.126a4.29 4.29 0 0 1-1.766 1.093c-.715.198-1.61.296-2.686.296h-3.605zm2.38-8.997h.745c.885 0 1.534-.195 1.945-.587.412-.39.618-.968.618-1.73 0-.743-.21-1.306-.632-1.69-.422-.385-1.035-.578-1.838-.578h-.837v4.585zm0 6.76h1.47c1.076 0 1.865-.21 2.37-.633a2.19 2.19 0 0 0 .796-1.736c0-.68-.257-1.252-.767-1.715-.497-.457-1.386-.686-2.665-.686h-1.205v4.77zm20.43-11.293h-6.322v3.788h6.138v2.236h-6.137v5.27h6.322v2.235h-8.7v-15.767h8.7v2.236zm10.207 6.81l4.88 6.72h-2.91l-4.503-6.454h-.428v6.453h-2.38v-15.767h2.787c2.083 0 3.588.392 4.513 1.175 1.022.87 1.532 2.02 1.532 3.45 0 1.117-.32 2.077-.96 2.88-.64.804-1.484 1.318-2.532 1.542zm-2.96-1.807h.754c2.254 0 3.38-.86 3.38-2.583 0-1.614-1.096-2.42-3.288-2.42h-.847v5.003zm23.353 6.29h5.87v2.236h-10.588l5.474-6.628c.536-.66.987-1.232 1.352-1.715.364-.484.64-.89.832-1.215.388-.64.582-1.215.582-1.726 0-.735-.26-1.35-.776-1.848-.518-.497-1.158-.746-1.92-.746-1.593 0-2.505.943-2.737 2.83h-2.37c.383-3.323 2.06-4.984 5.036-4.984 1.435 0 2.64.456 3.613 1.368.98.912 1.47 2.042 1.47 3.39 0 .858-.227 1.7-.683 2.522-.232.43-.57.938-1.016 1.527a50.09 50.09 0 0 1-1.69 2.088l-2.45 2.9zm10.154-5.75c0-2.51.586-4.516 1.757-6.013 1.048-1.355 2.318-2.032 3.81-2.032 1.49 0 2.76.677 3.807 2.032 1.172 1.497 1.758 3.536 1.758 6.116 0 2.574-.586 4.61-1.757 6.107-1.047 1.354-2.313 2.032-3.797 2.032s-2.757-.678-3.82-2.032c-1.17-1.498-1.756-3.567-1.756-6.21zm2.34.01c0 1.75.302 3.204.908 4.362.606 1.136 1.378 1.705 2.318 1.705.932 0 1.705-.57 2.318-1.705.613-1.13.92-2.557.92-4.28 0-1.72-.307-3.15-.92-4.288-.612-1.13-1.385-1.695-2.317-1.695-.926 0-1.695.565-2.308 1.695-.613 1.124-.92 2.526-.92 4.207zm15.33-5.564H310l1.308-2.227h3.8V494.3h-2.38v-13.54zm15.21-2.778l1.746 1.307-3.768 5.125c.204-.027.378-.048.52-.06.143-.015.256-.022.338-.022 1.28 0 2.386.49 3.318 1.47.927.967 1.39 2.13 1.39 3.493 0 1.443-.517 2.682-1.552 3.717-1.028 1.028-2.264 1.542-3.707 1.542-1.428 0-2.68-.507-3.757-1.522-1.055-1.014-1.582-2.216-1.582-3.604 0-1.247.515-2.568 1.543-3.963l5.514-7.485zm1.225 11.467c0-.838-.29-1.546-.868-2.125a2.88 2.88 0 0 0-2.114-.878c-.83 0-1.535.29-2.113.868-.58.58-.868 1.28-.868 2.103 0 .824.288 1.525.867 2.104.578.58 1.286.868 2.123.868.817 0 1.515-.29 2.094-.868.585-.585.878-1.276.878-2.073z" fill="#40465A"/><ellipse fill="#40465A" cx="247.625" cy="393.063" rx="7.129" ry="7.129"/></g><g transform="translate(46 430.29)"><mask id="h" fill="#fff"><use xlink:href="#g"/></mask><path d="M16.831 14.748c-.853 2.329-2.122 4.216-3.804 5.662-1.682 1.445-3.424 2.168-5.223 2.168-.128 0-.264-.01-.41-.027a8.027 8.027 0 0 0-.436-.04c-.146-.01-.32-.024-.52-.042-.2-.073-.354-.273-.463-.6-.09-.272-.06-.45.095-.53.154-.084.386-.125.696-.125h.518c2.163 0 4-.863 5.51-2.59 1.272-1.456 2.274-3.447 3-5.976.2-.726.373-1.577.518-2.55.146-.973.22-1.877.22-2.713 0-1.53-.174-2.756-.518-3.684-.4-1.09-.992-1.637-1.774-1.637-1.183 0-2.537 1.073-4.065 3.22-1.328 1.854-2.45 3.96-3.37 6.314a190.135 190.135 0 0 0-2.412 6.507c-.292.8-.464 1.463-.52 1.992-.218 1.8-.545 3.61-.982 5.427a20.098 20.098 0 0 1-1.117 3.247c-.527 1.163-.954 1.747-1.28 1.747-.33 0-.493-.128-.493-.383v-.245a1.51 1.51 0 0 0 .054-.357c.073-.563.206-1.31.397-2.236.19-.928.35-1.646.477-2.155a114.546 114.546 0 0 1 2.728-9.03c1.53-4.4 3.074-7.883 4.638-10.447 2.037-3.347 4.02-5.02 5.947-5.02h.328c.145.036.254.054.327.054 1.055.2 1.855.927 2.4 2.18.545 1.256.818 2.804.818 4.64 0 1.146-.108 2.35-.326 3.614a20.968 20.968 0 0 1-.956 3.614" fill="#C51B0E" mask="url(#h)"/></g><path d="M80.263 452.543c.018.238.013.438-.014.603-.028.165-.106.274-.233.33-.89.84-1.878 1.662-2.96 2.465-1.082.805-2.04 1.408-2.877 1.81-.546.274-1.02.41-1.42.41-.345 0-.595-.095-.75-.286-.154-.192-.23-.452-.23-.78 0-.33.07-.62.217-.876.436-.858.973-1.944 1.61-3.257.11-.218.445-.94 1.01-2.162.108-.255.163-.456.163-.6 0-.238-.1-.357-.3-.357-.237 0-.483.156-.737.465-1.164 1.4-2.62 2.827-4.365 4.282-1.018.855-2.328 1.846-3.928 2.974-.545.4-1.02.6-1.418.6-.29 0-.515-.104-.67-.313a1.223 1.223 0 0 1-.23-.75c0-.164.04-.368.122-.614.082-.245.36-.818.832-1.718.473-.9.8-1.587.982-2.06a.767.767 0 0 0 .055-.328c0-.217-.082-.327-.246-.327-.127 0-.277.087-.45.26-.173.172-.364.36-.573.56-.21.2-.487.4-.832.6-.236.053-.336-.073-.3-.383v-.41a.823.823 0 0 1 .3-.545 92.33 92.33 0 0 0 1.664-1.31c.473-.417.95-.922 1.432-1.513.482-.592.805-1.024.97-1.297.253-.382.435-.71.545-.982.235-.58.48-1.163.736-1.745.308-.6.663-.854 1.063-.763.364.072.545.236.545.49 0 .11-.054.273-.163.49-.764 1.602-1.52 3.203-2.264 4.803-.945 2.036-1.59 3.546-1.936 4.528-.09.255-.137.473-.137.654 0 .237.09.355.273.355.09 0 .19-.027.3-.082.11-.054.2-.11.273-.163 1.6-1.29 3.474-2.983 5.62-5.075 2.382-2.327 4.073-4.2 5.073-5.62.2-.29.464-.435.79-.435.202 0 .37.06.506.177a.57.57 0 0 1 .205.45.67.67 0 0 1-.082.3 176.983 176.983 0 0 0-2.428 5.102 143.883 143.883 0 0 0-2.155 4.99c-.073.202-.11.374-.11.52 0 .236.128.354.383.354.163 0 .345-.054.546-.163.51-.31 1.092-.71 1.746-1.2.11-.073 1.31-1.028 3.6-2.865.165 0 .247.046.247.137v.273z" fill="#C51B0E"/><path d="M97.45 452.487c0 .455-.11.782-.33.982-.926.836-1.9 1.636-2.918 2.4-2.055 1.546-3.52 2.318-4.39 2.318a.885.885 0 0 1-.547-.163c-.218-.164-.327-.437-.327-.82 0-.29.063-.635.19-1.035.073-.22.21-.573.41-1.064l3.33-7.284c.162-.363.244-.618.244-.764a.297.297 0 0 0-.082-.218c-.128-.164-.774.264-1.937 1.282-1.255 1.092-2.847 2.6-4.774 4.53a88.848 88.848 0 0 0-4.038 4.31c-.437.508-.737.827-.9.954-.31.254-.592.382-.847.382-.363 0-.545-.246-.545-.737 0-.272.063-.545.19-.818.22-.545.437-1.036.656-1.473.51-1 .813-1.655.914-1.965.1-.31.15-.518.15-.627 0-.164-.064-.246-.19-.246-.183 0-.52.182-1.01.546-.22.164-.446.346-.683.546-.254.018-.363-.127-.327-.437 0-.364.11-.682.327-.954 1.182-1.037 2.028-1.81 2.537-2.32.89-.872 1.5-1.754 1.828-2.645l.464-1.283c.145-.4.327-.754.545-1.064.128-.18.347-.27.656-.27.31 0 .528.09.655.27.073.11.082.238.028.383-1.29 2.783-2.228 4.88-2.81 6.288-.582 1.41-.81 2.18-.682 2.307.182.18.792-.31 1.828-1.474 1.51-1.69 2.483-2.728 2.92-3.11a426.53 426.53 0 0 1 2.918-2.62c.91-.744 1.982-1.5 3.22-2.263.2-.11.38-.163.544-.163.237 0 .414.1.532.3.118.2.178.427.178.682 0 .163-.02.272-.054.326l-.944 2.16-3.394 7.77a1 1 0 0 0-.137.545c0 .22.064.366.19.438.237.163 1.274-.454 3.11-1.855 1.456-1.11 2.447-1.91 2.974-2.4.11-.055.192-.055.247 0 .055.054.082.172.082.354" fill="#C51B0E"/><g transform="translate(95 438.29)"><mask id="j" fill="#fff"><use xlink:href="#i"/></mask><path d="M11.314 2.322c-.127.31-.295.578-.504.805-.21.228-.433.34-.67.34a.93.93 0 0 1-.367-.108.528.528 0 0 1-.3-.342 1.664 1.664 0 0 1-.068-.478c0-.18.05-.426.15-.736.1-.31.28-.586.545-.832.264-.246.514-.368.75-.368.146 0 .264.036.355.11.218.145.327.38.327.708 0 .273-.072.573-.218.9m1.064 11.928c0 .437-.09.746-.272.927-.62.492-1.064.846-1.337 1.064-.402.33-.874.756-1.42 1.284-.873.8-1.746 1.623-2.62 2.468-.872.846-1.608 1.77-2.208 2.77-.22.363-.728 1.81-1.528 4.336-.4 1.273-.864 2.4-1.39 3.383-.183.346-.438.52-.765.52-.365 0-.547-.32-.547-.955 0-.092.02-.283.055-.573.2-1.255.79-2.937 1.773-5.047.71-1.51 1.183-2.573 1.42-3.19.236-.62.845-2.365 1.827-5.24.746-2.145 1.282-3.61 1.61-4.39.072-.146.11-.32.11-.52 0-.326-.1-.49-.3-.49-.13 0-.284.1-.465.3-.837.946-1.62 1.79-2.346 2.537-.727.745-1.355 1.328-1.882 1.745-.255.055-.364-.063-.327-.354 0-.273.026-.473.08-.6.02-.018.1-.146.247-.382 1-.945 2.173-2.182 3.52-3.71C6.775 8.804 7.75 7.613 8.53 6.558c.2-.273.436-.41.71-.41.417 0 .626.247.626.737 0 .22-.045.42-.136.6-.382.892-1.01 2.615-1.882 5.17-.873 2.556-1.5 4.497-1.883 5.824-.036.11-.054.237-.054.382 0 .146.064.218.19.218.237 0 .52-.18.846-.545a36.223 36.223 0 0 1 2.345-2.237c.91-.8 1.846-1.62 2.81-2.455.182-.017.273.12.273.41" fill="#C51B0E" mask="url(#j)"/></g><path d="M123.01 452.38c.017.2 0 .396-.056.588-.054.192-.19.36-.41.507a96.75 96.75 0 0 1-1.254 1.096 34.12 34.12 0 0 1-1.01.823c-1.036.822-1.845 1.416-2.427 1.78-1.11.714-2 1.07-2.673 1.07-.128 0-.305-.028-.532-.082-.228-.055-.34-.293-.34-.715 0-.202.153-.917.463-2.146a4.62 4.62 0 0 1-.11-.303c-.235.182-.762.69-1.58 1.527-1.22 1.237-2.292 1.855-3.22 1.855-.364 0-.777-.092-1.24-.273-.465-.182-.874-.664-1.23-1.446-.353-.78-.53-1.69-.53-2.727 0-1.164.245-2.273.736-3.328.564-1.22 1.428-2.292 2.592-3.22 1.31-1.018 2.455-1.754 3.437-2.21a10.864 10.864 0 0 1 4.61-1.008c.564 0 1.21.113 1.937.34.727.228 1.09.487 1.09.778 0 .11-.063.22-.19.327-.054.037-.118.137-.19.3-.074.164-.156.246-.247.246-.072 0-.18-.054-.327-.164-.218-.18-.518-.327-.9-.436a4.255 4.255 0 0 0-1.173-.164c-1.546 0-3.228.5-5.047 1.5-1.928 1.074-3.365 2.365-4.31 3.874-.454.728-.682 1.664-.682 2.81 0 .655.086 1.264.26 1.828.172.564.413.982.722 1.255.2.182.437.273.71.273.8 0 1.91-.79 3.328-2.373.945-1.073 2.09-2.573 3.437-4.5 1.218-1.765 1.864-2.674 1.937-2.73.054-.054.172-.08.355-.08.217 0 .41.04.572.123a.413.413 0 0 1 .246.396c0 .163-.037.327-.11.492-.127.237-.218.41-.272.52l-2.264 4.596c-.218.456-.427.97-.627 1.545s-.3 1.008-.3 1.3c0 .2.054.346.163.438.29.164 1.4-.55 3.328-2.14.946-.787 1.9-1.582 2.865-2.388.31-.127.464-.045.464.247" fill="#C51B0E"/><path d="M133.347 449.2c.127-.507.246-.992.355-1.454.11-.462.164-.8.164-1.018 0-.527-.174-.825-.52-.898-.38-.11-.79.37-1.227 1.44-.128.308-.3.833-.52 1.576-.145.47-.258.946-.34 1.426a8.11 8.11 0 0 0-.122 1.345c0 .562.108.897.327 1.005.327.146.682-.198 1.064-1.032.29-.634.562-1.43.817-2.39m3.71 3.286c.018.218-.004.432-.068.64-.065.21-.16.324-.288.342l-1.063.818c-.383.31-.702.537-.956.683-.42.235-.846.38-1.282.435-.437 0-.755-.015-.955-.045-.2-.03-.473-.106-.818-.228l-.6.328a8.586 8.586 0 0 1-2.184 1.95c-.873.555-1.755.832-2.646.832a4.85 4.85 0 0 1-.75-.04 4.14 4.14 0 0 1-.668-.204c-.437-.163-.747-.412-.928-.747-.182-.334-.273-.764-.273-1.29 0-.542.11-1.194.33-1.954l.435-1.357c.055-.182.01-.273-.136-.273-.165 0-.438.123-.82.368-.382.246-.69.487-.927.723-.237.055-.355-.127-.355-.545 0-.328.118-.592.355-.792a940.32 940.32 0 0 1 1.964-1.882c.654-.636 1.09-1.146 1.31-1.528.072-.127.153-.29.245-.49.09-.2.245-.6.464-1.2.8-2.166 1.6-4.34 2.4-6.523.8-2.183 1.564-4.24 2.292-6.167.654-1.765 1.054-2.802 1.2-3.11.09-.22.273-.46.546-.724.272-.264.49-.396.654-.396.218 0 .328.19.328.573 0 .272-.1.763-.302 1.472-.328 1.108-.903 2.698-1.724 4.77-.893 2.18-1.778 4.352-2.654 6.515l-3.475 9.54a58.812 58.812 0 0 0-.573 1.58 3.524 3.524 0 0 0-.137.955c0 .473.137.91.41 1.31.13.18.357.27.687.27.584 0 1.33-.27 2.234-.815.905-.545 1.56-1.1 1.96-1.66a.777.777 0 0 0 .138-.41 13.27 13.27 0 0 1-.368-1.32c-.1-.444-.15-.93-.15-1.456 0-.362.01-.634.027-.816.018-.182.073-.526.164-1.035.22-1.234.687-2.426 1.406-3.58.718-1.152 1.432-1.728 2.14-1.728.092 0 .21.018.356.054.364.11.622.34.777.695.153.355.23.805.23 1.35 0 .42-.017.756-.053 1.01-.037.255-.128.71-.273 1.364a15.434 15.434 0 0 1-1.173 3.163c-.31.546-.61 1.082-.9 1.61-.072.182-.11.3-.11.354 0 .29.21.437.63.437.635 0 1.308-.3 2.018-.9l1.554-1.282c.237.054.355.172.355.354" fill="#C51B0E"/><path d="M144.504 440.805a2.24 2.24 0 0 1-.505.736c-.21.2-.433.3-.67.3a.884.884 0 0 1-.368-.08c-.118-.055-.218-.164-.3-.328a1.266 1.266 0 0 1-.122-.573c0-.273.045-.537.136-.792.09-.254.25-.504.477-.75.228-.245.478-.368.75-.368.092 0 .21.032.355.095a.642.642 0 0 1 .328.327c.072.155.11.342.11.56 0 .11-.015.232-.042.368a3.676 3.676 0 0 1-.15.505m.573 11.735c0 .47-.092.778-.273.923l-1.077.924c-.32.272-.597.498-.832.678-2.074 1.576-3.656 2.572-4.747 2.988-.364.127-.673.19-.928.19s-.44-.077-.56-.23c-.117-.154-.176-.358-.176-.612 0-.252.04-.52.123-.8.082-.28.177-.54.286-.774l1.146-2.58c.144-.307.217-.55.217-.733 0-.126-.055-.19-.164-.19-.072 0-.182.046-.327.137-.146.09-.237.146-.273.163-.31.22-.55.406-.723.56-.172.154-.286.25-.34.286-.2.036-.3-.1-.3-.41 0-.236.026-.427.08-.573a.977.977 0 0 1 .22-.354c.29-.237.654-.574 1.09-1.01l.792-.79c.818-.82 1.427-1.542 1.827-2.17.4-.627.863-1.595 1.39-2.905.164-.418.455-.627.873-.627.51 0 .764.128.764.383 0 .072-.054.218-.163.436a238.126 238.126 0 0 0-2.783 6.19c-1.11 2.548-1.672 3.89-1.69 4.025-.02.137-.027.232-.027.286v.138c0 .255.1.382.3.382.127 0 .308-.063.545-.19.09-.056.29-.183.6-.383a49.867 49.867 0 0 0 2.728-2.02 64.372 64.372 0 0 0 2.128-1.744c.218 0 .31.135.273.407M178.82 430.8c.528.31.792.974.792 1.993 0 .89-.18 1.956-.542 3.194-.452 1.546-1.166 3.366-2.143 5.46l-3.892 8.04 4.613-.028c.09-.02.164.008.218.08.055.073.073.137.055.19-.072.33-.18.6-.327.82-.145.218-.29.336-.436.354h-4.828l-3.44 5.92-1.608 2.482c-.037.11-.187.205-.45.287-.264.082-.632.123-1.105.123-.29 0-.382-.137-.273-.41a37.89 37.89 0 0 0 2.783-3.9c.873-1.4 1.69-2.9 2.455-4.502h-2.755c-.055.02-.11 0-.164-.053a.3.3 0 0 1-.082-.32c.074-.303.16-.525.26-.668.1-.142.196-.23.287-.267h3.3l4.556-9.712c.49-1.072.918-2.118 1.282-3.137.546-1.545.82-2.728.82-3.546 0-.4-.074-.745-.22-1.037-.255-.436-.755-.654-1.5-.654-1.364 0-3.256.7-5.674 2.1-2.327 1.345-4.3 2.827-5.918 4.446-1.42 1.4-2.747 3.01-3.983 4.828-1.365 2-2.047 3.474-2.047 4.42 0 .436.14.718.423.845.28.127.577.19.886.19 1.055 0 2.346-.71 3.874-2.128 1.236-1.145 2.455-2.573 3.655-4.283.383-.546.76-1.082 1.133-1.61.373-.527.65-.986.832-1.377.182-.392.328-.587.437-.587.072 0 .19.1.354.3.164.2.246.39.246.573 0 .162-.09.426-.273.79-1.22 2.274-2.884 4.437-4.993 6.492-2.292 2.22-4.183 3.33-5.674 3.33-.673 0-1.205-.233-1.596-.697-.39-.464-.586-1.04-.586-1.732 0-1.437.746-3.256 2.237-5.456 1.29-1.91 2.865-3.738 4.72-5.484 1.855-1.745 3.828-3.19 5.92-4.337 2.31-1.273 4.31-1.91 6-1.91.51 0 .937.042 1.283.123.345.08.71.232 1.09.45M189.624 446.158c-.147-.273-.456-.41-.928-.41-.528 0-1.15.17-1.87.505-.718.337-1.313.714-1.785 1.133-.945.872-1.626 1.554-2.044 2.045-.857 1.002-1.284 1.83-1.284 2.484h1.583c.62 0 1.31-.137 2.074-.41.888-.327 1.648-.772 2.275-1.336.63-.564 1.114-1.092 1.46-1.582.456-.636.683-1.22.683-1.746a1.51 1.51 0 0 0-.165-.682m2.784 6.274c0 .29-.014.514-.042.668-.028.155-.123.278-.286.37-.13.235-.656.726-1.584 1.472a21.484 21.484 0 0 1-3.41 2.29c-1.51.82-2.773 1.23-3.792 1.23-.327 0-.654-.047-.982-.137-.873-.292-1.518-.72-1.937-1.283-.49-.673-.736-1.646-.736-2.92v-.544c0-.182.032-.587.095-1.214s.395-1.433.995-2.414c.728-1.182 1.9-2.42 3.52-3.71.6-.473 1.387-.882 2.36-1.228.97-.345 1.83-.518 2.577-.518.873 0 1.427.227 1.664.682.238.455.357.927.357 1.418 0 .856-.302 1.742-.9 2.66a9.484 9.484 0 0 1-2.183 2.36 6.426 6.426 0 0 1-2.81 1.254c-.673.128-1.72.19-3.137.19h-.956l-.08 1.202c0 .91.236 1.6.71 2.073.47.473 1.054.71 1.745.71 1.163 0 2.745-.628 4.746-1.883 1.803-1.127 3.047-2.137 3.74-3.028.218-.09.326.01.326.3" fill="#C51B0E"/><path d="M205.09 452.487c.037.164.037.346 0 .545-.036.2-.108.346-.217.437-1.328 1.127-2.428 1.963-3.3 2.51-1.165.726-2.33 1.236-3.493 1.527-.327.072-.71.18-1.146.327-.18.054-.54.186-1.077.395-.537.208-1.196.313-1.978.313-.6 0-1.102-.09-1.5-.273-.4-.182-.602-.454-.602-.818 0-.127.023-.282.07-.464.044-.182.24-.273.585-.273.146 0 .528.064 1.146.19.344.074.59.11.736.11 1.036 0 1.71-.082 2.018-.245.146-.073.437-.39.873-.955.564-.727.99-1.882 1.282-3.464.235-1.31.354-2.782.354-4.42v-.408c-.037-.218-.128-.327-.273-.327-.18 0-.472.236-.872.71-.71.89-1.49 1.763-2.346 2.618a42.087 42.087 0 0 1-3.3 2.946c-.128.054-.22.026-.274-.083-.036-.054-.054-.154-.054-.3-.036-.345.073-.663.327-.954.91-.765 2.065-1.892 3.466-3.383 1.127-1.22 2.255-2.5 3.383-3.846.272-.31.417-.55.435-.724.018-.172.064-.464.136-.873.074-.41.256-.877.547-1.404.4-.69.81-1.037 1.227-1.037.128 0 .255.037.383.11.29.163.436.436.436.818 0 .4-.164.89-.49 1.473a7.334 7.334 0 0 1-.71 1.036c-.128.146-.242.287-.34.423-.1.136-.15.378-.15.723 0 2.58-.106 4.6-.315 6.055-.21 1.455-.523 2.746-.94 3.874-.074.162-.11.298-.11.408 0 .127.063.19.19.19a.62.62 0 0 0 .22-.054c.09-.036.19-.072.3-.11.89-.38 1.98-1.1 3.272-2.154 1.037-.855 1.664-1.364 1.883-1.527.11-.02.18.1.218.354" fill="#C51B0E"/><path d="M215.838 433.85a89.476 89.476 0 0 0-.818 2.128 99.25 99.25 0 0 0-1.446 4.068c-.055.2-.082.356-.082.465 0 .256.21.383.627.383h.408c.655 0 1.028.018 1.12.055.108.054.144.218.108.49-.055.273-.15.455-.286.546-.137.092-.36.136-.67.136h-1.58a.662.662 0 0 0-.56.272 2.75 2.75 0 0 0-.368.734 162.82 162.82 0 0 1-2.292 6.238c-.764 1.947-1.518 3.88-2.264 5.8a2.56 2.56 0 0 0-.19.926c0 .4.163.598.49.598.218 0 .564-.137 1.037-.41.963-.6 1.99-1.318 3.082-2.155.855-.654 1.71-1.318 2.564-1.99.18-.055.272.063.272.354.018.09.028.21.028.354 0 .31-.1.52-.3.63-1.256 1.2-2.73 2.33-4.42 3.395-1.69 1.064-2.946 1.596-3.764 1.596-.29 0-.5-.063-.628-.19-.182-.182-.273-.455-.273-.818 0-.6.237-1.474.71-2.62.11-.254.41-.908.9-1.963.18-.383.273-.71.273-.983 0-.29-.11-.437-.327-.437-.236 0-.527.2-.873.6-.272.31-.763.782-1.473 1.42-.11.053-.2.053-.273 0-.07-.056-.107-.174-.107-.356s.036-.36.108-.532a1.76 1.76 0 0 1 .274-.45c.782-.764 1.42-1.4 1.91-1.91a49.07 49.07 0 0 0 1.773-1.964c.31-.345.568-.704.777-1.077a8.32 8.32 0 0 0 .56-1.24c.345-.928.7-1.864 1.064-2.81.09-.236.136-.41.136-.518 0-.182-.114-.31-.34-.382-.23-.073-.652-.11-1.27-.11h-.79c-.492 0-.737-.132-.737-.4 0-.052.032-.163.096-.332.063-.17.14-.28.23-.333.092-.053.31-.08.656-.08H211.145c.236 0 .404-.04.505-.123.1-.08.205-.276.314-.585.455-1.288.918-2.558 1.392-3.81.472-1.25.927-2.295 1.363-3.13.09-.162.19-.334.3-.516.163-.18.354-.244.572-.19.2.055.3.292.3.71 0 .237-.018.41-.054.52M249.364 452.54c0 .165-.023.333-.068.505a1.092 1.092 0 0 1-.204.423c-.965.764-1.93 1.528-2.892 2.292-1.237.927-2.455 1.655-3.656 2.182-.454.2-.836.3-1.145.3-.53 0-.792-.28-.792-.843 0-.328.11-.763.327-1.308.472-1.215 1.39-3.238 2.755-6.068.8-1.67 1.118-2.612.955-2.83l-3.22 2.558c-1.272 1.36-2.172 2.323-2.7 2.885-.837.89-1.982 2.25-3.437 4.08-.855 1.09-1.464 1.635-1.828 1.635-.127 0-.218-.02-.272-.055-.255-.128-.383-.355-.383-.682 0-.31.12-.737.355-1.282.182-.382.31-.655.382-.82l3.055-6.628c.22-.472.328-.882.328-1.227 0-.31-.09-.464-.272-.464-.164 0-.382.146-.654.436a148.845 148.845 0 0 0-2.994 3.192c-.653.728-1.516 1.692-2.586 2.892-.69.782-1.38 1.564-2.068 2.346-.454.51-.9 1.02-1.334 1.527-.563.582-1.007.873-1.334.873a.52.52 0 0 1-.272-.082c-.163-.145-.245-.354-.245-.627 0-.417.17-1.008.512-1.772l1.345-2.673c.125-.327.19-.573.19-.737 0-.164-.065-.245-.193-.245-.09 0-.19.027-.3.08-.072.038-.19.12-.354.247a6.404 6.404 0 0 0-.49.423c-.165.155-.31.286-.438.395-.072.037-.136.01-.19-.08a.67.67 0 0 1-.083-.247c0-.29.014-.5.04-.626a.797.797 0 0 1 .233-.382c.437-.364.864-.755 1.282-1.174a49.112 49.112 0 0 1 1.283-1.254c.963-.91 1.755-2.346 2.373-4.31.054-.22.15-.405.286-.56.137-.154.34-.23.614-.23h.218c.055.017.155.044.3.08.146.037.218.182.218.437 0 .13-.01.22-.027.274-.054.127-.09.21-.11.245-.49 1.054-.972 2.1-1.445 3.136a109.674 109.674 0 0 0-1.773 4.01c-.092.237-.137.41-.137.52 0 .2.072.3.218.3.092 0 .21-.074.355-.22.673-.818 1.396-1.677 2.17-2.577.772-.902 1.76-1.934 2.96-3.098 2.29-2.236 3.773-3.355 4.446-3.355.182 0 .364.05.546.15.182.1.273.296.273.587 0 .164-.02.31-.055.437-.018.092-.117.33-.297.71l-2.096 4.614c-.184.417-.36.85-.524 1.293-.165.445-.248.75-.248.913 0 .09.028.154.082.19.218.09 1.173-.855 2.864-2.837 1.037-1.218 1.864-2.11 2.482-2.673l2.4-2.183c1-.854 1.756-1.282 2.266-1.282.254 0 .454.1.6.3.09.11.136.273.136.49 0 .165-.018.31-.054.438-.02.073-.074.21-.164.41l-4.12 9.22c-.145.31-.227.5-.245.572a1.366 1.366 0 0 0-.054.382c0 .164.063.3.19.41.164.127.473.054.928-.22.092-.053.41-.28.956-.68l4.556-3.465c.163-.018.254.118.272.41" fill="#C51B0E"/><path d="M258.91 446.158c-.145-.273-.454-.41-.926-.41-.528 0-1.15.17-1.87.505-.718.337-1.313.714-1.786 1.133-.945.872-1.627 1.554-2.045 2.045-.856 1.002-1.283 1.83-1.283 2.484h1.582c.62 0 1.31-.137 2.074-.41.89-.327 1.65-.772 2.277-1.336.628-.564 1.114-1.092 1.46-1.582.455-.636.682-1.22.682-1.746a1.51 1.51 0 0 0-.164-.682m2.784 6.274c0 .29-.014.514-.04.668-.03.155-.124.278-.287.37-.128.235-.655.726-1.583 1.472a21.484 21.484 0 0 1-3.41 2.29c-1.51.82-2.773 1.23-3.792 1.23-.327 0-.654-.047-.982-.137-.873-.292-1.518-.72-1.937-1.283-.49-.673-.736-1.646-.736-2.92v-.544c0-.182.032-.587.095-1.214.064-.627.396-1.433.996-2.414.727-1.182 1.9-2.42 3.52-3.71.6-.473 1.386-.882 2.36-1.228.97-.345 1.83-.518 2.577-.518.873 0 1.427.227 1.664.682.235.455.354.927.354 1.418 0 .856-.3 1.742-.9 2.66a9.484 9.484 0 0 1-2.183 2.36 6.426 6.426 0 0 1-2.81 1.254c-.672.128-1.717.19-3.136.19h-.955l-.082 1.202c0 .91.235 1.6.71 2.073.47.473 1.053.71 1.745.71 1.163 0 2.745-.628 4.746-1.883 1.8-1.127 3.045-2.137 3.737-3.028.218-.09.327.01.327.3" fill="#C51B0E"/><path d="M271.16 446.158c-.147-.273-.456-.41-.928-.41-.528 0-1.15.17-1.87.505-.718.337-1.313.714-1.786 1.133-.945.872-1.627 1.554-2.045 2.045-.855 1.002-1.282 1.83-1.282 2.484h1.582c.62 0 1.31-.137 2.074-.41.89-.327 1.65-.772 2.277-1.336.63-.564 1.115-1.092 1.46-1.582.456-.636.683-1.22.683-1.746a1.51 1.51 0 0 0-.164-.682m2.782 6.274c0 .29-.014.514-.04.668-.03.155-.124.278-.287.37-.128.235-.655.726-1.583 1.472a21.484 21.484 0 0 1-3.41 2.29c-1.51.82-2.773 1.23-3.792 1.23-.327 0-.654-.047-.982-.137-.873-.292-1.518-.72-1.937-1.283-.49-.673-.735-1.646-.735-2.92v-.544c0-.182.032-.587.095-1.214.064-.627.396-1.433.996-2.414.727-1.182 1.9-2.42 3.52-3.71.6-.473 1.386-.882 2.36-1.228.97-.345 1.83-.518 2.577-.518.873 0 1.427.227 1.664.682.236.455.355.927.355 1.418 0 .856-.3 1.742-.9 2.66a9.484 9.484 0 0 1-2.183 2.36 6.426 6.426 0 0 1-2.81 1.254c-.674.128-1.72.19-3.138.19h-.955l-.08 1.202c0 .91.234 1.6.708 2.073.472.473 1.054.71 1.746.71 1.164 0 2.746-.628 4.747-1.883 1.8-1.127 3.046-2.137 3.738-3.028.218-.09.327.01.327.3" fill="#C51B0E"/><path d="M284.58 433.85a89.476 89.476 0 0 0-.818 2.128 99.25 99.25 0 0 0-1.446 4.068c-.055.2-.082.356-.082.465 0 .256.21.383.627.383h.41c.655 0 1.028.018 1.12.055.108.054.144.218.108.49-.055.273-.15.455-.286.546-.137.092-.36.136-.67.136h-1.58a.662.662 0 0 0-.56.272 2.75 2.75 0 0 0-.368.734 162.82 162.82 0 0 1-2.292 6.238c-.764 1.947-1.518 3.88-2.264 5.8a2.56 2.56 0 0 0-.19.926c0 .4.163.598.49.598.218 0 .564-.137 1.037-.41.963-.6 1.99-1.318 3.082-2.155.855-.654 1.71-1.318 2.564-1.99.183-.055.274.063.274.354.018.09.028.21.028.354 0 .31-.1.52-.3.63-1.256 1.2-2.73 2.33-4.42 3.395-1.69 1.064-2.946 1.596-3.764 1.596-.29 0-.5-.063-.628-.19-.182-.182-.273-.455-.273-.818 0-.6.237-1.474.71-2.62.11-.254.41-.908.9-1.963.18-.383.273-.71.273-.983 0-.29-.11-.437-.327-.437-.237 0-.528.2-.874.6-.273.31-.764.782-1.474 1.42-.11.053-.2.053-.273 0-.072-.056-.108-.174-.108-.356s.036-.36.108-.532a1.76 1.76 0 0 1 .273-.45c.782-.764 1.42-1.4 1.91-1.91a49.07 49.07 0 0 0 1.773-1.964c.308-.345.567-.704.776-1.077a8.32 8.32 0 0 0 .56-1.24c.345-.928.7-1.864 1.064-2.81.09-.236.136-.41.136-.518 0-.182-.114-.31-.34-.382-.23-.073-.652-.11-1.27-.11h-.79c-.492 0-.737-.132-.737-.4 0-.052.03-.163.095-.332.063-.17.14-.28.23-.333.092-.053.31-.08.656-.08h2.239c.236 0 .404-.04.505-.123.1-.08.204-.276.313-.585.455-1.288.918-2.558 1.392-3.81.472-1.25.927-2.295 1.363-3.13.092-.162.192-.334.302-.516.163-.18.354-.244.572-.19.2.055.3.292.3.71 0 .237-.018.41-.054.52" fill="#C51B0E"/><path d="M296.5 452.487c.036.164.036.346 0 .545-.036.2-.108.346-.218.437-1.327 1.127-2.427 1.963-3.3 2.51-1.165.726-2.328 1.236-3.493 1.527-.327.072-.71.18-1.146.327-.18.054-.54.186-1.077.395-.537.208-1.196.313-1.978.313-.6 0-1.102-.09-1.5-.273-.4-.182-.602-.454-.602-.818 0-.127.023-.282.07-.464.044-.182.24-.273.585-.273.146 0 .528.064 1.146.19.344.074.59.11.736.11 1.036 0 1.71-.082 2.018-.245.145-.073.436-.39.873-.955.564-.727.99-1.882 1.282-3.464.235-1.31.354-2.782.354-4.42v-.408c-.037-.218-.13-.327-.273-.327-.182 0-.473.236-.873.71-.71.89-1.49 1.763-2.346 2.618a42.087 42.087 0 0 1-3.3 2.946c-.127.054-.218.026-.273-.083-.036-.054-.054-.154-.054-.3-.036-.345.073-.663.327-.954.91-.765 2.064-1.892 3.465-3.383 1.127-1.22 2.255-2.5 3.383-3.846.273-.31.418-.55.436-.724.018-.172.064-.464.136-.873.073-.41.255-.877.546-1.404.4-.69.81-1.037 1.227-1.037.128 0 .255.037.383.11.29.163.436.436.436.818 0 .4-.163.89-.49 1.473a7.334 7.334 0 0 1-.71 1.036c-.128.146-.242.287-.34.423-.1.136-.15.378-.15.723 0 2.58-.106 4.6-.315 6.055-.21 1.455-.523 2.746-.94 3.874-.074.162-.11.298-.11.408 0 .127.063.19.19.19a.62.62 0 0 0 .22-.054c.09-.036.19-.072.3-.11.89-.38 1.98-1.1 3.272-2.154 1.036-.855 1.663-1.364 1.882-1.527.11-.02.18.1.218.354M342.274 433.418c0 1.62-.74 4.088-2.223 7.406-1.482 3.32-3.187 6.352-5.114 9.098-1 1.4-1.89 2.564-2.673 3.492-1.22 1.42-2.364 2.5-3.438 3.246-1.364.946-2.664 1.42-3.9 1.42-.82 0-1.62-.21-2.4-.627a1.874 1.874 0 0 1-.806-.83c-.174-.354-.26-.776-.26-1.266 0-.435.076-.907.227-1.415.15-.508.338-.99.565-1.442l3.965-8.465c.142-.256.24-.438.294-.548.125-.237.188-.41.188-.52 0-.128-.055-.21-.164-.247-.165-.072-.347 0-.548.218-.2.217-.347.38-.438.488l-13.024 13.926c-.22.25-.44.446-.658.588-.22.142-.44.214-.658.214-.238 0-.462-.1-.672-.3a.946.946 0 0 1-.315-.707c0-.217.046-.453.137-.708.018-.073.127-.3.328-.68l8.702-19.67c.218-.453.413-.922.586-1.403.173-.482.26-.905.26-1.27 0-.472-.164-.808-.492-1.008a1.008 1.008 0 0 0-.544-.138c-.6 0-1.364.474-2.292 1.42-.782.8-1.482 1.708-2.1 2.727-.255.4-.6 1.208-1.037 2.427-.51 1.4-.855 2.546-1.036 3.437-.09.455-.18.76-.272.914-.09.155-.328.36-.71.614a2.31 2.31 0 0 1-.395.204c-.155.064-.26.095-.314.095-.164 0-.246-.108-.246-.326 0-.072.014-.172.04-.3.028-.127.05-.227.07-.3.272-1.09.608-2.214 1.008-3.37.4-1.153.773-2.104 1.12-2.85.853-1.818 1.863-3.3 3.027-4.446 1.162-1.146 2.28-1.72 3.354-1.72.49 0 .927.115 1.31.342.382.228.65.51.804.845.155.336.232.74.232 1.213 0 .528-.083 1.054-.248 1.58a16.284 16.284 0 0 1-.688 1.773l-7.648 16.883c-.05.11-.1.288-.152.535-.05.247-.075.452-.075.617 0 .2.035.302.108.302a.524.524 0 0 0 .383-.11c.037-.017.137-.126.3-.326l15.304-16.695c.218-.327.372-.554.463-.68.182-.256.382-.384.6-.384.182 0 .35.06.505.18.155.117.26.277.314.476.055.2.01.396-.136.587-.146.19-.283.378-.41.56l-7.09 15.14c-.138.254-.24.51-.31.764-.067.254-.102.51-.102.763 0 .345.078.645.233.9.156.255.392.427.71.518.32.09.516.146.588.164h.383c.984 0 2.086-.437 3.306-1.31.965-.69 2.012-1.68 3.142-2.973.856-.983 1.648-2 2.376-3.056a53.725 53.725 0 0 0 3.852-6.493 43.137 43.137 0 0 0 2.268-5.482c.527-1.564.855-2.864.983-3.9.055-.473.123-.778.204-.915.083-.136.225-.222.425-.26.2-.035.328-.053.383-.053h.136c.182 0 .296.073.342.218.045.146.068.446.068.9M346.666 440.805a2.24 2.24 0 0 1-.505.736c-.208.2-.43.3-.667.3a.884.884 0 0 1-.37-.08c-.117-.055-.217-.164-.298-.328a1.266 1.266 0 0 1-.123-.573c0-.273.045-.537.136-.792.09-.254.25-.504.477-.75.228-.245.478-.368.75-.368.092 0 .21.032.355.095a.642.642 0 0 1 .328.327c.072.155.11.342.11.56 0 .11-.015.232-.042.368a3.676 3.676 0 0 1-.15.505m.573 11.735c0 .47-.093.778-.274.923l-1.077.924c-.32.272-.598.498-.833.678-2.074 1.576-3.656 2.572-4.747 2.988-.364.127-.673.19-.928.19s-.44-.077-.56-.23c-.117-.154-.176-.358-.176-.612 0-.252.04-.52.123-.8.08-.28.176-.54.285-.774l1.146-2.58c.146-.307.22-.55.22-.733 0-.126-.056-.19-.165-.19-.072 0-.182.046-.327.137-.146.09-.237.146-.273.163-.31.22-.55.406-.723.56-.172.154-.286.25-.34.286-.2.036-.3-.1-.3-.41 0-.236.026-.427.08-.573a.977.977 0 0 1 .22-.354c.29-.237.654-.574 1.09-1.01l.792-.79c.818-.82 1.427-1.542 1.827-2.17.4-.627.865-1.595 1.392-2.905.164-.418.455-.627.873-.627.51 0 .764.128.764.383 0 .072-.055.218-.164.436a238.126 238.126 0 0 0-2.783 6.19c-1.11 2.548-1.673 3.89-1.69 4.025-.02.137-.028.232-.028.286v.138c0 .255.1.382.3.382.127 0 .308-.063.545-.19.09-.056.29-.183.6-.383a49.867 49.867 0 0 0 2.728-2.02 64.372 64.372 0 0 0 2.128-1.744c.218 0 .31.135.273.407" fill="#C51B0E"/><path d="M358.26 431.774c-.2.927-.528 2.063-.983 3.407-.6 1.8-1.328 3.736-2.182 5.807-.528 1.29-1.2 3.135-2.02 5.534a1472.35 1472.35 0 0 0-2.918 8.723c-.09.31-.136.546-.136.71 0 .435.182.653.546.653.236 0 .555-.118.955-.354.71-.437 1.665-1.078 2.865-1.924a68.118 68.118 0 0 0 2.974-2.196c.18.037.262.137.244.3 0 .31-.013.537-.04.682a.592.592 0 0 1-.205.355c-1.692 1.308-3.157 2.363-4.393 3.163-1.055.692-1.86 1.146-2.414 1.364-.555.218-.996.328-1.323.328-.728 0-1.092-.4-1.092-1.2 0-.164.014-.342.04-.533.03-.19.224-.76.588-1.705.31-.8.546-1.49.71-2.073.108-.363.163-.654.163-.873 0-.253-.065-.38-.192-.38s-.3.118-.52.354c-.217.236-.508.5-.87.79-.474.383-.775.638-.902.765-.18.017-.272-.073-.272-.274 0-.526.09-.88.272-1.063.418-.345.882-.754 1.392-1.226.218-.2.672-.636 1.364-1.308.436-.42.818-.992 1.145-1.718.182-.4.455-1.118.82-2.153a253.196 253.196 0 0 0 1.745-5.194 481.406 481.406 0 0 1 1.637-4.947c.617-1.78 1.18-3.253 1.69-4.416.127-.29.263-.518.41-.68.217-.238.444-.328.68-.274.237.073.356.282.356.627 0 .22-.02.41-.055.573l-.08.354" fill="#C51B0E"/><path d="M373.727 432.818c-.292-.11-.792.61-1.5 2.155-.292.637-.883 2.074-1.774 4.31a62.665 62.665 0 0 0-1.936 5.674c-.637 2.183-.956 3.665-.956 4.447 0 .346.065.518.193.518.072.02.4-.527.982-1.637a55.41 55.41 0 0 0 1.855-3.846c.71-1.62 1.25-3.052 1.623-4.297.372-1.246.75-2.542 1.132-3.887.382-1.346.573-2.3.573-2.865 0-.326-.064-.517-.19-.572m-6.657 12.74a4.54 4.54 0 0 0-.598-.055c-1.178 0-2.43.52-3.752 1.56-1.052.838-2.14 2.004-3.263 3.5-.272.363-.503.87-.694 1.516a6.82 6.82 0 0 0-.286 1.927c0 .693.11 1.286.327 1.778.217.492.59.847 1.114 1.066.11.038.217.056.327.056.742 0 1.675-.43 2.798-1.285 1.305-1.002 2.238-2.15 2.8-3.445 0-.53.04-1.03.123-1.504.082-.473.15-.874.204-1.202.2-1.257.5-2.56.9-3.91m7.72-15.522c.364.127.546.627.546 1.5 0 1.09-.29 2.746-.873 4.965a67.24 67.24 0 0 1-1.773 5.702 45.13 45.13 0 0 1-1.69 4.147 43.877 43.877 0 0 1-1.91 3.6 91.412 91.412 0 0 1-2.074 3.355l-.11.627a4.71 4.71 0 0 0-.136 1.146c0 .49.078.896.232 1.214.155.318.414.44.778.368.418-.072 1.21-.51 2.373-1.31a34.37 34.37 0 0 0 3.983-3.218c.2.037.29.164.273.382v.518c-.038.218-.13.364-.274.436-.964 1.128-2.2 2.206-3.71 3.233-1.51 1.03-2.673 1.542-3.49 1.542-.202 0-.338-.018-.41-.054a1.556 1.556 0 0 1-.956-.928c-.09-.218-.182-.682-.273-1.39l-.08-.71-1.502 1.554c-.363.383-.845.747-1.446 1.092-.747.436-1.41.655-1.992.655-.382 0-.755-.11-1.118-.327-.71-.474-1.237-1.057-1.582-1.75-.346-.69-.52-1.466-.52-2.323 0-1.275.374-2.592 1.12-3.95.745-1.356 1.71-2.473 2.89-3.348 1-.746 1.6-1.184 1.802-1.312 1.2-.765 2.473-1.147 3.82-1.147h.817l.546-1.926a32.845 32.845 0 0 1 1.282-3.77 69.425 69.425 0 0 1 1.773-3.933c.745-1.52 1.4-2.668 1.964-3.445.71-.96 1.282-1.358 1.718-1.194M420.128 433.418c0 1.62-.74 4.088-2.223 7.406-1.483 3.32-3.188 6.352-5.115 9.098-1 1.4-1.89 2.564-2.673 3.492-1.22 1.42-2.364 2.5-3.438 3.246-1.365.946-2.665 1.42-3.902 1.42-.818 0-1.618-.21-2.4-.627a1.874 1.874 0 0 1-.805-.83c-.173-.354-.26-.776-.26-1.266 0-.435.077-.907.228-1.415.15-.508.34-.99.566-1.442l3.965-8.465c.143-.256.24-.438.295-.548.124-.237.187-.41.187-.52 0-.128-.055-.21-.164-.247-.165-.072-.347 0-.548.218-.2.217-.347.38-.438.488l-13.024 13.926c-.22.25-.44.446-.658.588-.22.142-.44.214-.658.214-.238 0-.462-.1-.672-.3a.946.946 0 0 1-.315-.707c0-.217.045-.453.136-.708.02-.073.128-.3.33-.68l8.7-19.67c.22-.453.414-.922.587-1.403.173-.482.26-.905.26-1.27 0-.472-.164-.808-.492-1.008a1.008 1.008 0 0 0-.545-.138c-.6 0-1.364.474-2.292 1.42-.782.8-1.482 1.708-2.1 2.727-.255.4-.6 1.208-1.037 2.427-.508 1.4-.854 2.546-1.035 3.437-.092.455-.182.76-.273.914-.09.155-.328.36-.71.614a2.31 2.31 0 0 1-.395.204c-.155.064-.26.095-.314.095-.163 0-.245-.108-.245-.326 0-.072.014-.172.04-.3.028-.127.05-.227.07-.3.272-1.09.608-2.214 1.008-3.37.4-1.153.773-2.104 1.12-2.85.853-1.818 1.863-3.3 3.027-4.446 1.163-1.146 2.282-1.72 3.355-1.72.49 0 .927.115 1.31.342.382.228.65.51.804.845.155.336.232.74.232 1.213 0 .528-.083 1.054-.248 1.58a16.284 16.284 0 0 1-.688 1.773l-7.648 16.883c-.05.11-.1.288-.152.535-.05.247-.075.452-.075.617 0 .2.036.302.11.302a.524.524 0 0 0 .382-.11c.036-.017.136-.126.3-.326l15.303-16.695c.218-.327.372-.554.463-.68.183-.256.383-.384.6-.384.183 0 .352.06.506.18.155.117.26.277.314.476.055.2.01.396-.136.587-.146.19-.283.378-.41.56l-7.09 15.14c-.138.254-.24.51-.31.764-.067.254-.102.51-.102.763 0 .345.078.645.233.9.155.255.39.427.71.518.32.09.515.146.587.164h.383c.983 0 2.085-.437 3.305-1.31.965-.69 2.012-1.68 3.142-2.973.856-.983 1.648-2 2.376-3.056a53.725 53.725 0 0 0 3.852-6.493 43.137 43.137 0 0 0 2.268-5.482c.527-1.564.855-2.864.983-3.9.056-.473.124-.778.205-.915.082-.136.224-.222.424-.26.2-.035.327-.053.382-.053h.136c.182 0 .296.073.342.218.045.146.068.446.068.9M426.483 446.158c-.146-.273-.455-.41-.927-.41-.528 0-1.15.17-1.87.505-.718.337-1.313.714-1.786 1.133-.945.872-1.627 1.554-2.045 2.045-.856 1.002-1.283 1.83-1.283 2.484h1.582c.62 0 1.31-.137 2.074-.41.89-.327 1.65-.772 2.277-1.336.628-.564 1.114-1.092 1.46-1.582.455-.636.682-1.22.682-1.746a1.51 1.51 0 0 0-.164-.682m2.783 6.274c0 .29-.014.514-.04.668-.03.155-.124.278-.287.37-.13.235-.656.726-1.584 1.472a21.484 21.484 0 0 1-3.41 2.29c-1.51.82-2.773 1.23-3.792 1.23-.327 0-.654-.047-.982-.137-.873-.292-1.518-.72-1.937-1.283-.49-.673-.736-1.646-.736-2.92v-.544c0-.182.03-.587.094-1.214s.396-1.433.996-2.414c.727-1.182 1.9-2.42 3.52-3.71.6-.473 1.386-.882 2.36-1.228.97-.345 1.83-.518 2.577-.518.873 0 1.427.227 1.664.682.237.455.356.927.356 1.418 0 .856-.3 1.742-.9 2.66a9.484 9.484 0 0 1-2.183 2.36 6.426 6.426 0 0 1-2.81 1.254c-.673.128-1.718.19-3.137.19h-.955l-.08 1.202c0 .91.235 1.6.71 2.073.47.473 1.053.71 1.745.71 1.163 0 2.745-.628 4.746-1.883 1.802-1.127 3.047-2.137 3.74-3.028.217-.09.326.01.326.3" fill="#C51B0E"/><path d="M441.95 452.487c.037.164.037.346 0 .545-.036.2-.108.346-.217.437-1.328 1.127-2.428 1.963-3.3 2.51-1.165.726-2.33 1.236-3.493 1.527-.327.072-.71.18-1.146.327-.18.054-.54.186-1.077.395-.537.208-1.196.313-1.978.313-.6 0-1.102-.09-1.5-.273-.4-.182-.602-.454-.602-.818 0-.127.023-.282.07-.464.044-.182.24-.273.585-.273.146 0 .528.064 1.146.19.344.074.59.11.736.11 1.036 0 1.71-.082 2.018-.245.146-.073.437-.39.873-.955.564-.727.99-1.882 1.282-3.464.235-1.31.354-2.782.354-4.42v-.408c-.037-.218-.128-.327-.273-.327-.18 0-.472.236-.872.71-.71.89-1.49 1.763-2.346 2.618a42.087 42.087 0 0 1-3.3 2.946c-.128.054-.22.026-.274-.083-.036-.054-.054-.154-.054-.3-.036-.345.073-.663.327-.954.91-.765 2.065-1.892 3.466-3.383 1.127-1.22 2.255-2.5 3.383-3.846.272-.31.417-.55.435-.724.018-.172.064-.464.136-.873.074-.41.256-.877.547-1.404.4-.69.81-1.037 1.227-1.037.128 0 .255.037.383.11.29.163.436.436.436.818 0 .4-.164.89-.49 1.473a7.334 7.334 0 0 1-.71 1.036c-.128.146-.242.287-.34.423-.1.136-.15.378-.15.723 0 2.58-.106 4.6-.315 6.055-.21 1.455-.523 2.746-.94 3.874-.074.162-.11.298-.11.408 0 .127.063.19.19.19a.62.62 0 0 0 .22-.054c.09-.036.19-.072.3-.11.89-.38 1.98-1.1 3.272-2.154 1.037-.855 1.664-1.364 1.883-1.527.11-.02.18.1.218.354" fill="#C51B0E"/><g transform="translate(441 432.29)"><mask id="l" fill="#fff"><use xlink:href="#k"/></mask><path d="M11.698 1.558a89.476 89.476 0 0 0-.818 2.13 96.34 96.34 0 0 0-1.446 4.067c-.054.2-.082.356-.082.465 0 .255.21.382.627.382h.41c.654 0 1.025.018 1.117.055.11.054.146.218.11.49-.056.273-.15.455-.288.546-.136.092-.36.136-.67.136H9.08a.664.664 0 0 0-.56.27 2.78 2.78 0 0 0-.37.735c-.763 2.21-1.526 4.29-2.29 6.238-.764 1.947-1.52 3.88-2.264 5.8a2.54 2.54 0 0 0-.19.926c0 .398.163.597.49.597.218 0 .564-.137 1.036-.41.965-.6 1.993-1.318 3.082-2.155a216.47 216.47 0 0 0 2.565-1.99c.18-.055.272.063.272.354.018.09.028.21.028.354 0 .31-.1.52-.3.628-1.255 1.2-2.728 2.332-4.42 3.396-1.69 1.064-2.946 1.596-3.765 1.596-.29 0-.5-.064-.627-.19-.182-.183-.273-.456-.273-.82 0-.6.236-1.473.71-2.618.108-.255.41-.91.9-1.964.18-.382.273-.71.273-.982 0-.29-.11-.437-.328-.437-.237 0-.528.2-.873.6-.272.31-.763.78-1.473 1.418-.11.054-.2.054-.273 0-.07-.055-.107-.173-.107-.355s.036-.36.108-.532a1.76 1.76 0 0 1 .274-.45 92.2 92.2 0 0 0 1.91-1.908c.49-.51 1.082-1.164 1.773-1.965.31-.345.57-.704.778-1.077.21-.373.394-.787.558-1.24.346-.93.702-1.865 1.065-2.81.09-.237.137-.41.137-.52 0-.18-.116-.308-.342-.38-.227-.074-.65-.11-1.268-.11h-.79c-.493 0-.737-.133-.737-.4 0-.053.03-.164.094-.333.064-.17.14-.28.232-.333.092-.053.31-.08.654-.08h2.24c.236 0 .404-.04.504-.123.1-.08.206-.275.315-.584.453-1.288.918-2.558 1.39-3.81.473-1.25.928-2.295 1.364-3.13.09-.162.19-.334.3-.516.164-.182.355-.245.572-.19.2.054.3.29.3.71 0 .236-.02.41-.054.518" fill="#C51B0E" mask="url(#l)"/></g></g></svg>