<svg width="50rem" height="34rem" viewBox="0 0 500 340" xmlns="http://www.w3.org/2000/svg" xmlns:xlink="http://www.w3.org/1999/xlink"><title>Artboard 8</title><defs><path id="a" d="M0 .283h290.212V220.74H0"/><path id="c" d="M0 .283h290.212V220.74H0"/><path id="e" d="M0 .95h499.05v113.013H0V.95z"/></defs><g fill="none" fill-rule="evenodd"><path d="M295.785 171.7c-1.265 0-1.267 1.904 0 1.904 1.265 0 1.267-1.903 0-1.903M216.026 290.634c-.59 0-1.08.202-1.42.585a1.97 1.97 0 0 0-.48 1.318c0 .916.596 1.902 1.9 1.902 1.304 0 1.898-.988 1.898-1.904 0-.917-.594-1.902-1.898-1.902M242.612 112.71c-4.074.05-8.476.347-13.294.89-35.1 41.715-39.88 84.742-39.88 84.742 9.954-40.75 40.145-77.285 53.174-85.63M262.552 201.197c6.05-5.36 13.414-8.234 14.87-8.873 0 0 12.752-7.608 15.816.546 4.226-2.39 4.824-4.964 4.274-5.608-5.116-5.995-18.684-2.386-22.12 1.395l-12.84 12.54zM289.14 165.04c1.263 0 1.266-1.902 0-1.902s-1.27 1.903 0 1.903M291.64 200.79a7.926 7.926 0 0 0-1.552-2.34 6.288 6.288 0 0 0-2.882-1.758 6.693 6.693 0 0 0-.92-.183 7.59 7.59 0 0 0-.825-.07c-.54.012-1.103-.023-1.643.04-.546.043-1.098.102-1.63.21a13.79 13.79 0 0 0-1.594.345c-1.718.44-3.335 1.078-4.83 1.78l.046-.037c-.11.05-.208.078-.314.12-4.943 2.31-7.808 4.14-12.944 4.55.73 1.537 1.784 2.37 5.484 1.07.32-.098.673-.212 1.053-.337l.03.055c.174.302.395.665.668 1.07.252.422.595.848 1.012 1.28.408.44.86.91 1.36 1.386.536.44 1.135.863 1.75 1.31.634.415 1.365.734 2.075 1.095.73.323 1.525.547 2.292.802.806.134 1.59.375 2.39.404.4.03.793.056 1.183.082.39.004.775-.027 1.153-.04.757-.01 1.472-.2 2.15-.3.663-.183 1.297-.317 1.85-.542.568-.186 1.06-.43 1.497-.63.43-.218.8-.42 1.095-.6.295-.18.523-.334.678-.448.158-.11.226-.17.226-.17s-.35-.45-1.32-.076v-.003a14.07 14.07 0 0 1-2.503.808c-.532.154-1.13.21-1.748.316-.63.02-1.284.125-1.964.06-.338-.017-.682-.014-1.028-.045-.344-.05-.69-.104-1.042-.158-.703-.075-1.38-.357-2.072-.52-.66-.29-1.333-.53-1.96-.852-.606-.374-1.24-.656-1.8-1.04-.562-.38-1.1-.755-1.643-1.073a36.84 36.84 0 0 0-1.416-1.085c-.22-.17-.45-.314-.66-.462-.197-.164-.385-.318-.56-.465a18.42 18.42 0 0 0-.657-.512c.268-.094.54-.19.825-.294 1.426-.525 3.09-1.136 4.874-1.79.885-.313 1.79-.64 2.714-.932.92-.296 1.856-.58 2.788-.805.348-.09.694-.162 1.04-.232 1.706-.227 2.437.523 2.627 1.514a2.078 2.078 0 0 1-1.63 2.437c-.56.11-1.11-.02-1.548-.32.19 2.17 1.4 4.19 3.484 4.493 2.154.314 3.973-1.192 4.418-3.58.18-.962.22-1.93.075-2.894.096.11.2.214.292.324.884 1.126 1.525 2.256 2.012 3.03.233.394.445.7.592.9.15.203.247.295.247.295l-.08-.37c-.037-.243-.094-.6-.166-1.05-.15-.904-.357-2.228-1.05-3.76M297.378 228.452a6.902 6.902 0 0 1 1.275-1.2c.427-.32.84-.555 1.19-.725.347-.178.63-.306.826-.387l.298-.13c.017-.007.03-.025.026-.043a.04.04 0 0 0-.046-.032l-.323.06c-.21.037-.526.086-.91.21a7.8 7.8 0 0 0-1.37.535 6.095 6.095 0 0 0-1.613 1.103 5.885 5.885 0 0 0-1.388 1.93 5.678 5.678 0 0 0-.5 2.666c.048.953.322 1.958.915 2.823.566.867 1.473 1.61 2.547 1.91.545.146 1.063.217 1.657.16.324-.016.482-.07.72-.104.336-.077.52-.134.772-.218.944-.314 1.732-.805 2.474-1.245.744-.44 1.403-.917 2.05-1.303l.002-.002-.537.363s4.117.58 6.447-.768c0 0 .05-.05-.008-.15h.012c.03-.018.04-.05.024-.075 0 0-.06-.104-.197-.274a3.105 3.105 0 0 0-.717-.677 3.486 3.486 0 0 0-1.466-.568c-.614-.1-1.32-.048-2.04.125-1.438.357-2.9 1.16-4.363 1.953-.728.406-1.488.76-2.23 1.037-.166.063-.413.13-.514.16-.204.03-.484.102-.613.092-.304.036-.7-.008-1.026-.095a3.14 3.14 0 0 1-1.73-1.208 4.41 4.41 0 0 1-.808-2.054 4.952 4.952 0 0 1 .202-2.132c.22-.66.564-1.247.96-1.738M204.63 239.256a2.852 2.852 0 0 0 2.85 2.854 2.852 2.852 0 0 0 2.848-2.854 2.85 2.85 0 0 0-2.848-2.855 2.85 2.85 0 0 0-2.85 2.856M215.554 251.258a1.97 1.97 0 0 0-.478 1.318c0 .917.595 1.903 1.9 1.903 1.304 0 1.898-.99 1.898-1.906 0-.916-.594-1.9-1.9-1.9-.587 0-1.08.2-1.42.584M290.088 166.944c-1.265 0-1.267 1.903 0 1.903 1.265 0 1.267-1.903 0-1.903M189.438 268.75s-6.12-18.146-3.74-48.524c-6.01 23.877 3.74 48.524 3.74 48.524M292.937 170.75c-1.266 0-1.267 1.903 0 1.903 1.265 0 1.267-1.903 0-1.903M221.722 285.877c-1.305 0-1.9.988-1.9 1.903 0 .917.595 1.903 1.9 1.903 1.304 0 1.9-.988 1.9-1.905 0-.916-.596-1.9-1.9-1.9M224.57 280.168c-1.304 0-1.898.988-1.898 1.904 0 .916.594 1.902 1.9 1.902 1.304 0 1.898-.988 1.898-1.904 0-.917-.594-1.902-1.9-1.902" fill="#40465A"/><g transform="translate(120.123 109.856)"><mask id="b" fill="#fff"><use xlink:href="#a"/></mask><path d="M46.82 193.838c-1.06.27-2.118.124-3.037-.31a4.5 4.5 0 0 1 2.523-1.726 4.487 4.487 0 0 1 3.037.31 4.497 4.497 0 0 1-2.522 1.726m-2.08 6.04a4.526 4.526 0 0 1-1.72-2.533 4.53 4.53 0 0 1 .31-3.05 4.516 4.516 0 0 1 1.72 2.533 4.53 4.53 0 0 1-.31 3.05m-4.698-4.312c-1.06.27-2.12.123-3.038-.31a4.502 4.502 0 0 1 2.523-1.727 4.49 4.49 0 0 1 3.038.31 4.502 4.502 0 0 1-2.523 1.726M34.1 165.948a4.492 4.492 0 0 1 2.66-1.502 4.49 4.49 0 0 1 3.002.572 4.506 4.506 0 0 1-2.663 1.502 4.488 4.488 0 0 1-3-.572m-2.785-37.802a4.487 4.487 0 0 1 2.868-1.05 4.49 4.49 0 0 1 2.868 1.05 4.494 4.494 0 0 1-2.867 1.05 4.492 4.492 0 0 1-2.868-1.05m.826-67.997c.603.82.952 1.834.893 2.93a4.528 4.528 0 0 1-1.198 2.82 4.53 4.53 0 0 1-.892-2.933 4.525 4.525 0 0 1 1.198-2.818m-6.32-.973a4.488 4.488 0 0 1 2.92-.894 4.486 4.486 0 0 1 2.808 1.203 4.496 4.496 0 0 1-2.92.894 4.493 4.493 0 0 1-2.81-1.203m-7.164 90.062a4.488 4.488 0 0 1-2.87-1.052 4.49 4.49 0 0 1 2.87-1.05 4.49 4.49 0 0 1 2.868 1.05 4.488 4.488 0 0 1-2.868 1.05m-3.497 5.34a4.53 4.53 0 0 1-1.047-2.88 4.53 4.53 0 0 1 1.047-2.88 4.53 4.53 0 0 1 1.046 2.88 4.53 4.53 0 0 1-1.046 2.88m-6.366-6.39a4.49 4.49 0 0 1 2.87-1.05 4.49 4.49 0 0 1 2.868 1.05 4.49 4.49 0 0 1-2.87 1.05 4.49 4.49 0 0 1-2.867-1.05m2.24-41.696a4.49 4.49 0 0 1 2.87 1.05 4.492 4.492 0 0 1-2.87 1.05 4.495 4.495 0 0 1-2.868-1.05 4.492 4.492 0 0 1 2.87-1.05m3.496-5.34a4.53 4.53 0 0 1 1.046 2.88 4.53 4.53 0 0 1-1.046 2.88 4.53 4.53 0 0 1-1.047-2.88 4.53 4.53 0 0 1 1.048-2.88m-1.047 9.9c0-1.098.403-2.09 1.048-2.878a4.527 4.527 0 0 1 1.046 2.88 4.53 4.53 0 0 1-1.046 2.878 4.53 4.53 0 0 1-1.047-2.88m1.677 30.747a4.528 4.528 0 0 1 1.046 2.878 4.53 4.53 0 0 1-1.046 2.88 4.53 4.53 0 0 1-1.047-2.88c0-1.098.403-2.092 1.047-2.88m5.736-34.255a4.495 4.495 0 0 1-2.868 1.05 4.493 4.493 0 0 1-2.868-1.05 4.49 4.49 0 0 1 2.868-1.05c1.094 0 2.084.403 2.868 1.05M32.516 53.14c.6.82.95 1.833.892 2.93a4.535 4.535 0 0 1-1.2 2.82 4.528 4.528 0 0 1-.89-2.933 4.52 4.52 0 0 1 1.198-2.818m6.015 6.72a4.488 4.488 0 0 1-2.92.896 4.495 4.495 0 0 1-2.807-1.204 4.487 4.487 0 0 1 2.92-.894 4.49 4.49 0 0 1 2.808 1.202m1.298 25.42a4.516 4.516 0 0 1-1.433 2.705 4.532 4.532 0 0 1-.64-2.996 4.526 4.526 0 0 1 1.433-2.708c.53.87.79 1.91.64 2.997m2.09 2.775a4.5 4.5 0 0 1 2.695 1.438 4.48 4.48 0 0 1-2.985.643 4.496 4.496 0 0 1-2.697-1.438 4.486 4.486 0 0 1 2.987-.643m-.915 76.76a4.497 4.497 0 0 1 2.662-1.502 4.487 4.487 0 0 1 3 .572A4.497 4.497 0 0 1 44 165.387a4.49 4.49 0 0 1-2.998-.572m.605 22.676a4.52 4.52 0 0 1 1.72 2.533 4.533 4.533 0 0 1-.308 3.05 4.515 4.515 0 0 1-1.72-2.533 4.535 4.535 0 0 1 .307-3.05m-1.124-21.95a4.528 4.528 0 0 1 1.496 2.67 4.53 4.53 0 0 1-.57 3.012 4.52 4.52 0 0 1-1.497-2.67 4.533 4.533 0 0 1 .57-3.013m-1.13-6.928a4.52 4.52 0 0 1 1.497 2.67 4.534 4.534 0 0 1-.57 3.012 4.527 4.527 0 0 1-1.496-2.672 4.532 4.532 0 0 1 .57-3.01m-1.045-30.466a4.49 4.49 0 0 1 2.867-1.05 4.49 4.49 0 0 1 2.87 1.05 4.495 4.495 0 0 1-2.87 1.05 4.495 4.495 0 0 1-2.868-1.05m.416 3.51a4.53 4.53 0 0 1-1.046 2.88 4.53 4.53 0 0 1-1.046-2.88 4.53 4.53 0 0 1 1.046-2.88 4.53 4.53 0 0 1 1.046 2.88m-1.046-9.9a4.53 4.53 0 0 1 1.046 2.88 4.53 4.53 0 0 1-1.046 2.88 4.53 4.53 0 0 1-1.046-2.88c0-1.1.402-2.093 1.046-2.88m.542-32.52c.53.868.792 1.908.64 2.996a4.52 4.52 0 0 1-1.432 2.706 4.53 4.53 0 0 1-.64-2.996 4.528 4.528 0 0 1 1.432-2.707m-3.52-.068a4.495 4.495 0 0 1-2.697-1.438 4.486 4.486 0 0 1 2.985-.644 4.498 4.498 0 0 1 2.696 1.438 4.487 4.487 0 0 1-2.985.643M51.273 34.09c1.072.22 1.96.817 2.6 1.61-.9.474-1.95.67-3.02.45a4.493 4.493 0 0 1-2.6-1.61 4.486 4.486 0 0 1 3.02-.45m2.893-1.913a4.527 4.527 0 0 1 1.602-2.61c.473.9.67 1.956.448 3.03a4.518 4.518 0 0 1-1.602 2.61 4.537 4.537 0 0 1-.448-3.03m3.958 3.326a4.5 4.5 0 0 1 2.6 1.608 4.476 4.476 0 0 1-3.02.45 4.5 4.5 0 0 1-2.6-1.607 4.487 4.487 0 0 1 3.02-.45m-3.314 3.973a4.52 4.52 0 0 1-1.603 2.61 4.536 4.536 0 0 1-.448-3.033 4.52 4.52 0 0 1 1.6-2.61c.474.902.67 1.956.45 3.033m-3.4 108.527c-2.454-16.278-2.1-30.695-.79-41.977 5.85-54.33 23.505-87.183 45.284-100.54C17.466 7.574 0 118.897 0 136.502c0 17.606 1.948 27.794 18.193 32.9-.407-2.987-.49-6.053-.586-8.812 1.497 4.1 1.047 51.362 61.13 56.777-16.37-24.387-24.168-48.4-27.325-69.34a.43.43 0 0 1-.003-.022" fill="#40465A" mask="url(#b)"/></g><path d="M210.328 291.585c-.588 0-1.08.203-1.42.585a1.97 1.97 0 0 0-.48 1.32c0 .915.596 1.9 1.9 1.9 1.305 0 1.9-.987 1.9-1.903 0-.917-.595-1.902-1.9-1.902M224.57 267.8c.59 0 1.08-.204 1.42-.586.31-.347.48-.815.48-1.32 0-.915-.596-1.9-1.9-1.9-1.304 0-1.898.987-1.898 1.903 0 .917.594 1.902 1.898 1.902M291.987 156.478c1.265 0 1.267-1.903 0-1.903-1.265 0-1.267 1.903 0 1.903M290.088 160.283c1.265 0 1.267-1.902 0-1.902-1.265 0-1.267 1.903 0 1.903M221.723 256.38c-.59 0-1.08.205-1.422.587-.307.346-.477.814-.477 1.318 0 .917.595 1.902 1.9 1.902.588 0 1.08-.202 1.42-.585.31-.346.478-.815.478-1.318 0-.917-.593-1.903-1.897-1.903" fill="#40465A"/><g transform="translate(120.123 109.856)"><mask id="d" fill="#fff"><use xlink:href="#c"/></mask><path d="M175.193 49.28c.777 2.746 1.945 8.838 1.945 8.838-5.8-.377-1.945-8.84-1.945-8.84m-11.49-20.093c-.267.536-.77.856-1.414.897-1.16.052-1.78-.82-1.834-1.685-.055-.865.424-1.83 1.604-1.907.047-.002.093-.004.137-.004.585 0 1.072.25 1.378.713.38.57.43 1.37.127 1.985M153.61 30.44c-.048.002-.093.004-.14.004-1.09 0-1.64-.86-1.694-1.69-.055-.865.424-1.83 1.604-1.908.047-.002.093-.004.138-.004 1.09 0 1.643.86 1.695 1.69.055.865-.423 1.832-1.604 1.908m-7.73 2.876c-1.172.052-1.778-.82-1.833-1.685-.055-.865.424-1.83 1.605-1.907 1.168-.066 1.777.82 1.832 1.686.056.864-.424 1.83-1.604 1.906M139.3 38.7c-1.167.048-1.78-.82-1.834-1.684-.054-.867.424-1.833 1.605-1.908.048-.002.094-.004.14-.004 1.088 0 1.64.86 1.694 1.69.056.864-.423 1.83-1.604 1.906m-5.978 5.545a2.314 2.314 0 0 1-.138.005c-1.09 0-1.64-.86-1.695-1.69-.056-.865.423-1.832 1.604-1.907 1.157-.05 1.777.82 1.833 1.684.055.866-.424 1.832-1.605 1.908m-4.668 7.447c-.048.002-.093.004-.14.004-1.09 0-1.642-.86-1.695-1.69-.055-.866.423-1.83 1.605-1.907.046-.004.092-.006.138-.006 1.09 0 1.64.86 1.695 1.69.055.865-.425 1.832-1.604 1.908m-3.505 5.77c-.266.536-.768.855-1.413.897-.047 0-.094.003-.14.003-1.088 0-1.64-.86-1.694-1.69-.054-.865.424-1.83 1.604-1.906.047-.002.093-.005.137-.005.586 0 1.072.25 1.38.713.378.572.43 1.37.125 1.987m-6.934 7.405c-.047.002-.092.004-.138.004-1.09 0-1.642-.86-1.696-1.687-.054-.867.424-1.833 1.606-1.91 1.16-.05 1.777.82 1.833 1.686.056.864-.424 1.832-1.604 1.907m-6.593 5.186c-.663.03-1.185-.21-1.516-.71a2.06 2.06 0 0 1-.126-1.984c.266-.538.768-.857 1.414-.898 1.154-.07 1.777.818 1.833 1.684.056.865-.424 1.83-1.604 1.907m-7.21 4.83c-.047.002-.093.004-.138.004-1.09 0-1.64-.86-1.695-1.69-.055-.864.425-1.83 1.605-1.907.046-.002.092-.004.138-.004 1.09 0 1.643.86 1.695 1.69.055.865-.424 1.83-1.604 1.906m-8.307 3.112c-.667.03-1.186-.21-1.516-.708a2.056 2.056 0 0 1-.125-1.986c.265-.536.767-.856 1.413-.897.046-.002.092-.004.138-.004 1.09 0 1.642.857 1.695 1.688.056.865-.423 1.83-1.603 1.906m-5.5 71.69a.08.08 0 0 1 .1 0l.76.605c.227.22.502.487.817.795.283.33.63.69.95 1.122.67.847 1.364 1.902 2 3.09.65 1.18 1.23 2.5 1.722 3.86.47 1.363.856 2.765 1.06 4.13.09.685.15 1.363.12 2.015-.02.63-.122 1.28-.27 1.81a7.562 7.562 0 0 1-1.135 2.44c-.377.523-.65.767-.65.767a.086.086 0 0 1-.122-.004.092.092 0 0 1-.02-.082l.27-.934c.155-.587.33-1.42.412-2.407.028-.51.042-1.002.01-1.584-.057-.558-.1-1.155-.214-1.775-.112-.62-.225-1.268-.386-1.92-.155-.652-.354-1.308-.547-1.966-.393-1.318-.896-2.6-1.394-3.795-.246-.6-.526-1.157-.775-1.696a28.572 28.572 0 0 0-.78-1.48 21.91 21.91 0 0 0-1.343-2.115l-.6-.768a.08.08 0 0 1 .014-.114m84.527-4.96c-.012.004 2.54-.233 5.77-1.392.735-.262 3.35.233 2.918 5.196-.354 4.086-3.586 3.214-4.562 5.898-.463 1.272-.592 2.185-.842 6.695-.464 8.374-8.183 10.716-12.386 10.247-4.695-.523-9.893-1.19-15.228-1.666-9.175-1.41-23.236-5.003-36.52-15.284 0 0 4.988 7.73 19.092 14.87h-.004c1.402.694.96 2.56.216 3.806-6.492 10.43-11.59 29.173 16.37 47.647 0 0 6.057-31.777 39.9-23.013 21.14 5.475 23.102-7.877 21.377-14.37-2.177-8.194 6.13-12.074 6.955-23.68.512-7.215-3.902-13.1 4.863-14.422 6.59-.92 9.096-3.157 9.096-6.286 0-11.526-14.888-21.796-14.888-34.242-.1-1.74 1.01-4.385 1.465-8.084 17.47 4.006 36.158 9.807 58.14 18.492 7.492 3.37 15.392 5.478 12.87-4.656-1.863-7.482-9.547-43.744-66.848-60.982v-.008c-5.14-1.556-14.175-3.628-14.175-3.628s3.822-.354 12.33 1.182l-.01-.007c1.085.2 1.877-.237 1.886-1.72.038-11.057-.37-13.763-.37-13.763s-1.015-21.583-22.71-27.93c-12.627-3.695-37.344-5.1-62.01-.14 7.94 2.16 13.902 5.19 14.847 6.037l.045.042c.044.038.077.07.103.094l.032.028.02.02.016.014c-.118.048-.235.103-.352.152-.735.307-1.47.62-2.203.947-.28.126-.56.262-.84.39-.57.262-1.142.52-1.71.795-.28.133-.555.277-.833.414-.57.28-1.14.56-1.708.853-.26.132-.517.275-.776.41-.584.31-1.168.616-1.75.936-.236.13-.47.268-.705.4-.602.34-1.204.678-1.804 1.032-.21.122-.417.252-.627.377-.623.372-1.247.747-1.866 1.134-.184.114-.366.236-.55.352-.642.407-1.283.817-1.92 1.24-.162.108-.322.22-.483.328-.656.442-1.31.886-1.96 1.345-.143.1-.283.203-.424.304-.67.475-1.336.956-2 1.45-.118.09-.238.182-.357.27-.682.513-1.36 1.032-2.033 1.56l-.31.25a109.41 109.41 0 0 0-2.048 1.66c-.092.077-.182.156-.274.23-.688.578-1.372 1.163-2.052 1.76l-.237.21c-.687.608-1.37 1.223-2.047 1.85l-.223.21c-.678.63-1.352 1.27-2.02 1.924l-.222.22c-.665.654-1.326 1.316-1.98 1.99l-.22.23c-.65.673-1.296 1.356-1.936 2.05-9.608 10.428-17.863 23.147-23.99 37.944l.182-.52c-.37.884-.72 1.785-1.075 2.683-.096.243-.195.48-.29.722a141.51 141.51 0 0 0-1.787 4.885c-.143.412-.276.832-.416 1.248a144 144 0 0 0-1.19 3.715c-.178.58-.354 1.163-.526 1.75-.096.33-.2.65-.294.982l.113-.324c-2.163 7.532-3.798 15.507-4.826 23.912l-.018-.01s-.2 1.663-.44 4.173c-.03.303-.073.598-.1.903l.013.014c-.36 3.92-.767 9.436-.728 14.053l.02.032c-.046 4.942.096 10 .464 15.187.04-.01.073-.023.11-.034-.033.042-.07.08-.102.12.716 10.02 2.23 20.494 4.65 31.4 1.204.318 2.462.503 3.766.503 8.226 0 14.918-6.717 14.918-14.974 0-5.58-3.49-15.03-8.503-19.664-1.416-1.31-2.85-2.14-4.29-2.514 7.606-5.775 9.25-13.113 9.25-13.113-8.09 6.66-14.318 6.125-18.207 2.61-.017-4.483.397-8.676.826-11.81 1.225.767 2.57 1.225 4.03 1.225 17.865 0 20.262-30.382 46.03-44.047 21.83-11.578 26.48-40.637 37.34-40.637 1.23-.006 2.345 1.11 3.416 3.707.493 1.467.954 2.938 1.386 4.405-4.326 8.732-3.817 14.717 3.44 15.345.285 1.857.503 3.645.67 5.37-2.377 2.933-2.817 6.252.357 6.993-.047 2.863-.335 10.043-.38 10.863-1.29 13.73 19.318 27.98 18.217 35.162-1.69 10.09-12.48 4.962-12.37 11.894-.072 1.294.703 3.598 1.213 4.992l-.07-.012c-4.79-.472-11.607 6.34-17.687 6.104-.82-.39 1.426-3.32.952-2.78-1.3 1.477-2.25 2.693-2.078 4.692" fill="#40465A" mask="url(#d)"/></g><path d="M226.47 271.605c-.59 0-1.08.202-1.422.585-.31.346-.477.814-.477 1.32 0 .915.595 1.9 1.9 1.9s1.9-.987 1.9-1.903c0-.917-.595-1.902-1.9-1.902" fill="#40465A"/><g><path d="M22.412 60.508l9.04 15.218-16.604 10.078-9.04-15.22L0 74.106l23.11 38.906 5.81-3.524L18.13 91.32l16.604-10.078 10.79 18.168 5.81-3.524-23.11-38.906-5.81 3.526zM49.882 46.07l11.083 24.774c1.582 3.535 3.31 5.857 5.188 6.97 2.765 1.587 5.698 1.674 8.797.263 3.12-1.418 5.004-3.694 5.655-6.836.44-2.098-.144-4.94-1.75-8.53L67.773 37.936l6.156-2.798 11.846 26.477c1.938 4.332 2.195 8.51.775 12.534-1.614 4.496-4.613 7.74-9.002 9.735-4.386 1.994-8.776 2.11-13.17.346-3.93-1.59-6.87-4.548-8.807-8.884L43.727 48.87l6.156-2.8zM103.827 72.177l-14.473-45.82 40.982 22.638-9.42-29.812 6.34-2.09 14.38 45.514-40.955-22.554 9.488 30.035-6.34 2.09zM156.497 16.032l8.165 37.587-6.485 1.462-8.165-37.587-9.88 2.23-1.35-6.213L165 7.598l1.35 6.212-9.853 2.222zM201.872 9.095l-17.57 2.514 1.5 10.576 17.058-2.438.883 6.244-17.057 2.438 2.088 14.713 17.565-2.513.884 6.246-24.18 3.458-6.238-44.025 24.18-3.46.886 6.245z" fill="#40465A"/><mask id="f" fill="#fff"><use xlink:href="#e"/></mask><path d="M223.646 21.78l2.135-.123c6.366-.36 9.41-2.998 9.14-7.925-.255-4.61-3.478-6.742-9.67-6.392l-2.392.137.788 14.303zm8.65 4.694l14.852 18.428-8.222.464-13.74-17.73-1.213.07 1.018 18.447-6.72.382-2.49-45.073 7.877-.444c5.884-.33 10.196.545 12.933 2.636 3.023 2.328 4.648 5.534 4.873 9.62.177 3.193-.574 5.988-2.256 8.385-1.68 2.4-3.985 4.003-6.91 4.814zM292.4 16.71l.577-.354a48.63 48.63 0 0 0 2.468-1.653c.65-.477 1.125-.885 1.424-1.226.63-.66.992-1.512 1.084-2.55.102-1.178-.203-2.164-.914-2.967-.714-.804-1.724-1.265-3.033-1.383-1.196-.108-2.233.177-3.112.853-.88.64-1.366 1.517-1.464 2.634-.117 1.31.282 2.646 1.195 4.01l1.47 2.173c.05.102.15.255.304.464zm-2.173 8.394l-.392.226c-2.88 1.66-4.862 3.024-5.95 4.09-1.07 1.068-1.66 2.247-1.775 3.537-.16 1.85.42 3.61 1.744 5.284 1.385 1.62 2.99 2.514 4.81 2.68 2.558.23 5.657-1.205 9.294-4.31l-7.73-11.506zm5.593-3.307l7.054 10.424.282-.265a95.957 95.957 0 0 0 2.66-2.553 71.528 71.528 0 0 0 2.433-2.547l3.924 4.9c-.598.723-1.373 1.554-2.326 2.496a146.9 146.9 0 0 1-3.397 3.246l7.238 10.938-8.246-.75-3.9-5.857c-4.39 3.852-8.757 5.583-13.1 5.19-3.888-.356-7.076-1.916-9.563-4.685-2.434-2.783-3.484-6.044-3.156-9.78.392-4.45 2.82-7.955 7.29-10.52l3.05-1.733a1.59 1.59 0 0 0 .21-.127c.102-.07.246-.162.427-.28-2.624-3.404-3.802-6.627-3.533-9.67.264-3.003 1.446-5.364 3.545-7.075 2.14-1.708 4.76-2.42 7.87-2.138 3.016.274 5.427 1.416 7.238 3.424 1.81 2.008 2.595 4.408 2.35 7.2-.172 1.927-.864 3.62-2.083 5.083-1.198 1.463-3.287 3.156-6.267 5.08zM368.092 41.484l-2.816-16.362-10.253 13.143 13.07 3.22zm1.16 6.82l-18.417-4.535-7.34 9.38-6.993-1.722 32.43-40.98 9.395 51.282-7.105-1.75-1.97-11.676zM400.514 43.228l2 .685c2.375.81 4.29.876 5.753.198 1.46-.677 2.54-2.042 3.236-4.1.674-2.002.623-3.714-.16-5.138-.78-1.423-2.247-2.505-4.403-3.24l-2.246-.767-4.18 12.363zm-6.16 18.23l3.943 1.348c2.885.985 5.195 1.138 6.93.465 1.842-.744 3.08-2.06 3.718-3.953.62-1.834.458-3.612-.488-5.327-.918-1.685-3.093-3.116-6.526-4.288l-3.23-1.104-4.346 12.86zm-8.422 3.85l14.372-42.515 6.356 2.17c2.83.968 5.01 1.957 6.54 2.972 1.548 1.02 2.733 2.254 3.546 3.7.82 1.488 1.307 3.16 1.452 5.013.16 1.878-.044 3.65-.605 5.32-1.03 3.05-3.062 5.23-6.095 6.55 1.985 1.538 3.3 3.49 3.944 5.863.67 2.36.577 4.806-.28 7.337-1.124 3.323-3.24 5.732-6.354 7.23-1.885.933-3.795 1.374-5.734 1.327-2.098-.122-4.59-.678-7.474-1.663l-9.668-3.3zM438.02 54.838l17.548 7.702 6.926-16.056 6.137 2.696-17.7 41.04-6.14-2.695 8.268-19.166-17.55-7.7-8.266 19.163-6.14-2.694 17.702-41.042 6.14 2.694-6.924 16.056zM490.424 91.665l1.38-16.617-13.268 10.132 11.888 6.485zm-.59 6.924l-16.755-9.14-9.49 7.228-6.366-3.473L499.05 61.73l-3.774 52.233-6.463-3.524 1.02-11.85z" fill="#40465A" mask="url(#f)"/></g></g></svg>